<svg width="28" height="20" viewBox="0 0 28 20" fill="none" xmlns="http://www.w3.org/2000/svg">
<path d="M23.7187 1.67497C21.9061 0.89249 19.9681 0.323786 17.9421 0C17.6932 0.41511 17.4025 0.973432 17.2021 1.4176C15.0482 1.11872 12.9142 1.11872 10.8 1.4176C10.5996 0.973432 10.3023 0.41511 10.0513 0C8.02293 0.323786 6.08271 0.894565 4.27023 1.67912C0.614418 6.77668 -0.376613 11.7477 0.118903 16.648C2.54363 18.3188 4.89347 19.3337 7.20367 19.9979C7.77407 19.2736 8.2828 18.5036 8.72106 17.692C7.88639 17.3993 7.08696 17.0382 6.33156 16.6189C6.53197 16.482 6.72798 16.3387 6.91738 16.1914C11.5246 18.1797 16.5304 18.1797 21.0826 16.1914C21.2741 16.3387 21.4701 16.482 21.6683 16.6189C20.9107 17.0402 20.1091 17.4014 19.2744 17.6941C19.7127 18.5036 20.2192 19.2757 20.7918 20C23.1042 19.3358 25.4563 18.3209 27.881 16.648C28.4624 10.9672 26.8878 6.04193 23.7187 1.67497ZM9.34871 13.6343C7.96567 13.6343 6.83149 12.4429 6.83149 10.9922C6.83149 9.54132 7.94144 8.34791 9.34871 8.34791C10.756 8.34791 11.8901 9.53924 11.8659 10.9922C11.8682 12.4429 10.756 13.6343 9.34871 13.6343ZM18.6512 13.6343C17.2682 13.6343 16.1339 12.4429 16.1339 10.9922C16.1339 9.54132 17.2439 8.34791 18.6512 8.34791C20.0584 8.34791 21.1926 9.53924 21.1684 10.9922C21.1684 12.4429 20.0584 13.6343 18.6512 13.6343Z" fill="#4F4C67"/>
</svg>
