<svg width="28" height="23" viewBox="0 0 28 23" fill="none" xmlns="http://www.w3.org/2000/svg">
<path d="M8.78874 23C5.55374 23 2.53817 22.0591 0 20.4356C2.15499 20.5751 5.95807 20.2411 8.32358 17.9848C4.76508 17.8215 3.16026 15.0923 2.95094 13.926C3.25329 14.0426 4.6953 14.1826 5.50934 13.856C1.4159 12.8296 0.787928 9.23732 0.927477 8.14097C1.695 8.67749 2.99745 8.8641 3.50913 8.81744C-0.305207 6.08823 1.06703 1.98276 1.74151 1.09635C4.47882 4.88867 8.5812 7.01857 13.6564 7.13704C13.5607 6.71736 13.5102 6.28042 13.5102 5.83164C13.5102 2.61092 16.1134 0 19.3247 0C21.0025 0 22.5144 0.712754 23.5757 1.85284C24.6969 1.59011 26.3843 0.975068 27.2092 0.443205C26.7934 1.93611 25.4989 3.18149 24.7159 3.64308C24.7224 3.65878 24.7095 3.62731 24.7159 3.64308C25.4037 3.53904 27.2648 3.18137 28 2.68256C27.6364 3.52125 26.264 4.91573 25.1377 5.69642C25.3473 14.9381 18.2765 23 8.78874 23Z" fill="#4F4C67"/>
</svg>
