<svg width="12" height="12" viewBox="0 0 12 12" fill="none" xmlns="http://www.w3.org/2000/svg">
    <path fill-rule="evenodd" clip-rule="evenodd" d="M12 3.375a.75.75 0 0 0-.752-.75h-.563a.188.188 0 0 1-.188-.188V.75A.75.75 0 0 0 9.745 0H1.503C.663 0-.014.687 0 1.525l.138 8.25a1.502 1.502 0 0 0 1.503 1.475h9.607A.75.75 0 0 0 12 10.5V3.375zM.726 1.687c0-.517.42-.937.94-.937h7.891c.104 0 .188.083.188.188v1.5a.188.188 0 0 1-.188.187H1.666a.939.939 0 0 1-.94-.938zm9.208 6.188a.938.938 0 1 0 .002-1.877.938.938 0 0 0-.002 1.877z" fill="#fff"/>
</svg>
