<svg width="16" height="16" viewBox="0 0 16 16" fill="none" xmlns="http://www.w3.org/2000/svg">
    <path fill-rule="evenodd" clip-rule="evenodd" d="M16 4.5c0-.552-.449-1-1.002-1h-.752a.25.25 0 0 1-.25-.25V1c0-.552-.449-1-1.002-1H2.004C.884 0-.018.916 0 2.033l.184 11A2.002 2.002 0 0 0 2.188 15h12.81C15.55 15 16 14.552 16 14V4.5zM.968 2.25C.968 1.56 1.53 1 2.221 1h10.522a.25.25 0 0 1 .25.25v2a.25.25 0 0 1-.25.25H2.221C1.53 3.5.968 2.94.968 2.25zm12.277 8.25c.692 0 1.252-.56 1.252-1.25S13.937 8 13.245 8s-1.253.56-1.253 1.25.56 1.25 1.253 1.25z" fill="#000"/>
</svg>
