<svg width="33" height="32" viewBox="0 0 33 32" fill="none" xmlns="http://www.w3.org/2000/svg">
<circle cx="16.5" cy="16" r="16" fill="#0364FF"/>
<path fill-rule="evenodd" clip-rule="evenodd" d="M11.2186 9.49219C10.4539 9.49219 9.83398 10.1121 9.83398 10.8768V12.4898C9.83398 13.2545 10.4539 13.8744 11.2186 13.8744H13.6684V22.8976C13.6684 23.6623 14.2883 24.2822 15.053 24.2822H16.666C17.4307 24.2822 18.0506 23.6623 18.0506 22.8976V12.5015C18.0506 12.4976 18.0506 12.4937 18.0506 12.4898V10.8768C18.0506 10.1121 17.4307 9.49219 16.666 9.49219H15.053H11.2186Z" fill="white"/>
<path d="M21.3376 13.8744C22.5477 13.8744 23.5287 12.8934 23.5287 11.6833C23.5287 10.4732 22.5477 9.49219 21.3376 9.49219C20.1275 9.49219 19.1465 10.4732 19.1465 11.6833C19.1465 12.8934 20.1275 13.8744 21.3376 13.8744Z" fill="white"/>
</svg>
