<svg id="Layer_3" data-name="Layer 3" xmlns="http://www.w3.org/2000/svg" xmlns:xlink="http://www.w3.org/1999/xlink" viewBox="0 0 1080 1080">
  <defs>
    <style>
      .cls-1 {
        font-size: 91.08px;
        fill: #fff;
        font-family: Arial-BoldMT, Arial;
        font-weight: 700;
      }

      .cls-2 {
        fill: url(#radial-gradient);
      }
    </style>
    <radialGradient id="radial-gradient" cx="292.27" cy="561.26" r="157.07" gradientUnits="userSpaceOnUse">
      <stop offset="0" stop-color="#6b57ec"/>
      <stop offset="1" stop-color="#a793ff"/>
    </radialGradient>
  </defs>
  <rect width="1080" height="500"/>
  <g>
    <text class="cls-1" transform="translate(501.68 300.59)">OpenBook</text>
    <path class="cls-2" d="M401.74,490.66c-.09.33-.51.54-.95.64a60.79,60.79,0,0,0-15.32-2.08c-23.56,0-40.08,17.72-57.57,34.75L326,525.84c-1.11,1-2.22,2.09-3.36,3.18-7,6.69-14.95,14.27-23.94,16.33a2.06,2.06,0,0,1-2.5-1.54,1.71,1.71,0,0,1,1.4-1.53c9.37-2.13,17.3-12.39,26.48-24.27,10.67-13.83,22.77-31.13,38.9-34.58a55.54,55.54,0,0,1,12.08-1.31c9.76,0,19,2.49,26.12,7A1.89,1.89,0,0,1,401.74,490.66Zm34.83,33.06c-3-7.86-9-14.36-17.3-18.8a56.72,56.72,0,0,0-26.3-6.28,51.22,51.22,0,0,0-17.59,2.94l-.07,0-.07,0c-13.84,4.13-27.88,15.82-41.45,27.14-12.66,10.55-24.61,20.51-35.14,23a3.38,3.38,0,0,0-2.43,3.38,3.3,3.3,0,0,0,3.09,3.46,2.5,2.5,0,0,0,.72-.1c10.71-2.81,23-11.64,32.92-18.73,3.54-2.55,6.61-4.75,9.26-6.42,12.57-8.63,32.14-18.89,54.05-18.89a61.48,61.48,0,0,1,33.2,9.44l.21.15c2.25,1.67,4.6,2.75,6,2.75.16,0,.54,0,.66-.17S436.77,525.93,436.57,523.72Zm0,0c-3-7.86-9-14.36-17.3-18.8a56.72,56.72,0,0,0-26.3-6.28,51.22,51.22,0,0,0-17.59,2.94l-.07,0-.07,0c-13.84,4.13-27.88,15.82-41.45,27.14-12.66,10.55-24.61,20.51-35.14,23a3.38,3.38,0,0,0-2.43,3.38,3.3,3.3,0,0,0,3.09,3.46,2.5,2.5,0,0,0,.72-.1c10.71-2.81,23-11.64,32.92-18.73,3.54-2.55,6.61-4.75,9.26-6.42,12.57-8.63,32.14-18.89,54.05-18.89a61.48,61.48,0,0,1,33.2,9.44l.21.15c2.25,1.67,4.6,2.75,6,2.75.16,0,.54,0,.66-.17S436.77,525.93,436.57,523.72Zm4,17.32c-13.76-8.32-30.94-13.68-43.76-13.68h-.26c-.81,0-1.63,0-2.44,0-25.6,0-49.07,13.51-71.76,26.57l-1,.56c-6.79,3.89-14.66,8.16-22.11,9.72a4.07,4.07,0,0,0-3.07,4.06,4.4,4.4,0,0,0,1.08,2.92,3.41,3.41,0,0,0,2.54,1.2,3.55,3.55,0,0,0,.46,0c10.32-1.45,20.65-6.14,31.59-11.11,15.61-7.09,33.3-15.12,54.7-15.12,24.69,0,50.51,10.72,78.92,32.78a1.61,1.61,0,0,0,.84.33c.6,0,1.36-1.19,1.52-2.79C466,558.87,450,546.72,440.6,541Zm0,0c-13.76-8.32-30.94-13.68-43.76-13.68h-.26c-.81,0-1.63,0-2.44,0-25.6,0-49.07,13.51-71.76,26.57l-1,.56c-6.79,3.89-14.66,8.16-22.11,9.72a4.07,4.07,0,0,0-3.07,4.06,4.4,4.4,0,0,0,1.08,2.92,3.41,3.41,0,0,0,2.54,1.2,3.55,3.55,0,0,0,.46,0c10.32-1.45,20.65-6.14,31.59-11.11,15.61-7.09,33.3-15.12,54.7-15.12,24.69,0,50.51,10.72,78.92,32.78a1.61,1.61,0,0,0,.84.33c.6,0,1.36-1.19,1.52-2.79C466,558.87,450,546.72,440.6,541ZM184,490.66c.09.33.51.54.95.64a60.79,60.79,0,0,1,15.32-2.08c23.56,0,40.07,17.72,57.56,34.75l1.92,1.87c1.1,1,2.22,2.09,3.36,3.18,7,6.69,14.95,14.27,23.94,16.33a2.06,2.06,0,0,0,2.5-1.54,1.71,1.71,0,0,0-1.4-1.53c-9.38-2.13-17.3-12.39-26.48-24.27-10.67-13.83-22.78-31.13-38.9-34.58a55.54,55.54,0,0,0-12.08-1.31c-9.76,0-19,2.49-26.13,7A1.88,1.88,0,0,0,184,490.66Zm-34.56,35.93c.12.15.5.17.66.17,1.37,0,3.72-1.08,6-2.75l.21-.15a61.47,61.47,0,0,1,33.19-9.44c21.92,0,41.49,10.26,54.06,18.89,2.65,1.67,5.71,3.87,9.26,6.42,9.89,7.09,22.21,15.92,32.91,18.73a2.62,2.62,0,0,0,.73.1,3.29,3.29,0,0,0,3.08-3.46,3.37,3.37,0,0,0-2.42-3.38c-10.54-2.44-22.49-12.4-35.14-23-13.58-11.32-27.61-23-41.46-27.14l-.07,0-.06,0a51.22,51.22,0,0,0-17.59-2.94,56.72,56.72,0,0,0-26.3,6.28c-8.32,4.44-14.3,10.94-17.3,18.8C149,525.93,149.38,526.52,149.43,526.59Zm0,0c.12.15.5.17.66.17,1.37,0,3.72-1.08,6-2.75l.21-.15a61.47,61.47,0,0,1,33.19-9.44c21.92,0,41.49,10.26,54.06,18.89,2.65,1.67,5.71,3.87,9.26,6.42,9.89,7.09,22.21,15.92,32.91,18.73a2.62,2.62,0,0,0,.73.1,3.29,3.29,0,0,0,3.08-3.46,3.37,3.37,0,0,0-2.42-3.38c-10.54-2.44-22.49-12.4-35.14-23-13.58-11.32-27.61-23-41.46-27.14l-.07,0-.06,0a51.22,51.22,0,0,0-17.59-2.94,56.72,56.72,0,0,0-26.3,6.28c-8.32,4.44-14.3,10.94-17.3,18.8C149,525.93,149.38,526.52,149.43,526.59ZM117.86,576.4c.16,1.6.92,2.79,1.51,2.79a1.61,1.61,0,0,0,.84-.33c28.42-22.06,54.23-32.78,78.92-32.78,21.41,0,39.1,8,54.71,15.12,10.94,5,21.27,9.66,31.59,11.11a3.55,3.55,0,0,0,.46,0,3.42,3.42,0,0,0,2.54-1.2,4.39,4.39,0,0,0,1.07-2.92,4.07,4.07,0,0,0-3.07-4.06c-7.44-1.56-15.32-5.83-22.1-9.72l-1-.56c-22.7-13.06-46.17-26.57-71.76-26.57-.82,0-1.64,0-2.44,0h-.26c-12.83,0-30,5.36-43.76,13.68C135.72,546.72,119.68,558.87,117.86,576.4Zm0,0c.16,1.6.92,2.79,1.51,2.79a1.61,1.61,0,0,0,.84-.33c28.42-22.06,54.23-32.78,78.92-32.78,21.41,0,39.1,8,54.71,15.12,10.94,5,21.27,9.66,31.59,11.11a3.55,3.55,0,0,0,.46,0,3.42,3.42,0,0,0,2.54-1.2,4.39,4.39,0,0,0,1.07-2.92,4.07,4.07,0,0,0-3.07-4.06c-7.44-1.56-15.32-5.83-22.1-9.72l-1-.56c-22.7-13.06-46.17-26.57-71.76-26.57-.82,0-1.64,0-2.44,0h-.26c-12.83,0-30,5.36-43.76,13.68C135.72,546.72,119.68,558.87,117.86,576.4Z"/>
  </g>
</svg>
