<svg id="Layer_3" data-name="Layer 3" xmlns="http://www.w3.org/2000/svg" xmlns:xlink="http://www.w3.org/1999/xlink" viewBox="0 0 1080 1080">
  <defs>
    <style>
      .cls-1 {
        fill: url(#radial-gradient);
      }
    </style>
    <radialGradient id="radial-gradient" cx="538.87" cy="598.34" r="299.43" gradientUnits="userSpaceOnUse">
      <stop offset="0" stop-color="#6b57ec"/>
      <stop offset="1" stop-color="#a793ff"/>
    </radialGradient>
  </defs>
  <rect width="1080" height="1080"/>
  <path class="cls-1" d="M747.55,463.74c-.17.65-1,1-1.8,1.24a115.57,115.57,0,0,0-29.22-4c-44.91,0-76.39,33.78-109.73,66.24l-3.65,3.56c-2.11,2-4.24,4-6.41,6.07-13.36,12.75-28.5,27.21-45.63,31.13a3.8,3.8,0,0,1-1,.12c-2,0-3.78-1.42-3.78-3a3.26,3.26,0,0,1,2.68-2.92c17.87-4.07,33-23.63,50.48-46.28,20.35-26.35,43.42-59.33,74.15-65.9a105.9,105.9,0,0,1,23-2.51c18.6,0,36.26,4.74,49.8,13.33A3.56,3.56,0,0,1,747.55,463.74Zm66.41,63c-5.72-15-17.12-27.36-33-35.84-14.45-7.72-32.25-12-50.13-12a97.42,97.42,0,0,0-33.54,5.61l-.12.05-.14,0c-26.38,7.87-53.14,30.17-79,51.74-24.13,20.11-46.91,39.11-67,43.76a6.44,6.44,0,0,0-4.62,6.43c0,3.64,2.64,6.6,5.89,6.6a5,5,0,0,0,1.38-.19c20.4-5.36,43.88-22.19,62.75-35.71,6.75-4.85,12.6-9,17.65-12.24,24-16.44,61.27-36,103-36a117.16,117.16,0,0,1,63.28,18,3.39,3.39,0,0,1,.39.27c4.3,3.19,8.77,5.25,11.4,5.25.29,0,1,0,1.25-.33C813.54,532.12,814.34,531,814,526.77Zm0,0c-5.72-15-17.12-27.36-33-35.84-14.45-7.72-32.25-12-50.13-12a97.42,97.42,0,0,0-33.54,5.61l-.12.05-.14,0c-26.38,7.87-53.14,30.17-79,51.74-24.13,20.11-46.91,39.11-67,43.76a6.44,6.44,0,0,0-4.62,6.43c0,3.64,2.64,6.6,5.89,6.6a5,5,0,0,0,1.38-.19c20.4-5.36,43.88-22.19,62.75-35.71,6.75-4.85,12.6-9,17.65-12.24,24-16.44,61.27-36,103-36a117.16,117.16,0,0,1,63.28,18,3.39,3.39,0,0,1,.39.27c4.3,3.19,8.77,5.25,11.4,5.25.29,0,1,0,1.25-.33C813.54,532.12,814.34,531,814,526.77Zm7.68,33c-26.22-15.85-59-26.08-83.43-26.08h-.49c-1.53-.05-3.1-.07-4.66-.07-48.79,0-93.53,25.75-136.79,50.65l-1.87,1.07c-12.94,7.4-27.94,15.54-42.14,18.53a7.73,7.73,0,0,0-5.86,7.73,8.38,8.38,0,0,0,2.06,5.57,6.5,6.5,0,0,0,4.84,2.28,6.36,6.36,0,0,0,.87-.06c19.68-2.76,39.37-11.7,60.23-21.17,29.75-13.52,63.48-28.83,104.28-28.83,47.07,0,96.28,20.44,150.46,62.5a3.13,3.13,0,0,0,1.6.63c1.12,0,2.58-2.27,2.89-5.33C870.15,593.78,839.57,570.62,821.64,559.79Zm0,0c-26.22-15.85-59-26.08-83.43-26.08h-.49c-1.53-.05-3.1-.07-4.66-.07-48.79,0-93.53,25.75-136.79,50.65l-1.87,1.07c-12.94,7.4-27.94,15.54-42.14,18.53a7.73,7.73,0,0,0-5.86,7.73,8.38,8.38,0,0,0,2.06,5.57,6.5,6.5,0,0,0,4.84,2.28,6.36,6.36,0,0,0,.87-.06c19.68-2.76,39.37-11.7,60.23-21.17,29.75-13.52,63.48-28.83,104.28-28.83,47.07,0,96.28,20.44,150.46,62.5a3.13,3.13,0,0,0,1.6.63c1.12,0,2.58-2.27,2.89-5.33C870.15,593.78,839.57,570.62,821.64,559.79Zm-489.19-96c.17.65,1,1,1.8,1.24a115.57,115.57,0,0,1,29.22-4c44.91,0,76.39,33.78,109.73,66.24l3.65,3.56c2.11,2,4.24,4,6.41,6.07,13.36,12.75,28.5,27.21,45.63,31.13a3.8,3.8,0,0,0,1,.12c2,0,3.78-1.42,3.78-3a3.26,3.26,0,0,0-2.68-2.92c-17.87-4.07-33-23.63-50.48-46.28-20.35-26.35-43.42-59.33-74.15-65.9a105.9,105.9,0,0,0-23-2.51c-18.6,0-36.26,4.74-49.8,13.33A3.56,3.56,0,0,0,332.45,463.74Zm-65.89,68.5c.23.3,1,.33,1.25.33,2.63,0,7.1-2.06,11.4-5.25a3.39,3.39,0,0,1,.39-.27,117.16,117.16,0,0,1,63.28-18c41.78,0,79.09,19.57,103.05,36,5.05,3.2,10.9,7.39,17.65,12.24,18.87,13.52,42.35,30.35,62.75,35.71a5,5,0,0,0,1.38.19c3.25,0,5.89-3,5.89-6.6a6.44,6.44,0,0,0-4.62-6.43c-20.09-4.65-42.87-23.65-67-43.76-25.88-21.57-52.64-43.87-79-51.74l-.14,0-.12-.05A97.42,97.42,0,0,0,349.16,479c-17.88,0-35.68,4.25-50.13,12-15.87,8.48-27.27,20.87-33,35.84C265.66,531,266.46,532.12,266.56,532.24Zm0,0c.23.3,1,.33,1.25.33,2.63,0,7.1-2.06,11.4-5.25a3.39,3.39,0,0,1,.39-.27,117.16,117.16,0,0,1,63.28-18c41.78,0,79.09,19.57,103.05,36,5.05,3.2,10.9,7.39,17.65,12.24,18.87,13.52,42.35,30.35,62.75,35.71a5,5,0,0,0,1.38.19c3.25,0,5.89-3,5.89-6.6a6.44,6.44,0,0,0-4.62-6.43c-20.09-4.65-42.87-23.65-67-43.76-25.88-21.57-52.64-43.87-79-51.74l-.14,0-.12-.05A97.42,97.42,0,0,0,349.16,479c-17.88,0-35.68,4.25-50.13,12-15.87,8.48-27.27,20.87-33,35.84C265.66,531,266.46,532.12,266.56,532.24Zm-60.19,95c.31,3.06,1.77,5.33,2.89,5.33a3.13,3.13,0,0,0,1.6-.63c54.18-42.06,103.39-62.5,150.46-62.5,40.8,0,74.53,15.31,104.28,28.83,20.86,9.47,40.55,18.41,60.23,21.17a6.36,6.36,0,0,0,.87.06,6.5,6.5,0,0,0,4.84-2.28,8.38,8.38,0,0,0,2.06-5.57,7.73,7.73,0,0,0-5.86-7.73c-14.2-3-29.2-11.13-42.14-18.53l-1.87-1.07c-43.26-24.9-88-50.65-136.79-50.65-1.56,0-3.13,0-4.66.07h-.49c-24.45,0-57.21,10.23-83.43,26.08C240.43,570.62,209.85,593.78,206.37,627.2Zm0,0c.31,3.06,1.77,5.33,2.89,5.33a3.13,3.13,0,0,0,1.6-.63c54.18-42.06,103.39-62.5,150.46-62.5,40.8,0,74.53,15.31,104.28,28.83,20.86,9.47,40.55,18.41,60.23,21.17a6.36,6.36,0,0,0,.87.06,6.5,6.5,0,0,0,4.84-2.28,8.38,8.38,0,0,0,2.06-5.57,7.73,7.73,0,0,0-5.86-7.73c-14.2-3-29.2-11.13-42.14-18.53l-1.87-1.07c-43.26-24.9-88-50.65-136.79-50.65-1.56,0-3.13,0-4.66.07h-.49c-24.45,0-57.21,10.23-83.43,26.08C240.43,570.62,209.85,593.78,206.37,627.2Z"/>
</svg>
