<svg width="792" height="96" viewBox="0 0 792 96" fill="none" xmlns="http://www.w3.org/2000/svg">
<g clip-path="url(#clip0)">
<path d="M233.533 38.4H175.8V19.2H248.48V0H175.667C170.61 0 165.76 2.0088 162.184 5.5845C158.609 9.16019 156.6 14.0099 156.6 19.0667V38.5333C156.6 43.5901 158.609 48.4398 162.184 52.0155C165.76 55.5912 170.61 57.6 175.667 57.6H233.4V76.8H157.973V96H233.533C238.59 96 243.44 93.9912 247.015 90.4155C250.591 86.8398 252.6 81.9901 252.6 76.9333V57.4667C252.6 52.4099 250.591 47.5602 247.015 43.9845C243.44 40.4088 238.59 38.4 233.533 38.4Z" fill="white"/>
<path d="M345.333 0H287.387C284.883 -6.12926e-07 282.405 0.49327 280.092 1.45162C277.78 2.40998 275.679 3.81463 273.909 5.58531C272.14 7.35598 270.737 9.45798 269.78 11.7712C268.823 14.0844 268.332 16.5634 268.333 19.0667V76.9333C268.332 79.4366 268.823 81.9156 269.78 84.2288C270.737 86.542 272.14 88.644 273.909 90.4147C275.679 92.1854 277.78 93.59 280.092 94.5484C282.405 95.5067 284.883 96 287.387 96H345.333C350.39 96 355.24 93.9912 358.816 90.4155C362.391 86.8398 364.4 81.9901 364.4 76.9333V19.0667C364.4 14.0099 362.391 9.16019 358.816 5.5845C355.24 2.0088 350.39 0 345.333 0V0ZM345.2 76.8H287.6V19.2H345.2V76.8Z" fill="white"/>
<path d="M548.133 4.66896e-06H491.627C486.57 4.66896e-06 481.72 2.00881 478.145 5.5845C474.569 9.1602 472.56 14.0099 472.56 19.0667V96H491.76V64.4533H548V96H567.2V19.0667C567.202 16.5623 566.71 14.0822 565.752 11.7681C564.795 9.45403 563.39 7.35144 561.619 5.58059C559.849 3.80974 557.746 2.40537 555.432 1.4478C553.118 0.490229 550.638 -0.00174847 548.133 4.66896e-06ZM548 45.2533H491.76V19.2H548V45.2533Z" fill="white"/>
<path d="M772.933 4.19619e-05H716.44C713.933 -0.00521798 711.449 0.484074 709.131 1.43991C706.813 2.39574 704.707 3.79935 702.932 5.57038C701.157 7.3414 699.749 9.44508 698.789 11.761C697.828 14.0768 697.333 16.5595 697.333 19.0667V96H716.533V64.4534H772.8V96H792V19.0667C792 14.0099 789.991 9.16023 786.416 5.58454C782.84 2.00885 777.99 4.19619e-05 772.933 4.19619e-05ZM772.8 45.2534H716.573V19.2H772.8V45.2534Z" fill="white"/>
<path d="M661.08 76.8H653.4L625.88 8C624.939 5.63943 623.311 3.61535 621.208 2.18925C619.104 0.763154 616.621 0.000564932 614.08 0L596.987 0C593.617 0 590.385 1.33873 588.002 3.7217C585.619 6.10466 584.28 9.33665 584.28 12.7067V96H603.48V19.2H611.16L638.667 88C639.604 90.3606 641.229 92.3852 643.33 93.8116C645.432 95.238 647.913 96.0004 650.453 96H667.547C670.917 96 674.149 94.6613 676.532 92.2783C678.915 89.8953 680.253 86.6634 680.253 83.2933V0H661.053L661.08 76.8Z" fill="white"/>
<path d="M400.613 0H381.413V76.9333C381.413 81.9901 383.422 86.8398 386.998 90.4155C390.574 93.9912 395.423 96 400.48 96H458.213V76.8H400.613V0Z" fill="white"/>
<path fill-rule="evenodd" clip-rule="evenodd" d="M20.32 73.2C20.6609 72.8308 21.0728 72.5342 21.531 72.328C21.9892 72.1219 22.4843 72.0103 22.9867 72H106.773C107.128 72.005 107.473 72.1123 107.768 72.309C108.063 72.5057 108.295 72.7835 108.436 73.1088C108.577 73.4342 108.621 73.7933 108.562 74.143C108.504 74.4927 108.346 74.8181 108.107 75.08L90.3467 94.8C90.0058 95.1692 89.594 95.4658 89.1357 95.672C88.6775 95.8782 88.1824 95.9897 87.68 96H3.84002C3.48552 95.995 3.14 95.8877 2.84503 95.691C2.55007 95.4943 2.31822 95.2165 2.17737 94.8912C2.03652 94.5658 1.99267 94.2067 2.05109 93.857C2.10951 93.5073 2.26772 93.1819 2.50669 92.92L20.32 73.2ZM108.187 56.8533C108.426 57.1152 108.584 57.4406 108.642 57.7903C108.701 58.14 108.657 58.4991 108.516 58.8245C108.375 59.1499 108.143 59.4276 107.848 59.6243C107.553 59.821 107.208 59.9283 106.853 59.9333L23.04 60C22.5377 59.9897 22.0425 59.8782 21.5843 59.672C21.1261 59.4658 20.7142 59.1692 20.3734 58.8L2.48002 39.1467C2.24106 38.8848 2.08285 38.5594 2.02442 38.2097C1.966 37.86 2.00985 37.5009 2.1507 37.1755C2.29155 36.8501 2.5234 36.5724 2.81837 36.3757C3.11333 36.179 3.45885 36.0717 3.81336 36.0667L87.6267 36C88.1291 36.0103 88.6242 36.1218 89.0824 36.328C89.5406 36.5342 89.9525 36.8308 90.2934 37.2L108.187 56.8533ZM20.32 1.2C20.6609 0.830818 21.0728 0.534244 21.531 0.328046C21.9892 0.121849 22.4843 0.0102714 22.9867 0L106.827 0.0666667C107.181 0.0716595 107.527 0.178967 107.822 0.375681C108.117 0.572394 108.349 0.850138 108.489 1.1755C108.63 1.50087 108.674 1.86 108.616 2.20969C108.557 2.55939 108.399 2.88476 108.16 3.14667L90.3467 22.8C90.0058 23.1692 89.594 23.4658 89.1357 23.672C88.6775 23.8782 88.1824 23.9897 87.68 24H3.84002C3.48552 23.995 3.14 23.8877 2.84503 23.691C2.55007 23.4943 2.31822 23.2165 2.17737 22.8912C2.03652 22.5658 1.99267 22.2067 2.05109 21.857C2.10951 21.5073 2.26772 21.1819 2.50669 20.92L20.32 1.2Z" fill="url(#paint0_linear)"/>
</g>
<defs>
<linearGradient id="paint0_linear" x1="5.24002" y1="98.0933" x2="105.427" y2="-2.09333" gradientUnits="userSpaceOnUse">
<stop stop-color="#9945FF"/>
<stop offset="0.14" stop-color="#8A53F4"/>
<stop offset="0.42" stop-color="#6377D6"/>
<stop offset="0.79" stop-color="#24B0A7"/>
<stop offset="0.99" stop-color="#00D18C"/>
<stop offset="1" stop-color="#00D18C"/>
</linearGradient>
<clipPath id="clip0">
<rect width="792" height="96" fill="white"/>
</clipPath>
</defs>
</svg>
