<svg width="167" height="257" viewBox="-45 0 257 257" fill="none" xmlns="http://www.w3.org/2000/svg">
<path d="M94.3983 99.5287C99.7696 99.531 105.021 97.939 109.487 94.9544C113.952 91.9697 117.432 87.7267 119.484 82.763C121.536 77.7992 122.069 72.3379 121.015 67.0711C119.961 61.8043 117.367 56.9688 113.562 53.1773C109.757 49.3858 104.913 46.8089 99.6426 45.773C94.3721 44.7372 88.9128 45.2889 83.9562 47.3584C78.9995 49.4278 74.7686 52.922 71.7995 57.398C68.8304 61.8741 67.2566 67.1307 67.2775 72.502C67.3117 79.6757 70.183 86.5444 75.2644 91.6082C80.3459 96.6721 87.2246 99.5195 94.3983 99.5287ZM94.3983 54.6761C97.9019 54.6738 101.328 55.7094 104.243 57.6523C107.158 59.5951 109.433 62.3582 110.78 65.5926C112.126 68.827 112.485 72.3878 111.809 75.8257C111.134 79.2635 109.455 82.4243 106.985 84.909C104.515 87.3937 101.365 89.091 97.931 89.7867C94.4972 90.4825 90.9344 90.1454 87.692 88.8181C84.4496 87.4907 81.6732 85.2326 79.713 82.3288C77.7528 79.4249 76.6967 76.0054 76.6782 72.502C76.6735 70.1708 77.1283 67.8616 78.0165 65.7063C78.9046 63.551 80.2088 61.5919 81.8544 59.9408C83.5 58.2897 85.4548 56.9791 87.6072 56.0838C89.7595 55.1885 92.0672 54.7261 94.3983 54.723V54.6761Z" fill="white"/>
<path d="M94.3983 121.996C104.201 121.996 113.784 119.089 121.935 113.641C130.085 108.193 136.436 100.451 140.185 91.3928C143.934 82.3348 144.912 72.3683 142.995 62.7544C141.078 53.1404 136.353 44.3111 129.417 37.3833C122.481 30.4555 113.646 25.7406 104.03 23.8353C94.4133 21.9299 84.448 22.9197 75.3944 26.6792C66.3408 30.4388 58.6058 36.7992 53.1679 44.9559C47.73 53.1126 44.8336 62.6989 44.8452 72.5021V207.048C44.8452 208.295 45.3405 209.491 46.2219 210.372C47.1034 211.254 48.299 211.749 49.5456 211.749C50.7922 211.749 51.9877 211.254 52.8692 210.372C53.7507 209.491 54.2459 208.295 54.2459 207.048V101.432C58.8325 107.794 64.8643 112.976 71.845 116.551C78.8256 120.126 86.5554 121.992 94.3983 121.996ZM94.3983 32.3026C102.338 32.3026 110.099 34.6564 116.701 39.0663C123.303 43.4762 128.449 49.7445 131.49 57.0786C134.53 64.4128 135.328 72.4836 133.783 80.2711C132.237 88.0586 128.418 95.2132 122.807 100.831C117.196 106.448 110.046 110.276 102.26 111.83C94.4747 113.385 86.4029 112.596 79.0652 109.564C71.7274 106.533 65.4533 101.394 61.0356 94.7967C56.618 88.1999 54.2552 80.4415 54.2459 72.5021C54.2428 61.8477 58.4706 51.6282 65.9999 44.09C73.5293 36.5518 83.7439 32.312 94.3983 32.3026Z" fill="white"/>
<path d="M94.3981 0.469604C75.306 0.491398 57.003 8.08933 43.5084 21.595C30.0138 35.1006 22.4308 53.4098 22.4246 72.5018V251.842C22.4246 253.089 22.9198 254.284 23.8012 255.166C24.6827 256.047 25.8783 256.542 27.1249 256.542C28.3715 256.542 29.567 256.047 30.4485 255.166C31.33 254.284 31.8252 253.089 31.8252 251.842V72.5018C31.8252 60.1261 35.495 48.0283 42.3706 37.7382C49.2462 27.4482 59.0187 19.428 70.4524 14.692C81.8861 9.95604 94.4675 8.71691 106.605 11.1313C118.743 13.5457 129.893 19.5052 138.644 28.2561C147.395 37.0071 153.354 48.1565 155.769 60.2945C158.183 72.4324 156.944 85.0137 152.208 96.4474C147.472 107.881 139.452 117.654 129.162 124.529C118.872 131.405 106.774 135.075 94.3981 135.075C93.1515 135.075 91.9559 135.57 91.0744 136.451C90.193 137.333 89.6978 138.528 89.6978 139.775C89.6978 141.022 90.193 142.217 91.0744 143.099C91.9559 143.98 93.1515 144.475 94.3981 144.475C113.487 144.475 131.793 136.892 145.291 123.395C158.789 109.897 166.372 91.5904 166.372 72.5018C166.372 53.4133 158.789 35.1065 145.291 21.6089C131.793 8.11123 113.487 0.528344 94.3981 0.528344V0.469604Z" fill="white"/>
<path d="M4.70446 90.1281C3.45786 90.1281 2.26235 90.6233 1.38087 91.5047C0.499392 92.3862 0.00415039 93.5818 0.00415039 94.8284V184.522C0.00415039 185.769 0.499392 186.964 1.38087 187.846C2.26235 188.727 3.45786 189.222 4.70446 189.222C5.95106 189.222 7.14661 188.727 8.02808 187.846C8.90956 186.964 9.40477 185.769 9.40477 184.522V94.8284C9.40477 93.5818 8.90956 92.3862 8.02808 91.5047C7.14661 90.6233 5.95106 90.1281 4.70446 90.1281Z" fill="white"/>
<path d="M71.9777 179.869C70.7311 179.869 69.5355 180.364 68.6541 181.245C67.7726 182.127 67.2773 183.322 67.2773 184.569V229.422C67.2773 230.668 67.7726 231.864 68.6541 232.745C69.5355 233.627 70.7311 234.122 71.9777 234.122C73.2243 234.122 74.4198 233.627 75.3013 232.745C76.1828 231.864 76.678 230.668 76.678 229.422V184.569C76.678 183.322 76.1828 182.127 75.3013 181.245C74.4198 180.364 73.2243 179.869 71.9777 179.869Z" fill="white"/>
</svg>
