<svg width="372" height="466" viewBox="0 0 372 466" fill="none" xmlns="http://www.w3.org/2000/svg">
<path d="M232.499 186.132C232.499 211.831 211.678 232.667 185.999 232.667V279.202C237.357 279.202 278.999 237.529 278.999 186.132C278.999 134.735 237.357 93.0624 185.999 93.0624C169.068 93.0624 153.169 97.5875 139.499 105.522C111.695 121.602 92.9985 151.678 92.9985 186.132V418.807L134.809 460.648L139.499 465.342V186.132C139.499 160.434 160.319 139.597 185.999 139.597C211.678 139.597 232.499 160.434 232.499 186.132Z" fill="#E6DAFE"/>
<path d="M186 0C152.119 0 120.362 9.07125 93 24.9196C75.481 35.0432 59.7917 47.9451 46.5 63.0357C17.5611 95.848 0 138.952 0 186.14V325.744L46.5 372.279V186.14C46.5 144.803 64.4607 107.655 93 82.0833C106.418 70.0865 122.17 60.6153 139.5 54.5117C154.033 49.3342 169.701 46.5349 186 46.5349C263.037 46.5349 325.5 109.044 325.5 186.14C325.5 263.235 263.037 325.744 186 325.744V372.279C288.737 372.279 372 288.933 372 186.14C372 83.3461 288.737 0 186 0Z" fill="#E6DAFE"/>
</svg>
