<?xml version="1.0"?><svg xmlns="http://www.w3.org/2000/svg" xmlns:xlink="http://www.w3.org/1999/xlink" viewBox="-28.00 -28.00 617.33 264.06" width="3832.3353293413174px" height="10339.291234585777px" style="overflow: visible; width: 100%; height: 100%; position: absolute; left: 0px; top: 0px; transition: 350ms ease-in-out; backface-visibility: hidden; opacity: 1; transform: translate3d(0px, 0px, 0px) rotate3d(1, 1, 0, 0deg);"><g transform="translate(0 0)"><g transform="translate(0 0)"><g transform="translate(238.21527725766342 0)"><g transform="translate(0 0)"><g transform="scale(0.8960000000000001 0.8960000000000001) translate(-2.9200000762939453 70.01000213623047)"><g transform="translate(0.000,0)" fill="#e71419" stroke="#e71419" stroke-width="0"><path d="M50.63,-44.53L25.19,-44.53L23.97,-44.76L22.94,-45.45L22.25,-46.48L22.02,-47.70L22.25,-48.92L22.94,-49.95L23.97,-50.68L25.19,-50.92L69.72,-50.92L69.72,-70.01L25.19,-70.01L24.17,-69.99L22.19,-69.83L20.27,-69.51L18.43,-69.02L16.64,-68.38L14.93,-67.57L13.29,-66.60L11.71,-65.47L10.20,-64.18L9.47,-63.47L8.76,-62.74L7.47,-61.22L6.34,-59.63L5.37,-57.98L4.56,-56.26L3.91,-54.47L3.43,-52.62L3.10,-50.70L2.94,-48.72L2.92,-47.70L2.94,-46.68L3.10,-44.70L3.43,-42.78L3.91,-40.94L4.56,-39.16L5.37,-37.44L6.34,-35.80L7.47,-34.22L8.76,-32.71L9.47,-31.98L10.20,-31.27L11.71,-29.98L13.29,-28.85L14.93,-27.88L16.64,-27.07L18.43,-26.42L20.27,-25.94L22.19,-25.61L24.17,-25.45L25.19,-25.43L50.63,-25.43L51.85,-25.20L52.88,-24.51L53.61,-23.48L53.85,-22.26L53.61,-21.04L52.88,-20.01L51.85,-19.32L50.63,-19.09L6.10,-19.09L6.10,0.00L50.63,0.00L51.65,-0.02L53.63,-0.18L55.55,-0.50L57.40,-0.99L59.19,-1.64L60.91,-2.44L62.56,-3.41L64.15,-4.54L65.67,-5.83L66.40,-6.54L67.11,-7.27L68.40,-8.78L69.53,-10.36L70.50,-12.00L71.31,-13.71L71.95,-15.50L72.44,-17.34L72.76,-19.26L72.92,-21.24L72.94,-22.26L72.92,-23.28L72.76,-25.26L72.44,-27.18L71.95,-29.03L71.31,-30.82L70.50,-32.54L69.53,-34.19L68.40,-35.78L67.11,-37.30L66.40,-38.03L65.67,-38.73L64.15,-40.02L62.56,-41.14L60.91,-42.10L59.19,-42.91L57.40,-43.55L55.55,-44.03L53.63,-44.35L51.65,-44.51L50.63,-44.53Z   " class="path-animation-31-0"></path></g><g transform="translate(75.870,0)" fill="#e71419" stroke="#e71419" stroke-width="0"><path d="M45.89,-41.35L22.02,-41.35L22.02,-50.92L45.89,-50.92L46.84,-50.83L48.52,-50.13L49.26,-49.51L49.86,-48.77L50.54,-47.08L50.63,-46.14L50.54,-45.18L49.86,-43.49L49.26,-42.77L48.52,-42.15L46.84,-41.44L45.89,-41.35Z   M47.46,-70.01L2.92,-70.01L2.92,0.00L22.02,0.00L22.02,-22.26L47.46,-22.26L48.48,-22.28L50.46,-22.44L52.38,-22.76L54.23,-23.25L56.01,-23.89L57.73,-24.70L59.39,-25.67L60.97,-26.80L62.49,-28.09L63.23,-28.80L63.93,-29.53L65.21,-31.04L66.33,-32.62L67.30,-34.27L68.10,-35.98L68.74,-37.76L69.22,-39.61L69.54,-41.53L69.70,-43.51L69.72,-44.53L69.72,-47.70L69.70,-48.72L69.54,-50.70L69.22,-52.62L68.74,-54.47L68.10,-56.26L67.30,-57.98L66.33,-59.63L65.21,-61.22L63.93,-62.74L63.23,-63.47L62.49,-64.18L60.97,-65.47L59.39,-66.60L57.73,-67.57L56.01,-68.38L54.23,-69.02L52.38,-69.51L50.46,-69.83L48.48,-69.99L47.46,-70.01Z   " class="path-animation-32-1"></path></g><g transform="translate(148.520,0)" fill="#e71419" stroke="#e71419" stroke-width="0"><path d="M50.63,-44.53L50.63,-25.43L50.51,-24.16L49.58,-21.92L48.77,-20.94L47.80,-20.13L45.55,-19.21L44.28,-19.09L28.36,-19.09L27.09,-19.21L24.85,-20.13L23.87,-20.94L23.06,-21.92L22.14,-24.16L22.02,-25.43L22.02,-44.53L22.14,-45.80L23.06,-48.04L23.87,-49.02L24.85,-49.85L27.09,-50.80L28.36,-50.92L44.28,-50.92L45.55,-50.80L47.80,-49.85L48.77,-49.02L49.58,-48.04L50.51,-45.80L50.63,-44.53Z   M47.46,-70.01L25.19,-70.01L24.17,-69.99L22.19,-69.83L20.27,-69.51L18.43,-69.02L16.64,-68.38L14.93,-67.57L13.29,-66.60L11.71,-65.47L10.20,-64.18L9.47,-63.47L8.76,-62.74L7.47,-61.22L6.34,-59.63L5.37,-57.98L4.56,-56.26L3.91,-54.47L3.43,-52.62L3.10,-50.70L2.94,-48.72L2.92,-47.70L2.92,-22.26L2.94,-21.24L3.10,-19.26L3.43,-17.34L3.91,-15.50L4.56,-13.71L5.37,-12.00L6.34,-10.36L7.47,-8.78L8.76,-7.27L9.47,-6.54L10.20,-5.83L11.71,-4.54L13.29,-3.41L14.93,-2.44L16.64,-1.64L18.43,-0.99L20.27,-0.50L22.19,-0.18L24.17,-0.02L25.19,0.00L47.46,0.00L48.48,-0.02L50.46,-0.18L52.38,-0.50L54.23,-0.99L56.01,-1.64L57.73,-2.44L59.39,-3.41L60.97,-4.54L62.49,-5.83L63.23,-6.54L63.93,-7.27L65.21,-8.78L66.33,-10.36L67.30,-12.00L68.10,-13.71L68.74,-15.50L69.22,-17.34L69.54,-19.26L69.70,-21.24L69.72,-22.26L69.72,-47.70L69.70,-48.72L69.54,-50.70L69.22,-52.62L68.74,-54.47L68.10,-56.26L67.30,-57.98L66.33,-59.63L65.21,-61.22L63.93,-62.74L63.23,-63.47L62.49,-64.18L60.97,-65.47L59.39,-66.60L57.73,-67.57L56.01,-68.38L54.23,-69.02L52.38,-69.51L50.46,-69.83L48.48,-69.99L47.46,-70.01Z   " class="path-animation-33-2"></path></g><g transform="translate(221.170,0)" fill="#e71419" stroke="#e71419" stroke-width="0"><path d="M45.89,-41.35L22.02,-41.35L22.02,-50.92L45.89,-50.92L46.84,-50.83L48.52,-50.13L49.26,-49.51L49.86,-48.77L50.54,-47.08L50.63,-46.14L50.54,-45.18L49.86,-43.49L49.26,-42.77L48.52,-42.15L46.84,-41.44L45.89,-41.35Z   M47.46,-70.01L2.92,-70.01L2.92,0.00L22.02,0.00L22.02,-22.26L31.39,-22.26L46.63,0.00L69.72,0.00L53.85,-23.19L54.83,-23.51L56.72,-24.26L58.51,-25.16L60.18,-26.22L61.76,-27.42L63.23,-28.78L64.59,-30.29L65.23,-31.10L65.85,-31.96L66.95,-33.72L67.86,-35.55L68.60,-37.44L69.15,-39.39L69.51,-41.40L69.70,-43.47L69.72,-44.53L69.72,-47.70L69.70,-48.72L69.54,-50.70L69.22,-52.62L68.74,-54.47L68.10,-56.26L67.30,-57.98L66.33,-59.63L65.21,-61.22L63.93,-62.74L63.23,-63.47L62.49,-64.18L60.97,-65.47L59.39,-66.60L57.73,-67.57L56.01,-68.38L54.23,-69.02L52.38,-69.51L50.46,-69.83L48.48,-69.99L47.46,-70.01Z   " class="path-animation-34-3"></path></g><g transform="translate(293.820,0)" fill="#e71419" stroke="#e71419" stroke-width="0"><path d="M69.72,-70.01L2.92,-70.01L2.92,-50.92L26.80,-50.92L26.80,0.00L45.89,0.00L45.89,-50.92L69.72,-50.92L69.72,-70.01Z   " class="path-animation-35-4"></path></g></g><g transform="scale(0.6884759239608653 0.6884759239608653) translate(-2.9200000762939453 169.4890972366651)"><g transform="translate(0.000,0)" fill="#0b682a" stroke="#0b682a" stroke-width="0"><path d="M47.46,-19.09L22.02,-19.09L22.02,-25.43L47.46,-25.43L48.67,-25.20L49.70,-24.51L50.40,-23.48L50.63,-22.26L50.40,-21.04L49.70,-20.01L48.68,-19.32L47.46,-19.09Z   M22.02,-44.53L22.02,-50.92L47.46,-50.92L48.67,-50.68L49.70,-49.95L50.40,-48.92L50.63,-47.70L50.40,-46.48L49.70,-45.45L48.68,-44.76L47.46,-44.53L22.02,-44.53Z   M47.46,-70.01L2.92,-70.01L2.92,0.00L47.46,0.00L48.48,-0.02L50.46,-0.18L52.38,-0.50L54.23,-0.99L56.01,-1.64L57.73,-2.44L59.39,-3.41L60.97,-4.54L62.49,-5.83L63.23,-6.54L63.93,-7.27L65.21,-8.78L66.33,-10.36L67.30,-12.00L68.10,-13.71L68.74,-15.50L69.22,-17.34L69.54,-19.26L69.70,-21.24L69.72,-22.26L69.70,-23.25L69.54,-25.20L69.21,-27.09L68.72,-28.93L68.07,-30.73L67.25,-32.48L66.27,-34.17L65.72,-35.00L66.27,-35.82L67.25,-37.51L68.07,-39.25L68.72,-41.03L69.21,-42.88L69.54,-44.77L69.70,-46.71L69.72,-47.70L69.70,-48.72L69.54,-50.70L69.22,-52.62L68.74,-54.47L68.10,-56.26L67.30,-57.98L66.33,-59.63L65.21,-61.22L63.93,-62.74L63.23,-63.47L62.49,-64.18L60.97,-65.47L59.39,-66.60L57.73,-67.57L56.01,-68.38L54.23,-69.02L52.38,-69.51L50.46,-69.83L48.48,-69.99L47.46,-70.01Z   " class="path-animation-36-5"></path></g><g transform="translate(72.650,0)" fill="#0b682a" stroke="#0b682a" stroke-width="0"><path d="M69.72,-70.01L2.92,-70.01L2.92,0.00L69.72,0.00L69.72,-19.09L22.02,-19.09L22.02,-25.43L63.37,-25.43L63.37,-44.53L22.02,-44.53L22.02,-50.92L69.72,-50.92L69.72,-70.01Z   " class="path-animation-37-6"></path></g><g transform="translate(145.300,0)" fill="#0b682a" stroke="#0b682a" stroke-width="0"><path d="M69.72,-70.01L2.92,-70.01L2.92,-50.92L26.80,-50.92L26.80,0.00L45.89,0.00L45.89,-50.92L69.72,-50.92L69.72,-70.01Z   " class="path-animation-38-7"></path></g><g transform="translate(217.950,0)" fill="#0b682a" stroke="#0b682a" stroke-width="0"><path d="" class="path-animation-39-8"></path></g><g transform="translate(247.390,0)" fill="#0b682a" stroke="#0b682a" stroke-width="0"><path d="M50.63,-44.53L50.63,-25.43L50.51,-24.16L49.58,-21.92L48.77,-20.94L47.80,-20.13L45.55,-19.21L44.28,-19.09L22.02,-19.09L22.02,-50.92L44.28,-50.92L45.55,-50.80L47.80,-49.85L48.77,-49.02L49.58,-48.04L50.51,-45.80L50.63,-44.53Z   M47.46,-70.01L2.92,-70.01L2.92,0.00L47.46,0.00L48.48,-0.02L50.46,-0.18L52.38,-0.50L54.23,-0.99L56.01,-1.64L57.73,-2.44L59.39,-3.41L60.97,-4.54L62.49,-5.83L63.23,-6.54L63.93,-7.27L65.21,-8.78L66.33,-10.36L67.30,-12.00L68.10,-13.71L68.74,-15.50L69.22,-17.34L69.54,-19.26L69.70,-21.24L69.72,-22.26L69.72,-47.70L69.70,-48.72L69.54,-50.70L69.22,-52.62L68.74,-54.47L68.10,-56.26L67.30,-57.98L66.33,-59.63L65.21,-61.22L63.93,-62.74L63.23,-63.47L62.49,-64.18L60.97,-65.47L59.39,-66.60L57.73,-67.57L56.01,-68.38L54.23,-69.02L52.38,-69.51L50.46,-69.83L48.48,-69.99L47.46,-70.01Z   " class="path-animation-40-9"></path></g><g transform="translate(315.410,0)" fill="#0b682a" stroke="#0b682a" stroke-width="0"><path d="M58.59,-70.01L33.34,-70.01L2.92,0.00L23.73,0.00L27.88,-9.52L64.06,-9.52L68.21,0.00L89.06,0.00L58.59,-70.01Z   M36.18,-28.61L45.89,-50.92L46.09,-50.92L55.76,-28.61L36.18,-28.61Z   " class="path-animation-41-10"></path></g><g transform="translate(402.520,0)" fill="#0b682a" stroke="#0b682a" stroke-width="0"><path d="M50.63,-44.53L50.63,-25.43L50.51,-24.16L49.58,-21.92L48.77,-20.94L47.80,-20.13L45.55,-19.21L44.28,-19.09L28.36,-19.09L27.09,-19.21L24.85,-20.13L23.87,-20.94L23.06,-21.92L22.14,-24.16L22.02,-25.43L22.02,-44.53L22.14,-45.80L23.06,-48.04L23.87,-49.02L24.85,-49.85L27.09,-50.80L28.36,-50.92L44.28,-50.92L45.55,-50.80L47.80,-49.85L48.77,-49.02L49.58,-48.04L50.51,-45.80L50.63,-44.53Z   M47.46,-70.01L25.19,-70.01L24.17,-69.99L22.19,-69.83L20.27,-69.51L18.43,-69.02L16.64,-68.38L14.93,-67.57L13.29,-66.60L11.71,-65.47L10.20,-64.18L9.47,-63.47L8.76,-62.74L7.47,-61.22L6.34,-59.63L5.37,-57.98L4.56,-56.26L3.91,-54.47L3.43,-52.62L3.10,-50.70L2.94,-48.72L2.92,-47.70L2.92,-22.26L2.94,-21.24L3.10,-19.26L3.43,-17.34L3.91,-15.50L4.56,-13.71L5.37,-12.00L6.34,-10.36L7.47,-8.78L8.76,-7.27L9.47,-6.54L10.20,-5.83L11.71,-4.54L13.29,-3.41L14.93,-2.44L16.64,-1.64L18.43,-0.99L20.27,-0.50L22.19,-0.18L24.17,-0.02L25.19,0.00L47.46,0.00L48.48,-0.02L50.46,-0.18L52.38,-0.50L54.23,-0.99L56.01,-1.64L57.73,-2.44L59.39,-3.41L60.97,-4.54L62.49,-5.83L63.23,-6.54L63.93,-7.27L65.21,-8.78L66.33,-10.36L67.30,-12.00L68.10,-13.71L68.74,-15.50L69.22,-17.34L69.54,-19.26L69.70,-21.24L69.72,-22.26L69.72,-47.70L69.70,-48.72L69.54,-50.70L69.22,-52.62L68.74,-54.47L68.10,-56.26L67.30,-57.98L66.33,-59.63L65.21,-61.22L63.93,-62.74L63.23,-63.47L62.49,-64.18L60.97,-65.47L59.39,-66.60L57.73,-67.57L56.01,-68.38L54.23,-69.02L52.38,-69.51L50.46,-69.83L48.48,-69.99L47.46,-70.01Z   " class="path-animation-42-11"></path></g></g></g><g transform="translate(0 126.28916282130596)"><g transform="scale(0.36 0.36) translate(153.8215597347685 66.5)"><g transform="translate(0.000,0)" fill="#e71419" stroke="#e71419" stroke-width="0"><path d="M34.50,-12.50L34.50,-18.00L41.50,-18.00L41.50,-12.50L41.47,-11.40L41.24,-9.34L40.79,-7.45L40.10,-5.72L39.19,-4.17L38.05,-2.78L37.40,-2.15L36.69,-1.57L35.09,-0.55L33.27,0.26L31.22,0.87L28.94,1.27L26.44,1.47L25.10,1.50L23.76,1.47L21.25,1.27L18.96,0.87L16.89,0.26L15.05,-0.55L13.43,-1.57L12.70,-2.15L12.03,-2.78L10.86,-4.17L9.93,-5.72L9.23,-7.45L8.76,-9.34L8.53,-11.40L8.50,-12.50L8.50,-52.50L8.53,-53.60L8.76,-55.66L9.21,-57.55L9.90,-59.28L10.81,-60.83L11.95,-62.22L12.60,-62.85L13.31,-63.43L14.91,-64.45L16.73,-65.26L18.78,-65.87L21.06,-66.27L23.56,-66.47L24.90,-66.50L26.24,-66.47L28.75,-66.27L31.04,-65.87L33.11,-65.26L34.95,-64.45L36.57,-63.43L37.30,-62.85L37.97,-62.22L39.14,-60.83L40.07,-59.28L40.77,-57.55L41.24,-55.66L41.47,-53.60L41.50,-52.50L41.50,-30.50L15.50,-30.50L15.50,-12.50L15.57,-11.22L16.09,-9.00L17.15,-7.22L18.73,-5.89L20.84,-5.00L23.48,-4.56L25.00,-4.50L26.52,-4.56L29.16,-5.00L31.27,-5.89L32.85,-7.22L33.91,-9.00L34.43,-11.22L34.50,-12.50Z   M15.50,-52.50L15.50,-36.50L34.50,-36.50L34.50,-52.50L34.43,-53.78L33.91,-56.00L32.85,-57.78L31.27,-59.11L29.16,-60.00L26.52,-60.44L25.00,-60.50L23.48,-60.44L20.84,-60.00L18.73,-59.11L17.15,-57.78L16.09,-56.00L15.57,-53.78L15.50,-52.50Z   " class="path-animation-43-12"></path></g><g transform="translate(50.000,0)" fill="#e71419" stroke="#e71419" stroke-width="0"><path d="M43.90,-65.00L29.20,0.00L18.70,0.00L4.00,-65.00L11.00,-65.00L23.90,-7.70L36.90,-65.00L43.90,-65.00Z   " class="path-animation-44-13"></path></g><g transform="translate(97.900,0)" fill="#e71419" stroke="#e71419" stroke-width="0"><path d="M34.50,-12.50L34.50,-18.00L41.50,-18.00L41.50,-12.50L41.47,-11.40L41.24,-9.34L40.79,-7.45L40.10,-5.72L39.19,-4.17L38.05,-2.78L37.40,-2.15L36.69,-1.57L35.09,-0.55L33.27,0.26L31.22,0.87L28.94,1.27L26.44,1.47L25.10,1.50L23.76,1.47L21.25,1.27L18.96,0.87L16.89,0.26L15.05,-0.55L13.43,-1.57L12.70,-2.15L12.03,-2.78L10.86,-4.17L9.93,-5.72L9.23,-7.45L8.76,-9.34L8.53,-11.40L8.50,-12.50L8.50,-52.50L8.53,-53.60L8.76,-55.66L9.21,-57.55L9.90,-59.28L10.81,-60.83L11.95,-62.22L12.60,-62.85L13.31,-63.43L14.91,-64.45L16.73,-65.26L18.78,-65.87L21.06,-66.27L23.56,-66.47L24.90,-66.50L26.24,-66.47L28.75,-66.27L31.04,-65.87L33.11,-65.26L34.95,-64.45L36.57,-63.43L37.30,-62.85L37.97,-62.22L39.14,-60.83L40.07,-59.28L40.77,-57.55L41.24,-55.66L41.47,-53.60L41.50,-52.50L41.50,-30.50L15.50,-30.50L15.50,-12.50L15.57,-11.22L16.09,-9.00L17.15,-7.22L18.73,-5.89L20.84,-5.00L23.48,-4.56L25.00,-4.50L26.52,-4.56L29.16,-5.00L31.27,-5.89L32.85,-7.22L33.91,-9.00L34.43,-11.22L34.50,-12.50Z   M15.50,-52.50L15.50,-36.50L34.50,-36.50L34.50,-52.50L34.43,-53.78L33.91,-56.00L32.85,-57.78L31.27,-59.11L29.16,-60.00L26.52,-60.44L25.00,-60.50L23.48,-60.44L20.84,-60.00L18.73,-59.11L17.15,-57.78L16.09,-56.00L15.57,-53.78L15.50,-52.50Z   " class="path-animation-45-14"></path></g><g transform="translate(147.900,0)" fill="#e71419" stroke="#e71419" stroke-width="0"><path d="M17.00,-50.50L17.00,0.00L10.00,0.00L10.00,-65.00L13.00,-65.00L15.50,-58.50L16.11,-59.47L17.43,-61.22L18.86,-62.72L20.41,-63.97L22.07,-64.97L23.85,-65.72L25.74,-66.22L27.75,-66.47L28.80,-66.50L30.23,-66.46L32.88,-66.19L35.23,-65.63L37.29,-64.79L39.05,-63.66L40.52,-62.27L41.70,-60.59L42.58,-58.63L43.17,-56.39L43.46,-53.87L43.50,-52.50L43.50,0.00L36.50,0.00L36.50,-52.50L36.45,-53.72L36.09,-55.88L35.35,-57.65L34.85,-58.40L34.22,-59.04L32.51,-59.98L30.19,-60.44L28.80,-60.50L27.71,-60.45L25.60,-60.02L23.57,-59.17L21.64,-57.90L20.70,-57.10L19.83,-56.25L18.45,-54.58L17.52,-52.93L17.06,-51.30L17.00,-50.50Z   " class="path-animation-46-15"></path></g><g transform="translate(200.400,0)" fill="#e71419" stroke="#e71419" stroke-width="0"><path d="" class="path-animation-47-16"></path></g><g transform="translate(223.400,0)" fill="#e71419" stroke="#e71419" stroke-width="0"><path d="M8.50,-11.50L8.50,-65.00L30.50,-65.00L30.50,-59.00L15.50,-59.00L15.50,-11.10L15.59,-9.76L16.32,-7.41L16.95,-6.40L17.75,-5.57L19.80,-4.62L21.05,-4.50L22.30,-4.62L24.32,-5.54L25.10,-6.35L25.71,-7.34L26.41,-9.72L26.50,-11.10L26.50,-23.00L33.50,-23.00L33.50,-11.50L33.47,-10.27L33.20,-7.99L32.66,-5.94L31.86,-4.13L30.79,-2.55L30.15,-1.85L29.46,-1.21L27.93,-0.14L26.21,0.66L24.31,1.20L22.22,1.47L21.10,1.50L19.98,1.47L17.88,1.20L15.96,0.66L14.22,-0.14L12.66,-1.21L11.95,-1.85L11.29,-2.55L10.19,-4.13L9.36,-5.94L8.81,-7.99L8.53,-10.27L8.50,-11.50Z   " class="path-animation-48-17"></path></g><g transform="translate(260.900,0)" fill="#e71419" stroke="#e71419" stroke-width="0"><path d="M17.00,-30.00L17.00,0.00L10.00,0.00L10.00,-65.00L17.00,-65.00L17.00,-36.00L36.70,-36.00L36.70,-65.00L43.70,-65.00L43.70,0.00L36.70,0.00L36.70,-30.00L17.00,-30.00Z   " class="path-animation-49-18"></path></g><g transform="translate(314.600,0)" fill="#e71419" stroke="#e71419" stroke-width="0"><path d="M34.50,-12.50L34.50,-18.00L41.50,-18.00L41.50,-12.50L41.47,-11.40L41.24,-9.34L40.79,-7.45L40.10,-5.72L39.19,-4.17L38.05,-2.78L37.40,-2.15L36.69,-1.57L35.09,-0.55L33.27,0.26L31.22,0.87L28.94,1.27L26.44,1.47L25.10,1.50L23.76,1.47L21.25,1.27L18.96,0.87L16.89,0.26L15.05,-0.55L13.43,-1.57L12.70,-2.15L12.03,-2.78L10.86,-4.17L9.93,-5.72L9.23,-7.45L8.76,-9.34L8.53,-11.40L8.50,-12.50L8.50,-52.50L8.53,-53.60L8.76,-55.66L9.21,-57.55L9.90,-59.28L10.81,-60.83L11.95,-62.22L12.60,-62.85L13.31,-63.43L14.91,-64.45L16.73,-65.26L18.78,-65.87L21.06,-66.27L23.56,-66.47L24.90,-66.50L26.24,-66.47L28.75,-66.27L31.04,-65.87L33.11,-65.26L34.95,-64.45L36.57,-63.43L37.30,-62.85L37.97,-62.22L39.14,-60.83L40.07,-59.28L40.77,-57.55L41.24,-55.66L41.47,-53.60L41.50,-52.50L41.50,-30.50L15.50,-30.50L15.50,-12.50L15.57,-11.22L16.09,-9.00L17.15,-7.22L18.73,-5.89L20.84,-5.00L23.48,-4.56L25.00,-4.50L26.52,-4.56L29.16,-5.00L31.27,-5.89L32.85,-7.22L33.91,-9.00L34.43,-11.22L34.50,-12.50Z   M15.50,-52.50L15.50,-36.50L34.50,-36.50L34.50,-52.50L34.43,-53.78L33.91,-56.00L32.85,-57.78L31.27,-59.11L29.16,-60.00L26.52,-60.44L25.00,-60.50L23.48,-60.44L20.84,-60.00L18.73,-59.11L17.15,-57.78L16.09,-56.00L15.57,-53.78L15.50,-52.50Z   " class="path-animation-50-19"></path></g><g transform="translate(364.600,0)" fill="#e71419" stroke="#e71419" stroke-width="0"><path d="" class="path-animation-51-20"></path></g><g transform="translate(387.600,0)" fill="#e71419" stroke="#e71419" stroke-width="0"><path d="M42.50,-52.50L42.50,-12.50L42.47,-11.40L42.23,-9.34L41.76,-7.45L41.05,-5.72L40.11,-4.17L38.93,-2.78L38.25,-2.15L37.62,-1.65L36.24,-0.75L34.68,-0.01L32.95,0.59L31.05,1.03L28.98,1.33L26.74,1.48L25.55,1.50L24.36,1.48L22.12,1.33L20.04,1.03L18.14,0.59L16.40,-0.01L14.83,-0.75L13.44,-1.65L12.80,-2.15L12.11,-2.78L10.92,-4.17L9.96,-5.72L9.25,-7.45L8.77,-9.34L8.53,-11.40L8.50,-12.50L8.50,-52.50L8.53,-53.60L8.77,-55.66L9.24,-57.55L9.95,-59.28L10.89,-60.83L12.07,-62.22L12.75,-62.85L13.38,-63.35L14.76,-64.25L16.32,-64.99L18.05,-65.59L19.95,-66.03L22.02,-66.33L24.26,-66.48L25.45,-66.50L26.64,-66.48L28.88,-66.33L30.96,-66.03L32.86,-65.59L34.60,-64.99L36.17,-64.25L37.56,-63.35L38.20,-62.85L38.89,-62.22L40.08,-60.83L41.04,-59.28L41.75,-57.55L42.23,-55.66L42.47,-53.60L42.50,-52.50Z   M35.50,-12.50L35.50,-52.50L35.43,-53.78L34.88,-56.00L33.76,-57.78L32.10,-59.11L29.88,-60.00L27.10,-60.44L25.50,-60.50L23.90,-60.44L21.13,-60.00L18.90,-59.11L17.24,-57.78L16.13,-56.00L15.57,-53.78L15.50,-52.50L15.50,-12.50L15.57,-11.22L16.13,-9.00L17.24,-7.22L18.90,-5.89L21.12,-5.00L23.90,-4.56L25.50,-4.50L27.10,-4.56L29.88,-5.00L32.10,-5.89L33.76,-7.22L34.88,-9.00L35.43,-11.22L35.50,-12.50Z   " class="path-animation-52-21"></path></g><g transform="translate(438.600,0)" fill="#e71419" stroke="#e71419" stroke-width="0"><path d="M26.10,0.00L10.00,0.00L10.00,-65.00L26.10,-65.00L27.37,-64.97L29.77,-64.77L31.95,-64.36L33.92,-63.74L35.69,-62.92L37.25,-61.89L37.95,-61.30L38.60,-60.66L39.72,-59.27L40.62,-57.71L41.30,-56.00L41.75,-54.12L41.97,-52.08L42.00,-51.00L42.00,-14.00L41.97,-12.90L41.75,-10.84L41.31,-8.95L40.64,-7.22L39.75,-5.67L38.64,-4.28L38.00,-3.65L37.31,-3.07L35.76,-2.05L33.99,-1.24L32.01,-0.63L29.81,-0.23L27.39,-0.03L26.10,0.00Z   M35.00,-14.00L35.00,-51.00L34.94,-52.22L34.42,-54.38L33.40,-56.15L32.70,-56.90L31.88,-57.54L29.90,-58.48L27.48,-58.94L26.10,-59.00L17.00,-59.00L17.00,-6.00L26.10,-6.00L27.52,-6.06L29.99,-6.50L31.97,-7.39L33.45,-8.72L34.44,-10.50L34.94,-12.72L35.00,-14.00Z   " class="path-animation-53-22"></path></g><g transform="translate(489.100,0)" fill="#e71419" stroke="#e71419" stroke-width="0"><path d="M26.10,0.00L10.00,0.00L10.00,-65.00L26.10,-65.00L27.37,-64.97L29.77,-64.77L31.95,-64.36L33.92,-63.74L35.69,-62.92L37.25,-61.89L37.95,-61.30L38.60,-60.66L39.72,-59.27L40.62,-57.71L41.30,-56.00L41.75,-54.12L41.97,-52.08L42.00,-51.00L42.00,-14.00L41.97,-12.90L41.75,-10.84L41.31,-8.95L40.64,-7.22L39.75,-5.67L38.64,-4.28L38.00,-3.65L37.31,-3.07L35.76,-2.05L33.99,-1.24L32.01,-0.63L29.81,-0.23L27.39,-0.03L26.10,0.00Z   M35.00,-14.00L35.00,-51.00L34.94,-52.22L34.42,-54.38L33.40,-56.15L32.70,-56.90L31.88,-57.54L29.90,-58.48L27.48,-58.94L26.10,-59.00L17.00,-59.00L17.00,-6.00L26.10,-6.00L27.52,-6.06L29.99,-6.50L31.97,-7.39L33.45,-8.72L34.44,-10.50L34.94,-12.72L35.00,-14.00Z   " class="path-animation-54-23"></path></g><g transform="translate(539.600,0)" fill="#e71419" stroke="#e71419" stroke-width="0"><path d="M41.80,-12.50L41.77,-11.26L41.49,-8.94L40.93,-6.86L40.09,-5.01L38.97,-3.39L37.57,-2.00L35.90,-0.84L33.94,0.08L31.71,0.78L29.19,1.24L26.40,1.47L24.90,1.50L23.40,1.47L20.61,1.24L18.09,0.78L15.86,0.08L13.90,-0.84L12.22,-2.00L10.83,-3.39L9.71,-5.01L8.87,-6.86L8.31,-8.94L8.03,-11.26L8.00,-12.50L8.00,-21.00L15.00,-21.00L15.00,-12.10L15.07,-10.94L15.63,-8.90L16.74,-7.21L17.50,-6.50L18.16,-6.03L19.71,-5.28L21.56,-4.78L23.71,-4.53L24.90,-4.50L26.09,-4.53L28.24,-4.78L30.09,-5.28L31.64,-6.03L32.30,-6.50L33.06,-7.21L34.17,-8.86L34.73,-10.84L34.80,-11.95L34.78,-13.06L34.61,-15.05L34.28,-16.73L34.05,-17.45L33.76,-18.14L32.91,-19.56L31.72,-21.04L31.00,-21.80L13.40,-39.00L12.66,-39.77L11.35,-41.30L10.29,-42.82L9.47,-44.31L9.15,-45.05L8.88,-45.81L8.45,-47.48L8.16,-49.34L8.02,-51.40L8.00,-52.50L8.03,-53.60L8.26,-55.66L8.72,-57.55L9.41,-59.28L10.33,-60.83L11.49,-62.22L12.15,-62.85L12.76,-63.35L14.12,-64.25L15.66,-64.99L17.36,-65.59L19.24,-66.03L21.30,-66.33L23.52,-66.48L24.70,-66.50L26.13,-66.47L28.79,-66.24L31.19,-65.78L33.32,-65.08L35.18,-64.16L36.77,-63.00L38.11,-61.61L39.17,-59.99L39.97,-58.14L40.50,-56.06L40.77,-53.74L40.80,-52.50L40.80,-44.00L33.80,-44.00L33.80,-52.90L33.73,-54.06L33.21,-56.10L32.17,-57.79L31.45,-58.50L30.83,-58.97L29.36,-59.72L27.59,-60.22L25.54,-60.47L24.40,-60.50L23.26,-60.47L21.21,-60.22L19.44,-59.72L17.97,-58.97L17.35,-58.50L16.63,-57.79L15.59,-56.13L15.07,-54.13L15.00,-53.00L15.02,-51.88L15.18,-49.88L15.49,-48.21L15.70,-47.50L15.98,-46.83L16.82,-45.45L18.05,-44.03L18.80,-43.30L36.70,-26.10L37.40,-25.30L38.62,-23.74L39.62,-22.20L40.40,-20.69L40.70,-19.95L40.96,-19.19L41.37,-17.52L41.65,-15.66L41.78,-13.60L41.80,-12.50Z   " class="path-animation-55-24"></path></g></g></g></g><g transform="translate(0 0)"><g><mask id="shape-hole-14"><rect fill="white" rx="31.20921670401033" ry="31.20921670401033" x="0" y="0" width="208.06144469340222" height="208.06144469340222" class="path-animation-57-26"></rect><g fill="#000" stroke="none" x="0" y="0" transform="translate(43.35525052572076, 60.40402492602222) scale(0.6482421681314774)"><path d="M13.80 -50.80 L13.80 -50.80 Q13.80 -48.00 14.80 -46.15 Q15.80 -44.30 17.85 -42.90 Q19.90 -41.50 23.05 -40.35 Q26.20 -39.20 30.50 -37.90 L30.50 -37.90 Q34.20 -36.70 37.80 -35.20 Q41.40 -33.70 44.25 -31.35 Q47.10 -29.00 48.80 -25.65 Q50.50 -22.30 50.50 -17.50 L50.50 -17.50 Q50.50 -12.40 48.50 -8.85 Q46.50 -5.30 43.20 -3.10 Q39.90 -0.90 35.55 0.10 Q31.20 1.10 26.40 1.10 L26.40 1.10 Q20.20 1.10 15.10 -0.30 Q10.00 -1.70 5.90 -3.80 L5.90 -3.80 L5.50 -5.10 L7.20 -15.80 L9.70 -15.80 L10.20 -15.20 Q10.70 -9.10 15.10 -6.25 Q19.50 -3.40 27.10 -3.40 L27.10 -3.40 Q34.90 -3.40 38.85 -6.95 Q42.80 -10.50 42.80 -16.20 L42.80 -16.20 Q42.80 -19.70 41.30 -22.05 Q39.80 -24.40 37.35 -26.05 Q34.90 -27.70 31.75 -28.80 Q28.60 -29.90 25.40 -31.00 L25.40 -31.00 Q21.40 -32.30 17.95 -33.85 Q14.50 -35.40 11.95 -37.50 Q9.40 -39.60 7.95 -42.50 Q6.50 -45.40 6.50 -49.40 L6.50 -49.40 Q6.50 -54.10 8.15 -57.35 Q9.80 -60.60 12.70 -62.65 Q15.60 -64.70 19.45 -65.60 Q23.30 -66.50 27.80 -66.50 L27.80 -66.50 Q33.20 -66.50 38.00 -65.50 Q42.80 -64.50 45.80 -63.10 L45.80 -63.10 L46.20 -62.00 L44.80 -53.10 L42.00 -53.10 L41.50 -53.60 Q41.30 -56.20 39.80 -57.80 Q38.30 -59.40 36.25 -60.30 Q34.20 -61.20 31.85 -61.50 Q29.50 -61.80 27.70 -61.80 L27.70 -61.80 Q21.20 -61.80 17.50 -58.95 Q13.80 -56.10 13.80 -50.80 Z" transform="translate(0,100)" fill-rule="nonzero" fill="#000" stroke="none" stroke-width="1px" stroke-linecap="butt" stroke-linejoin="miter" stroke-miterlimit="4" stroke-dasharray="none" class="path-animation-58-27"></path><path d="M29.00 0.00 L15.70 0.00 Q15.00 0.00 13.40 0.10 Q11.80 0.20 10.10 0.30 Q8.40 0.40 6.80 0.50 Q5.20 0.60 4.50 0.60 L4.50 0.60 L4.30 0.20 L4.60 -1.60 L5.10 -2.00 Q6.30 -2.00 7.90 -2.15 Q9.50 -2.30 10.40 -2.90 L10.40 -2.90 Q11.20 -3.50 11.90 -4.80 Q12.60 -6.10 12.90 -8.70 L12.90 -8.70 Q13.00 -10.20 13.05 -13.20 Q13.10 -16.20 13.10 -22.10 L13.10 -22.10 L13.10 -47.10 Q13.10 -49.10 13.10 -51.65 Q13.10 -54.20 12.90 -56.70 L12.90 -56.70 Q12.70 -59.40 11.95 -60.60 Q11.20 -61.80 10.40 -62.40 L10.40 -62.40 Q9.50 -62.90 8.55 -63.15 Q7.60 -63.40 5.10 -63.40 L5.10 -63.40 L4.60 -63.80 L4.30 -65.60 L4.50 -66.00 Q5.20 -66.00 6.35 -65.90 Q7.50 -65.80 8.75 -65.70 Q10.00 -65.60 11.30 -65.50 Q12.60 -65.40 13.70 -65.40 L13.70 -65.40 L17.30 -65.40 Q18.40 -65.40 19.80 -65.40 Q21.20 -65.40 22.65 -65.45 Q24.10 -65.50 25.30 -65.50 Q26.50 -65.50 27.20 -65.50 L27.20 -65.50 Q38.00 -65.50 42.70 -61.35 Q47.40 -57.20 47.40 -50.40 L47.40 -50.40 Q47.40 -47.40 46.65 -45.10 Q45.90 -42.80 44.60 -41.05 Q43.30 -39.30 41.70 -38.05 Q40.10 -36.80 38.30 -35.90 L38.30 -35.90 Q45.60 -34.60 49.55 -30.40 Q53.50 -26.20 53.50 -18.80 L53.50 -18.80 Q53.50 -13.80 51.70 -10.25 Q49.90 -6.70 46.65 -4.45 Q43.40 -2.20 38.90 -1.10 Q34.40 0.00 29.00 0.00 L29.00 0.00 ZM29.70 -33.20 L20.20 -33.20 Q20.20 -30.40 20.20 -26.60 Q20.20 -22.80 20.25 -19.15 Q20.30 -15.50 20.35 -12.60 Q20.40 -9.70 20.50 -8.70 L20.50 -8.70 Q20.70 -6.00 21.60 -5.40 Q22.50 -4.80 24.00 -4.80 L24.00 -4.80 L30.10 -4.80 Q32.50 -4.80 35.35 -5.40 Q38.20 -6.00 40.70 -7.50 Q43.20 -9.00 44.90 -11.70 Q46.60 -14.40 46.60 -18.60 L46.60 -18.60 Q46.60 -22.20 45.30 -24.95 Q44.00 -27.70 41.70 -29.50 Q39.40 -31.30 36.35 -32.25 Q33.30 -33.20 29.70 -33.20 L29.70 -33.20 ZM21.90 -36.90 L24.90 -36.90 Q28.10 -36.90 31.00 -37.30 Q33.90 -37.70 36.20 -39.40 L36.20 -39.40 Q38.40 -40.80 39.80 -43.45 Q41.20 -46.10 41.20 -49.70 L41.20 -49.70 Q41.20 -55.00 38.20 -57.80 Q35.20 -60.60 29.70 -60.60 L29.70 -60.60 L20.70 -60.60 Q20.50 -57.70 20.45 -55.70 Q20.40 -53.70 20.30 -52.20 Q20.20 -50.70 20.20 -49.50 Q20.20 -48.30 20.20 -47.20 L20.20 -47.20 L20.20 -41.00 Q20.20 -38.70 20.40 -37.80 Q20.60 -36.90 21.90 -36.90 L21.90 -36.90 Z" transform="translate(55.1,100)" fill-rule="nonzero" fill="#000" stroke="none" stroke-width="1px" stroke-linecap="butt" stroke-linejoin="miter" stroke-miterlimit="4" stroke-dasharray="none" class="path-animation-59-28"></path><path d="M12.90 -56.70 L12.90 -56.70 Q12.70 -59.20 12.00 -60.45 Q11.30 -61.70 10.40 -62.40 L10.40 -62.40 Q9.50 -62.90 8.55 -63.15 Q7.60 -63.40 5.10 -63.40 L5.10 -63.40 L4.60 -63.80 L4.30 -65.60 L4.50 -66.00 Q5.20 -66.00 6.50 -65.90 Q7.80 -65.80 9.30 -65.70 Q10.80 -65.60 12.25 -65.50 Q13.70 -65.40 14.80 -65.40 L14.80 -65.40 L20.50 -65.40 Q21.80 -65.40 23.75 -65.45 Q25.70 -65.50 27.75 -65.60 Q29.80 -65.70 31.75 -65.75 Q33.70 -65.80 34.90 -65.80 L34.90 -65.80 Q42.70 -65.80 48.85 -63.15 Q55.00 -60.50 59.20 -56.00 Q63.40 -51.50 65.65 -45.50 Q67.90 -39.50 67.90 -32.80 L67.90 -32.80 Q67.90 -26.20 65.75 -20.25 Q63.60 -14.30 59.40 -9.75 Q55.20 -5.20 48.90 -2.50 Q42.60 0.20 34.30 0.20 L34.30 0.20 Q33.40 0.20 31.60 0.15 Q29.80 0.10 27.80 0.10 Q25.80 0.10 23.95 0.05 Q22.10 0.00 21.00 0.00 L21.00 0.00 L15.70 0.00 Q15.00 0.00 13.40 0.10 Q11.80 0.20 10.10 0.30 Q8.40 0.40 6.80 0.50 Q5.20 0.60 4.50 0.60 L4.50 0.60 L4.30 0.20 L4.60 -1.60 L5.10 -2.00 Q6.30 -2.00 7.90 -2.15 Q9.50 -2.30 10.40 -2.90 L10.40 -2.90 Q11.20 -3.50 11.90 -4.80 Q12.60 -6.10 12.90 -8.70 L12.90 -8.70 Q12.90 -9.40 12.95 -10.35 Q13.00 -11.30 13.05 -12.70 Q13.10 -14.10 13.10 -16.10 Q13.10 -18.10 13.10 -21.10 L13.10 -21.10 L13.10 -41.40 Q13.10 -42.40 13.10 -44.45 Q13.10 -46.50 13.10 -48.80 Q13.10 -51.10 13.05 -53.30 Q13.00 -55.50 12.90 -56.70 ZM25.40 -4.80 L35.00 -4.80 Q41.00 -4.80 45.60 -7.00 Q50.20 -9.20 53.35 -12.95 Q56.50 -16.70 58.15 -21.80 Q59.80 -26.90 59.80 -32.80 L59.80 -32.80 Q59.80 -38.80 58.10 -43.90 Q56.40 -49.00 53.15 -52.70 Q49.90 -56.40 45.20 -58.50 Q40.50 -60.60 34.50 -60.60 L34.50 -60.60 L20.70 -60.60 Q20.50 -57.70 20.45 -55.75 Q20.40 -53.80 20.30 -51.80 Q20.20 -49.80 20.20 -47.45 Q20.20 -45.10 20.20 -41.50 L20.20 -41.50 L20.20 -23.10 Q20.20 -17.10 20.25 -13.75 Q20.30 -10.40 20.50 -8.70 L20.50 -8.70 Q20.80 -6.10 21.80 -5.45 Q22.80 -4.80 25.40 -4.80 L25.40 -4.80 Z" transform="translate(113.80000000000001,100)" fill-rule="nonzero" fill="#000" stroke="none" stroke-width="1px" stroke-linecap="butt" stroke-linejoin="miter" stroke-miterlimit="4" stroke-dasharray="none" class="path-animation-60-29"></path></g></mask><rect mask="url(#shape-hole-14)" fill="#0b682a" stroke="#0b682a" stroke-width="3" x="0" y="0" width="208.06144469340222" height="208.06144469340222" class="path-animation-56-25"></rect></g></g></g></g><style>
      .path-animation-31-0 {
        stroke-dasharray: 430.2828369140625;
        stroke-dashoffset: 430.2828369140625;
        stroke-width: 3;
        stroke: rgb(231, 20, 25);
        fill: rgba(0, 0, 0, 0);
        animation: dash-path-animation-31-0 1s linear forwards;
        animation-delay: 0s;
      }

      @keyframes dash-path-animation-31-0 {
        33% {
          stroke: rgb(231, 20, 25);
        }
        66% {
          fill: rgba(0, 0, 0, 0);
          stroke-width: 1.5;
        }
        100% {
          fill: rgb(231, 20, 25);
          stroke-width: 0px;
          stroke-dashoffset: 0;
        }
      }
      .path-animation-32-1 {
        stroke-dasharray: 329.8479919433594;
        stroke-dashoffset: 329.8479919433594;
        stroke-width: 3;
        stroke: rgb(231, 20, 25);
        fill: rgba(0, 0, 0, 0);
        animation: dash-path-animation-32-1 1s linear forwards;
        animation-delay: 0.04302828369140625s;
      }

      @keyframes dash-path-animation-32-1 {
        33% {
          stroke: rgb(231, 20, 25);
        }
        66% {
          fill: rgba(0, 0, 0, 0);
          stroke-width: 1.5;
        }
        100% {
          fill: rgb(231, 20, 25);
          stroke-width: 0px;
          stroke-dashoffset: 0;
        }
      }
      .path-animation-33-2 {
        stroke-dasharray: 348.4096374511719;
        stroke-dashoffset: 348.4096374511719;
        stroke-width: 3;
        stroke: rgb(231, 20, 25);
        fill: rgba(0, 0, 0, 0);
        animation: dash-path-animation-33-2 1s linear forwards;
        animation-delay: 0.07601308288574218s;
      }

      @keyframes dash-path-animation-33-2 {
        33% {
          stroke: rgb(231, 20, 25);
        }
        66% {
          fill: rgba(0, 0, 0, 0);
          stroke-width: 1.5;
        }
        100% {
          fill: rgb(231, 20, 25);
          stroke-width: 0px;
          stroke-dashoffset: 0;
        }
      }
      .path-animation-34-3 {
        stroke-dasharray: 385.42913818359375;
        stroke-dashoffset: 385.42913818359375;
        stroke-width: 3;
        stroke: rgb(231, 20, 25);
        fill: rgba(0, 0, 0, 0);
        animation: dash-path-animation-34-3 1s linear forwards;
        animation-delay: 0.11085404663085938s;
      }

      @keyframes dash-path-animation-34-3 {
        33% {
          stroke: rgb(231, 20, 25);
        }
        66% {
          fill: rgba(0, 0, 0, 0);
          stroke-width: 1.5;
        }
        100% {
          fill: rgb(231, 20, 25);
          stroke-width: 0px;
          stroke-dashoffset: 0;
        }
      }
      .path-animation-35-4 {
        stroke-dasharray: 276.6199951171875;
        stroke-dashoffset: 276.6199951171875;
        stroke-width: 3;
        stroke: rgb(231, 20, 25);
        fill: rgba(0, 0, 0, 0);
        animation: dash-path-animation-35-4 1s linear forwards;
        animation-delay: 0.14939696044921874s;
      }

      @keyframes dash-path-animation-35-4 {
        33% {
          stroke: rgb(231, 20, 25);
        }
        66% {
          fill: rgba(0, 0, 0, 0);
          stroke-width: 1.5;
        }
        100% {
          fill: rgb(231, 20, 25);
          stroke-width: 0px;
          stroke-dashoffset: 0;
        }
      }
      .path-animation-36-5 {
        stroke-dasharray: 393.61773681640625;
        stroke-dashoffset: 393.61773681640625;
        stroke-width: 3;
        stroke: rgb(11, 104, 42);
        fill: rgba(0, 0, 0, 0);
        animation: dash-path-animation-36-5 1s linear forwards;
        animation-delay: 0.17705895996093748s;
      }

      @keyframes dash-path-animation-36-5 {
        33% {
          stroke: rgb(11, 104, 42);
        }
        66% {
          fill: rgba(0, 0, 0, 0);
          stroke-width: 1.5;
        }
        100% {
          fill: rgb(11, 104, 42);
          stroke-width: 0px;
          stroke-dashoffset: 0;
        }
      }
      .path-animation-37-6 {
        stroke-dasharray: 454.7200012207031;
        stroke-dashoffset: 454.7200012207031;
        stroke-width: 3;
        stroke: rgb(11, 104, 42);
        fill: rgba(0, 0, 0, 0);
        animation: dash-path-animation-37-6 1s linear forwards;
        animation-delay: 0.2164207336425781s;
      }

      @keyframes dash-path-animation-37-6 {
        33% {
          stroke: rgb(11, 104, 42);
        }
        66% {
          fill: rgba(0, 0, 0, 0);
          stroke-width: 1.5;
        }
        100% {
          fill: rgb(11, 104, 42);
          stroke-width: 0px;
          stroke-dashoffset: 0;
        }
      }
      .path-animation-38-7 {
        stroke-dasharray: 276.6199951171875;
        stroke-dashoffset: 276.6199951171875;
        stroke-width: 3;
        stroke: rgb(11, 104, 42);
        fill: rgba(0, 0, 0, 0);
        animation: dash-path-animation-38-7 1s linear forwards;
        animation-delay: 0.2618927337646484s;
      }

      @keyframes dash-path-animation-38-7 {
        33% {
          stroke: rgb(11, 104, 42);
        }
        66% {
          fill: rgba(0, 0, 0, 0);
          stroke-width: 1.5;
        }
        100% {
          fill: rgb(11, 104, 42);
          stroke-width: 0px;
          stroke-dashoffset: 0;
        }
      }
      .path-animation-39-8 {
        stroke-dasharray: 3;
        stroke-dashoffset: 3;
        stroke-width: 3;
        stroke: rgb(11, 104, 42);
        fill: rgba(0, 0, 0, 0);
        animation: dash-path-animation-39-8 1s linear forwards;
        animation-delay: 0.28955473327636716s;
      }

      @keyframes dash-path-animation-39-8 {
        33% {
          stroke: rgb(11, 104, 42);
        }
        66% {
          fill: rgba(0, 0, 0, 0);
          stroke-width: 1.5;
        }
        100% {
          fill: rgb(11, 104, 42);
          stroke-width: 0px;
          stroke-dashoffset: 0;
        }
      }
      .path-animation-40-9 {
        stroke-dasharray: 372.9730529785156;
        stroke-dashoffset: 372.9730529785156;
        stroke-width: 3;
        stroke: rgb(11, 104, 42);
        fill: rgba(0, 0, 0, 0);
        animation: dash-path-animation-40-9 1s linear forwards;
        animation-delay: 0.2898547332763672s;
      }

      @keyframes dash-path-animation-40-9 {
        33% {
          stroke: rgb(11, 104, 42);
        }
        66% {
          fill: rgba(0, 0, 0, 0);
          stroke-width: 1.5;
        }
        100% {
          fill: rgb(11, 104, 42);
          stroke-width: 0px;
          stroke-dashoffset: 0;
        }
      }
      .path-animation-41-10 {
        stroke-dasharray: 347.9740295410156;
        stroke-dashoffset: 347.9740295410156;
        stroke-width: 3;
        stroke: rgb(11, 104, 42);
        fill: rgba(0, 0, 0, 0);
        animation: dash-path-animation-41-10 1s linear forwards;
        animation-delay: 0.32715203857421876s;
      }

      @keyframes dash-path-animation-41-10 {
        33% {
          stroke: rgb(11, 104, 42);
        }
        66% {
          fill: rgba(0, 0, 0, 0);
          stroke-width: 1.5;
        }
        100% {
          fill: rgb(11, 104, 42);
          stroke-width: 0px;
          stroke-dashoffset: 0;
        }
      }
      .path-animation-42-11 {
        stroke-dasharray: 348.4096374511719;
        stroke-dashoffset: 348.4096374511719;
        stroke-width: 3;
        stroke: rgb(11, 104, 42);
        fill: rgba(0, 0, 0, 0);
        animation: dash-path-animation-42-11 1s linear forwards;
        animation-delay: 0.3619494415283203s;
      }

      @keyframes dash-path-animation-42-11 {
        33% {
          stroke: rgb(11, 104, 42);
        }
        66% {
          fill: rgba(0, 0, 0, 0);
          stroke-width: 1.5;
        }
        100% {
          fill: rgb(11, 104, 42);
          stroke-width: 0px;
          stroke-dashoffset: 0;
        }
      }
      .path-animation-43-12 {
        stroke-dasharray: 333.3792724609375;
        stroke-dashoffset: 333.3792724609375;
        stroke-width: 3;
        stroke: rgb(231, 20, 25);
        fill: rgba(0, 0, 0, 0);
        animation: dash-path-animation-43-12 1s linear forwards;
        animation-delay: 0.3967904052734375s;
      }

      @keyframes dash-path-animation-43-12 {
        33% {
          stroke: rgb(231, 20, 25);
        }
        66% {
          fill: rgba(0, 0, 0, 0);
          stroke-width: 1.5;
        }
        100% {
          fill: rgb(231, 20, 25);
          stroke-width: 0px;
          stroke-dashoffset: 0;
        }
      }
      .path-animation-44-13 {
        stroke-dasharray: 278.2733459472656;
        stroke-dashoffset: 278.2733459472656;
        stroke-width: 3;
        stroke: rgb(231, 20, 25);
        fill: rgba(0, 0, 0, 0);
        animation: dash-path-animation-44-13 1s linear forwards;
        animation-delay: 0.43012833251953125s;
      }

      @keyframes dash-path-animation-44-13 {
        33% {
          stroke: rgb(231, 20, 25);
        }
        66% {
          fill: rgba(0, 0, 0, 0);
          stroke-width: 1.5;
        }
        100% {
          fill: rgb(231, 20, 25);
          stroke-width: 0px;
          stroke-dashoffset: 0;
        }
      }
      .path-animation-45-14 {
        stroke-dasharray: 333.3792724609375;
        stroke-dashoffset: 333.3792724609375;
        stroke-width: 3;
        stroke: rgb(231, 20, 25);
        fill: rgba(0, 0, 0, 0);
        animation: dash-path-animation-45-14 1s linear forwards;
        animation-delay: 0.45795566711425784s;
      }

      @keyframes dash-path-animation-45-14 {
        33% {
          stroke: rgb(231, 20, 25);
        }
        66% {
          fill: rgba(0, 0, 0, 0);
          stroke-width: 1.5;
        }
        100% {
          fill: rgb(231, 20, 25);
          stroke-width: 0px;
          stroke-dashoffset: 0;
        }
      }
      .path-animation-46-15 {
        stroke-dasharray: 316.6398620605469;
        stroke-dashoffset: 316.6398620605469;
        stroke-width: 3;
        stroke: rgb(231, 20, 25);
        fill: rgba(0, 0, 0, 0);
        animation: dash-path-animation-46-15 1s linear forwards;
        animation-delay: 0.4912935943603516s;
      }

      @keyframes dash-path-animation-46-15 {
        33% {
          stroke: rgb(231, 20, 25);
        }
        66% {
          fill: rgba(0, 0, 0, 0);
          stroke-width: 1.5;
        }
        100% {
          fill: rgb(231, 20, 25);
          stroke-width: 0px;
          stroke-dashoffset: 0;
        }
      }
      .path-animation-47-16 {
        stroke-dasharray: 3;
        stroke-dashoffset: 3;
        stroke-width: 3;
        stroke: rgb(231, 20, 25);
        fill: rgba(0, 0, 0, 0);
        animation: dash-path-animation-47-16 1s linear forwards;
        animation-delay: 0.5229575805664063s;
      }

      @keyframes dash-path-animation-47-16 {
        33% {
          stroke: rgb(231, 20, 25);
        }
        66% {
          fill: rgba(0, 0, 0, 0);
          stroke-width: 1.5;
        }
        100% {
          fill: rgb(231, 20, 25);
          stroke-width: 0px;
          stroke-dashoffset: 0;
        }
      }
      .path-animation-48-17 {
        stroke-dasharray: 238.00186157226562;
        stroke-dashoffset: 238.00186157226562;
        stroke-width: 3;
        stroke: rgb(231, 20, 25);
        fill: rgba(0, 0, 0, 0);
        animation: dash-path-animation-48-17 1s linear forwards;
        animation-delay: 0.5232575805664063s;
      }

      @keyframes dash-path-animation-48-17 {
        33% {
          stroke: rgb(231, 20, 25);
        }
        66% {
          fill: rgba(0, 0, 0, 0);
          stroke-width: 1.5;
        }
        100% {
          fill: rgb(231, 20, 25);
          stroke-width: 0px;
          stroke-dashoffset: 0;
        }
      }
      .path-animation-49-18 {
        stroke-dasharray: 318.4000244140625;
        stroke-dashoffset: 318.4000244140625;
        stroke-width: 3;
        stroke: rgb(231, 20, 25);
        fill: rgba(0, 0, 0, 0);
        animation: dash-path-animation-49-18 1s linear forwards;
        animation-delay: 0.5470577667236328s;
      }

      @keyframes dash-path-animation-49-18 {
        33% {
          stroke: rgb(231, 20, 25);
        }
        66% {
          fill: rgba(0, 0, 0, 0);
          stroke-width: 1.5;
        }
        100% {
          fill: rgb(231, 20, 25);
          stroke-width: 0px;
          stroke-dashoffset: 0;
        }
      }
      .path-animation-50-19 {
        stroke-dasharray: 333.3792724609375;
        stroke-dashoffset: 333.3792724609375;
        stroke-width: 3;
        stroke: rgb(231, 20, 25);
        fill: rgba(0, 0, 0, 0);
        animation: dash-path-animation-50-19 1s linear forwards;
        animation-delay: 0.5788977691650391s;
      }

      @keyframes dash-path-animation-50-19 {
        33% {
          stroke: rgb(231, 20, 25);
        }
        66% {
          fill: rgba(0, 0, 0, 0);
          stroke-width: 1.5;
        }
        100% {
          fill: rgb(231, 20, 25);
          stroke-width: 0px;
          stroke-dashoffset: 0;
        }
      }
      .path-animation-51-20 {
        stroke-dasharray: 3;
        stroke-dashoffset: 3;
        stroke-width: 3;
        stroke: rgb(231, 20, 25);
        fill: rgba(0, 0, 0, 0);
        animation: dash-path-animation-51-20 1s linear forwards;
        animation-delay: 0.6122356964111328s;
      }

      @keyframes dash-path-animation-51-20 {
        33% {
          stroke: rgb(231, 20, 25);
        }
        66% {
          fill: rgba(0, 0, 0, 0);
          stroke-width: 1.5;
        }
        100% {
          fill: rgb(231, 20, 25);
          stroke-width: 0px;
          stroke-dashoffset: 0;
        }
      }
      .path-animation-52-21 {
        stroke-dasharray: 321.7295227050781;
        stroke-dashoffset: 321.7295227050781;
        stroke-width: 3;
        stroke: rgb(231, 20, 25);
        fill: rgba(0, 0, 0, 0);
        animation: dash-path-animation-52-21 1s linear forwards;
        animation-delay: 0.6125356964111328s;
      }

      @keyframes dash-path-animation-52-21 {
        33% {
          stroke: rgb(231, 20, 25);
        }
        66% {
          fill: rgba(0, 0, 0, 0);
          stroke-width: 1.5;
        }
        100% {
          fill: rgb(231, 20, 25);
          stroke-width: 0px;
          stroke-dashoffset: 0;
        }
      }
      .path-animation-53-22 {
        stroke-dasharray: 320.936767578125;
        stroke-dashoffset: 320.936767578125;
        stroke-width: 3;
        stroke: rgb(231, 20, 25);
        fill: rgba(0, 0, 0, 0);
        animation: dash-path-animation-53-22 1s linear forwards;
        animation-delay: 0.6447086486816407s;
      }

      @keyframes dash-path-animation-53-22 {
        33% {
          stroke: rgb(231, 20, 25);
        }
        66% {
          fill: rgba(0, 0, 0, 0);
          stroke-width: 1.5;
        }
        100% {
          fill: rgb(231, 20, 25);
          stroke-width: 0px;
          stroke-dashoffset: 0;
        }
      }
      .path-animation-54-23 {
        stroke-dasharray: 320.936767578125;
        stroke-dashoffset: 320.936767578125;
        stroke-width: 3;
        stroke: rgb(231, 20, 25);
        fill: rgba(0, 0, 0, 0);
        animation: dash-path-animation-54-23 1s linear forwards;
        animation-delay: 0.6768023254394532s;
      }

      @keyframes dash-path-animation-54-23 {
        33% {
          stroke: rgb(231, 20, 25);
        }
        66% {
          fill: rgba(0, 0, 0, 0);
          stroke-width: 1.5;
        }
        100% {
          fill: rgb(231, 20, 25);
          stroke-width: 0px;
          stroke-dashoffset: 0;
        }
      }
      .path-animation-55-24 {
        stroke-dasharray: 307.97479248046875;
        stroke-dashoffset: 307.97479248046875;
        stroke-width: 3;
        stroke: rgb(231, 20, 25);
        fill: rgba(0, 0, 0, 0);
        animation: dash-path-animation-55-24 1s linear forwards;
        animation-delay: 0.7088960021972657s;
      }

      @keyframes dash-path-animation-55-24 {
        33% {
          stroke: rgb(231, 20, 25);
        }
        66% {
          fill: rgba(0, 0, 0, 0);
          stroke-width: 1.5;
        }
        100% {
          fill: rgb(231, 20, 25);
          stroke-width: 0px;
          stroke-dashoffset: 0;
        }
      }
      .path-animation-56-25 {
        stroke-dasharray: 835.2457885742188;
        stroke-dashoffset: 835.2457885742188;
        stroke-width: 3;
        stroke: rgb(11, 104, 42);
        fill: rgba(0, 0, 0, 0);
        animation: dash-path-animation-56-25 1s linear forwards;
        animation-delay: 0.7396934814453126s;
      }

      @keyframes dash-path-animation-56-25 {
        33% {
          stroke: rgb(11, 104, 42);
        }
        66% {
          fill: rgba(0, 0, 0, 0);
          stroke-width: 1.5;
        }
        100% {
          fill: rgb(11, 104, 42);
          stroke-width: 3px;
          stroke-dashoffset: 0;
        }
      }
      .path-animation-57-26 {
        stroke-dasharray: 781.6941528320312;
        stroke-dashoffset: 781.6941528320312;
        stroke-width: 3;
        stroke: none;
        fill: rgba(0, 0, 0, 0);
        animation: dash-path-animation-57-26 1s linear forwards;
        animation-delay: 0.8232180603027345s;
      }

      @keyframes dash-path-animation-57-26 {
        33% {
          stroke: rgb(255, 255, 255);
        }
        66% {
          fill: rgba(0, 0, 0, 0);
          stroke-width: 1.5;
        }
        100% {
          fill: rgb(255, 255, 255);
          stroke-width: 0;
          stroke-dashoffset: 0;
        }
      }
      .path-animation-58-27 {
        stroke-dasharray: 328.63043212890625;
        stroke-dashoffset: 328.63043212890625;
        stroke-width: 3;
        stroke: none;
        fill: rgba(0, 0, 0, 0);
        animation: dash-path-animation-58-27 1s linear forwards;
        animation-delay: 0.9013874755859376s;
      }

      @keyframes dash-path-animation-58-27 {
        33% {
          stroke: rgb(0, 0, 0);
        }
        66% {
          fill: rgba(0, 0, 0, 0);
          stroke-width: 1.5;
        }
        100% {
          fill: rgb(0, 0, 0);
          stroke-width: 0;
          stroke-dashoffset: 0;
        }
      }
      .path-animation-59-28 {
        stroke-dasharray: 409.28619384765625;
        stroke-dashoffset: 409.28619384765625;
        stroke-width: 3;
        stroke: none;
        fill: rgba(0, 0, 0, 0);
        animation: dash-path-animation-59-28 1s linear forwards;
        animation-delay: 0.9342505187988281s;
      }

      @keyframes dash-path-animation-59-28 {
        33% {
          stroke: rgb(0, 0, 0);
        }
        66% {
          fill: rgba(0, 0, 0, 0);
          stroke-width: 1.5;
        }
        100% {
          fill: rgb(0, 0, 0);
          stroke-width: 0;
          stroke-dashoffset: 0;
        }
      }
      .path-animation-60-29 {
        stroke-dasharray: 413.2250671386719;
        stroke-dashoffset: 413.2250671386719;
        stroke-width: 3;
        stroke: none;
        fill: rgba(0, 0, 0, 0);
        animation: dash-path-animation-60-29 1s linear forwards;
        animation-delay: 0.9751791381835938s;
      }

      @keyframes dash-path-animation-60-29 {
        33% {
          stroke: rgb(0, 0, 0);
        }
        66% {
          fill: rgba(0, 0, 0, 0);
          stroke-width: 1.5;
        }
        100% {
          fill: rgb(0, 0, 0);
          stroke-width: 0;
          stroke-dashoffset: 0;
        }
      }</style></svg>