<svg width="70" height="38" viewBox="0 0 70 38" fill="none" xmlns="http://www.w3.org/2000/svg">
<mask id="path-1-inside-1_3848_79856" fill="white">
<path d="M16.245 37.9886C16.0536 35.8366 16.1575 33.7454 16.7918 31.732C17.1829 30.4757 18.1809 29.6631 19.4059 29.2776C21.1477 28.723 22.9333 28.3236 24.6833 27.7995V27.8022C25.7333 27.511 26.756 27.1311 27.7431 26.6651C29.9415 25.5669 30.308 23.9806 29.2825 21.7175C28.1314 19.2104 27.1169 16.6396 26.2419 14.0214C25.4571 11.628 25.4215 9.12927 26.0723 6.64977C27.0047 3.06108 29.6517 0.648309 33.3188 0.14352C35.9766 -0.222556 38.5141 0.0492276 40.7675 1.69104C44.1308 4.13711 44.7597 7.65367 44.3659 11.4695C44.0023 15.0083 42.7253 18.2919 41.0847 21.4254C39.6792 24.1044 40.2069 25.8101 42.9988 26.9138C44.8226 27.6349 46.7585 28.062 48.6425 28.6222C49.4164 28.8551 50.2175 29.0215 50.9531 29.3488C52.3805 29.9811 53.4305 30.985 53.6055 32.6545C53.7914 34.4045 53.9391 36.1573 54.1086 37.9876H16.2371L16.245 37.9886Z"/>
<path d="M13.6389 38H0C0.207817 36.3915 0.194139 34.7885 0.683595 33.363C0.957037 32.5754 1.96873 31.871 2.81097 31.5077C4.08792 30.953 5.5071 30.7478 6.85783 30.3567C7.43205 30.1931 7.9926 29.9823 8.53125 29.7244C10.3196 28.8619 10.7051 27.6943 9.77537 25.9083C8.45195 23.3707 7.45115 20.7333 7.21602 17.8487C6.90977 14.1768 8.59419 11.226 11.7277 10.2967C16.8274 8.78805 21.1722 11.8609 21.0819 17.1468V17.1441C21.0737 18.4226 20.978 19.6983 20.7975 20.9629C20.4639 23.1261 19.6299 25.0979 17.8826 26.479C15.1674 28.6228 14.2076 31.582 13.8522 34.8546C13.7455 35.8696 13.71 36.899 13.6389 38Z"/>
<path d="M69.9786 38H56.6841C56.3615 35.92 56.0798 33.8955 55.7271 31.8848C55.3634 29.8381 54.2751 28.1852 52.7029 26.8928C50.3075 24.9349 49.356 22.3058 49.1263 19.3352C48.9513 17.0915 48.8966 14.8813 50.2364 12.8567C51.7622 10.5493 53.9442 9.80602 56.5091 9.93914C61.4775 10.1998 63.7632 14.2766 62.7325 19.2298C62.2677 21.4596 61.3543 23.6172 60.4466 25.7194C59.5387 27.8243 59.8231 28.9975 61.9559 29.8461C63.2028 30.3176 64.4825 30.6975 65.7841 30.986C68.9615 31.7375 69.6669 32.5002 69.9677 35.77C70.0334 36.4744 69.9786 37.1874 69.9786 38Z"/>
</mask>
<path d="M16.245 37.9886C16.0536 35.8366 16.1575 33.7454 16.7918 31.732C17.1829 30.4757 18.1809 29.6631 19.4059 29.2776C21.1477 28.723 22.9333 28.3236 24.6833 27.7995V27.8022C25.7333 27.511 26.756 27.1311 27.7431 26.6651C29.9415 25.5669 30.308 23.9806 29.2825 21.7175C28.1314 19.2104 27.1169 16.6396 26.2419 14.0214C25.4571 11.628 25.4215 9.12927 26.0723 6.64977C27.0047 3.06108 29.6517 0.648309 33.3188 0.14352C35.9766 -0.222556 38.5141 0.0492276 40.7675 1.69104C44.1308 4.13711 44.7597 7.65367 44.3659 11.4695C44.0023 15.0083 42.7253 18.2919 41.0847 21.4254C39.6792 24.1044 40.2069 25.8101 42.9988 26.9138C44.8226 27.6349 46.7585 28.062 48.6425 28.6222C49.4164 28.8551 50.2175 29.0215 50.9531 29.3488C52.3805 29.9811 53.4305 30.985 53.6055 32.6545C53.7914 34.4045 53.9391 36.1573 54.1086 37.9876H16.2371L16.245 37.9886Z" stroke="url(#paint0_linear_3848_79856)" stroke-width="2" mask="url(#path-1-inside-1_3848_79856)"/>
<path d="M13.6389 38H0C0.207817 36.3915 0.194139 34.7885 0.683595 33.363C0.957037 32.5754 1.96873 31.871 2.81097 31.5077C4.08792 30.953 5.5071 30.7478 6.85783 30.3567C7.43205 30.1931 7.9926 29.9823 8.53125 29.7244C10.3196 28.8619 10.7051 27.6943 9.77537 25.9083C8.45195 23.3707 7.45115 20.7333 7.21602 17.8487C6.90977 14.1768 8.59419 11.226 11.7277 10.2967C16.8274 8.78805 21.1722 11.8609 21.0819 17.1468V17.1441C21.0737 18.4226 20.978 19.6983 20.7975 20.9629C20.4639 23.1261 19.6299 25.0979 17.8826 26.479C15.1674 28.6228 14.2076 31.582 13.8522 34.8546C13.7455 35.8696 13.71 36.899 13.6389 38Z" stroke="url(#paint1_linear_3848_79856)" stroke-width="2" mask="url(#path-1-inside-1_3848_79856)"/>
<path d="M69.9786 38H56.6841C56.3615 35.92 56.0798 33.8955 55.7271 31.8848C55.3634 29.8381 54.2751 28.1852 52.7029 26.8928C50.3075 24.9349 49.356 22.3058 49.1263 19.3352C48.9513 17.0915 48.8966 14.8813 50.2364 12.8567C51.7622 10.5493 53.9442 9.80602 56.5091 9.93914C61.4775 10.1998 63.7632 14.2766 62.7325 19.2298C62.2677 21.4596 61.3543 23.6172 60.4466 25.7194C59.5387 27.8243 59.8231 28.9975 61.9559 29.8461C63.2028 30.3176 64.4825 30.6975 65.7841 30.986C68.9615 31.7375 69.6669 32.5002 69.9677 35.77C70.0334 36.4744 69.9786 37.1874 69.9786 38Z" stroke="url(#paint2_linear_3848_79856)" stroke-width="2" mask="url(#path-1-inside-1_3848_79856)"/>
<defs>
<linearGradient id="paint0_linear_3848_79856" x1="-5.99772e-08" y1="20.9" x2="70.0091" y2="22.3622" gradientUnits="userSpaceOnUse">
<stop stop-color="#00C2FF"/>
<stop offset="0.5" stop-color="#00E4FF"/>
<stop offset="1" stop-color="#87F2FF"/>
</linearGradient>
<linearGradient id="paint1_linear_3848_79856" x1="-5.99772e-08" y1="20.9" x2="70.0091" y2="22.3622" gradientUnits="userSpaceOnUse">
<stop stop-color="#00C2FF"/>
<stop offset="0.5" stop-color="#00E4FF"/>
<stop offset="1" stop-color="#87F2FF"/>
</linearGradient>
<linearGradient id="paint2_linear_3848_79856" x1="-5.99772e-08" y1="20.9" x2="70.0091" y2="22.3622" gradientUnits="userSpaceOnUse">
<stop stop-color="#00C2FF"/>
<stop offset="0.5" stop-color="#00E4FF"/>
<stop offset="1" stop-color="#87F2FF"/>
</linearGradient>
</defs>
</svg>
