<svg viewBox="0 0 32 32" fill="none" xmlns="http://www.w3.org/2000/svg">
<path fill-rule="evenodd" clip-rule="evenodd" d="M16 7.625C14.9117 7.625 13.8159 8.01737 12.9901 8.81152C12.1596 9.61013 11.625 10.7929 11.625 12.3273C11.625 13.8369 11.9766 14.9931 12.6888 16.0524C13.3222 16.9946 14.2325 17.8465 15.386 18.8002C14.8428 19.1518 14.2014 19.4117 13.5053 19.646C13.2019 19.7482 12.8819 19.8471 12.557 19.9476C11.9852 20.1244 11.3986 20.3058 10.8625 20.517C10.4242 20.6898 9.99637 20.8902 9.60269 21.1401C9.5571 21.0695 9.48765 21.0138 9.40133 20.9863C8.73292 20.7741 8.11888 20.5611 7.61213 20.2493C8.43719 19.5485 9.09747 18.9103 9.56307 18.2041C10.1075 17.3784 10.375 16.4778 10.375 15.3091C10.375 14.1164 9.96704 13.189 9.32504 12.5595C8.68712 11.9341 7.84048 11.625 7 11.625C6.15952 11.625 5.31288 11.9341 4.67496 12.5595C4.03296 13.189 3.625 14.1164 3.625 15.3091C3.625 16.4778 3.89251 17.3784 4.43693 18.2041C4.90251 18.9103 5.56276 19.5484 6.38779 20.2492C6.01197 20.4803 5.57468 20.6589 5.09699 20.8229C4.87459 20.8992 4.63692 20.9742 4.39432 21.0507C3.96252 21.1869 3.51507 21.328 3.11018 21.4907C2.46068 21.7517 1.83137 22.0984 1.36728 22.6596C0.896023 23.2294 0.625 23.9833 0.625 25C0.625 25.2071 0.792893 25.375 1 25.375C1.20711 25.375 1.375 25.2071 1.375 25C1.375 24.1258 1.60398 23.5502 1.94522 23.1376C2.29363 22.7163 2.78932 22.4279 3.38982 22.1866C3.77346 22.0324 4.16527 21.9093 4.57347 21.781C4.82244 21.7027 5.07749 21.6225 5.34051 21.5322C5.91402 21.3354 6.49594 21.098 7.00004 20.7438C7.58673 21.1559 8.2835 21.4127 8.95464 21.6307C8.82544 21.7482 8.70293 21.8743 8.58833 22.0102C7.98041 22.7311 7.625 23.6906 7.625 25C7.625 25.2071 7.79289 25.375 8 25.375C8.20711 25.375 8.375 25.2071 8.375 25C8.375 23.8367 8.68626 23.0575 9.16168 22.4937C9.64493 21.9207 10.328 21.5338 11.1375 21.2148C11.6526 21.0118 12.1843 20.8478 12.7328 20.6786C13.0639 20.5765 13.4012 20.4725 13.7447 20.3568C14.5352 20.0907 15.3265 19.7712 16 19.2893C16.6735 19.7712 17.4648 20.0907 18.2553 20.3568C18.5988 20.4725 18.936 20.5765 19.2671 20.6786C19.8157 20.8478 20.3474 21.0118 20.8625 21.2148C21.672 21.5338 22.3551 21.9207 22.8383 22.4937C23.3137 23.0575 23.625 23.8367 23.625 25C23.625 25.2071 23.7929 25.375 24 25.375C24.2071 25.375 24.375 25.2071 24.375 25C24.375 23.6906 24.0196 22.7311 23.4117 22.0102C23.2971 21.8743 23.1746 21.7482 23.0454 21.6307C23.7168 21.4127 24.4135 21.1557 25 20.7438C25.5041 21.098 26.086 21.3354 26.6595 21.5322C26.9225 21.6225 27.1776 21.7027 27.4265 21.781C27.8347 21.9093 28.2265 22.0324 28.6102 22.1866C29.2107 22.4279 29.7064 22.7163 30.0548 23.1376C30.396 23.5502 30.625 24.1258 30.625 25C30.625 25.2071 30.7929 25.375 31 25.375C31.2071 25.375 31.375 25.2071 31.375 25C31.375 23.9833 31.104 23.2294 30.6327 22.6596C30.1686 22.0984 29.5393 21.7517 28.8898 21.4907C28.4849 21.328 28.0375 21.1869 27.6057 21.0507C27.3631 20.9742 27.1254 20.8992 26.903 20.8229C26.4253 20.6589 25.988 20.4803 25.6122 20.2492C26.4372 19.5484 27.0975 18.9103 27.5631 18.2041C28.1075 17.3784 28.375 16.4778 28.375 15.3091C28.375 14.1164 27.967 13.189 27.325 12.5595C26.6871 11.9341 25.8405 11.625 25 11.625C24.1595 11.625 23.3129 11.9341 22.675 12.5595C22.033 13.189 21.625 14.1164 21.625 15.3091C21.625 16.4778 21.8925 17.3784 22.4369 18.2041C22.9025 18.9103 23.5628 19.5485 24.3879 20.2493C23.8749 20.565 23.2522 20.7792 22.5747 20.994C22.4949 21.0192 22.4296 21.0687 22.3841 21.1317C21.9941 20.8858 21.5709 20.6878 21.1375 20.517C20.6014 20.3058 20.0148 20.1244 19.443 19.9476C19.1182 19.8471 18.798 19.7482 18.4947 19.646C17.7986 19.4117 17.1572 19.1518 16.614 18.8002C17.7675 17.8465 18.6778 16.9946 19.3112 16.0524C20.0234 14.9931 20.375 13.8369 20.375 12.3273C20.375 10.7929 19.8404 9.61013 19.0099 8.81152C18.1841 8.01737 17.0883 7.625 16 7.625ZM18.6888 15.634C18.0945 16.518 17.2109 17.3405 16 18.3342C14.7891 17.3405 13.9055 16.518 13.3112 15.634C12.69 14.7099 12.375 13.7025 12.375 12.3273C12.375 10.9768 12.8404 9.99593 13.5099 9.35212C14.1841 8.70384 15.0883 8.375 16 8.375C16.9117 8.375 17.8159 8.70384 18.4901 9.35212C19.1596 9.99593 19.625 10.9768 19.625 12.3273C19.625 13.7025 19.31 14.7099 18.6888 15.634ZM7 19.7845C7.87478 19.0491 8.50879 18.4406 8.93693 17.7913C9.39251 17.1003 9.625 16.3464 9.625 15.3091C9.625 14.2957 9.28296 13.5686 8.79996 13.095C8.31288 12.6175 7.65952 12.375 7 12.375C6.34048 12.375 5.68712 12.6175 5.20004 13.095C4.71704 13.5686 4.375 14.2957 4.375 15.3091C4.375 16.3464 4.60749 17.1003 5.06307 17.7913C5.49121 18.4406 6.12522 19.0491 7 19.7845ZM25 19.7845C25.8748 19.0491 26.5088 18.4406 26.9369 17.7913C27.3925 17.1003 27.625 16.3464 27.625 15.3091C27.625 14.2957 27.283 13.5686 26.8 13.095C26.3129 12.6175 25.6595 12.375 25 12.375C24.3405 12.375 23.6871 12.6175 23.2 13.095C22.717 13.5686 22.375 14.2957 22.375 15.3091C22.375 16.3464 22.6075 17.1003 23.0631 17.7913C23.4912 18.4406 24.1252 19.0491 25 19.7845Z" fill="white"/>
</svg>
