<svg width="48" height="48" viewBox="0 0 48 48" fill="none" xmlns="http://www.w3.org/2000/svg">
<circle cx="24" cy="24" r="24" fill="#7289DA"/>
<path fill-rule="evenodd" clip-rule="evenodd" d="M31.1404 35C31.1404 35 30.2158 33.8738 29.4452 32.8786C32.8099 31.9096 34.0942 29.762 34.0942 29.762C33.0411 30.4691 32.0394 30.9667 31.1404 31.3072C29.8562 31.8572 28.6233 32.2238 27.4161 32.4334C24.9503 32.9048 22.6901 32.7738 20.7637 32.4072C19.2997 32.1191 18.0411 31.7 16.988 31.281C16.3973 31.0453 15.7551 30.7572 15.113 30.3905C15.036 30.3381 14.9589 30.312 14.8818 30.2596C14.8305 30.2334 14.8048 30.2072 14.7791 30.181C14.3168 29.9191 14.0599 29.7358 14.0599 29.7358C14.0599 29.7358 15.2928 31.831 18.5548 32.8262C17.7842 33.8214 16.8339 35 16.8339 35C11.1575 34.8167 9 31.0191 9 31.0191C9 22.5858 12.6986 15.7502 12.6986 15.7502C16.3973 12.9216 19.9161 13.0002 19.9161 13.0002L20.1729 13.3145C15.5497 14.6764 13.4178 16.7454 13.4178 16.7454C13.4178 16.7454 13.9829 16.4311 14.9332 15.9859C17.6815 14.755 19.8647 14.4145 20.7637 14.3359C20.9178 14.3097 21.0462 14.2835 21.2003 14.2835C22.7671 14.074 24.5394 14.0216 26.3887 14.2312C28.8288 14.5193 31.4486 15.2526 34.1199 16.7454C34.1199 16.7454 32.0908 14.7812 27.7243 13.4193L28.0839 13.0002C28.0839 13.0002 31.6027 12.9216 35.3014 15.7502C35.3014 15.7502 39 22.5858 39 31.0191C39 31.0191 36.8168 34.8167 31.1404 35ZM19.9203 23.2443C18.4678 23.2443 17.3211 24.5926 17.3211 26.2375C17.3211 27.8824 18.4933 29.2307 19.9203 29.2307C21.3728 29.2307 22.5195 27.8824 22.5195 26.2375C22.545 24.5926 21.3728 23.2443 19.9203 23.2443ZM29.2214 23.2443C27.7689 23.2443 26.6222 24.5926 26.6222 26.2375C26.6222 27.8824 27.7944 29.2307 29.2214 29.2307C30.6739 29.2307 31.8206 27.8824 31.8206 26.2375C31.8206 24.5926 30.6739 23.2443 29.2214 23.2443Z" fill="white"/>
</svg>
