<svg width="56" height="56" viewBox="0 0 56 56" fill="none" xmlns="http://www.w3.org/2000/svg">
<circle cx="28" cy="28" r="28" fill="#7289DA"/>
<path fill-rule="evenodd" clip-rule="evenodd" d="M35.9559 38.5C35.9559 38.5 35.039 37.3354 34.2748 36.3063C37.6115 35.3042 38.8851 33.0834 38.8851 33.0834C37.8408 33.8146 36.8474 34.3292 35.9559 34.6813C34.6824 35.25 33.4598 35.6292 32.2626 35.8459C29.8174 36.3334 27.576 36.1979 25.6657 35.8188C24.2138 35.5209 22.9658 35.0875 21.9214 34.6542C21.3356 34.4105 20.6988 34.1125 20.0621 33.7334C19.9857 33.6792 19.9092 33.6521 19.8328 33.598C19.7819 33.5709 19.7564 33.5438 19.731 33.5167C19.2725 33.2459 19.0178 33.0563 19.0178 33.0563C19.0178 33.0563 20.2404 35.2229 23.4752 36.2521C22.711 37.2813 21.7686 38.5 21.7686 38.5C16.1396 38.3104 14 34.3834 14 34.3834C14 25.6626 17.6678 18.5939 17.6678 18.5939C21.3356 15.669 24.8251 15.7502 24.8251 15.7502L25.0798 16.0752C20.4951 17.4835 18.381 19.6231 18.381 19.6231C18.381 19.6231 18.9414 19.2981 19.8838 18.8377C22.6092 17.5648 24.7742 17.2127 25.6657 17.1315C25.8185 17.1044 25.9458 17.0773 26.0987 17.0773C27.6524 16.8606 29.4099 16.8065 31.2438 17.0231C33.6635 17.321 36.2616 18.0794 38.9105 19.6231C38.9105 19.6231 36.8983 17.5919 32.5683 16.1836L32.9249 15.7502C32.9249 15.7502 36.4144 15.669 40.0822 18.5939C40.0822 18.5939 43.75 25.6626 43.75 34.3834C43.75 34.3834 41.585 38.3104 35.9559 38.5ZM24.8293 26.3436C23.3889 26.3436 22.2517 27.7378 22.2517 29.4388C22.2517 31.1398 23.4142 32.534 24.8293 32.534C26.2697 32.534 27.4069 31.1398 27.4069 29.4388C27.4321 27.7378 26.2697 26.3436 24.8293 26.3436ZM34.0529 26.3436C32.6125 26.3436 31.4754 27.7378 31.4754 29.4388C31.4754 31.1398 32.6378 32.534 34.0529 32.534C35.4933 32.534 36.6305 31.1398 36.6305 29.4388C36.6305 27.7378 35.4933 26.3436 34.0529 26.3436Z" fill="white"/>
</svg>
