<svg width="48" height="48" viewBox="0 0 48 48" fill="none" xmlns="http://www.w3.org/2000/svg">
<path fill-rule="evenodd" clip-rule="evenodd" d="M24.0305 0.0885732C18.3258 0.0827648 12.8054 2.1123 8.45875 5.81348C4.11207 9.51467 1.22315 14.6456 0.309757 20.2867C-0.60364 25.9278 0.51818 31.7104 3.47415 36.5982C6.43013 41.486 11.0271 45.1596 16.4411 46.9605C17.6348 47.1819 18.0769 46.429 18.0769 45.7942C18.0769 45.1594 18.0769 43.7127 18.0769 41.7049C11.4012 43.1812 9.98646 38.4866 9.98646 38.4866C9.54163 37.0317 8.59661 35.7816 7.31912 34.9583C5.15283 33.482 7.49595 33.482 7.49595 33.482C8.25533 33.5895 8.98034 33.8686 9.61608 34.2983C10.2518 34.728 10.7816 35.297 11.1654 35.9622C11.4915 36.5544 11.9311 37.0764 12.459 37.4981C12.9869 37.9198 13.5927 38.2328 14.2417 38.4194C14.8907 38.6059 15.5701 38.6623 16.2409 38.5851C16.9117 38.508 17.5606 38.2989 18.1506 37.9699C18.2431 36.7555 18.7657 35.6141 19.6242 34.7517C14.2896 34.1464 8.68962 32.0796 8.68962 22.8676C8.65299 20.4804 9.53414 18.1705 11.1506 16.4162C10.4292 14.3408 10.5134 12.0696 11.3864 10.0535C11.3864 10.0535 13.4054 9.40388 17.9885 12.5188C21.924 11.4364 26.078 11.4364 30.0136 12.5188C34.5967 9.40388 36.6009 10.0535 36.6009 10.0535C37.483 12.0667 37.5725 14.3396 36.8514 16.4162C38.4679 18.1705 39.3491 20.4804 39.3124 22.8676C39.3124 32.1091 33.6978 34.1316 28.3483 34.6778C28.9219 35.2554 29.3649 35.9499 29.6471 36.714C29.9293 37.4781 30.0443 38.2941 29.9841 39.1067C29.9841 42.3249 29.9841 44.9232 29.9841 45.7056C29.9841 46.4881 30.4115 47.0933 31.6346 46.8719C37.0317 45.054 41.6086 41.3746 44.549 36.49C47.4895 31.6055 48.6023 25.8333 47.6889 20.2032C46.7755 14.573 43.8953 9.45096 39.5621 5.75059C35.2289 2.05022 29.7244 0.0121915 24.0305 0V0.0885732Z" fill="white"/>
</svg>
