<svg width="32" height="32" fill="none" xmlns="http://www.w3.org/2000/svg"><path fill-rule="evenodd" clip-rule="evenodd" d="M15.504 7.442c1.347.69 2.82.927 4.23.923.819.752 1.5 1.635 2.14 2.543.266.379.505.775.717 1.187.49.943.85 1.94 1.214 2.95.107.295.214.592.325.89.035.126.071.254.109.38h.002c.563 1.93 1.384 3.992 2.485 5.694a12.613 12.613 0 0 0 1.488 1.869c.422.442.846.887 1.087 1.443.3.694.277 1.492.096 2.226-.85 3.46-4.182 4.37-7.367 4.453l.002-.004c-1.194.024-2.38-.065-3.432-.173 0 0-5.07-.525-9.37-3.667l-.138-.104c-.502-.373-.98-.777-1.433-1.21-1.205-1.15-2.277-2.453-3.097-3.885l.016-.017c-.097-.174-.19-.35-.279-.529-.793-1.587-1.276-3.315-1.298-5.152-.037-3.081 1.017-6.237 3.02-8.525a.329.329 0 0 1-.001-.006c1.085-1.188 2.44-2.122 4.046-2.654a9.295 9.295 0 0 1 3.124-.477 7.747 7.747 0 0 0 2.314 1.845Zm-2.47 20.163a9.243 9.243 0 0 0 2.054-1.06 9.706 9.706 0 0 1-2.054 1.06Z" fill="url(#a)"/><path fill-rule="evenodd" clip-rule="evenodd" d="M26.03 4.931h.001l.044-.028C20.421-4.74 13.028 2.852 13.028 2.852l.01.019c4.25 7.453 12.33 2.486 12.992 2.06Z" fill="url(#b)"/><path d="M19.021 21.544c-1.558 3.724-4.55 6.19-8.173 6.563-.078.01-1.07.09-1.618.049 4.299 3.142 9.37 3.667 9.37 3.667 1.086.111 2.315.203 3.548.17a9.54 9.54 0 0 0 .609-3.905c-.163-3.421 1.82-5.178 3.97-6.079-1.102-1.702-1.924-3.764-2.486-5.694-1.678.447-3.808 1.85-5.22 5.229Z" fill="url(#c)"/><path d="M22.69 28.064c.07 1.473-.225 2.802-.66 3.936 3.185-.084 6.517-.993 7.368-4.453.18-.734.203-1.532-.097-2.226-.292-.676-.856-1.187-1.356-1.728a12.637 12.637 0 0 1-1.268-1.658c-2.146.902-4.15 2.708-3.988 6.129Z" fill="url(#d)"/><path d="M24.13 15.934c-.489-1.31-.905-2.62-1.539-3.84a10.216 10.216 0 0 0-.716-1.187c-.64-.907-1.322-1.79-2.141-2.543-1.41.004-2.883-.232-4.229-.923-1.363 1.934-2.924 5.215-1.496 8.96 2.11 5.53-2.17 9.31-4.917 11.651l.139.103c.515.04 1.033.033 1.546-.022 3.624-.374 6.788-2.9 8.346-6.623 1.413-3.379 3.467-4.662 5.142-5.109a17.762 17.762 0 0 1-.135-.467Z" fill="url(#e)"/><path d="M6.17 8.57c-2.1 2.3-3.207 5.534-3.169 8.69.022 1.836.505 3.564 1.298 5.152.12.238.245.473.379.704 4.414-4.43 2.819-11.032 1.491-14.547Z" fill="url(#f)"/><path d="M14.084 16.401c-1.428-3.746.097-7.006 1.459-8.94a7.745 7.745 0 0 1-2.352-1.864 9.295 9.295 0 0 0-3.124.477C8.461 6.606 7.105 7.54 6.02 8.728c1.299 3.438 2.859 9.895-1.457 14.229.82 1.432 1.891 2.736 3.096 3.886.475.453.979.875 1.508 1.264 2.746-2.339 7.026-6.175 4.917-11.706Z" fill="url(#g)"/><path d="M19.409 3.467c2.989 1.179 5.082 1.498 6.6 1.453l.043-.028C20.398-4.753 13.005 2.84 13.005 2.84l.011.02c1.595-.284 3.912-.371 6.393.607Z" fill="url(#h)"/><path d="M19.446 3.4c-2.48-.976-4.81-.94-6.432-.54 4.252 7.453 12.332 2.485 12.992 2.06-1.518.046-3.572-.34-6.56-1.52Z" fill="url(#i)"/><defs><linearGradient id="a" x1="-.307" y1="10.121" x2="34.265" y2="30.838" gradientUnits="userSpaceOnUse"><stop stop-color="#E54033"/><stop offset=".49" stop-color="#FECA1A"/><stop offset="1" stop-color="#AFD803"/></linearGradient><linearGradient id="b" x1="9782.27" y1="1155.64" x2="7617.95" y2="-1070.67" gradientUnits="userSpaceOnUse"><stop offset=".15" stop-color="#6CBF00"/><stop offset="1" stop-color="#AFD803"/></linearGradient><linearGradient id="c" x1="5.662" y1="28.417" x2="27.326" y2="23.149" gradientUnits="userSpaceOnUse"><stop offset=".21" stop-color="#E54033"/><stop offset=".84" stop-color="#FECA1A"/></linearGradient><linearGradient id="d" x1="22.73" y1="26.955" x2="29.415" y2="27.006" gradientUnits="userSpaceOnUse"><stop stop-color="#FECA1A"/><stop offset=".4" stop-color="#FECA1A"/><stop offset="1" stop-color="#AFD803"/></linearGradient><linearGradient id="e" x1="7.6" y1="28.551" x2="21.305" y2="9.998" gradientUnits="userSpaceOnUse"><stop offset=".16" stop-color="#E54033"/><stop offset=".84" stop-color="#FECA1A"/></linearGradient><linearGradient id="f" x1="5.604" y1="10.117" x2="4.997" y2="22.101" gradientUnits="userSpaceOnUse"><stop stop-color="#FECA1A"/><stop offset=".76" stop-color="#E54033"/></linearGradient><linearGradient id="g" x1="12.309" y1="7.005" x2="8.648" y2="20.903" gradientUnits="userSpaceOnUse"><stop offset=".16" stop-color="#FECA1A"/><stop offset="1" stop-color="#E54033"/></linearGradient><linearGradient id="h" x1="13.726" y1=".35" x2="27.278" y2="5.346" gradientUnits="userSpaceOnUse"><stop offset=".15" stop-color="#6CBF00"/><stop offset="1" stop-color="#AFD803"/></linearGradient><linearGradient id="i" x1="9782.24" y1="1155.63" x2="7617.92" y2="-1070.68" gradientUnits="userSpaceOnUse"><stop offset=".15" stop-color="#6CBF00"/><stop offset="1" stop-color="#AFD803"/></linearGradient></defs></svg>