<svg width="50" height="50" viewBox="0 0 50 50" fill="none" xmlns="http://www.w3.org/2000/svg">
<mask id="path-1-inside-1_3848_79913" fill="white">
<path d="M0 6.44738C0 2.88659 2.88655 0 6.4473 0H43.552C47.1128 0 49.9993 2.88659 49.9993 6.44738V25.3411C50.0008 25.8963 49.9993 26.5344 49.9993 27.2727V43.5526C49.9993 47.1134 47.1128 50 43.552 50H20.1964H6.4473C2.88655 50 0 47.1134 0 43.5526V6.44738Z"/>
</mask>
<path d="M49.9993 25.3411H50.4993V25.3398L49.9993 25.3411ZM23.9266 13.1373L23.4509 13.2913V13.2913L23.9266 13.1373ZM27.3044 10.7377L27.6063 10.3391L27.3044 10.7377ZM25.3467 17.5268L25.626 17.9415L25.9383 17.7312L25.8224 17.3729L25.3467 17.5268ZM22.7489 19.9275L22.618 20.41L22.9334 20.4956L23.1384 20.2411L22.7489 19.9275ZM6.27807 15.4568L6.14709 15.9393H6.14709L6.27807 15.4568ZM5.39246 17.6773L5.62951 17.2371H5.62951L5.39246 17.6773ZM20.4744 25.7985L20.9658 25.8906L21.0332 25.5315L20.7115 25.3583L20.4744 25.7985ZM17.6379 36.0309L17.1677 35.8608L17.6379 36.0309ZM19.5836 38.9475L19.6063 38.448L19.5836 38.9475ZM22.224 39.0675L22.2467 38.568H22.2467L22.224 39.0675ZM25.2704 37.126L24.8081 36.9357L25.2704 37.126ZM25.7739 35.9034L26.2362 36.0937L25.7739 35.9034ZM27.0976 35.097L27.0979 34.597H27.0979L27.0976 35.097ZM32.7128 33.5566L32.418 33.1529L32.7128 33.5566ZM34.8746 30.872L35.0827 30.4173L34.6276 30.2091L34.4198 30.6643L34.8746 30.872ZM36.2019 31.6778L36.516 31.2888L36.516 31.2888L36.2019 31.6778ZM35.6927 36.2868L35.3383 35.934H35.3383L35.6927 36.2868ZM32.5047 38.866L32.8015 39.2684L32.8047 39.266L32.5047 38.866ZM32.5048 38.8659L32.2081 38.4635L32.2048 38.4659L32.5048 38.8659ZM31.678 39.4779L31.9769 39.8787H31.9769L31.678 39.4779ZM24.7418 49.6522L24.78 50.1508L25.2117 50.1177L25.2407 49.6857L24.7418 49.6522ZM48.4775 20.4018L48.8102 20.0286L48.8102 20.0286L48.4775 20.4018ZM42.5671 16.4633L42.7635 16.0034L42.5671 16.4633ZM33.2871 14.7034L33.2739 15.2033L33.2871 14.7034ZM31.9331 14.2443L32.2351 13.8458V13.8458L31.9331 14.2443ZM50.4993 27.2727V25.3411H49.4993V27.2727H50.4993ZM24.4023 12.9834C23.8988 11.4273 25.6988 10.1486 27.0025 11.1362L27.6063 10.3391C25.5228 8.76069 22.6463 10.8043 23.4509 13.2913L24.4023 12.9834ZM25.8224 17.3729L24.4023 12.9834L23.4509 13.2913L24.871 17.6807L25.8224 17.3729ZM23.1384 20.2411C23.9355 19.2512 24.8484 18.4652 25.626 17.9415L25.0674 17.1121C24.2134 17.6872 23.2244 18.5399 22.3595 19.6139L23.1384 20.2411ZM6.14709 15.9393L22.618 20.41L22.8799 19.4449L6.40904 14.9742L6.14709 15.9393ZM5.30973 16.3574C5.44209 16.0256 5.80228 15.8457 6.14709 15.9393L6.40905 14.9742C5.57386 14.7475 4.70146 15.1832 4.38087 15.987L5.30973 16.3574ZM5.62951 17.2371C5.31492 17.0677 5.17737 16.6893 5.30973 16.3574L4.38087 15.987C4.06029 16.7908 4.39345 17.7073 5.15541 18.1176L5.62951 17.2371ZM20.7115 25.3583L5.62951 17.2371L5.15541 18.1176L20.2374 26.2387L20.7115 25.3583ZM18.1081 36.2009C19.0103 33.7064 20.1444 30.2714 20.9658 25.8906L19.983 25.7063C19.1751 30.0147 18.0598 33.3942 17.1677 35.8608L18.1081 36.2009ZM19.6063 38.448C18.4737 38.3965 17.7248 37.2609 18.1081 36.2009L17.1677 35.8608C16.5577 37.5476 17.7474 39.3646 19.5609 39.447L19.6063 38.448ZM22.2467 38.568L19.6063 38.448L19.5609 39.447L22.2013 39.567L22.2467 38.568ZM24.8081 36.9357C24.384 37.9656 23.3593 38.6186 22.2467 38.568L22.2013 39.567C23.7353 39.6367 25.1481 38.7364 25.7328 37.3164L24.8081 36.9357ZM25.3115 35.713L24.8081 36.9357L25.7328 37.3164L26.2362 36.0937L25.3115 35.713ZM27.0979 34.597C26.2885 34.5965 25.5889 35.0393 25.3115 35.713L26.2362 36.0937C26.3422 35.8365 26.6464 35.5968 27.0972 35.597L27.0979 34.597ZM32.418 33.1529C30.7716 34.3552 28.7277 34.5981 27.0979 34.597L27.0972 35.597C28.7961 35.5981 31.1024 35.352 33.0077 33.9604L32.418 33.1529ZM34.4198 30.6643C33.9319 31.733 33.2468 32.5475 32.418 33.1529L33.0077 33.9604C33.9765 33.2529 34.7711 32.3027 35.3295 31.0796L34.4198 30.6643ZM36.516 31.2888C36.0591 30.9198 35.5415 30.6273 35.0827 30.4173L34.6666 31.3266C35.0706 31.5115 35.5117 31.7631 35.8878 32.0668L36.516 31.2888ZM37.7075 33.3267C37.7075 32.5686 37.2494 31.881 36.516 31.2888L35.8878 32.0668C36.5095 32.5689 36.7075 33 36.7075 33.3267H37.7075ZM36.047 36.6396C37.1084 35.5735 37.7075 34.5306 37.7075 33.3267H36.7075C36.7075 34.1545 36.3104 34.9576 35.3383 35.934L36.047 36.6396ZM32.8047 39.266L32.8048 39.2659L32.2048 38.4659L32.2047 38.466L32.8047 39.266ZM32.8016 39.2683C34.0314 38.3615 35.159 37.5314 36.047 36.6396L35.3383 35.934C34.5151 36.7609 33.4553 37.5438 32.2081 38.4635L32.8016 39.2683ZM31.9769 39.8787C32.2574 39.6696 32.5323 39.4669 32.8015 39.2684L32.208 38.4635C31.9392 38.6618 31.6621 38.8661 31.3791 39.0771L31.9769 39.8787ZM25.2407 49.6857C25.5586 44.9446 28.9438 42.1405 31.9769 39.8787L31.3791 39.0771C28.3599 41.3284 24.5944 44.3773 24.2429 49.6188L25.2407 49.6857ZM20.2346 50.4985L24.78 50.1508L24.7037 49.1537L20.1583 49.5015L20.2346 50.4985ZM48.1448 20.775C48.8472 21.4013 49.1189 21.6733 49.2779 22.1669C49.455 22.7169 49.4946 23.5537 49.4993 25.3425L50.4993 25.3398C50.4947 23.6072 50.4652 22.5913 50.2297 21.8603C49.976 21.0729 49.4915 20.6359 48.8102 20.0286L48.1448 20.775ZM42.3708 16.9231C44.7042 17.9193 46.4602 19.2732 48.1448 20.775L48.8102 20.0286C47.0888 18.4939 45.2393 17.0605 42.7635 16.0034L42.3708 16.9231ZM33.2739 15.2033C37.1708 15.3062 40.0381 15.9272 42.3708 16.9231L42.7635 16.0034C40.2892 14.947 37.292 14.309 33.3003 14.2036L33.2739 15.2033ZM31.6312 14.6429C32.0952 14.9944 32.6716 15.1874 33.2739 15.2033L33.3003 14.2036C32.8927 14.1929 32.5215 14.0628 32.2351 13.8458L31.6312 14.6429ZM27.0025 11.1362L31.6312 14.6429L32.2351 13.8458L27.6063 10.3391L27.0025 11.1362ZM49.9993 25.3411H48.9993L48.9993 25.3438L49.9993 25.3411ZM6.4473 -1C2.33426 -1 -1 2.33432 -1 6.44738H1C1 3.43886 3.43885 1 6.4473 1V-1ZM43.552 -1H6.4473V1H43.552V-1ZM50.9993 6.44738C50.9993 2.33432 47.6651 -1 43.552 -1V1C46.5605 1 48.9993 3.43886 48.9993 6.44738H50.9993ZM50.9993 43.5526V27.2727H48.9993V43.5526H50.9993ZM50.9993 25.3411V6.44738H48.9993V25.3411H50.9993ZM43.552 51C47.6651 51 50.9993 47.6657 50.9993 43.5526H48.9993C48.9993 46.5611 46.5605 49 43.552 49V51ZM6.4473 51H20.1964V49H6.4473V51ZM20.1964 51H43.552V49H20.1964V51ZM-1 43.5526C-1 47.6657 2.33425 51 6.4473 51V49C3.43885 49 1 46.5611 1 43.5526H-1ZM-1 6.44738V43.5526H1V6.44738H-1ZM48.9993 25.3438C49.0008 25.8974 48.9993 26.531 48.9993 27.2727H50.9993C50.9993 26.5379 51.0008 25.8953 50.9993 25.3384L48.9993 25.3438Z" fill="url(#paint0_linear_3848_79913)" mask="url(#path-1-inside-1_3848_79913)"/>
<defs>
<linearGradient id="paint0_linear_3848_79913" x1="-4.28408e-08" y1="27.5" x2="50.0219" y2="28.0671" gradientUnits="userSpaceOnUse">
<stop stop-color="#00C2FF"/>
<stop offset="0.5" stop-color="#00E4FF"/>
<stop offset="1" stop-color="#87F2FF"/>
</linearGradient>
</defs>
</svg>
