<svg width="12" height="16" viewBox="0 0 12 16" fill="none" xmlns="http://www.w3.org/2000/svg">
<path d="M4.99951 0C4.44723 0 3.99951 0.447715 3.99951 1C3.99951 1.55228 4.44723 2 4.99951 2H6.99951C7.5518 2 7.99951 1.55228 7.99951 1C7.99951 0.447715 7.5518 0 6.99951 0H4.99951Z" fill="url(#paint0_linear)"/>
<path fill-rule="evenodd" clip-rule="evenodd" d="M-0.000488281 3C-0.000488281 1.89543 0.894942 1 1.99951 1C1.99951 2.65685 3.34266 4 4.99951 4H6.99951C8.65637 4 9.99951 2.65685 9.99951 1C11.1041 1 11.9995 1.89543 11.9995 3V14C11.9995 15.1046 11.1041 16 9.99951 16H1.99951C0.894943 16 -0.000488281 15.1046 -0.000488281 14V3ZM2.99951 7C2.44723 7 1.99951 7.44772 1.99951 8C1.99951 8.55229 2.44723 9 2.99951 9H3.00951C3.5618 9 4.00951 8.55229 4.00951 8C4.00951 7.44772 3.5618 7 3.00951 7H2.99951ZM5.99951 7C5.44723 7 4.99951 7.44772 4.99951 8C4.99951 8.55229 5.44723 9 5.99951 9H8.99951C9.5518 9 9.99951 8.55229 9.99951 8C9.99951 7.44772 9.5518 7 8.99951 7H5.99951ZM2.99951 11C2.44723 11 1.99951 11.4477 1.99951 12C1.99951 12.5523 2.44723 13 2.99951 13H3.00951C3.5618 13 4.00951 12.5523 4.00951 12C4.00951 11.4477 3.5618 11 3.00951 11H2.99951ZM5.99951 11C5.44723 11 4.99951 11.4477 4.99951 12C4.99951 12.5523 5.44723 13 5.99951 13H8.99951C9.5518 13 9.99951 12.5523 9.99951 12C9.99951 11.4477 9.5518 11 8.99951 11H5.99951Z" fill="url(#paint1_linear)"/>
<defs>
<linearGradient id="paint0_linear" x1="-4.00049" y1="-0.5" x2="12.4995" y2="16.5" gradientUnits="userSpaceOnUse">
<stop stop-color="#E54033"/>
<stop offset="0.526042" stop-color="#FECA1A"/>
<stop offset="1" stop-color="#AFD803"/>
</linearGradient>
<linearGradient id="paint1_linear" x1="-4.00049" y1="-0.5" x2="12.4995" y2="16.5" gradientUnits="userSpaceOnUse">
<stop stop-color="#E54033"/>
<stop offset="0.526042" stop-color="#FECA1A"/>
<stop offset="1" stop-color="#AFD803"/>
</linearGradient>
</defs>
</svg>
