<svg width="44" height="37" viewBox="0 0 44 37" fill="none" xmlns="http://www.w3.org/2000/svg">
<path d="M31.2257 11.3847V5.69235C31.2257 4.12046 29.9548 2.84619 28.387 2.84619H5.67733C4.10956 2.84619 2.83862 4.12046 2.83862 5.69235V11.3847C2.83862 12.9565 4.10956 14.2308 5.67733 14.2308H21.9999" stroke="#E1CE7A" stroke-width="3" stroke-linecap="round" stroke-linejoin="round"/>
<path d="M18.4515 19.9231H5.67733C4.10956 19.9231 2.83862 21.1974 2.83862 22.7692V28.4616C2.83862 30.0334 4.10956 31.3077 5.67733 31.3077H21.2902" stroke="#E1CE7A" stroke-width="3" stroke-linecap="round" stroke-linejoin="round"/>
<path d="M8.51611 8.53857H8.53319" stroke="#E1CE7A" stroke-width="3" stroke-linecap="round" stroke-linejoin="round"/>
<path d="M8.51611 25.6155H8.53319" stroke="#E1CE7A" stroke-width="3" stroke-linecap="round" stroke-linejoin="round"/>
<path d="M29.8065 34.1538C36.0776 34.1538 41.1613 29.0567 41.1613 22.7691C41.1613 16.4816 36.0776 11.3845 29.8065 11.3845C23.5354 11.3845 18.4517 16.4816 18.4517 22.7691C18.4517 29.0567 23.5354 34.1538 29.8065 34.1538Z" stroke="#E1CE7A" stroke-width="3" stroke-linecap="round" stroke-linejoin="round"/>
<path d="M34.0645 22.7692L29.8064 18.5L25.5483 22.7692" stroke="#E1CE7A" stroke-width="1.5" stroke-linecap="round" stroke-linejoin="round"/>
<path d="M29.8064 27.0385V18.5" stroke="#E1CE7A" stroke-width="1.5" stroke-linecap="round" stroke-linejoin="round"/>
</svg>
