<svg width="61" height="40" viewBox="0 0 61 40" fill="none" xmlns="http://www.w3.org/2000/svg">
<path fill-rule="evenodd" clip-rule="evenodd" d="M34.9564 13.2373C34.9564 6.50469 40.4143 1.04688 47.1468 1.04688C53.8794 1.04688 59.3372 6.50469 59.3372 13.2373C59.3372 19.9698 53.8794 25.4276 47.1468 25.4276C40.4143 25.4276 34.9564 19.9698 34.9564 13.2373ZM47.1468 0.046875C39.862 0.046875 33.9564 5.95241 33.9564 13.2373C33.9564 20.5221 39.862 26.4276 47.1468 26.4276C54.4317 26.4276 60.3372 20.5221 60.3372 13.2373C60.3372 5.95241 54.4317 0.046875 47.1468 0.046875ZM10.2298 3.35156C5.40866 3.35156 1.50039 7.25983 1.50039 12.0809C1.50039 16.902 5.40866 20.8103 10.2298 20.8103C15.0509 20.8103 18.9591 16.902 18.9591 12.0809C18.9591 7.25983 15.0509 3.35156 10.2298 3.35156ZM0.500388 12.0809C0.500388 6.70755 4.85637 2.35156 10.2298 2.35156C15.6031 2.35156 19.9591 6.70755 19.9591 12.0809C19.9591 17.4543 15.6031 21.8103 10.2298 21.8103C4.85637 21.8103 0.500388 17.4543 0.500388 12.0809ZM0 24.0588L57.2536 31.0886L57.3755 30.0961L0.121869 23.0662L0 24.0588ZM29.8418 30.8328L37.4828 38.7737H22.2007L29.8418 30.8328ZM29.1212 30.1395C29.5146 29.7306 30.169 29.7306 30.5624 30.1395L38.2034 38.0803C38.8147 38.7156 38.3645 39.7737 37.4828 39.7737H22.2007C21.3191 39.7737 20.8688 38.7156 21.4802 38.0803L29.1212 30.1395Z" fill="url(#paint0_linear_3848_79918)"/>
<defs>
<linearGradient id="paint0_linear_3848_79918" x1="-5.16979e-08" y1="21.8966" x2="60.3535" y2="22.9359" gradientUnits="userSpaceOnUse">
<stop stop-color="#00C2FF"/>
<stop offset="0.5" stop-color="#00E4FF"/>
<stop offset="1" stop-color="#87F2FF"/>
</linearGradient>
</defs>
</svg>
