<svg viewBox="0 0 55 59" fill="none" xmlns="http://www.w3.org/2000/svg">
<path fill-rule="evenodd" clip-rule="evenodd" d="M28.5 1C28.5 0.723858 28.2761 0.5 28 0.5C27.7239 0.5 27.5 0.723858 27.5 1L27.5 27.4895L13.752 24.6451C13.0802 24.2576 12.1576 24.4338 11.7138 25.1736L0.587026 43.7181L0.582962 43.7242C0.52788 43.8075 0.499843 43.9039 0.500001 44.0009C0.499879 44.0762 0.516761 44.1516 0.550723 44.2211C2.63243 49.0884 7.42018 52.5 13 52.5C18.5798 52.5 23.3676 49.0884 25.4493 44.221C25.4831 44.1519 25.4999 44.077 25.5 44.0021C25.5004 43.9047 25.4724 43.8078 25.417 43.7242L25.4129 43.7181L14.6995 25.8623L40.6759 31.2367L29.587 49.7181C29.5857 49.7201 29.5843 49.7221 29.583 49.7242C29.5279 49.8074 29.4999 49.9038 29.5 50.0007C29.4999 50.0761 29.5167 50.1516 29.5507 50.2211C31.6324 55.0884 36.4202 58.5 42 58.5C47.5798 58.5 52.3676 55.0884 54.4493 50.2211C54.483 50.152 54.4999 50.0772 54.5 50.0024C54.5005 49.9049 54.4724 49.8079 54.417 49.7242C54.4157 49.7221 54.4143 49.7201 54.4129 49.7181L43.2862 31.1736C42.962 30.6332 42.3823 30.3935 41.8315 30.4546L28.5 27.6964L28.5 1ZM41.8285 31.4752L41.8988 31.4897C41.9905 31.5087 42.0816 31.5012 42.164 31.4725C42.2692 31.5086 42.3642 31.5804 42.4287 31.6881L53.1159 49.5H30.8841L41.5713 31.6881C41.6343 31.583 41.7263 31.512 41.8285 31.4752ZM30.7818 50.5017H53.2182C51.1475 54.6563 46.8991 57.5 42 57.5C37.1009 57.5 32.8525 54.6563 30.7818 50.5017ZM12.8988 25.4897C12.8773 25.4853 12.8564 25.4795 12.8361 25.4725C12.7309 25.5085 12.6359 25.5804 12.5713 25.6881L1.88409 43.5H24.1159L13.4287 25.6881C13.4045 25.6476 13.3759 25.6122 13.3441 25.5819L12.8988 25.4897ZM24.2182 44.5017C22.1475 48.6563 17.8991 51.5 13 51.5C8.10092 51.5 3.85248 48.6563 1.78184 44.5017H24.2182Z" fill="white"/>
</svg>
