<svg width="56" height="56" viewBox="0 0 56 56" fill="none" xmlns="http://www.w3.org/2000/svg">
<path d="M0 28C0 12.536 12.536 0 28 0C43.464 0 56 12.536 56 28C56 43.464 43.464 56 28 56C12.536 56 0 43.464 0 28Z" fill="#55ACEE"/>
<path d="M27.1614 22.7586L27.2202 23.7274L26.2409 23.6088C22.6763 23.154 19.5623 21.6117 16.9182 19.0215L15.6256 17.7363L15.2926 18.6854C14.5876 20.8011 15.038 23.0354 16.5069 24.5381C17.2904 25.3686 17.1141 25.4872 15.7627 24.9929C15.2926 24.8347 14.8813 24.7161 14.8422 24.7754C14.7051 24.9138 15.1751 26.7131 15.5472 27.4249C16.0565 28.4136 17.0945 29.3824 18.2305 29.9558L19.1901 30.4106L18.0542 30.4304C16.9574 30.4304 16.9182 30.4501 17.0357 30.8654C17.4274 32.1506 18.9747 33.5149 20.6982 34.1081L21.9125 34.5233L20.8549 35.1561C19.2881 36.0656 17.447 36.5797 15.606 36.6192C14.7247 36.639 14 36.7181 14 36.7774C14 36.9751 16.3894 38.0824 17.78 38.5174C21.9517 39.8026 26.9068 39.249 30.628 37.0542C33.2721 35.4922 35.9161 32.3879 37.15 29.3824C37.8159 27.7808 38.4818 24.8545 38.4818 23.4506C38.4818 22.5411 38.5405 22.4224 39.6373 21.3349C40.2836 20.7022 40.8908 20.0101 41.0083 19.8124C41.2042 19.4367 41.1846 19.4367 40.1857 19.7729C38.5209 20.3661 38.2859 20.287 39.1085 19.3972C39.7157 18.7645 40.4403 17.6176 40.4403 17.2815C40.4403 17.2222 40.1465 17.3211 39.8136 17.499C39.4611 17.6967 38.6776 17.9933 38.0901 18.1713L37.0325 18.5074L36.0728 17.8549C35.544 17.499 34.7997 17.1036 34.408 16.9849C33.4092 16.7081 31.8815 16.7476 30.9806 17.064C28.5324 17.9538 26.9851 20.2474 27.1614 22.7586Z" fill="white"/>
</svg>
