<svg width="48" height="48" viewBox="0 0 48 48" fill="none" xmlns="http://www.w3.org/2000/svg">
<path d="M0 24C0 10.7452 10.7452 0 24 0C37.2548 0 48 10.7452 48 24C48 37.2548 37.2548 48 24 48C10.7452 48 0 37.2548 0 24Z" fill="#55ACEE"/>
<path d="M24.5956 20.1184L24.6563 21.1132L23.6447 20.9914C19.9626 20.5244 16.7458 18.9408 14.0145 16.2812L12.6792 14.9616L12.3353 15.9361C11.6069 18.1084 12.0723 20.4026 13.5896 21.9456C14.3989 22.7983 14.2168 22.9201 12.8208 22.4125C12.3353 22.2501 11.9104 22.1283 11.87 22.1892C11.7283 22.3313 12.2139 24.1788 12.5983 24.9097C13.1243 25.9248 14.1966 26.9196 15.37 27.5084L16.3614 27.9754L15.1879 27.9957C14.055 27.9957 14.0145 28.016 14.1359 28.4423C14.5405 29.762 16.1388 31.1628 17.9192 31.7719L19.1735 32.1983L18.081 32.8479C16.4625 33.7818 14.5608 34.3097 12.659 34.3503C11.7486 34.3706 11 34.4518 11 34.5127C11 34.7157 13.4682 35.8527 14.9047 36.2993C19.214 37.619 24.3326 37.0505 28.1766 34.797C30.9078 33.1931 33.6391 30.0056 34.9137 26.9196C35.6016 25.2752 36.2894 22.2704 36.2894 20.8289C36.2894 19.895 36.3501 19.7732 37.4831 18.6566C38.1507 18.0069 38.7779 17.2963 38.8993 17.0933C39.1016 16.7076 39.0814 16.7076 38.0496 17.0527C36.3299 17.6618 36.0871 17.5806 36.9368 16.667C37.564 16.0173 38.3126 14.8398 38.3126 14.4946C38.3126 14.4337 38.0091 14.5352 37.6652 14.7179C37.301 14.921 36.4917 15.2255 35.8848 15.4082L34.7923 15.7534L33.801 15.0834C33.2547 14.7179 32.4859 14.3119 32.0813 14.1901C31.0495 13.9058 29.4714 13.9464 28.5407 14.2713C26.0118 15.1849 24.4135 17.54 24.5956 20.1184Z" fill="white"/>
</svg>
