<svg width="32" height="32" fill="none" xmlns="http://www.w3.org/2000/svg"><path d="M16 32c8.867 0 16-7.133 16-16S24.867 0 16 0 0 7.133 0 16s7.133 16 16 16Z" fill="#2775CA"/><path d="M20.4 18.533c0-2.333-1.4-3.133-4.2-3.466-2-.267-2.4-.8-2.4-1.734 0-.933.667-1.533 2-1.533 1.2 0 1.867.4 2.2 1.4.067.2.267.333.467.333h1.066c.267 0 .467-.2.467-.466V13a3.33 3.33 0 0 0-3-2.733v-1.6c0-.267-.2-.467-.533-.534h-1c-.267 0-.467.2-.534.534V10.2c-2 .267-3.266 1.6-3.266 3.267 0 2.2 1.333 3.066 4.133 3.4 1.867.333 2.467.733 2.467 1.8 0 1.066-.934 1.8-2.2 1.8-1.734 0-2.334-.734-2.534-1.734-.066-.266-.266-.4-.466-.4h-1.134c-.266 0-.466.2-.466.467v.067c.266 1.666 1.333 2.866 3.533 3.2v1.6c0 .266.2.466.533.533h1c.267 0 .467-.2.534-.533v-1.6c2-.334 3.333-1.734 3.333-3.534Z" fill="#fff"/><path d="M12.6 25.534c-5.2-1.867-7.867-7.667-5.933-12.8 1-2.8 3.2-4.934 5.933-5.934.267-.133.4-.333.4-.666V5.2c0-.266-.133-.466-.4-.533-.067 0-.2 0-.267.067-6.333 2-9.8 8.733-7.8 15.066 1.2 3.734 4.067 6.6 7.8 7.8.267.134.534 0 .6-.266.067-.067.067-.134.067-.267v-.933c0-.2-.2-.467-.4-.6Zm7.067-20.8c-.267-.134-.534 0-.6.266-.067.067-.067.134-.067.267V6.2c0 .267.2.534.4.667 5.2 1.867 7.867 7.667 5.933 12.8-1 2.8-3.2 4.933-5.933 5.933-.267.134-.4.334-.4.667v.933c0 .267.133.467.4.534.067 0 .2 0 .267-.067 6.333-2 9.8-8.733 7.8-15.067a12.091 12.091 0 0 0-7.8-7.866Z" fill="#fff"/></svg>