<?xml version="1.0" encoding="utf-8"?>
<!-- Generator: Adobe Illustrator 16.0.3, SVG Export Plug-In . SVG Version: 6.00 Build 0)  -->
<!DOCTYPE svg PUBLIC "-//W3C//DTD SVG 1.1//EN" "http://www.w3.org/Graphics/SVG/1.1/DTD/svg11.dtd">
<svg version="1.1" id="Layer_1" xmlns="http://www.w3.org/2000/svg" xmlns:xlink="http://www.w3.org/1999/xlink" x="0px" y="0px"
	 width="246px" height="48px" viewBox="0 0 246 48" enable-background="new 0 0 246 48" xml:space="preserve">
<title>Logos/Outlined/MeanFi White On Black</title>
<g id="Logos_x2F_Outlined_x2F_MeanFi-White-On-Black">
	<g id="Group">
		<g id="Fill-1-Copy">
			
				<linearGradient id="SVGID_1_" gradientUnits="userSpaceOnUse" x1="82.6738" y1="61.7598" x2="82.6738" y2="60.7598" gradientTransform="matrix(49.6774 0 0 -48 -4082.1772 2964.5)">
				<stop  offset="0" style="stop-color:#FF0017"/>
				<stop  offset="1" style="stop-color:#B7001C"/>
			</linearGradient>
			<path fill="url(#SVGID_1_)" d="M48.324,0L24.84,6.182L1.356,0L0,10.77l9.722,24.621L24.842,48l15.116-12.609l9.719-24.621
				L48.324,0z M43.982,5.857l0.642,5.105l-8.541,21.633l-5.444,4.541l7.689-24.26L28.5,15.391L26.7,37.076l-1.86,4.866l-1.86-4.866
				l-1.802-21.686l-9.828-2.514l7.689,24.26l-5.444-4.541l-8.54-21.633l0.642-5.105l19.143,5.042L43.982,5.857z"/>
		</g>
		<path id="MEAN" fill="#FFFFFF" d="M67.141,38.525l1.351-17.779l6.327,17.427h4.292l6.327-17.427l1.369,17.779h7.123L91.228,8
			h-7.585l-6.679,17.354L70.286,8h-7.585L60,38.525H67.141z M124.13,38.525v-6.254h-10.416v-5.92h9.971v-6.252h-9.971v-5.846h10.416
			V8h-17.538v30.525H124.13z M141.141,38.525l2.201-5.957h11.581l2.183,5.957h7.678L152.443,8h-6.623l-12.357,30.525H141.141z
			 M152.48,26.314h-6.715l3.367-8.639L152.48,26.314z M181.757,38.525V19.858l11.987,18.667h7.123V8h-7.123v18.666L181.757,8h-7.122
			v30.525H181.757z"/>
	</g>
</g>
</svg>
