<svg width="18" height="15" viewBox="0 0 18 15" fill="none" xmlns="http://www.w3.org/2000/svg">
<path d="M12 3C12 4.65685 10.6569 6 9 6C7.34315 6 6 4.65685 6 3C6 1.34315 7.34315 0 9 0C10.6569 0 12 1.34315 12 3Z" fill="url(#paint0_linear)"/>
<path d="M17 5C17 6.10457 16.1046 7 15 7C13.8954 7 13 6.10457 13 5C13 3.89543 13.8954 3 15 3C16.1046 3 17 3.89543 17 5Z" fill="url(#paint1_linear)"/>
<path d="M13 12C13 9.79086 11.2091 8 9 8C6.79086 8 5 9.79086 5 12V15H13V12Z" fill="url(#paint2_linear)"/>
<path d="M5 5C5 6.10457 4.10457 7 3 7C1.89543 7 1 6.10457 1 5C1 3.89543 1.89543 3 3 3C4.10457 3 5 3.89543 5 5Z" fill="url(#paint3_linear)"/>
<path d="M15 15V12C15 10.9459 14.7282 9.9552 14.2507 9.09432C14.4902 9.03275 14.7413 9 15 9C16.6569 9 18 10.3431 18 12V15H15Z" fill="url(#paint4_linear)"/>
<path d="M3.74926 9.09432C3.27185 9.9552 3 10.9459 3 12V15H0V12C0 10.3431 1.34315 9 3 9C3.25871 9 3.50977 9.03275 3.74926 9.09432Z" fill="url(#paint5_linear)"/>
<defs>
<linearGradient id="paint0_linear" x1="-14" y1="-3.89417e-07" x2="9" y2="15" gradientUnits="userSpaceOnUse">
<stop stop-color="#E54033"/>
<stop offset="1" stop-color="#FECA1A"/>
</linearGradient>
<linearGradient id="paint1_linear" x1="-14" y1="-3.89417e-07" x2="9" y2="15" gradientUnits="userSpaceOnUse">
<stop stop-color="#E54033"/>
<stop offset="1" stop-color="#FECA1A"/>
</linearGradient>
<linearGradient id="paint2_linear" x1="-14" y1="-3.89417e-07" x2="9" y2="15" gradientUnits="userSpaceOnUse">
<stop stop-color="#E54033"/>
<stop offset="1" stop-color="#FECA1A"/>
</linearGradient>
<linearGradient id="paint3_linear" x1="-14" y1="-3.89417e-07" x2="9" y2="15" gradientUnits="userSpaceOnUse">
<stop stop-color="#E54033"/>
<stop offset="1" stop-color="#FECA1A"/>
</linearGradient>
<linearGradient id="paint4_linear" x1="-14" y1="-3.89417e-07" x2="9" y2="15" gradientUnits="userSpaceOnUse">
<stop stop-color="#E54033"/>
<stop offset="1" stop-color="#FECA1A"/>
</linearGradient>
<linearGradient id="paint5_linear" x1="-14" y1="-3.89417e-07" x2="9" y2="15" gradientUnits="userSpaceOnUse">
<stop stop-color="#E54033"/>
<stop offset="1" stop-color="#FECA1A"/>
</linearGradient>
</defs>
</svg>
