<svg width="16" height="18" viewBox="0 0 16 18" fill="none" xmlns="http://www.w3.org/2000/svg">
<path fill-rule="evenodd" clip-rule="evenodd" d="M0.166107 3.99878C3.17437 3.95797 5.91528 2.81021 8 0.944336C10.0847 2.81021 12.8256 3.95797 15.8339 3.99878C15.9431 4.64956 16 5.31809 16 5.99991C16 11.2248 12.6608 15.6697 8 17.317C3.33923 15.6697 0 11.2248 0 5.99991C0 5.31809 0.0568637 4.64956 0.166107 3.99878ZM11.7071 7.70698C12.0976 7.31646 12.0976 6.6833 11.7071 6.29277C11.3166 5.90225 10.6834 5.90225 10.2929 6.29277L7 9.58566L5.70711 8.29277C5.31658 7.90225 4.68342 7.90225 4.29289 8.29277C3.90237 8.6833 3.90237 9.31646 4.29289 9.70698L6.29289 11.707C6.68342 12.0975 7.31658 12.0975 7.70711 11.707L11.7071 7.70698Z" fill="url(#paint0_linear)"/>
<defs>
<linearGradient id="paint0_linear" x1="-28" y1="-6" x2="26" y2="23" gradientUnits="userSpaceOnUse">
<stop stop-color="#E54033"/>
<stop offset="1" stop-color="#FECA1A"/>
</linearGradient>
</defs>
</svg>
