<svg width="985" height="1006" viewBox="0 0 985 1006" fill="none" xmlns="http://www.w3.org/2000/svg">
<path fill-rule="evenodd" clip-rule="evenodd" d="M472.746 272.289C472.751 272.283 472.755 272.276 472.76 272.27C509.05 290.89 548.76 297.27 586.76 297.16C608.84 317.44 627.21 341.26 644.47 365.72C651.627 375.937 658.082 386.628 663.79 397.72C676.989 423.136 686.696 450.028 696.518 477.237C699.398 485.217 702.289 493.225 705.28 501.23C706.217 504.656 707.196 508.084 708.217 511.514L708.27 511.5C723.44 563.53 745.59 619.11 775.27 665L775.241 665.012C785.058 680.087 796.055 694.361 808.13 707.7C810.506 710.27 812.936 712.816 815.369 715.365L815.37 715.366L815.371 715.367L815.374 715.37C826.742 727.28 838.19 739.274 844.68 754.28C852.76 772.98 852.14 794.49 847.28 814.28C824.35 907.56 734.52 932.07 648.67 934.33L648.711 934.223C616.522 934.864 584.556 932.465 556.21 929.56C556.21 929.56 419.5 915.41 303.62 830.69L299.88 827.91C299.88 827.91 299.88 827.91 299.881 827.909C286.355 817.83 273.451 806.941 261.24 795.3C228.76 764.3 199.86 729.14 177.76 690.54C177.908 690.392 178.055 690.243 178.203 690.095C175.587 685.388 173.079 680.633 170.68 675.83C149.3 633.04 136.27 586.46 135.68 536.95C134.674 453.873 163.095 368.795 217.118 307.113C217.098 307.062 217.079 307.011 217.06 306.96C246.31 274.92 282.87 249.75 326.15 235.42C353.283 226.354 381.768 222.001 410.37 222.55C427.775 242.987 448.954 259.874 472.746 272.289ZM406.153 815.85C425.711 808.711 444.24 799.11 461.518 787.279C444.131 799.029 425.575 808.637 406.153 815.85Z" fill="url(#paint0_linear)"/>
<path fill-rule="evenodd" clip-rule="evenodd" d="M756.498 204.628C756.512 204.628 756.526 204.628 756.54 204.627L757.72 203.867C605.3 -56.133 406 148.567 406 148.567L406.285 149.068C406.273 149.071 406.262 149.074 406.25 149.077C520.856 350.01 738.664 216.087 756.498 204.628Z" fill="url(#paint1_linear)"/>
<path d="M567.56 652.44C525.56 752.84 444.92 819.32 347.22 829.39C345.12 829.67 318.38 831.78 303.62 830.69C419.5 915.41 556.21 929.56 556.21 929.56C585.48 932.56 618.61 935.02 651.86 934.15C663.57 903.58 670.16 868.58 668.27 828.87C663.88 736.64 717.36 689.29 775.27 665C745.59 619.11 723.44 563.53 708.27 511.5C663.05 523.53 605.62 561.36 567.56 652.44Z" fill="url(#paint2_linear)"/>
<path d="M666.44 828.22C668.34 867.93 660.38 903.76 648.67 934.33C734.52 932.07 824.35 907.56 847.28 814.28C852.14 794.49 852.76 772.98 844.68 754.28C836.8 736.06 821.61 722.28 808.13 707.7C795.519 693.769 784.084 678.818 773.94 663C716.08 687.3 662.05 736 666.44 828.22Z" fill="url(#paint3_linear)"/>
<path d="M705.28 501.23C692.09 465.93 680.86 430.59 663.79 397.72C658.082 386.628 651.627 375.937 644.47 365.72C627.21 341.26 608.84 317.44 586.76 297.16C548.76 297.27 509.05 290.89 472.76 272.27C436 324.41 393.94 412.86 432.44 513.82C489.29 662.92 373.92 764.82 299.88 827.91L303.62 830.69C317.502 831.773 331.455 831.573 345.3 830.09C442.99 820.01 528.3 751.93 570.3 651.54C608.37 560.46 663.75 525.86 708.91 513.82C707.637 509.62 706.427 505.423 705.28 501.23Z" fill="url(#paint4_linear)"/>
<path d="M221.09 302.67C164.49 364.67 134.65 451.86 135.68 536.95C136.27 586.46 149.3 633.04 170.68 675.83C173.887 682.25 177.287 688.583 180.88 694.83C299.87 575.39 256.88 397.42 221.09 302.67Z" fill="url(#paint5_linear)"/>
<path d="M434.44 513.82C395.94 412.82 437.06 324.95 473.77 272.82C449.561 260.357 428.024 243.28 410.37 222.55C381.768 222.001 353.283 226.354 326.15 235.42C282.87 249.75 246.31 274.92 217.06 306.96C252.06 399.63 294.12 573.72 177.76 690.54C199.86 729.14 228.76 764.3 261.24 795.3C274.051 807.513 287.625 818.899 301.88 829.39C375.92 766.33 491.29 662.92 434.44 513.82Z" fill="url(#paint6_linear)"/>
<path d="M578 165.13C658.57 196.92 715 205.53 755.91 204.3L757.09 203.54C604.67 -56.4601 405.37 148.24 405.37 148.24L405.66 148.75C448.65 141.13 511.13 138.76 578 165.13Z" fill="url(#paint7_linear)"/>
<path d="M579 163.33C512.17 137 449.33 138 405.62 148.75C520.23 349.69 738.05 215.75 755.87 204.3C714.93 205.53 659.57 195.12 579 163.33Z" fill="url(#paint8_linear)"/>
<defs>
<linearGradient id="paint0_linear" x1="46.5" y1="344.5" x2="978.5" y2="903" gradientUnits="userSpaceOnUse">
<stop stop-color="#E54033"/>
<stop offset="0.489583" stop-color="#FECA1A"/>
<stop offset="1" stop-color="#AFD803"/>
</linearGradient>
<linearGradient id="paint1_linear" x1="263767" y1="31225.5" x2="205421" y2="-28791.6" gradientUnits="userSpaceOnUse">
<stop offset="0.15" stop-color="#6CBF00"/>
<stop offset="1" stop-color="#AFD803"/>
</linearGradient>
<linearGradient id="paint2_linear" x1="207.43" y1="837.73" x2="791.43" y2="695.73" gradientUnits="userSpaceOnUse">
<stop offset="0.21" stop-color="#E54033"/>
<stop offset="0.84" stop-color="#FECA1A"/>
</linearGradient>
<linearGradient id="paint3_linear" x1="667.54" y1="798.34" x2="847.74" y2="799.69" gradientUnits="userSpaceOnUse">
<stop stop-color="#FECA1A"/>
<stop offset="0.4" stop-color="#FECA1A"/>
<stop offset="1" stop-color="#AFD803"/>
</linearGradient>
<linearGradient id="paint4_linear" x1="259.65" y1="841.37" x2="629.1" y2="341.2" gradientUnits="userSpaceOnUse">
<stop offset="0.16" stop-color="#E54033"/>
<stop offset="0.84" stop-color="#FECA1A"/>
</linearGradient>
<linearGradient id="paint5_linear" x1="205.85" y1="344.39" x2="189.49" y2="667.45" gradientUnits="userSpaceOnUse">
<stop stop-color="#FECA1A"/>
<stop offset="0.76" stop-color="#E54033"/>
</linearGradient>
<linearGradient id="paint6_linear" x1="386.58" y1="260.5" x2="287.91" y2="635.17" gradientUnits="userSpaceOnUse">
<stop offset="0.16" stop-color="#FECA1A"/>
<stop offset="1" stop-color="#E54033"/>
</linearGradient>
<linearGradient id="paint7_linear" x1="424.8" y1="81.1199" x2="790.13" y2="215.78" gradientUnits="userSpaceOnUse">
<stop offset="0.15" stop-color="#6CBF00"/>
<stop offset="1" stop-color="#AFD803"/>
</linearGradient>
<linearGradient id="paint8_linear" x1="263766" y1="31225.2" x2="205420" y2="-28791.9" gradientUnits="userSpaceOnUse">
<stop offset="0.15" stop-color="#6CBF00"/>
<stop offset="1" stop-color="#AFD803"/>
</linearGradient>
</defs>
</svg>
