<svg width="300" height="300" viewBox="0 0 300 300" fill="none" xmlns="http://www.w3.org/2000/svg">
<path d="M276.681 215.762L234.421 260.895C233.503 261.875 232.391 262.657 231.156 263.191C229.921 263.725 228.588 264.001 227.242 264H26.9061C25.9502 264 25.0152 263.722 24.2158 263.2C23.4164 262.678 22.7876 261.935 22.4066 261.062C22.0256 260.189 21.909 259.224 22.0711 258.286C22.2332 257.348 22.6669 256.477 23.3191 255.781L65.6115 210.648C66.5277 209.67 67.6357 208.89 68.8669 208.356C70.0981 207.822 71.4263 207.545 72.7692 207.543H273.094C274.05 207.543 274.985 207.821 275.784 208.343C276.584 208.865 277.212 209.608 277.593 210.481C277.974 211.354 278.091 212.319 277.929 213.257C277.767 214.195 277.333 215.066 276.681 215.762ZM234.421 124.877C233.503 123.896 232.391 123.114 231.156 122.58C229.921 122.046 228.588 121.771 227.242 121.771H26.9061C25.9502 121.771 25.0152 122.05 24.2158 122.572C23.4164 123.094 22.7876 123.837 22.4066 124.71C22.0256 125.583 21.909 126.548 22.0711 127.486C22.2332 128.424 22.6669 129.294 23.3191 129.99L65.6115 175.123C66.5277 176.101 67.6357 176.881 68.8669 177.415C70.0981 177.95 71.4263 178.226 72.7692 178.229H273.094C274.05 178.229 274.985 177.95 275.784 177.428C276.584 176.906 277.212 176.163 277.593 175.29C277.974 174.417 278.091 173.452 277.929 172.514C277.767 171.576 277.333 170.706 276.681 170.01L234.421 124.877ZM26.9061 92.4571H227.242C228.588 92.4578 229.921 92.1825 231.156 91.6483C232.391 91.1141 233.503 90.3325 234.421 89.352L276.681 44.2189C277.333 43.5229 277.767 42.6524 277.929 41.7143C278.091 40.7761 277.974 39.8113 277.593 38.9383C277.212 38.0653 276.584 37.3221 275.784 36.8001C274.985 36.2781 274.05 36 273.094 36H72.7692C71.4263 36.0023 70.0981 36.279 68.8669 36.8132C67.6357 37.3473 66.5277 38.1274 65.6115 39.1051L23.33 84.2383C22.6785 84.9336 22.2449 85.8031 22.0824 86.7402C21.9199 87.6773 22.0356 88.6413 22.4153 89.5139C22.795 90.3865 23.4221 91.1297 24.2199 91.6526C25.0176 92.1754 25.9512 92.455 26.9061 92.4571Z" fill="url(#paint0_linear_505_367)"/>
<defs>
<linearGradient id="paint0_linear_505_367" x1="43.6094" y1="269.434" x2="252.709" y2="32.7273" gradientUnits="userSpaceOnUse">
<stop offset="0.08" stop-color="#9945FF"/>
<stop offset="0.3" stop-color="#8752F3"/>
<stop offset="0.5" stop-color="#5497D5"/>
<stop offset="0.6" stop-color="#43B4CA"/>
<stop offset="0.72" stop-color="#28E0B9"/>
<stop offset="0.97" stop-color="#19FB9B"/>
</linearGradient>
</defs>
</svg>
