<?xml version="1.0" encoding="utf-8"?>
<svg width="985" height="1006" viewBox="0 0 985 1006" fill="none" xmlns="http://www.w3.org/2000/svg">
  <path fill-rule="evenodd" clip-rule="evenodd" d="M 290.999 332.027 C 291.002 332.023 291.005 332.018 291.008 332.014 C 316.379 345.031 344.14 349.491 370.706 349.415 C 386.142 363.592 398.984 380.245 411.051 397.345 C 416.054 404.487 420.567 411.962 424.557 419.716 C 433.784 437.484 440.571 456.284 447.437 475.306 C 449.451 480.885 451.472 486.483 453.563 492.08 C 454.218 494.475 454.902 496.871 455.616 499.269 L 455.653 499.259 C 466.258 535.633 481.743 574.489 502.493 606.571 L 502.472 606.579 C 509.335 617.118 517.023 627.097 525.465 636.422 C 527.126 638.219 528.825 639.999 530.526 641.781 L 530.526 641.782 L 530.527 641.782 L 530.529 641.785 C 538.477 650.111 546.48 658.496 551.017 668.986 C 556.666 682.06 556.232 697.097 552.835 710.932 C 536.804 776.144 474.004 793.279 413.987 794.859 L 414.015 794.784 C 391.512 795.232 369.165 793.555 349.348 791.524 C 349.348 791.524 253.774 781.632 172.763 722.405 L 170.148 720.461 C 170.148 720.461 170.148 720.461 170.149 720.46 C 160.693 713.414 151.672 705.802 143.135 697.663 C 120.428 675.991 100.224 651.411 84.774 624.426 C 84.878 624.322 84.981 624.218 85.084 624.115 C 83.255 620.824 81.502 617.5 79.825 614.142 C 64.878 584.228 55.769 551.664 55.356 517.051 C 54.653 458.972 74.522 399.495 112.289 356.373 C 112.275 356.337 112.262 356.301 112.249 356.266 C 132.697 333.867 158.257 316.27 188.514 306.252 C 207.482 299.914 227.396 296.871 247.392 297.255 C 259.559 311.542 274.366 323.348 290.999 332.027 Z M 244.443 712.03 C 258.116 707.039 271.07 700.327 283.149 692.056 C 270.994 700.27 258.021 706.987 244.443 712.03 Z" fill="url(#paint0_linear)"/>
  <path fill-rule="evenodd" clip-rule="evenodd" d="M 489.369 284.726 C 489.379 284.726 489.389 284.726 489.398 284.725 L 490.223 284.194 C 383.667 102.428 244.337 245.533 244.337 245.533 L 244.536 245.884 C 244.527 245.886 244.52 245.888 244.511 245.89 C 324.632 386.362 476.901 292.737 489.369 284.726 Z" fill="url(#paint1_linear)"/>
  <path d="M 357.283 597.79 C 327.921 667.98 271.545 714.456 203.244 721.496 C 201.775 721.691 183.082 723.167 172.763 722.405 C 253.774 781.632 349.348 791.524 349.348 791.524 C 369.811 793.622 392.972 795.341 416.217 794.733 C 424.403 773.362 429.01 748.893 427.689 721.132 C 424.62 656.654 462.008 623.552 502.493 606.571 C 481.743 574.489 466.258 535.633 455.653 499.259 C 424.04 507.669 383.891 534.116 357.283 597.79 Z" fill="url(#paint2_linear)"/>
  <path d="M 426.41 720.678 C 427.738 748.439 422.173 773.488 413.987 794.859 C 474.004 793.279 536.804 776.144 552.835 710.932 C 556.232 697.097 556.666 682.06 551.017 668.986 C 545.508 656.249 534.889 646.615 525.465 636.422 C 516.649 626.683 508.654 616.231 501.563 605.173 C 461.113 622.161 423.341 656.207 426.41 720.678 Z" fill="url(#paint3_linear)"/>
  <path d="M 453.563 492.08 C 444.342 467.401 436.491 442.695 424.557 419.716 C 420.567 411.962 416.054 404.487 411.051 397.345 C 398.984 380.245 386.142 363.592 370.706 349.415 C 344.14 349.491 316.379 345.031 291.008 332.014 C 265.309 368.465 235.905 430.3 262.821 500.881 C 302.564 605.117 221.909 676.355 170.148 720.461 L 172.763 722.405 C 182.468 723.162 192.222 723.022 201.901 721.985 C 270.196 714.938 329.836 667.344 359.198 597.161 C 385.813 533.487 424.529 509.298 456.1 500.881 C 455.21 497.945 454.365 495.011 453.563 492.08 Z" fill="url(#paint4_linear)"/>
  <path d="M 115.066 353.267 C 75.497 396.611 54.636 457.565 55.356 517.051 C 55.769 551.664 64.878 584.228 79.825 614.142 C 82.067 618.63 84.444 623.058 86.955 627.425 C 170.141 543.925 140.087 419.506 115.066 353.267 Z" fill="url(#paint5_linear)"/>
  <path d="M 264.219 500.881 C 237.304 430.272 266.051 368.843 291.714 332.399 C 274.79 323.686 259.733 311.747 247.392 297.255 C 227.396 296.871 207.482 299.914 188.514 306.252 C 158.257 316.27 132.697 333.867 112.249 356.266 C 136.717 421.051 166.121 542.757 84.774 624.426 C 100.224 651.411 120.428 675.991 143.135 697.663 C 152.091 706.202 161.581 714.161 171.546 721.496 C 223.308 677.411 303.963 605.117 264.219 500.881 Z" fill="url(#paint6_linear)"/>
  <path d="M 364.581 257.113 C 420.908 279.337 460.358 285.356 488.958 284.496 L 489.783 283.965 C 383.226 102.199 243.896 245.305 243.896 245.305 L 244.099 245.661 C 274.153 240.334 317.833 238.677 364.581 257.113 Z" fill="url(#paint7_linear)"/>
  <path d="M 365.281 255.854 C 318.56 237.447 274.628 238.146 244.071 245.661 C 324.195 386.138 476.472 292.501 488.93 284.496 C 460.309 285.356 421.607 278.079 365.281 255.854 Z" fill="url(#paint8_linear)"/>
  <defs>
    <linearGradient id="paint0_linear" x1="46.5" y1="344.5" x2="978.5" y2="903" gradientUnits="userSpaceOnUse" gradientTransform="matrix(0.699098, 0, 0, 0.699098, -39.497527, 141.67028)">
      <stop stop-color="#E54033"/>
      <stop offset="0.4896" stop-color="#FECA1A"/>
      <stop offset="1" stop-color="#AFD803"/>
    </linearGradient>
    <linearGradient id="paint1_linear" x1="263767" y1="31225.5" x2="205421" y2="-28791.6" gradientUnits="userSpaceOnUse" gradientTransform="matrix(0.699098, 0, 0, 0.699098, -39.497527, 141.67028)">
      <stop offset="0.15" stop-color="#6CBF00"/>
      <stop offset="1" stop-color="#AFD803"/>
    </linearGradient>
    <linearGradient id="paint2_linear" x1="207.43" y1="837.73" x2="791.43" y2="695.73" gradientUnits="userSpaceOnUse" gradientTransform="matrix(0.699098, 0, 0, 0.699098, -39.497527, 141.67028)">
      <stop offset="0.21" stop-color="#E54033"/>
      <stop offset="0.84" stop-color="#FECA1A"/>
    </linearGradient>
    <linearGradient id="paint3_linear" x1="667.54" y1="798.34" x2="847.74" y2="799.69" gradientUnits="userSpaceOnUse" gradientTransform="matrix(0.699098, 0, 0, 0.699098, -39.497527, 141.67028)">
      <stop stop-color="#FECA1A"/>
      <stop offset="0.4" stop-color="#FECA1A"/>
      <stop offset="1" stop-color="#AFD803"/>
    </linearGradient>
    <linearGradient id="paint4_linear" x1="259.65" y1="841.37" x2="629.1" y2="341.2" gradientUnits="userSpaceOnUse" gradientTransform="matrix(0.699098, 0, 0, 0.699098, -39.497527, 141.67028)">
      <stop offset="0.16" stop-color="#E54033"/>
      <stop offset="0.84" stop-color="#FECA1A"/>
    </linearGradient>
    <linearGradient id="paint5_linear" x1="205.85" y1="344.39" x2="189.49" y2="667.45" gradientUnits="userSpaceOnUse" gradientTransform="matrix(0.699098, 0, 0, 0.699098, -39.497527, 141.67028)">
      <stop stop-color="#FECA1A"/>
      <stop offset="0.76" stop-color="#E54033"/>
    </linearGradient>
    <linearGradient id="paint6_linear" x1="386.58" y1="260.5" x2="287.91" y2="635.17" gradientUnits="userSpaceOnUse" gradientTransform="matrix(0.699098, 0, 0, 0.699098, -39.497527, 141.67028)">
      <stop offset="0.16" stop-color="#FECA1A"/>
      <stop offset="1" stop-color="#E54033"/>
    </linearGradient>
    <linearGradient id="paint7_linear" x1="424.8" y1="81.1199" x2="790.13" y2="215.78" gradientUnits="userSpaceOnUse" gradientTransform="matrix(0.699098, 0, 0, 0.699098, -39.497527, 141.67028)">
      <stop offset="0.15" stop-color="#6CBF00"/>
      <stop offset="1" stop-color="#AFD803"/>
    </linearGradient>
    <linearGradient id="paint8_linear" x1="263766" y1="31225.2" x2="205420" y2="-28791.9" gradientUnits="userSpaceOnUse" gradientTransform="matrix(0.699098, 0, 0, 0.699098, -39.497527, 141.67028)">
      <stop offset="0.15" stop-color="#6CBF00"/>
      <stop offset="1" stop-color="#AFD803"/>
    </linearGradient>
    <clipPath id="clippath0" transform="">
      <path d="M 0 800 L 800 800 L 800 0 L 0 0 Z" style="fill: none; clip-rule: nonzero;"/>
    </clipPath>
    <clipPath id="clippath1" transform="">
      <path d="M 269.492 593.987 C 267.427 593.987 265.382 593.554 263.494 592.717 L 263.494 592.717 C 261.604 591.88 259.91 590.657 258.519 589.128 L 258.519 589.128 L 186.411 509.732 C 185.44 508.666 184.798 507.342 184.566 505.919 L 184.566 505.919 C 184.333 504.497 184.518 503.035 185.099 501.716 L 185.099 501.716 C 185.68 500.397 186.632 499.273 187.839 498.485 L 187.839 498.485 C 189.046 497.695 190.456 497.274 191.898 497.271 L 191.898 497.271 L 530.498 496.993 C 532.568 496.993 534.613 497.426 536.503 498.263 L 536.503 498.263 C 538.394 499.1 540.091 500.323 541.481 501.853 L 541.481 501.853 L 613.589 581.249 C 614.561 582.315 615.202 583.639 615.435 585.062 L 615.435 585.062 C 615.668 586.485 615.483 587.946 614.902 589.266 L 614.902 589.266 C 614.321 590.584 613.369 591.708 612.161 592.497 L 612.161 592.497 C 610.955 593.285 609.545 593.707 608.102 593.71 L 608.102 593.71 Z M 191.898 448.266 C 190.456 448.262 189.046 447.841 187.839 447.052 L 187.839 447.052 C 186.632 446.263 185.68 445.14 185.099 443.821 L 185.099 443.821 C 184.518 442.502 184.333 441.04 184.566 439.618 L 184.566 439.618 C 184.798 438.196 185.44 436.871 186.411 435.804 L 186.411 435.804 L 258.519 356.362 C 259.91 354.832 261.606 353.609 263.497 352.772 L 263.497 352.772 C 265.389 351.935 267.435 351.503 269.502 351.503 L 269.502 351.503 L 608.102 351.78 C 609.545 351.784 610.955 352.205 612.161 352.994 L 612.161 352.994 C 613.369 353.783 614.321 354.906 614.902 356.225 L 614.902 356.225 C 615.483 357.545 615.668 359.005 615.435 360.428 L 615.435 360.428 C 615.202 361.85 614.561 363.176 613.589 364.241 L 613.589 364.241 L 541.481 443.684 C 540.092 445.214 538.398 446.435 536.508 447.272 L 536.508 447.272 C 534.618 448.109 532.575 448.541 530.508 448.543 L 530.508 448.543 Z M 263.494 301.735 C 261.604 300.899 259.91 299.677 258.519 298.147 L 258.519 298.147 L 186.411 218.751 C 185.44 217.685 184.798 216.36 184.566 214.937 L 184.566 214.937 C 184.333 213.516 184.518 212.053 185.099 210.734 L 185.099 210.734 C 185.68 209.416 186.632 208.292 187.839 207.504 L 187.839 207.504 C 189.046 206.715 190.456 206.293 191.898 206.29 L 191.898 206.29 L 530.498 206.013 C 532.568 206.013 534.613 206.446 536.503 207.283 L 536.503 207.283 C 538.394 208.119 540.091 209.342 541.481 210.871 L 541.481 210.871 L 613.589 290.268 C 614.561 291.334 615.202 292.658 615.435 294.081 L 615.435 294.081 C 615.668 295.504 615.483 296.965 614.902 298.284 L 614.902 298.284 C 614.321 299.604 613.369 300.727 612.161 301.515 L 612.161 301.515 C 610.955 302.304 609.545 302.726 608.102 302.729 L 608.102 302.729 L 269.492 303.006 C 267.427 303.004 265.382 302.572 263.494 301.735" style="fill: none; clip-rule: nonzero;"/>
    </clipPath>
    <linearGradient id="shading0" gradientUnits="userSpaceOnUse" x1="0" y1="0" x2="1" y2="0">
      <stop offset="0" style="stop-color: rgb(153, 69, 255);"/>
      <stop offset="0.1" style="stop-color: rgb(137, 84, 243);"/>
      <stop offset="0.2" style="stop-color: rgb(121, 98, 231);"/>
      <stop offset="0.3" style="stop-color: rgb(106, 112, 220);"/>
      <stop offset="0.4" style="stop-color: rgb(91, 126, 208);"/>
      <stop offset="0.5" style="stop-color: rgb(76, 140, 197);"/>
      <stop offset="0.6" style="stop-color: rgb(61, 154, 186);"/>
      <stop offset="0.7" style="stop-color: rgb(45, 167, 174);"/>
      <stop offset="0.8" style="stop-color: rgb(30, 181, 163);"/>
      <stop offset="0.9" style="stop-color: rgb(15, 195, 151);"/>
      <stop offset="1" style="stop-color: rgb(0, 209, 140);"/>
    </linearGradient>
  </defs>
  <g transform="matrix(0.645, 0, 0, -0.645, 431.553009, 815.23175)">
    <g transform="">
      <path d="M 0 800 L 800 800 L 800 0 L 0 0 Z" style="fill: none;"/>
    </g>
    <g style="clip-path: url(#clippath0);">
      <g transform="translate(400 769.5)">
        <path d="M 0 0 C 204.069 0 369.5 -165.431 369.5 -369.5 C 369.5 -573.569 204.069 -739 0 -739 C -204.069 -739 -369.5 -573.569 -369.5 -369.5 C -369.5 -165.431 -204.069 0 0 0" style="fill: rgb(0, 0, 0); fill-opacity: 1;"/>
      </g>
    </g>
    <g transform="">
      <path d="M 269.492 593.987 C 267.427 593.987 265.382 593.554 263.494 592.717 L 263.494 592.717 C 261.604 591.88 259.91 590.657 258.519 589.128 L 258.519 589.128 L 186.411 509.732 C 185.44 508.666 184.798 507.342 184.566 505.919 L 184.566 505.919 C 184.333 504.497 184.518 503.035 185.099 501.716 L 185.099 501.716 C 185.68 500.397 186.632 499.273 187.839 498.485 L 187.839 498.485 C 189.046 497.695 190.456 497.274 191.898 497.271 L 191.898 497.271 L 530.498 496.993 C 532.568 496.993 534.613 497.426 536.503 498.263 L 536.503 498.263 C 538.394 499.1 540.091 500.323 541.481 501.853 L 541.481 501.853 L 613.589 581.249 C 614.561 582.315 615.202 583.639 615.435 585.062 L 615.435 585.062 C 615.668 586.485 615.483 587.946 614.902 589.266 L 614.902 589.266 C 614.321 590.584 613.369 591.708 612.161 592.497 L 612.161 592.497 C 610.955 593.285 609.545 593.707 608.102 593.71 L 608.102 593.71 Z M 191.898 448.266 C 190.456 448.262 189.046 447.841 187.839 447.052 L 187.839 447.052 C 186.632 446.263 185.68 445.14 185.099 443.821 L 185.099 443.821 C 184.518 442.502 184.333 441.04 184.566 439.618 L 184.566 439.618 C 184.798 438.196 185.44 436.871 186.411 435.804 L 186.411 435.804 L 258.519 356.362 C 259.91 354.832 261.606 353.609 263.497 352.772 L 263.497 352.772 C 265.389 351.935 267.435 351.503 269.502 351.503 L 269.502 351.503 L 608.102 351.78 C 609.545 351.784 610.955 352.205 612.161 352.994 L 612.161 352.994 C 613.369 353.783 614.321 354.906 614.902 356.225 L 614.902 356.225 C 615.483 357.545 615.668 359.005 615.435 360.428 L 615.435 360.428 C 615.202 361.85 614.561 363.176 613.589 364.241 L 613.589 364.241 L 541.481 443.684 C 540.092 445.214 538.398 446.435 536.508 447.272 L 536.508 447.272 C 534.618 448.109 532.575 448.541 530.508 448.543 L 530.508 448.543 Z M 263.494 301.735 C 261.604 300.899 259.91 299.677 258.519 298.147 L 258.519 298.147 L 186.411 218.751 C 185.44 217.685 184.798 216.36 184.566 214.937 L 184.566 214.937 C 184.333 213.516 184.518 212.053 185.099 210.734 L 185.099 210.734 C 185.68 209.416 186.632 208.292 187.839 207.504 L 187.839 207.504 C 189.046 206.715 190.456 206.293 191.898 206.29 L 191.898 206.29 L 530.498 206.013 C 532.568 206.013 534.613 206.446 536.503 207.283 L 536.503 207.283 C 538.394 208.119 540.091 209.342 541.481 210.871 L 541.481 210.871 L 613.589 290.268 C 614.561 291.334 615.202 292.658 615.435 294.081 L 615.435 294.081 C 615.668 295.504 615.483 296.965 614.902 298.284 L 614.902 298.284 C 614.321 299.604 613.369 300.727 612.161 301.515 L 612.161 301.515 C 610.955 302.304 609.545 302.726 608.102 302.729 L 608.102 302.729 L 269.492 303.006 C 267.427 303.004 265.382 302.572 263.494 301.735" style="fill: none;"/>
    </g>
    <g style="clip-path: url(#clippath1);">
      <g transform="matrix(404.8815613 404.8819275 -404.8819275 404.8815613 197.5595551 197.5593262)">
        <rect x="-0.4879435622435237" y="-0.9879427329887209" width="1.97588557909759" height="1.97588557909759" style="fill: url(#shading0);"/>
      </g>
    </g>
  </g>
</svg>