<?xml version="1.0"?><svg xmlns="http://www.w3.org/2000/svg" xmlns:xlink="http://www.w3.org/1999/xlink" viewBox="-210.44 -146.58 868.27 868.27" width="3832.3353293413174px" height="3832.3353293413174px" style="overflow: visible; width: 100%; height: 100%; position: absolute; left: 0px; top: 0px; transition: 350ms ease-in-out; backface-visibility: hidden; opacity: 1; transform: translate3d(0px, 0px, 0px) rotate3d(1, 1, 0, 0deg);"><g transform="translate(0 0)"><g transform="translate(0 0)"><g transform="translate(0 0)"><g><circle fill="#080a53" stroke="none" stroke-width="22.16555877549474" transform="translate(0 0)" cx="223.69842896998736" cy="287.5573524408218" r="406.1347571517923" class="path-animation-91-0"></circle></g></g><g transform="translate(0 0)"><g transform="translate(0 225.25370159696803)"><g transform="translate(0 0)"><g transform="scale(2.434133333333333 2.434133333333333) translate(-4.300000190734863 66.5)"><g transform="translate(0.000,0)" fill="#dc3b2d" stroke="#dc3b2d" stroke-width="0"><path d="M70.70,-66.00L70.80,-65.60L70.60,-63.80L70.10,-63.40L69.31,-63.39L67.78,-63.32L67.05,-63.25L65.76,-62.96L64.80,-62.40L64.04,-61.60L63.35,-60.60L63.05,-59.94L62.63,-57.99L62.50,-56.70L62.41,-55.35L62.35,-54.10L62.30,-52.80L62.25,-51.30L62.23,-50.46L62.20,-48.51L62.20,-47.40L62.20,-46.60L62.20,-44.77L62.20,-42.66L62.20,-41.50L62.20,-23.90L62.20,-22.80L62.20,-20.72L62.21,-18.80L62.22,-17.04L62.24,-15.44L62.25,-14.70L62.27,-13.53L62.30,-11.36L62.33,-9.43L62.35,-8.55L62.38,-7.31L62.48,-5.03L62.55,-4.00L62.63,-2.98L62.80,-0.77L62.90,0.40L62.10,0.90L55.90,0.50L54.90,-0.70L19.30,-54.00L19.29,-53.00L19.25,-52.00L19.21,-50.89L19.20,-49.55L19.20,-48.80L19.20,-47.12L19.20,-46.20L19.20,-45.19L19.20,-42.84L19.20,-41.50L19.20,-23.10L19.20,-22.45L19.20,-20.88L19.20,-19.95L19.20,-18.97L19.23,-16.94L19.25,-15.90L19.28,-14.86L19.33,-12.83L19.35,-11.85L19.38,-10.92L19.45,-9.35L19.50,-8.70L19.63,-7.53L20.05,-5.65L20.35,-4.95L21.09,-3.84L22.00,-3.00L22.92,-2.50L24.10,-2.20L24.79,-2.11L26.44,-2.01L27.40,-2.00L27.90,-1.60L28.20,0.20L28.00,0.60L27.11,0.57L25.85,0.50L25.12,0.45L23.59,0.35L22.80,0.30L22.01,0.25L20.48,0.15L19.75,0.10L18.49,0.03L17.60,0.00L15.70,0.00L14.78,0.03L13.40,0.10L12.59,0.15L10.94,0.25L10.10,0.30L9.26,0.35L7.61,0.45L6.80,0.50L5.42,0.57L4.50,0.60L4.30,0.20L4.60,-1.60L5.10,-2.00L5.97,-2.01L7.49,-2.08L8.15,-2.15L9.34,-2.44L10.40,-3.00L11.11,-3.66L11.85,-4.65L12.20,-5.33L12.72,-7.36L12.90,-8.70L12.99,-9.46L13.05,-10.35L13.09,-11.41L13.10,-12.70L13.10,-13.44L13.10,-15.14L13.10,-16.10L13.10,-16.79L13.10,-18.35L13.10,-20.13L13.10,-21.10L13.10,-41.40L13.10,-42.54L13.10,-44.63L13.10,-46.47L13.10,-47.30L13.10,-48.46L13.10,-50.51L13.10,-51.40L13.09,-52.97L13.05,-54.30L12.99,-55.50L12.90,-56.70L12.77,-57.71L12.32,-59.48L12.00,-60.25L11.25,-61.51L10.40,-62.40L9.39,-62.96L8.15,-63.25L7.45,-63.32L5.93,-63.39L5.10,-63.40L4.60,-63.80L4.30,-65.60L4.50,-66.00L5.36,-65.97L6.55,-65.90L7.91,-65.80L9.30,-65.70L10.69,-65.60L12.05,-65.50L13.24,-65.43L14.10,-65.40L17.60,-65.40L18.56,-65.43L19.85,-65.50L21.16,-65.63L22.20,-65.80L22.70,-65.50L22.95,-64.73L23.78,-62.81L24.35,-61.65L24.78,-60.82L25.73,-59.06L26.78,-57.18L27.35,-56.20L27.79,-55.44L28.70,-53.89L29.65,-52.29L30.64,-50.64L31.15,-49.80L31.66,-48.95L32.69,-47.26L33.73,-45.59L34.78,-43.93L35.30,-43.10L35.93,-42.09L37.17,-40.12L38.38,-38.21L39.57,-36.37L40.73,-34.58L41.86,-32.86L42.96,-31.20L44.04,-29.61L45.09,-28.07L46.11,-26.60L47.11,-25.20L48.08,-23.85L48.55,-23.20L49.46,-21.95L51.12,-19.69L52.56,-17.72L53.76,-16.05L54.75,-14.69L55.51,-13.62L55.80,-13.20L55.81,-13.88L55.85,-14.50L55.89,-15.15L55.90,-15.90L55.90,-16.80L55.90,-17.90L55.90,-18.55L55.90,-20.15L55.90,-21.10L55.90,-41.40L55.90,-42.54L55.90,-44.63L55.90,-46.47L55.90,-47.30L55.90,-48.46L55.87,-50.51L55.85,-51.40L55.80,-52.97L55.75,-54.30L55.69,-55.50L55.60,-56.70L55.47,-57.99L55.02,-59.94L54.70,-60.60L53.97,-61.60L53.20,-62.40L52.16,-62.96L50.85,-63.25L50.12,-63.32L48.59,-63.39L47.80,-63.40L47.40,-63.80L47.10,-65.60L47.30,-66.00L48.15,-65.97L49.30,-65.90L50.61,-65.80L51.95,-65.70L53.29,-65.60L54.60,-65.50L55.75,-65.43L56.60,-65.40L61.30,-65.40L62.15,-65.41L63.30,-65.45L64.63,-65.51L66.00,-65.60L67.38,-65.70L68.70,-65.80L69.85,-65.90Z   " class="path-animation-92-1"></path></g><g transform="translate(74.397,0)" fill="#dc3b2d" stroke="#dc3b2d" stroke-width="0"><path d="M12.90,-56.70L12.77,-57.99L12.29,-59.94L11.95,-60.60L11.19,-61.60L10.40,-62.40L9.38,-62.96L8.10,-63.25L7.39,-63.32L5.89,-63.39L5.10,-63.40L4.60,-63.80L4.30,-65.60L4.50,-66.00L5.42,-65.97L6.80,-65.90L7.61,-65.85L9.26,-65.75L10.10,-65.70L10.94,-65.65L12.59,-65.55L13.40,-65.50L14.77,-65.43L15.70,-65.40L33.10,-65.40L33.83,-65.40L35.81,-65.43L37.05,-65.45L37.93,-65.47L39.71,-65.51L41.50,-65.57L42.40,-65.60L43.72,-65.65L46.14,-65.72L47.25,-65.75L48.99,-65.79L49.90,-65.80L50.40,-64.80L50.00,-53.90L47.50,-53.90L47.10,-54.30L46.99,-55.39L46.72,-57.19L46.55,-57.90L45.88,-59.03L44.55,-59.80L43.62,-60.07L41.15,-60.42L39.60,-60.50L38.91,-60.52L37.38,-60.55L35.63,-60.57L33.66,-60.59L31.47,-60.60L30.30,-60.60L20.70,-60.60L20.50,-56.70L20.41,-55.35L20.35,-54.10L20.30,-52.80L20.25,-51.30L20.23,-50.46L20.20,-48.51L20.20,-47.40L20.20,-46.88L20.20,-45.46L20.20,-43.55L20.20,-41.14L20.20,-38.24L20.20,-36.60L21.20,-36.63L23.20,-36.67L25.20,-36.70L26.20,-36.70L27.18,-36.70L29.06,-36.73L30.82,-36.77L31.65,-36.80L32.83,-36.87L34.90,-37.09L35.80,-37.25L37.23,-37.69L38.10,-38.30L38.85,-39.10L39.50,-39.90L39.95,-40.88L40.10,-42.20L40.60,-42.70L42.30,-42.90L42.70,-42.70L42.60,-41.59L42.43,-39.59L42.35,-38.70L42.28,-37.82L42.21,-35.87L42.20,-34.80L42.21,-33.62L42.28,-31.40L42.35,-30.35L42.43,-29.30L42.60,-27.08L42.70,-25.90L42.30,-25.70L40.50,-25.90L40.10,-26.20L40.06,-26.98L39.76,-28.46L39.50,-29.15L38.85,-30.39L38.10,-31.40L37.22,-31.93L35.80,-32.30L34.91,-32.44L32.86,-32.64L31.70,-32.70L30.88,-32.73L29.15,-32.77L27.28,-32.80L26.30,-32.80L25.30,-32.80L23.28,-32.80L21.23,-32.80L20.20,-32.80L20.20,-23.10L20.20,-21.94L20.20,-19.84L20.20,-18.04L20.20,-17.25L20.20,-16.17L20.23,-14.30L20.25,-13.50L20.30,-12.11L20.35,-10.95L20.41,-9.86L20.50,-8.70L20.64,-7.41L21.17,-5.46L21.55,-4.80L22.39,-3.80L23.20,-3.00L24.31,-2.44L25.85,-2.15L26.72,-2.08L28.39,-2.01L29.20,-2.00L29.70,-1.60L30.00,0.20L29.80,0.60L28.84,0.57L27.35,0.50L26.47,0.45L24.64,0.35L23.70,0.30L22.76,0.25L20.93,0.15L20.05,0.10L18.56,0.03L17.60,0.00L15.70,0.00L14.78,0.03L13.40,0.10L12.59,0.15L10.94,0.25L10.10,0.30L9.26,0.35L7.61,0.45L6.80,0.50L5.42,0.57L4.50,0.60L4.30,0.20L4.60,-1.60L5.10,-2.00L5.89,-2.01L7.39,-2.08L8.10,-2.15L9.38,-2.44L10.40,-3.00L11.19,-3.80L11.95,-4.80L12.29,-5.46L12.77,-7.41L12.90,-8.70L12.91,-9.46L12.95,-10.35L13.00,-11.41L13.05,-12.70L13.07,-13.44L13.10,-15.14L13.10,-16.10L13.10,-16.79L13.10,-18.35L13.10,-20.13L13.10,-21.10L13.10,-41.40L13.10,-42.54L13.10,-44.63L13.10,-46.47L13.10,-47.30L13.10,-48.46L13.07,-50.51L13.05,-51.40L13.00,-52.97L12.95,-54.30L12.91,-55.50Z   " class="path-animation-93-2"></path></g><g transform="translate(130.801,0)" fill="#dc3b2d" stroke="#dc3b2d" stroke-width="0"><path d="M43.30,0.20L43.10,0.60L42.20,0.57L40.90,0.50L40.14,0.45L38.54,0.35L37.70,0.30L36.86,0.25L35.26,0.15L34.50,0.10L33.20,0.03L32.30,0.00L26.60,0.00L25.70,0.03L24.40,0.10L23.64,0.15L22.07,0.25L21.25,0.30L20.43,0.35L18.86,0.45L18.10,0.50L16.80,0.57L15.90,0.60L15.70,0.20L16.00,-1.60L16.50,-2.00L17.33,-2.01L19.13,-2.08L20.10,-2.15L21.80,-2.44L22.90,-3.00L23.73,-3.80L24.60,-4.80L25.01,-5.46L25.56,-7.41L25.70,-8.70L25.79,-9.46L25.85,-10.35L25.90,-11.41L25.95,-12.70L25.97,-13.44L26.00,-15.14L26.00,-16.10L26.00,-16.79L26.00,-18.35L26.00,-20.13L26.00,-21.10L26.00,-41.40L26.00,-42.47L25.99,-44.56L25.98,-46.56L25.97,-48.49L25.94,-50.33L25.92,-52.10L25.90,-52.95L25.88,-54.17L25.82,-56.39L25.77,-58.31L25.72,-59.91L25.70,-60.60L24.60,-60.60L23.38,-60.60L21.10,-60.59L19.05,-60.58L17.23,-60.56L16.40,-60.55L15.37,-60.53L13.51,-60.48L11.93,-60.40L11.25,-60.35L9.55,-60.19L8.35,-60.00L7.54,-59.77L7.00,-59.50L6.31,-59.02L5.23,-57.60L4.51,-55.56L4.30,-54.30L3.90,-53.90L1.60,-53.90L2.30,-65.30L2.70,-66.20L3.30,-66.50L3.82,-66.35L5.57,-66.08L6.80,-65.95L7.71,-65.87L9.63,-65.74L11.65,-65.64L12.70,-65.60L13.76,-65.57L15.84,-65.51L17.86,-65.47L18.85,-65.45L20.22,-65.43L22.35,-65.40L23.10,-65.40L35.70,-65.40L36.45,-65.40L38.58,-65.43L39.95,-65.45L40.94,-65.47L42.96,-65.51L45.04,-65.57L46.10,-65.60L47.15,-65.64L49.17,-65.74L51.09,-65.87L52.00,-65.95L53.23,-66.08L54.98,-66.35L55.50,-66.50L56.10,-66.20L56.50,-65.30L57.30,-53.90L54.90,-53.90L54.50,-54.30L54.29,-55.56L53.58,-57.60L52.49,-59.02L51.80,-59.50L51.26,-59.77L50.45,-60.00L49.25,-60.19L47.55,-60.35L46.87,-60.40L45.29,-60.47L43.43,-60.53L42.40,-60.55L41.57,-60.56L39.76,-60.58L37.74,-60.59L35.50,-60.60L34.30,-60.60L33.20,-60.60L33.18,-59.85L33.13,-58.17L33.09,-56.27L33.06,-54.15L33.05,-53.00L33.04,-52.20L33.03,-50.52L33.02,-48.72L33.01,-46.80L33.00,-44.77L33.00,-42.62L33.00,-41.50L33.00,-23.10L33.00,-21.94L33.00,-19.84L33.00,-18.04L33.00,-17.25L33.00,-16.17L33.03,-14.30L33.05,-13.50L33.10,-12.11L33.15,-10.95L33.21,-9.86L33.30,-8.70L33.44,-7.41L33.99,-5.46L34.40,-4.80L35.27,-3.80L36.10,-3.00L37.20,-2.44L38.90,-2.15L39.88,-2.08L41.67,-2.01L42.50,-2.00L43.00,-1.60Z   " class="path-animation-94-3"></path></g></g><g transform="scale(0.6198993776116075 0.6198993776116076) translate(-2.5 411.1284963278515)"><g transform="translate(0.000,0)" fill="#efe3e3" stroke="#efe3e3" stroke-width="0"><path d="M87.50,0.20L87.40,0.60L86.47,0.57L85.10,0.50L84.29,0.45L82.64,0.35L81.80,0.30L80.96,0.25L79.31,0.15L78.50,0.10L77.13,0.03L76.20,0.00L74.30,0.00L73.38,0.03L72.00,0.10L71.19,0.15L69.54,0.25L68.70,0.30L67.86,0.35L66.21,0.45L65.40,0.50L64.03,0.57L63.10,0.60L62.80,0.20L63.10,-1.60L63.50,-2.00L64.29,-2.01L65.82,-2.08L66.55,-2.15L67.84,-2.44L68.80,-3.00L69.49,-3.80L70.15,-4.80L70.43,-5.46L70.76,-7.41L70.80,-8.70L70.80,-9.46L70.80,-10.35L70.79,-11.41L70.75,-12.70L70.72,-13.44L70.65,-15.14L70.60,-16.10L70.56,-16.79L70.47,-18.35L70.36,-20.13L70.30,-21.10L70.20,-22.40L70.01,-24.89L69.83,-27.25L69.67,-29.47L69.51,-31.57L69.37,-33.53L69.23,-35.36L69.11,-37.05L69.05,-37.85L68.96,-39.07L68.79,-41.35L68.64,-43.41L68.49,-45.25L68.36,-46.87L68.30,-47.60L68.20,-48.71L68.04,-50.60L67.90,-52.04L67.85,-52.60L67.71,-53.98L67.60,-55.10L67.34,-54.45L66.70,-52.81L65.88,-50.75L65.40,-49.55L65.10,-48.79L64.46,-47.20L63.79,-45.52L63.08,-43.76L62.34,-41.91L61.95,-40.95L61.62,-40.14L60.96,-38.48L60.28,-36.80L59.59,-35.07L58.88,-33.31L58.16,-31.51L57.80,-30.60L57.43,-29.68L56.70,-27.86L55.98,-26.03L55.25,-24.22L54.53,-22.41L53.81,-20.60L53.45,-19.70L53.02,-18.63L52.18,-16.51L51.35,-14.45L50.54,-12.43L49.74,-10.47L49.35,-9.50L48.87,-8.32L47.96,-6.10L47.13,-4.05L46.36,-2.17L46.00,-1.30L41.30,-1.30L21.30,-54.90L21.20,-53.88L21.10,-52.80L21.00,-51.59L20.90,-50.15L20.85,-49.34L20.72,-47.54L20.65,-46.55L20.60,-45.84L20.49,-44.26L20.37,-42.47L20.30,-41.50L18.90,-23.10L18.81,-22.00L18.65,-20.00L18.54,-18.27L18.50,-17.50L18.45,-16.44L18.35,-14.54L18.30,-13.70L18.23,-12.22L18.20,-11.00L18.20,-9.88L18.20,-8.70L18.24,-7.41L18.57,-5.46L18.85,-4.80L19.54,-3.80L20.30,-3.00L21.16,-2.44L22.15,-2.15L23.34,-2.04L24.80,-2.00L25.20,-1.60L25.50,0.20L25.30,0.60L24.44,0.57L23.25,0.50L21.89,0.40L20.50,0.30L19.11,0.20L17.75,0.10L16.56,0.03L15.70,0.00L13.80,0.00L12.89,0.03L11.55,0.10L10.76,0.15L9.11,0.25L8.25,0.30L7.39,0.35L5.74,0.45L4.95,0.50L3.61,0.57L2.70,0.60L2.50,0.20L2.80,-1.60L3.40,-2.00L4.88,-2.04L6.30,-2.15L7.60,-2.44L8.70,-3.00L9.51,-3.80L10.35,-4.80L10.75,-5.46L11.37,-7.41L11.60,-8.70L11.70,-9.46L11.80,-10.35L11.91,-11.41L12.05,-12.70L12.13,-13.44L12.30,-15.14L12.40,-16.10L12.47,-16.79L12.60,-18.35L12.73,-20.13L12.80,-21.10L14.20,-41.40L14.30,-42.54L14.46,-44.63L14.60,-46.47L14.65,-47.30L14.72,-48.46L14.82,-50.51L14.85,-51.40L14.90,-52.97L14.95,-54.30L14.99,-55.50L15.00,-56.70L14.95,-58.00L14.52,-59.97L14.15,-60.65L13.31,-61.66L12.50,-62.40L11.48,-62.96L10.20,-63.25L9.49,-63.32L7.99,-63.39L7.20,-63.40L6.70,-63.80L6.40,-65.60L6.60,-66.00L7.53,-65.97L8.90,-65.90L9.71,-65.85L11.36,-65.75L12.20,-65.70L13.04,-65.65L14.69,-65.55L15.50,-65.50L16.88,-65.43L17.80,-65.40L21.30,-65.40L22.26,-65.43L23.55,-65.50L24.86,-65.63L25.90,-65.80L26.40,-65.50L26.48,-64.80L26.86,-63.07L27.15,-62.05L27.38,-61.32L27.88,-59.76L28.44,-58.08L28.75,-57.20L29.07,-56.29L29.74,-54.41L30.44,-52.46L30.80,-51.45L31.17,-50.43L31.90,-48.41L32.63,-46.40L33.00,-45.40L39.80,-26.90L40.22,-25.72L41.03,-23.50L41.81,-21.47L42.55,-19.61L42.90,-18.75L43.36,-17.65L44.23,-15.59L45.02,-13.69L45.40,-12.80L45.62,-13.23L46.47,-15.15L47.10,-16.65L47.46,-17.51L48.24,-19.39L49.10,-21.46L50.05,-23.74L50.55,-24.95L50.89,-25.78L51.59,-27.48L52.30,-29.24L53.03,-31.05L53.77,-32.91L54.52,-34.82L54.90,-35.80L55.28,-36.78L56.04,-38.73L56.78,-40.67L57.52,-42.60L58.24,-44.51L58.95,-46.41L59.30,-47.35L59.65,-48.29L60.31,-50.12L60.95,-51.91L61.55,-53.65L62.11,-55.35L62.65,-56.99L62.90,-57.80L63.26,-58.97L63.87,-61.12L64.35,-63.02L64.68,-64.67L64.80,-65.40L65.30,-65.80L66.13,-65.63L67.00,-65.50L67.88,-65.43L68.70,-65.40L72.30,-65.40L73.22,-65.43L74.60,-65.50L75.41,-65.55L77.06,-65.65L77.90,-65.70L78.74,-65.75L80.39,-65.85L81.20,-65.90L82.58,-65.97L83.50,-66.00L83.70,-65.60L83.40,-63.80L82.90,-63.40L82.11,-63.39L80.58,-63.32L79.85,-63.25L78.56,-62.96L77.60,-62.40L76.79,-61.65L75.95,-60.60L75.58,-59.91L75.15,-57.96L75.10,-56.70L75.11,-55.35L75.15,-54.10L75.20,-52.80L75.25,-51.30L75.28,-50.46L75.38,-48.51L75.45,-47.40L75.50,-46.60L75.64,-44.77L75.80,-42.66L75.90,-41.50L77.10,-23.10L77.20,-21.94L77.36,-19.84L77.50,-18.04L77.55,-17.25L77.63,-16.17L77.78,-14.30L77.85,-13.50L78.00,-12.11L78.15,-10.95L78.31,-9.86L78.50,-8.70L78.73,-7.41L79.33,-5.46L79.70,-4.80L80.50,-3.80L81.30,-3.00L82.34,-2.44L83.65,-2.15L84.38,-2.08L85.91,-2.01L86.70,-2.00L87.20,-1.60Z   " class="path-animation-95-4"></path></g><g transform="translate(97.312,0)" fill="#efe3e3" stroke="#efe3e3" stroke-width="0"><path d="M36.10,-66.50L37.20,-66.50L53.60,-21.10L53.93,-20.13L54.54,-18.35L55.09,-16.79L55.35,-16.10L55.71,-15.14L56.36,-13.44L56.65,-12.70L57.16,-11.41L57.60,-10.35L57.97,-9.46L58.30,-8.70L58.85,-7.52L59.98,-5.60L60.55,-4.85L61.13,-4.22L62.30,-3.22L62.90,-2.85L64.11,-2.34L65.35,-2.10L66.61,-2.02L67.90,-2.00L68.40,-1.60L68.70,0.20L68.50,0.60L67.63,0.57L66.40,0.50L64.97,0.40L63.50,0.30L62.04,0.20L60.65,0.10L59.46,0.03L58.60,0.00L55.30,0.00L54.38,0.03L53.00,0.10L52.19,0.15L50.52,0.25L49.65,0.30L48.78,0.35L47.11,0.45L46.30,0.50L44.92,0.57L44.00,0.60L43.80,0.20L44.10,-1.60L44.50,-2.00L45.87,-2.04L48.12,-2.37L49.00,-2.65L49.70,-3.12L50.50,-4.89L50.60,-6.20L50.56,-7.02L50.21,-8.96L49.52,-11.32L49.05,-12.65L48.79,-13.36L48.23,-14.86L47.63,-16.48L46.99,-18.22L46.30,-20.08L45.58,-22.06L45.20,-23.10L43.50,-27.90L21.10,-27.90L19.40,-23.10L19.02,-22.06L18.30,-20.08L17.61,-18.22L16.97,-16.48L16.37,-14.86L15.81,-13.36L15.55,-12.65L15.08,-11.32L14.39,-8.96L14.04,-7.02L14.00,-6.20L14.10,-4.89L14.90,-3.12L15.60,-2.65L16.48,-2.37L18.73,-2.04L20.10,-2.00L20.60,-1.60L20.90,0.20L20.70,0.60L19.80,0.57L18.50,0.50L17.74,0.45L16.17,0.35L15.35,0.30L14.53,0.25L12.96,0.15L12.20,0.10L10.90,0.03L10.00,0.00L8.10,0.00L7.22,0.03L6.00,0.10L4.58,0.20L3.10,0.30L1.64,0.40L0.25,0.50L-0.94,0.57L-1.80,0.60L-1.90,0.20L-1.70,-1.60L-1.20,-2.00L0.08,-2.02L1.30,-2.10L2.50,-2.34L3.70,-2.85L4.30,-3.22L5.47,-4.22L6.05,-4.85L6.63,-5.60L7.80,-7.52L8.40,-8.70L8.69,-9.24L8.95,-9.85L9.27,-10.66L9.75,-11.80L10.04,-12.50L10.74,-14.23L11.15,-15.25L11.45,-16.00L12.13,-17.73L12.91,-19.74L13.35,-20.85L13.63,-21.56L14.21,-23.06L14.85,-24.69L15.53,-26.44L16.27,-28.32L16.65,-29.30L16.98,-30.15L17.68,-31.93L18.42,-33.83L19.21,-35.85L20.05,-37.98L20.94,-40.23L21.40,-41.40L21.73,-42.27L22.39,-44.02L23.06,-45.76L23.75,-47.49L24.10,-48.35L24.56,-49.49L25.45,-51.69L26.29,-53.79L26.70,-54.80L27.09,-55.78L27.84,-57.62L28.53,-59.31L28.85,-60.10L29.29,-61.18L29.97,-62.88L30.20,-63.50Z   M32.40,-57.90L22.80,-32.20L41.90,-32.20Z   " class="path-animation-96-5"></path></g><g transform="translate(169.604,0)" fill="#efe3e3" stroke="#efe3e3" stroke-width="0"><path d="M29.00,0.20L28.80,0.60L27.88,0.57L26.50,0.50L25.69,0.45L24.04,0.35L23.20,0.30L22.36,0.25L20.71,0.15L19.90,0.10L18.52,0.03L17.60,0.00L15.70,0.00L14.78,0.03L13.40,0.10L12.59,0.15L10.94,0.25L10.10,0.30L9.26,0.35L7.61,0.45L6.80,0.50L5.42,0.57L4.50,0.60L4.30,0.20L4.60,-1.60L5.10,-2.00L6.40,-2.04L7.90,-2.15L9.32,-2.41L10.40,-2.90L11.17,-3.67L11.90,-4.80L12.22,-5.53L12.73,-7.48L12.90,-8.70L12.91,-9.46L12.95,-10.35L13.00,-11.41L13.05,-12.70L13.07,-13.44L13.10,-15.14L13.10,-16.10L13.10,-16.79L13.10,-18.35L13.10,-20.13L13.10,-21.10L13.10,-47.10L13.10,-48.13L13.07,-50.41L13.05,-51.65L13.03,-52.50L12.96,-54.19L12.86,-55.87L12.80,-56.70L12.67,-57.79L12.22,-59.62L11.90,-60.35L11.17,-61.54L10.40,-62.40L9.49,-62.84L8.55,-63.15L7.98,-63.26L6.25,-63.38L5.10,-63.40L4.60,-63.80L4.30,-65.60L4.50,-66.00L5.31,-65.97L6.35,-65.90L7.53,-65.80L8.75,-65.70L10.01,-65.60L11.30,-65.50L12.55,-65.43L13.70,-65.40L17.30,-65.40L18.47,-65.40L19.80,-65.40L21.21,-65.41L22.65,-65.45L24.04,-65.49L25.30,-65.50L26.40,-65.50L27.30,-65.50L28.40,-65.49L30.52,-65.42L32.53,-65.27L34.42,-65.06L36.20,-64.77L37.86,-64.41L38.65,-64.20L39.79,-63.86L41.89,-63.09L43.78,-62.20L45.45,-61.20L46.20,-60.65L47.12,-59.88L48.71,-58.17L49.96,-56.28L50.45,-55.25L50.86,-54.19L51.46,-51.99L51.76,-49.69L51.80,-48.50L51.78,-47.44L51.58,-45.44L51.19,-43.57L50.61,-41.86L50.25,-41.05L49.71,-40.02L48.49,-38.13L47.08,-36.42L46.30,-35.65L45.48,-34.92L43.75,-33.63L41.88,-32.52L40.90,-32.05L39.90,-31.62L37.92,-30.86L35.97,-30.25L35.00,-30.00L35.53,-29.25L36.61,-27.76L37.70,-26.27L38.80,-24.78L39.91,-23.31L41.03,-21.83L41.60,-21.10L42.17,-20.37L43.31,-18.91L44.47,-17.47L45.63,-16.03L46.81,-14.61L48.00,-13.20L48.60,-12.50L49.26,-11.75L50.53,-10.32L51.72,-9.01L52.30,-8.40L53.17,-7.53L54.99,-5.98L55.95,-5.30L56.95,-4.68L59.13,-3.63L60.30,-3.20L61.13,-2.94L62.95,-2.50L64.99,-2.14L66.10,-2.00L66.70,-1.60L66.90,0.20L66.70,0.60L65.95,0.63L64.35,0.71L62.62,0.80L61.70,0.85L60.38,0.92L58.17,0.99L57.30,1.00L56.04,0.96L53.79,0.66L52.80,0.40L51.86,0.06L50.01,-0.89L49.10,-1.50L48.20,-2.20L46.37,-3.90L45.45,-4.90L44.82,-5.62L43.46,-7.20L41.98,-8.96L41.20,-9.90L40.61,-10.64L39.45,-12.25L38.95,-12.96L37.85,-14.50L36.62,-16.22L35.95,-17.15L35.43,-17.87L34.38,-19.34L33.31,-20.87L32.21,-22.44L31.65,-23.25L31.09,-24.06L30.01,-25.62L28.97,-27.14L27.98,-28.59L27.50,-29.30L20.20,-29.30L20.20,-28.39L20.20,-26.48L20.20,-24.45L20.20,-23.40L20.20,-22.34L20.21,-20.27L20.23,-18.27L20.25,-17.30L20.27,-16.35L20.30,-14.54L20.33,-12.85L20.35,-12.05L20.38,-10.96L20.45,-9.28L20.50,-8.70L20.64,-7.36L21.14,-5.33L21.50,-4.65L22.25,-3.66L22.90,-3.00L23.81,-2.56L24.75,-2.25L25.33,-2.14L27.10,-2.02L28.30,-2.00L28.70,-1.60Z   M24.00,-33.70L29.30,-33.70L30.65,-33.73L33.16,-33.94L35.41,-34.37L37.40,-35.01L39.13,-35.87L40.61,-36.94L41.25,-37.55L41.94,-38.35L43.11,-40.10L43.99,-42.06L44.57,-44.24L44.86,-46.63L44.90,-47.90L44.86,-49.09L44.53,-51.31L43.86,-53.30L42.87,-55.07L41.54,-56.61L40.75,-57.30L40.04,-57.83L38.48,-58.74L36.76,-59.48L34.87,-60.03L32.81,-60.39L30.58,-60.58L29.40,-60.60L20.70,-60.60L20.61,-59.21L20.48,-56.76L20.45,-55.70L20.42,-54.73L20.35,-52.98L20.30,-52.20L20.23,-50.78L20.20,-49.50L20.20,-48.33L20.20,-47.20L20.20,-37.40L20.22,-36.24L20.30,-35.35L20.47,-34.70L20.80,-34.25L21.29,-33.96L21.95,-33.80L22.84,-33.73Z   " class="path-animation-97-6"></path></g><g transform="translate(240.101,0)" fill="#efe3e3" stroke="#efe3e3" stroke-width="0"><path d="M28.80,-66.00L29.00,-65.60L28.70,-63.80L28.30,-63.40L27.51,-63.39L25.98,-63.32L25.25,-63.25L23.94,-62.96L22.90,-62.40L22.13,-61.60L21.40,-60.60L21.08,-59.94L20.63,-57.99L20.50,-56.70L20.41,-55.35L20.35,-54.10L20.30,-52.80L20.25,-51.30L20.23,-50.46L20.20,-48.51L20.20,-47.40L20.20,-46.60L20.20,-44.77L20.20,-42.66L20.20,-41.50L20.20,-34.70L20.89,-35.15L22.39,-36.19L24.02,-37.41L25.81,-38.82L26.75,-39.60L27.52,-40.24L29.04,-41.56L30.54,-42.90L32.02,-44.28L33.48,-45.68L34.20,-46.40L35.05,-47.25L36.65,-48.93L38.15,-50.56L39.53,-52.15L40.81,-53.69L41.40,-54.45L42.29,-55.63L43.58,-57.61L44.22,-59.07L44.30,-59.60L44.17,-60.59L43.80,-61.35L43.24,-61.94L42.55,-62.40L41.75,-62.75L40.85,-63.00L39.89,-63.20L38.90,-63.40L38.40,-63.80L38.40,-65.60L38.90,-66.00L39.91,-65.86L42.01,-65.63L44.21,-65.48L46.51,-65.41L47.70,-65.40L52.60,-65.40L53.71,-65.40L54.65,-65.40L55.50,-65.43L56.35,-65.50L57.24,-65.60L58.20,-65.70L59.30,-65.83L60.60,-66.00L61.00,-65.60L61.00,-63.80L60.60,-63.40L59.89,-63.24L58.14,-62.87L57.10,-62.65L56.04,-62.39L54.19,-61.67L53.40,-61.20L52.34,-60.42L51.15,-59.30L50.49,-58.61L48.99,-56.96L48.15,-56.00L47.55,-55.31L46.24,-53.83L44.78,-52.18L44.00,-51.30L43.38,-50.61L42.06,-49.18L40.61,-47.65L39.03,-46.04L38.20,-45.20L30.20,-37.00L30.76,-36.16L31.88,-34.49L33.02,-32.82L34.17,-31.16L35.34,-29.50L36.53,-27.85L37.73,-26.21L38.95,-24.57L40.18,-22.94L41.44,-21.32L42.70,-19.70L43.98,-18.09L45.28,-16.49L46.60,-14.89L47.93,-13.29L48.60,-12.50L49.26,-11.75L50.53,-10.32L51.72,-9.01L52.30,-8.40L53.17,-7.53L54.99,-5.98L55.95,-5.30L56.95,-4.68L59.13,-3.63L60.30,-3.20L61.13,-2.94L62.95,-2.50L64.99,-2.14L66.10,-2.00L66.70,-1.60L66.90,0.20L66.70,0.60L65.95,0.61L64.35,0.65L62.62,0.74L61.70,0.80L60.38,0.89L58.17,0.99L57.30,1.00L56.04,0.97L53.79,0.69L52.80,0.45L51.86,0.13L50.03,-0.80L49.15,-1.40L48.27,-2.10L46.44,-3.80L45.50,-4.80L44.85,-5.53L43.47,-7.13L41.99,-8.93L41.20,-9.90L40.94,-10.25L39.79,-11.82L38.90,-13.05L38.39,-13.75L37.32,-15.24L36.19,-16.84L34.98,-18.55L34.35,-19.45L33.84,-20.18L32.81,-21.65L31.77,-23.13L30.73,-24.61L29.68,-26.10L29.15,-26.85L28.50,-27.77L27.31,-29.47L26.25,-31.01L25.32,-32.38L24.90,-33.00L24.50,-33.00L23.42,-32.24L22.40,-31.55L21.35,-30.81L20.20,-29.90L20.20,-23.10L20.20,-21.94L20.20,-19.84L20.20,-18.04L20.20,-17.25L20.20,-16.17L20.23,-14.30L20.25,-13.50L20.30,-12.11L20.35,-10.95L20.41,-9.86L20.50,-8.70L20.63,-7.41L21.08,-5.46L21.40,-4.80L22.13,-3.80L22.90,-3.00L23.94,-2.44L25.25,-2.15L25.98,-2.08L27.51,-2.01L28.30,-2.00L28.70,-1.60L29.00,0.20L28.80,0.60L27.88,0.57L26.50,0.50L25.69,0.45L24.04,0.35L23.20,0.30L22.36,0.25L20.71,0.15L19.90,0.10L18.52,0.03L17.60,0.00L15.70,0.00L14.78,0.03L13.40,0.10L12.59,0.15L10.94,0.25L10.10,0.30L9.26,0.35L7.61,0.45L6.80,0.50L5.42,0.57L4.50,0.60L4.30,0.20L4.60,-1.60L5.10,-2.00L5.89,-2.01L7.39,-2.08L8.10,-2.15L9.38,-2.44L10.40,-3.00L11.19,-3.80L11.95,-4.80L12.29,-5.46L12.77,-7.41L12.90,-8.70L12.91,-9.46L12.95,-10.35L13.00,-11.41L13.05,-12.70L13.07,-13.44L13.10,-15.14L13.10,-16.10L13.10,-16.79L13.10,-18.35L13.10,-20.13L13.10,-21.10L13.10,-41.40L13.10,-42.54L13.10,-44.63L13.10,-46.47L13.10,-47.30L13.10,-48.46L13.10,-50.51L13.10,-51.40L13.09,-52.97L13.05,-54.30L12.99,-55.50L12.90,-56.70L12.77,-57.95L12.29,-59.88L11.95,-60.55L11.19,-61.59L10.40,-62.40L9.38,-62.96L8.10,-63.25L7.39,-63.32L5.89,-63.39L5.10,-63.40L4.60,-63.80L4.30,-65.60L4.50,-66.00L5.42,-65.97L6.80,-65.90L7.61,-65.85L9.26,-65.75L10.10,-65.70L10.94,-65.65L12.59,-65.55L13.40,-65.50L14.77,-65.43L15.70,-65.40L17.60,-65.40L18.52,-65.43L19.90,-65.50L20.71,-65.55L22.36,-65.65L23.20,-65.70L24.04,-65.75L25.69,-65.85L26.50,-65.90L27.88,-65.97Z   " class="path-animation-98-7"></path></g><g transform="translate(310.598,0)" fill="#efe3e3" stroke="#efe3e3" stroke-width="0"><path d="M16.70,-65.40L33.10,-65.40L33.83,-65.40L35.81,-65.43L37.05,-65.45L37.93,-65.47L39.71,-65.51L41.50,-65.57L42.40,-65.60L43.72,-65.65L46.14,-65.72L47.25,-65.75L48.99,-65.79L49.90,-65.80L50.40,-64.80L50.00,-53.90L47.50,-53.90L47.10,-54.30L46.99,-55.39L46.72,-57.19L46.55,-57.90L45.88,-59.03L44.55,-59.80L43.62,-60.07L41.15,-60.42L39.60,-60.50L38.91,-60.52L37.38,-60.55L35.63,-60.57L33.66,-60.59L31.47,-60.60L30.30,-60.60L20.70,-60.60L20.50,-56.70L20.41,-55.23L20.35,-54.00L20.30,-52.78L20.25,-51.30L20.23,-50.46L20.20,-48.53L20.20,-47.45L20.20,-46.94L20.20,-45.53L20.20,-43.61L20.20,-41.19L20.20,-38.26L20.20,-36.60L21.20,-36.63L23.20,-36.67L25.20,-36.70L26.20,-36.70L27.18,-36.70L29.06,-36.73L30.82,-36.77L31.65,-36.80L32.83,-36.87L34.90,-37.09L35.80,-37.25L37.23,-37.69L38.10,-38.30L38.85,-39.10L39.50,-39.90L39.95,-40.88L40.10,-42.20L40.60,-42.70L42.30,-42.90L42.70,-42.70L42.60,-41.59L42.43,-39.59L42.35,-38.70L42.28,-37.82L42.21,-35.87L42.20,-34.80L42.21,-33.62L42.28,-31.40L42.35,-30.35L42.43,-29.30L42.60,-27.08L42.70,-25.90L42.30,-25.70L40.50,-25.90L40.10,-26.20L40.06,-26.98L39.76,-28.46L39.50,-29.15L38.85,-30.39L38.10,-31.40L37.22,-31.93L35.80,-32.30L34.91,-32.44L32.86,-32.64L31.70,-32.70L30.88,-32.73L29.15,-32.77L27.28,-32.80L26.30,-32.80L25.30,-32.80L23.28,-32.80L21.23,-32.80L20.20,-32.80L20.20,-23.10L20.20,-21.94L20.20,-19.84L20.20,-18.04L20.20,-17.25L20.20,-16.16L20.23,-14.16L20.25,-13.25L20.28,-12.39L20.35,-10.79L20.40,-10.05L20.46,-9.30L20.61,-7.62L20.70,-6.70L21.20,-5.28L22.70,-4.80L31.20,-4.80L32.37,-4.80L34.57,-4.82L36.56,-4.86L38.35,-4.92L39.93,-5.00L40.65,-5.05L41.75,-5.15L43.69,-5.44L45.25,-5.85L45.90,-6.10L46.73,-6.55L48.01,-7.78L48.45,-8.55L48.82,-9.44L49.55,-11.62L49.90,-12.90L50.30,-13.30L52.90,-13.30L51.10,-0.60L50.30,0.40L49.47,0.39L48.00,0.35L47.07,0.32L45.05,0.25L43.95,0.20L42.83,0.15L40.58,0.08L39.45,0.05L38.38,0.03L36.61,0.00L35.90,0.00L15.70,0.00L14.78,0.03L13.40,0.10L12.59,0.15L10.94,0.25L10.10,0.30L9.26,0.35L7.61,0.45L6.80,0.50L5.42,0.57L4.50,0.60L4.30,0.20L4.60,-1.60L5.10,-2.00L5.89,-2.01L7.39,-2.08L8.10,-2.15L9.38,-2.44L10.40,-3.00L11.19,-3.80L11.95,-4.80L12.29,-5.46L12.77,-7.41L12.90,-8.70L12.91,-9.46L12.95,-10.35L13.00,-11.41L13.05,-12.70L13.07,-13.44L13.10,-15.14L13.10,-16.10L13.10,-16.79L13.10,-18.35L13.10,-20.13L13.10,-21.10L13.10,-41.40L13.10,-42.54L13.10,-44.63L13.10,-46.47L13.10,-47.30L13.10,-48.46L13.10,-50.51L13.10,-51.40L13.09,-52.97L13.05,-54.30L12.99,-55.50L12.90,-56.70L12.77,-57.95L12.29,-59.88L11.95,-60.55L11.19,-61.59L10.40,-62.40L9.38,-62.96L8.10,-63.25L7.39,-63.32L5.89,-63.39L5.10,-63.40L4.60,-63.80L4.30,-65.60L4.50,-66.00L5.42,-65.97L6.80,-65.90L7.62,-65.85L9.34,-65.75L10.25,-65.70L11.17,-65.65L12.97,-65.55L13.85,-65.50L15.44,-65.43Z   " class="path-animation-99-8"></path></g><g transform="translate(367.002,0)" fill="#efe3e3" stroke="#efe3e3" stroke-width="0"><path d="M43.30,0.20L43.10,0.60L42.20,0.57L40.90,0.50L40.14,0.45L38.54,0.35L37.70,0.30L36.86,0.25L35.26,0.15L34.50,0.10L33.20,0.03L32.30,0.00L26.60,0.00L25.70,0.03L24.40,0.10L23.64,0.15L22.07,0.25L21.25,0.30L20.43,0.35L18.86,0.45L18.10,0.50L16.80,0.57L15.90,0.60L15.70,0.20L16.00,-1.60L16.50,-2.00L17.33,-2.01L19.13,-2.08L20.10,-2.15L21.80,-2.44L22.90,-3.00L23.73,-3.80L24.60,-4.80L25.01,-5.46L25.56,-7.41L25.70,-8.70L25.79,-9.46L25.85,-10.35L25.90,-11.41L25.95,-12.70L25.97,-13.44L26.00,-15.14L26.00,-16.10L26.00,-16.79L26.00,-18.35L26.00,-20.13L26.00,-21.10L26.00,-41.40L26.00,-42.47L25.99,-44.56L25.98,-46.56L25.97,-48.49L25.94,-50.33L25.92,-52.10L25.90,-52.95L25.88,-54.17L25.82,-56.39L25.77,-58.31L25.72,-59.91L25.70,-60.60L24.60,-60.60L23.38,-60.60L21.10,-60.59L19.05,-60.58L17.23,-60.56L16.40,-60.55L15.37,-60.53L13.51,-60.48L11.93,-60.40L11.25,-60.35L9.55,-60.19L8.35,-60.00L7.54,-59.77L7.00,-59.50L6.31,-59.02L5.23,-57.60L4.51,-55.56L4.30,-54.30L3.90,-53.90L1.60,-53.90L2.30,-65.30L2.70,-66.20L3.30,-66.50L3.82,-66.35L5.57,-66.08L6.80,-65.95L7.71,-65.87L9.63,-65.74L11.65,-65.64L12.70,-65.60L13.76,-65.57L15.84,-65.51L17.86,-65.47L18.85,-65.45L20.22,-65.43L22.35,-65.40L23.10,-65.40L35.70,-65.40L36.45,-65.40L38.58,-65.43L39.95,-65.45L40.94,-65.47L42.96,-65.51L45.04,-65.57L46.10,-65.60L47.15,-65.64L49.17,-65.74L51.09,-65.87L52.00,-65.95L53.23,-66.08L54.98,-66.35L55.50,-66.50L56.10,-66.20L56.50,-65.30L57.30,-53.90L54.90,-53.90L54.50,-54.30L54.29,-55.56L53.58,-57.60L52.49,-59.02L51.80,-59.50L51.26,-59.77L50.45,-60.00L49.25,-60.19L47.55,-60.35L46.87,-60.40L45.29,-60.47L43.43,-60.53L42.40,-60.55L41.57,-60.56L39.76,-60.58L37.74,-60.59L35.50,-60.60L34.30,-60.60L33.20,-60.60L33.18,-59.85L33.13,-58.17L33.09,-56.27L33.06,-54.15L33.05,-53.00L33.04,-52.20L33.03,-50.52L33.02,-48.72L33.01,-46.80L33.00,-44.77L33.00,-42.62L33.00,-41.50L33.00,-23.10L33.00,-21.94L33.00,-19.84L33.00,-18.04L33.00,-17.25L33.00,-16.17L33.03,-14.30L33.05,-13.50L33.10,-12.11L33.15,-10.95L33.21,-9.86L33.30,-8.70L33.44,-7.41L33.99,-5.46L34.40,-4.80L35.27,-3.80L36.10,-3.00L37.20,-2.44L38.90,-2.15L39.88,-2.08L41.67,-2.01L42.50,-2.00L43.00,-1.60Z   " class="path-animation-100-9"></path></g><g transform="translate(425.343,0)" fill="#efe3e3" stroke="#efe3e3" stroke-width="0"><path d="M13.80,-50.80L13.86,-49.46L14.36,-47.13L14.80,-46.15L15.37,-45.25L16.89,-43.63L17.85,-42.90L18.56,-42.44L20.18,-41.56L22.03,-40.74L23.05,-40.35L23.86,-40.06L25.57,-39.47L27.44,-38.85L29.44,-38.22L30.50,-37.90L31.42,-37.60L33.26,-36.96L35.09,-36.28L36.90,-35.57L37.80,-35.20L38.69,-34.81L40.39,-33.96L42.01,-32.99L43.53,-31.92L44.25,-31.35L44.94,-30.75L46.23,-29.45L47.36,-28.02L48.36,-26.47L48.80,-25.65L49.20,-24.79L49.84,-22.93L50.26,-20.90L50.47,-18.68L50.50,-17.50L50.47,-16.25L50.22,-13.89L49.72,-11.73L48.97,-9.76L48.50,-8.85L47.98,-7.98L46.82,-6.38L45.49,-4.94L44.00,-3.67L43.20,-3.10L42.36,-2.57L40.58,-1.62L38.66,-0.82L36.62,-0.17L35.55,0.10L34.68,0.29L32.90,0.61L31.09,0.85L29.24,1.01L27.36,1.09L26.40,1.10L25.37,1.09L23.37,1.01L21.42,0.86L19.54,0.62L17.72,0.31L15.96,-0.08L15.10,-0.30L14.09,-0.59L12.13,-1.20L10.25,-1.88L8.45,-2.60L6.73,-3.39L5.90,-3.80L5.50,-5.10L7.20,-15.80L9.70,-15.80L10.20,-15.20L10.34,-14.01L10.85,-11.83L11.67,-9.91L12.81,-8.25L14.26,-6.85L15.10,-6.25L15.86,-5.79L17.50,-5.00L19.32,-4.37L21.32,-3.89L23.50,-3.58L25.86,-3.42L27.10,-3.40L28.37,-3.42L30.76,-3.62L32.93,-4.02L34.89,-4.61L36.63,-5.40L38.16,-6.38L38.85,-6.95L39.60,-7.68L40.86,-9.27L41.81,-11.04L42.44,-12.97L42.76,-15.08L42.80,-16.20L42.76,-17.33L42.42,-19.41L41.76,-21.23L41.30,-22.05L40.77,-22.81L39.56,-24.22L38.14,-25.48L37.35,-26.05L36.51,-26.58L34.73,-27.56L32.78,-28.42L31.75,-28.80L30.70,-29.17L28.59,-29.90L26.47,-30.63L25.40,-31.00L24.41,-31.33L22.48,-32.01L20.61,-32.72L18.82,-33.47L17.95,-33.85L17.10,-34.25L15.49,-35.09L13.99,-36.00L12.60,-36.98L11.95,-37.50L11.13,-38.22L9.68,-39.80L8.46,-41.56L7.95,-42.50L7.61,-43.24L7.07,-44.83L6.70,-46.55L6.52,-48.42L6.50,-49.40L6.53,-50.55L6.73,-52.72L7.14,-54.71L7.76,-56.51L8.15,-57.35L8.73,-58.40L10.11,-60.30L11.77,-61.93L12.70,-62.65L13.44,-63.14L15.01,-64.03L16.70,-64.76L18.50,-65.36L19.45,-65.60L20.42,-65.81L22.43,-66.15L24.52,-66.37L26.69,-66.49L27.80,-66.50L28.87,-66.49L30.99,-66.41L33.05,-66.25L35.07,-66.01L37.03,-65.69L38.00,-65.50L39.17,-65.24L41.35,-64.69L43.30,-64.09L45.02,-63.44L45.80,-63.10L46.20,-62.00L44.80,-53.10L42.00,-53.10L41.50,-53.60L41.32,-54.84L40.47,-56.94L39.80,-57.80L39.02,-58.56L37.24,-59.81L36.25,-60.30L35.21,-60.71L33.01,-61.31L31.85,-61.50L30.71,-61.63L28.63,-61.78L27.70,-61.80L26.43,-61.77L24.05,-61.54L21.90,-61.09L19.97,-60.40L18.27,-59.49L17.50,-58.95L16.63,-58.20L15.25,-56.47L14.32,-54.43L13.86,-52.09Z   " class="path-animation-101-10"></path></g><g transform="translate(488.443,0)" fill="#efe3e3" stroke="#efe3e3" stroke-width="0"><path d="" class="path-animation-102-11"></path></g><g transform="translate(520.443,0)" fill="#efe3e3" stroke="#efe3e3" stroke-width="0"><path d="M71.70,0.20L71.50,0.60L70.58,0.57L69.20,0.50L68.39,0.45L66.74,0.35L65.90,0.30L65.06,0.25L63.41,0.15L62.60,0.10L61.22,0.03L60.30,0.00L58.40,0.00L57.48,0.03L56.10,0.10L55.29,0.15L53.64,0.25L52.80,0.30L51.96,0.35L50.31,0.45L49.50,0.50L48.13,0.57L47.20,0.60L47.00,0.20L47.30,-1.60L47.70,-2.00L48.49,-2.01L50.02,-2.08L50.75,-2.15L52.06,-2.44L53.10,-3.00L53.86,-3.80L54.55,-4.80L54.85,-5.46L55.33,-7.41L55.50,-8.70L55.59,-9.46L55.65,-10.35L55.70,-11.41L55.75,-12.70L55.77,-13.44L55.80,-15.14L55.80,-16.10L55.80,-16.79L55.80,-18.35L55.80,-20.13L55.80,-21.10L55.80,-32.60L20.20,-32.60L20.20,-23.10L20.20,-21.94L20.20,-19.84L20.20,-18.04L20.20,-17.25L20.20,-16.17L20.23,-14.30L20.25,-13.50L20.30,-12.11L20.35,-10.95L20.41,-9.86L20.50,-8.70L20.63,-7.41L21.08,-5.46L21.40,-4.80L22.13,-3.80L22.90,-3.00L23.94,-2.44L25.25,-2.15L25.98,-2.08L27.51,-2.01L28.30,-2.00L28.70,-1.60L29.00,0.20L28.80,0.60L27.88,0.57L26.50,0.50L25.69,0.45L24.04,0.35L23.20,0.30L22.36,0.25L20.71,0.15L19.90,0.10L18.52,0.03L17.60,0.00L15.70,0.00L14.78,0.03L13.40,0.10L12.59,0.15L10.94,0.25L10.10,0.30L9.26,0.35L7.61,0.45L6.80,0.50L5.42,0.57L4.50,0.60L4.30,0.20L4.60,-1.60L5.10,-2.00L5.89,-2.01L7.39,-2.08L8.10,-2.15L9.38,-2.44L10.40,-3.00L11.19,-3.80L11.95,-4.80L12.29,-5.46L12.77,-7.41L12.90,-8.70L12.91,-9.46L12.95,-10.35L13.00,-11.41L13.05,-12.70L13.07,-13.44L13.10,-15.14L13.10,-16.10L13.10,-16.79L13.10,-18.35L13.10,-20.13L13.10,-21.10L13.10,-41.40L13.10,-42.54L13.10,-44.63L13.10,-46.47L13.10,-47.30L13.10,-48.46L13.07,-50.51L13.05,-51.40L13.00,-52.97L12.95,-54.30L12.89,-55.50L12.80,-56.70L12.67,-57.95L12.22,-59.88L11.90,-60.55L11.17,-61.59L10.40,-62.40L9.38,-62.96L8.10,-63.25L7.39,-63.32L5.89,-63.39L5.10,-63.40L4.60,-63.80L4.30,-65.60L4.50,-66.00L5.42,-65.97L6.80,-65.90L7.61,-65.85L9.26,-65.75L10.10,-65.70L10.94,-65.65L12.59,-65.55L13.40,-65.50L14.77,-65.43L15.70,-65.40L17.60,-65.40L18.52,-65.43L19.90,-65.50L20.71,-65.55L22.36,-65.65L23.20,-65.70L24.04,-65.75L25.69,-65.85L26.50,-65.90L27.88,-65.97L28.80,-66.00L29.00,-65.60L28.70,-63.80L28.30,-63.40L27.51,-63.39L25.98,-63.32L25.25,-63.25L23.94,-62.96L22.90,-62.40L22.13,-61.60L21.40,-60.60L21.08,-59.94L20.63,-57.99L20.50,-56.70L20.41,-55.35L20.35,-54.10L20.30,-52.80L20.25,-51.30L20.23,-50.46L20.20,-48.51L20.20,-47.40L20.20,-46.60L20.20,-44.77L20.20,-42.66L20.20,-41.50L20.20,-37.00L55.80,-37.00L55.80,-41.40L55.80,-42.54L55.80,-44.63L55.80,-46.47L55.80,-47.30L55.80,-48.46L55.77,-50.51L55.75,-51.40L55.70,-52.97L55.65,-54.30L55.59,-55.50L55.50,-56.70L55.37,-57.99L54.92,-59.94L54.60,-60.60L53.88,-61.60L53.10,-62.40L52.06,-62.96L50.75,-63.25L50.02,-63.32L48.49,-63.39L47.70,-63.40L47.30,-63.80L47.00,-65.60L47.20,-66.00L48.13,-65.97L49.50,-65.90L50.31,-65.85L51.96,-65.75L52.80,-65.70L53.64,-65.65L55.29,-65.55L56.10,-65.50L57.48,-65.43L58.40,-65.40L60.30,-65.40L61.23,-65.43L62.60,-65.50L63.41,-65.55L65.06,-65.65L65.90,-65.70L66.74,-65.75L68.39,-65.85L69.20,-65.90L70.58,-65.97L71.50,-66.00L71.70,-65.60L71.40,-63.80L70.90,-63.40L70.11,-63.39L68.61,-63.32L67.90,-63.25L66.63,-62.96L65.60,-62.40L64.81,-61.60L64.05,-60.60L63.71,-59.94L63.23,-57.99L63.10,-56.70L63.01,-55.35L62.95,-54.10L62.91,-52.80L62.90,-51.30L62.90,-50.46L62.90,-48.51L62.90,-47.40L62.90,-46.60L62.90,-44.77L62.90,-42.66L62.90,-41.50L62.90,-23.10L62.90,-21.94L62.90,-19.84L62.90,-18.04L62.90,-17.25L62.90,-16.17L62.90,-14.30L62.90,-13.50L62.91,-12.11L62.95,-10.95L63.01,-9.86L63.10,-8.70L63.23,-7.41L63.71,-5.46L64.05,-4.80L64.81,-3.80L65.60,-3.00L66.63,-2.44L67.90,-2.15L68.61,-2.08L70.11,-2.01L70.90,-2.00L71.40,-1.60Z   " class="path-animation-103-12"></path></g><g transform="translate(597.434,0)" fill="#efe3e3" stroke="#efe3e3" stroke-width="0"><path d="M69.50,-66.00L69.70,-65.60L69.40,-63.80L69.00,-63.40L68.21,-63.39L66.68,-63.32L65.95,-63.25L64.64,-62.96L63.60,-62.40L62.82,-61.60L62.10,-60.60L61.78,-59.94L61.33,-57.99L61.20,-56.70L61.11,-55.50L61.05,-54.30L61.00,-52.98L60.95,-51.40L60.93,-50.51L60.90,-48.46L60.90,-47.30L60.90,-46.47L60.90,-44.63L60.90,-42.54L60.90,-41.40L60.90,-22.20L60.89,-21.23L60.77,-19.32L60.54,-17.46L60.19,-15.66L59.73,-13.91L59.45,-13.05L59.06,-12.00L58.14,-10.02L57.03,-8.17L55.73,-6.45L55.00,-5.65L54.38,-5.03L53.06,-3.88L51.61,-2.84L50.04,-1.90L48.34,-1.07L47.45,-0.70L46.52,-0.36L44.58,0.22L42.51,0.65L40.32,0.94L38.00,1.08L36.80,1.10L35.65,1.09L33.43,0.99L31.34,0.79L29.36,0.49L27.51,0.09L25.77,-0.41L24.95,-0.70L24.00,-1.07L22.21,-1.90L20.56,-2.84L19.07,-3.88L17.72,-5.03L17.10,-5.65L16.38,-6.45L15.08,-8.17L13.99,-10.02L13.11,-12.00L12.75,-13.05L12.49,-13.91L12.06,-15.66L11.74,-17.46L11.52,-19.32L11.41,-21.23L11.40,-22.20L11.40,-41.40L11.40,-42.54L11.40,-44.63L11.40,-46.47L11.40,-47.30L11.40,-48.46L11.40,-50.51L11.40,-51.40L11.39,-52.97L11.35,-54.30L11.29,-55.50L11.20,-56.70L11.07,-57.95L10.59,-59.88L10.25,-60.55L9.49,-61.59L8.70,-62.40L7.67,-62.96L6.40,-63.25L5.69,-63.32L4.19,-63.39L3.40,-63.40L2.90,-63.80L2.60,-65.60L2.80,-66.00L3.73,-65.97L5.10,-65.90L5.91,-65.85L7.56,-65.75L8.40,-65.70L9.24,-65.65L10.89,-65.55L11.70,-65.50L13.07,-65.43L14.00,-65.40L15.90,-65.40L16.82,-65.43L18.20,-65.50L19.01,-65.55L20.66,-65.65L21.50,-65.70L22.34,-65.75L23.99,-65.85L24.80,-65.90L26.17,-65.97L27.10,-66.00L27.30,-65.60L27.00,-63.80L26.60,-63.40L25.81,-63.39L24.28,-63.32L23.55,-63.25L22.24,-62.96L21.20,-62.40L20.43,-61.60L19.70,-60.60L19.38,-59.94L18.93,-57.99L18.80,-56.70L18.71,-55.35L18.65,-54.10L18.60,-52.80L18.55,-51.30L18.53,-50.46L18.50,-48.51L18.50,-47.40L18.50,-46.60L18.50,-44.77L18.50,-42.66L18.50,-41.50L18.50,-25.00L18.52,-23.67L18.67,-21.16L18.97,-18.85L19.43,-16.72L20.03,-14.78L20.79,-13.03L21.70,-11.48L22.76,-10.11L23.35,-9.50L24.06,-8.85L25.60,-7.70L27.29,-6.74L29.14,-5.97L31.14,-5.40L33.29,-5.02L35.59,-4.82L36.80,-4.80L38.01,-4.82L40.32,-5.02L42.47,-5.40L44.47,-5.97L46.33,-6.74L48.03,-7.70L49.58,-8.85L50.30,-9.50L50.89,-10.11L51.97,-11.48L52.88,-13.03L53.65,-14.78L54.26,-16.72L54.72,-18.85L55.03,-21.16L55.18,-23.67L55.20,-25.00L55.20,-41.50L55.20,-42.66L55.20,-44.77L55.20,-46.60L55.20,-47.40L55.20,-48.51L55.17,-50.46L55.15,-51.30L55.10,-52.80L55.05,-54.10L54.99,-55.35L54.90,-56.70L54.77,-57.99L54.29,-59.94L53.95,-60.60L53.19,-61.60L52.40,-62.40L51.44,-62.96L50.15,-63.25L49.42,-63.32L47.89,-63.39L47.10,-63.40L46.60,-63.80L46.30,-65.60L46.50,-66.00L47.38,-65.97L48.60,-65.90L50.04,-65.80L51.55,-65.70L53.06,-65.60L54.50,-65.50L55.73,-65.43L56.60,-65.40L58.80,-65.40L59.70,-65.43L61.00,-65.50L61.76,-65.55L63.33,-65.65L64.15,-65.70L64.97,-65.75L66.54,-65.85L67.30,-65.90L68.60,-65.97Z   " class="path-animation-104-13"></path></g><g transform="translate(670.725,0)" fill="#efe3e3" stroke="#efe3e3" stroke-width="0"><path d="M29.00,0.00L15.70,0.00L14.78,0.03L13.40,0.10L12.59,0.15L10.94,0.25L10.10,0.30L9.26,0.35L7.61,0.45L6.80,0.50L5.42,0.57L4.50,0.60L4.30,0.20L4.60,-1.60L5.10,-2.00L6.40,-2.04L7.90,-2.15L9.32,-2.41L10.40,-2.90L11.17,-3.67L11.90,-4.80L12.22,-5.53L12.73,-7.48L12.90,-8.70L12.95,-9.54L13.02,-11.79L13.05,-13.20L13.06,-14.00L13.08,-15.86L13.09,-18.08L13.10,-20.67L13.10,-22.10L13.10,-47.10L13.10,-48.13L13.10,-50.41L13.10,-51.65L13.09,-52.50L13.05,-54.19L12.96,-55.87L12.90,-56.70L12.77,-57.96L12.29,-59.91L11.95,-60.60L11.19,-61.65L10.40,-62.40L9.49,-62.84L8.55,-63.15L7.98,-63.26L6.25,-63.38L5.10,-63.40L4.60,-63.80L4.30,-65.60L4.50,-66.00L5.31,-65.97L6.35,-65.90L7.53,-65.80L8.75,-65.70L10.01,-65.60L11.30,-65.50L12.55,-65.43L13.70,-65.40L17.30,-65.40L18.47,-65.40L19.80,-65.40L21.21,-65.41L22.65,-65.45L24.04,-65.49L25.30,-65.50L26.38,-65.50L27.20,-65.50L28.53,-65.48L31.04,-65.35L33.35,-65.09L35.48,-64.71L37.42,-64.19L39.17,-63.54L40.72,-62.76L42.09,-61.85L42.70,-61.35L43.45,-60.64L44.76,-59.11L45.80,-57.43L46.58,-55.61L47.11,-53.63L47.37,-51.51L47.40,-50.40L47.38,-49.42L47.21,-47.57L46.88,-45.89L46.65,-45.10L46.24,-43.98L45.22,-41.96L44.60,-41.05L43.93,-40.21L42.48,-38.71L41.70,-38.05L40.89,-37.45L39.19,-36.37L38.30,-35.90L39.49,-35.66L41.74,-35.07L43.80,-34.31L45.68,-33.40L47.37,-32.32L48.87,-31.08L49.55,-30.40L50.18,-29.68L51.28,-28.10L52.16,-26.34L52.81,-24.41L53.25,-22.30L53.47,-20.01L53.50,-18.80L53.47,-17.57L53.25,-15.25L52.80,-13.12L52.12,-11.16L51.70,-10.25L51.23,-9.38L50.15,-7.77L48.88,-6.32L47.44,-5.03L46.65,-4.45L45.82,-3.91L44.04,-2.92L42.10,-2.09L40.01,-1.39L38.90,-1.10L37.99,-0.89L36.12,-0.54L34.17,-0.28L32.16,-0.10L30.07,-0.01Z   M29.70,-33.20L20.20,-33.20L20.20,-32.24L20.20,-30.15L20.20,-27.84L20.20,-26.60L20.20,-25.65L20.21,-23.77L20.22,-21.91L20.24,-20.06L20.25,-19.15L20.27,-17.95L20.30,-15.69L20.33,-13.59L20.35,-12.60L20.38,-11.27L20.45,-9.32L20.50,-8.70L20.64,-7.48L21.19,-5.83L21.60,-5.40L22.65,-4.95L24.00,-4.80L30.10,-4.80L30.91,-4.82L32.61,-4.95L34.41,-5.22L35.35,-5.40L36.29,-5.63L38.11,-6.22L39.86,-7.02L40.70,-7.50L41.51,-8.03L43.00,-9.30L44.31,-10.83L44.90,-11.70L45.30,-12.40L45.94,-13.94L46.36,-15.66L46.57,-17.57L46.60,-18.60L46.56,-19.78L46.28,-21.99L45.70,-24.01L45.30,-24.95L44.84,-25.84L43.75,-27.46L42.44,-28.87L41.70,-29.50L40.91,-30.08L39.21,-31.09L37.35,-31.91L36.35,-32.25L35.32,-32.54L33.16,-32.96L30.88,-33.17Z   M21.90,-36.90L24.90,-36.90L25.96,-36.91L28.02,-37.00L30.02,-37.18L31.00,-37.30L31.95,-37.47L33.75,-38.02L35.42,-38.87L36.20,-39.40L36.91,-39.90L38.20,-41.11L39.31,-42.60L39.80,-43.45L40.23,-44.36L40.85,-46.34L41.16,-48.53L41.20,-49.70L41.15,-50.99L40.78,-53.32L40.03,-55.35L38.90,-57.06L38.20,-57.80L37.41,-58.46L35.60,-59.51L33.47,-60.21L31.04,-60.56L29.70,-60.60L20.70,-60.60L20.61,-59.21L20.48,-56.76L20.45,-55.70L20.42,-54.73L20.35,-52.98L20.30,-52.20L20.23,-50.78L20.20,-49.50L20.20,-48.33L20.20,-47.20L20.20,-41.00L20.21,-39.94L20.31,-38.34L20.40,-37.80L20.88,-37.13Z   " class="path-animation-105-14"></path></g></g></g></g><g transform="translate(136.8184294977155 0)"><g><g fill="#dc3b2d" stroke="none" x="0" y="0" transform="translate(-5.026676004215266, -5.039009780968654) scale(3.829701596967996)"><g><path d="M13,25c-6.071,0 -11,4.929 -11,11c0,6.071 4.929,11 11,11c6.071,0 11,-4.929 11,-11c0,-6.071 -4.929,-11 -11,-11Zm0,2c4.967,0 9,4.033 9,9c0,4.967 -4.033,9 -9,9c-4.967,0 -9,-4.033 -9,-9c0,-4.967 4.033,-9 9,-9Zm0.514,2.143c-0.316,-0.191 -0.712,-0.191 -1.028,-0l-5,3c-0.302,0.18 -0.486,0.506 -0.486,0.857l-0,6c-0,0.351 0.184,0.677 0.486,0.857l5,3c0.316,0.191 0.712,0.191 1.028,0l5,-3c0.302,-0.18 0.486,-0.506 0.486,-0.857l-0,-6c0,-0.351 -0.184,-0.677 -0.486,-0.857l-5,-3Zm-0.514,2.023l4,2.4c-0,0 -0,4.868 -0,4.868c-0,-0 -4,2.4 -4,2.4c-0,-0 -4,-2.4 -4,-2.4c-0,-0 0,-4.868 0,-4.868l4,-2.4Zm13.396,-5.32l-2.828,2.829c-0.39,0.39 -0.39,1.024 -0,1.414c0.39,0.39 1.024,0.39 1.414,0l2.828,-2.828c0.391,-0.391 0.391,-1.024 0,-1.415c-0.39,-0.39 -1.023,-0.39 -1.414,0Zm1.068,-15.201l-4.462,-0.638c-0.311,-0.044 -0.626,0.06 -0.848,0.283l-3.536,3.536c-0.255,0.254 -0.353,0.626 -0.257,0.974c0.097,0.347 0.372,0.615 0.722,0.703l4.564,1.141c-0.275,0.699 -0.514,1.403 -0.742,2.116c-0.114,0.357 -0.02,0.747 0.245,1.012l5.078,5.078c0.265,0.265 0.655,0.359 1.012,0.245c0.713,-0.228 1.417,-0.467 2.116,-0.742l1.141,4.564c0.088,0.35 0.356,0.625 0.703,0.722c0.348,0.096 0.72,-0.002 0.974,-0.257l3.536,-3.536c0.223,-0.222 0.327,-0.537 0.283,-0.848l-0.638,-4.462c0.119,-0.113 0.237,-0.228 0.355,-0.346c3.954,-3.954 6.916,-9.987 7.908,-13.681c0.334,-1.244 0.44,-2.256 0.346,-2.894c-0.073,-0.497 -0.266,-0.852 -0.497,-1.082c-0.23,-0.231 -0.585,-0.424 -1.082,-0.497c-0.638,-0.094 -1.65,0.012 -2.894,0.346c-3.694,0.992 -9.727,3.954 -13.681,7.908c-0.118,0.118 -0.233,0.236 -0.346,0.355Zm-3.896,12.373l-2.275,2.275c-0.39,0.39 -0.39,1.024 -0,1.414c0.39,0.39 1.024,0.39 1.414,0l2.275,-2.275c0.39,-0.39 0.39,-1.024 0,-1.414c-0.39,-0.39 -1.024,-0.39 -1.414,-0Zm11.985,-0.957c-0.788,0.584 -1.566,1.058 -2.344,1.459l0.8,3.199c0,-0 1.933,-1.933 1.933,-1.933l-0.389,-2.725Zm-14.814,-1.871l-2.828,2.828c-0.39,0.39 -0.39,1.024 -0,1.414c0.39,0.39 1.024,0.39 1.414,0l2.829,-2.828c0.39,-0.391 0.39,-1.024 -0,-1.414c-0.391,-0.391 -1.024,-0.391 -1.415,-0Zm23.25,-16.179c0.007,0.08 0.012,0.174 0.008,0.255c-0.018,0.458 -0.128,1.045 -0.311,1.725c-0.927,3.452 -3.695,9.089 -7.39,12.784c-2.432,2.432 -4.713,3.435 -7.087,4.227c-0.001,-0 -4.211,-4.21 -4.211,-4.21l0.001,-0.001c0.791,-2.374 1.794,-4.655 4.226,-7.087c3.695,-3.695 9.332,-6.463 12.784,-7.39c0.68,-0.183 1.267,-0.293 1.725,-0.311c0.081,-0.004 0.175,0.001 0.255,0.008Zm-5.572,5.572c-0.504,-0.504 -1.205,-0.755 -1.999,-0.717c-0.945,0.045 -2.05,0.523 -2.951,1.424c-0.9,0.901 -1.379,2.006 -1.424,2.951c-0.038,0.793 0.213,1.495 0.717,1.999c0.504,0.504 1.206,0.755 1.999,0.717c0.945,-0.045 2.05,-0.524 2.951,-1.424c0.901,-0.901 1.379,-2.006 1.424,-2.951c0.038,-0.794 -0.213,-1.495 -0.717,-1.999l0,-0Zm-12.478,2.864l-2.725,-0.389c0,-0 -1.933,1.933 -1.933,1.933l3.199,0.8c0.401,-0.778 0.875,-1.556 1.459,-2.344Zm11.064,-1.45c0.17,0.17 0.16,0.439 0.105,0.718c-0.095,0.472 -0.381,0.972 -0.812,1.403c-0.432,0.432 -0.932,0.718 -1.403,0.812c-0.279,0.056 -0.548,0.066 -0.719,-0.104c-0.17,-0.171 -0.16,-0.44 -0.104,-0.719c0.094,-0.471 0.38,-0.971 0.812,-1.403c0.431,-0.431 0.931,-0.717 1.403,-0.812c0.279,-0.055 0.548,-0.065 0.718,0.105Z" fill-rule="evenodd" fill="#dc3b2d" stroke="none" stroke-width="0.756144px" stroke-linecap="butt" stroke-linejoin="round" stroke-miterlimit="2" stroke-dasharray="none" class="path-animation-106-15"></path></g></g></g></g></g></g></g><style>
      .path-animation-91-0 {
        stroke-dasharray: 2555.181640625;
        stroke-dashoffset: 2555.181640625;
        stroke-width: 3;
        stroke: none;
        fill: rgba(0, 0, 0, 0);
        animation: dash-path-animation-91-0 1s linear forwards;
        animation-delay: 0s;
      }

      @keyframes dash-path-animation-91-0 {
        33% {
          stroke: rgb(8, 10, 83);
        }
        66% {
          fill: rgba(0, 0, 0, 0);
          stroke-width: 1.5;
        }
        100% {
          fill: rgb(8, 10, 83);
          stroke-width: 0;
          stroke-dashoffset: 0;
        }
      }
      .path-animation-92-1 {
        stroke-dasharray: 471.0656433105469;
        stroke-dashoffset: 471.0656433105469;
        stroke-width: 3;
        stroke: rgb(220, 59, 45);
        fill: rgba(0, 0, 0, 0);
        animation: dash-path-animation-92-1 1s linear forwards;
        animation-delay: 0.2555181640625s;
      }

      @keyframes dash-path-animation-92-1 {
        33% {
          stroke: rgb(220, 59, 45);
        }
        66% {
          fill: rgba(0, 0, 0, 0);
          stroke-width: 1.5;
        }
        100% {
          fill: rgb(220, 59, 45);
          stroke-width: 0px;
          stroke-dashoffset: 0;
        }
      }
      .path-animation-93-2 {
        stroke-dasharray: 329.6153869628906;
        stroke-dashoffset: 329.6153869628906;
        stroke-width: 3;
        stroke: rgb(220, 59, 45);
        fill: rgba(0, 0, 0, 0);
        animation: dash-path-animation-93-2 1s linear forwards;
        animation-delay: 0.3026247283935547s;
      }

      @keyframes dash-path-animation-93-2 {
        33% {
          stroke: rgb(220, 59, 45);
        }
        66% {
          fill: rgba(0, 0, 0, 0);
          stroke-width: 1.5;
        }
        100% {
          fill: rgb(220, 59, 45);
          stroke-width: 0px;
          stroke-dashoffset: 0;
        }
      }
      .path-animation-94-3 {
        stroke-dasharray: 300.1617431640625;
        stroke-dashoffset: 300.1617431640625;
        stroke-width: 3;
        stroke: rgb(220, 59, 45);
        fill: rgba(0, 0, 0, 0);
        animation: dash-path-animation-94-3 1s linear forwards;
        animation-delay: 0.33558626708984374s;
      }

      @keyframes dash-path-animation-94-3 {
        33% {
          stroke: rgb(220, 59, 45);
        }
        66% {
          fill: rgba(0, 0, 0, 0);
          stroke-width: 1.5;
        }
        100% {
          fill: rgb(220, 59, 45);
          stroke-width: 0px;
          stroke-dashoffset: 0;
        }
      }
      .path-animation-95-4 {
        stroke-dasharray: 598.2540283203125;
        stroke-dashoffset: 598.2540283203125;
        stroke-width: 3;
        stroke: rgb(239, 227, 227);
        fill: rgba(0, 0, 0, 0);
        animation: dash-path-animation-95-4 1s linear forwards;
        animation-delay: 0.36560244140625s;
      }

      @keyframes dash-path-animation-95-4 {
        33% {
          stroke: rgb(239, 227, 227);
        }
        66% {
          fill: rgba(0, 0, 0, 0);
          stroke-width: 1.5;
        }
        100% {
          fill: rgb(239, 227, 227);
          stroke-width: 0px;
          stroke-dashoffset: 0;
        }
      }
      .path-animation-96-5 {
        stroke-dasharray: 374.6384582519531;
        stroke-dashoffset: 374.6384582519531;
        stroke-width: 3;
        stroke: rgb(239, 227, 227);
        fill: rgba(0, 0, 0, 0);
        animation: dash-path-animation-96-5 1s linear forwards;
        animation-delay: 0.4254278442382812s;
      }

      @keyframes dash-path-animation-96-5 {
        33% {
          stroke: rgb(239, 227, 227);
        }
        66% {
          fill: rgba(0, 0, 0, 0);
          stroke-width: 1.5;
        }
        100% {
          fill: rgb(239, 227, 227);
          stroke-width: 0px;
          stroke-dashoffset: 0;
        }
      }
      .path-animation-97-6 {
        stroke-dasharray: 421.5901184082031;
        stroke-dashoffset: 421.5901184082031;
        stroke-width: 3;
        stroke: rgb(239, 227, 227);
        fill: rgba(0, 0, 0, 0);
        animation: dash-path-animation-97-6 1s linear forwards;
        animation-delay: 0.4628916900634765s;
      }

      @keyframes dash-path-animation-97-6 {
        33% {
          stroke: rgb(239, 227, 227);
        }
        66% {
          fill: rgba(0, 0, 0, 0);
          stroke-width: 1.5;
        }
        100% {
          fill: rgb(239, 227, 227);
          stroke-width: 0px;
          stroke-dashoffset: 0;
        }
      }
      .path-animation-98-7 {
        stroke-dasharray: 431.7980651855469;
        stroke-dashoffset: 431.7980651855469;
        stroke-width: 3;
        stroke: rgb(239, 227, 227);
        fill: rgba(0, 0, 0, 0);
        animation: dash-path-animation-98-7 1s linear forwards;
        animation-delay: 0.5050507019042968s;
      }

      @keyframes dash-path-animation-98-7 {
        33% {
          stroke: rgb(239, 227, 227);
        }
        66% {
          fill: rgba(0, 0, 0, 0);
          stroke-width: 1.5;
        }
        100% {
          fill: rgb(239, 227, 227);
          stroke-width: 0px;
          stroke-dashoffset: 0;
        }
      }
      .path-animation-99-8 {
        stroke-dasharray: 388.38604736328125;
        stroke-dashoffset: 388.38604736328125;
        stroke-width: 3;
        stroke: rgb(239, 227, 227);
        fill: rgba(0, 0, 0, 0);
        animation: dash-path-animation-99-8 1s linear forwards;
        animation-delay: 0.5482305084228515s;
      }

      @keyframes dash-path-animation-99-8 {
        33% {
          stroke: rgb(239, 227, 227);
        }
        66% {
          fill: rgba(0, 0, 0, 0);
          stroke-width: 1.5;
        }
        100% {
          fill: rgb(239, 227, 227);
          stroke-width: 0px;
          stroke-dashoffset: 0;
        }
      }
      .path-animation-100-9 {
        stroke-dasharray: 300.1617431640625;
        stroke-dashoffset: 300.1617431640625;
        stroke-width: 3;
        stroke: rgb(239, 227, 227);
        fill: rgba(0, 0, 0, 0);
        animation: dash-path-animation-100-9 1s linear forwards;
        animation-delay: 0.5870691131591796s;
      }

      @keyframes dash-path-animation-100-9 {
        33% {
          stroke: rgb(239, 227, 227);
        }
        66% {
          fill: rgba(0, 0, 0, 0);
          stroke-width: 1.5;
        }
        100% {
          fill: rgb(239, 227, 227);
          stroke-width: 0px;
          stroke-dashoffset: 0;
        }
      }
      .path-animation-101-10 {
        stroke-dasharray: 328.47772216796875;
        stroke-dashoffset: 328.47772216796875;
        stroke-width: 3;
        stroke: rgb(239, 227, 227);
        fill: rgba(0, 0, 0, 0);
        animation: dash-path-animation-101-10 1s linear forwards;
        animation-delay: 0.6170852874755859s;
      }

      @keyframes dash-path-animation-101-10 {
        33% {
          stroke: rgb(239, 227, 227);
        }
        66% {
          fill: rgba(0, 0, 0, 0);
          stroke-width: 1.5;
        }
        100% {
          fill: rgb(239, 227, 227);
          stroke-width: 0px;
          stroke-dashoffset: 0;
        }
      }
      .path-animation-102-11 {
        stroke-dasharray: 3;
        stroke-dashoffset: 3;
        stroke-width: 3;
        stroke: rgb(239, 227, 227);
        fill: rgba(0, 0, 0, 0);
        animation: dash-path-animation-102-11 1s linear forwards;
        animation-delay: 0.6499330596923828s;
      }

      @keyframes dash-path-animation-102-11 {
        33% {
          stroke: rgb(239, 227, 227);
        }
        66% {
          fill: rgba(0, 0, 0, 0);
          stroke-width: 1.5;
        }
        100% {
          fill: rgb(239, 227, 227);
          stroke-width: 0px;
          stroke-dashoffset: 0;
        }
      }
      .path-animation-103-12 {
        stroke-dasharray: 473.1657409667969;
        stroke-dashoffset: 473.1657409667969;
        stroke-width: 3;
        stroke: rgb(239, 227, 227);
        fill: rgba(0, 0, 0, 0);
        animation: dash-path-animation-103-12 1s linear forwards;
        animation-delay: 0.6502330596923828s;
      }

      @keyframes dash-path-animation-103-12 {
        33% {
          stroke: rgb(239, 227, 227);
        }
        66% {
          fill: rgba(0, 0, 0, 0);
          stroke-width: 1.5;
        }
        100% {
          fill: rgb(239, 227, 227);
          stroke-width: 0px;
          stroke-dashoffset: 0;
        }
      }
      .path-animation-104-13 {
        stroke-dasharray: 381.96923828125;
        stroke-dashoffset: 381.96923828125;
        stroke-width: 3;
        stroke: rgb(239, 227, 227);
        fill: rgba(0, 0, 0, 0);
        animation: dash-path-animation-104-13 1s linear forwards;
        animation-delay: 0.6975496337890624s;
      }

      @keyframes dash-path-animation-104-13 {
        33% {
          stroke: rgb(239, 227, 227);
        }
        66% {
          fill: rgba(0, 0, 0, 0);
          stroke-width: 1.5;
        }
        100% {
          fill: rgb(239, 227, 227);
          stroke-width: 0px;
          stroke-dashoffset: 0;
        }
      }
      .path-animation-105-14 {
        stroke-dasharray: 409.0859375;
        stroke-dashoffset: 409.0859375;
        stroke-width: 3;
        stroke: rgb(239, 227, 227);
        fill: rgba(0, 0, 0, 0);
        animation: dash-path-animation-105-14 1s linear forwards;
        animation-delay: 0.7357465576171874s;
      }

      @keyframes dash-path-animation-105-14 {
        33% {
          stroke: rgb(239, 227, 227);
        }
        66% {
          fill: rgba(0, 0, 0, 0);
          stroke-width: 1.5;
        }
        100% {
          fill: rgb(239, 227, 227);
          stroke-width: 0px;
          stroke-dashoffset: 0;
        }
      }
      .path-animation-106-15 {
        stroke-dasharray: 440.8045654296875;
        stroke-dashoffset: 440.8045654296875;
        stroke-width: 3;
        stroke: none;
        fill: rgba(0, 0, 0, 0);
        animation: dash-path-animation-106-15 1s linear forwards;
        animation-delay: 0.7766551513671874s;
      }

      @keyframes dash-path-animation-106-15 {
        33% {
          stroke: rgb(220, 59, 45);
        }
        66% {
          fill: rgba(0, 0, 0, 0);
          stroke-width: 1.5;
        }
        100% {
          fill: rgb(220, 59, 45);
          stroke-width: 0;
          stroke-dashoffset: 0;
        }
      }</style></svg>