<svg width="20" height="16" viewBox="0 0 20 16" fill="none" xmlns="http://www.w3.org/2000/svg">
<path d="M17.447 2.20711C17.2463 1.56673 16.8299 1.00512 16.2604 0.607008C15.6909 0.208895 14.9994 -0.00413257 14.29 6.0741e-05C13.4679 0.000751359 12.6758 0.290851 12.0694 0.813332C11.463 1.33581 11.0861 2.05288 11.013 2.82358H8.988C8.91386 2.05207 8.53579 1.33457 7.9281 0.812096C7.32042 0.289622 6.52707 -3.42775e-05 5.704 6.0741e-05C4.99558 -0.00321204 4.30521 0.210264 3.73689 0.608332C3.16857 1.0064 2.75308 1.5675 2.553 2.20711L0.0420001 10.0828C0.0144929 10.1706 0.000351839 10.2615 0 10.353V11.2941C0.00158836 12.5419 0.52902 13.7381 1.46657 14.6204C2.40413 15.5026 3.67523 15.9988 5.001 16C5.97268 15.9984 6.92285 15.7306 7.73547 15.2292C8.54809 14.7278 9.18798 14.0145 9.577 13.1765H10.423C10.812 14.0145 11.4519 14.7278 12.2645 15.2292C13.0771 15.7306 14.0273 15.9984 14.999 16C16.3249 15.9988 17.5962 15.5025 18.5338 14.62C19.4714 13.7376 19.9987 12.5411 20 11.2932V10.353C20 10.2607 19.985 10.1704 19.958 10.0828L17.447 2.20711ZM5.001 14.1177C4.20558 14.1167 3.44303 13.8189 2.88049 13.2896C2.31796 12.7604 2.00132 12.0428 2 11.2941C2 11.2226 2.017 11.1558 2.022 11.0852C2.07671 10.3763 2.41394 9.71303 2.96616 9.2282C3.51838 8.74337 4.24482 8.47278 5 8.47062C5.79565 8.47062 6.55871 8.76809 7.12132 9.29761C7.68393 9.82712 8 10.5453 8 11.2941V11.3026C7.99657 12.0495 7.67925 12.7648 7.11734 13.2922C6.55543 13.8197 5.7946 14.1164 5.001 14.1177ZM14.999 14.1177C14.2054 14.1164 13.4446 13.8197 12.8827 13.2922C12.3208 12.7648 12.0034 12.0495 12 11.3026V11.2941C11.9999 10.9233 12.0775 10.5562 12.2282 10.2136C12.3789 9.871 12.5998 9.5597 12.8783 9.29747C13.4408 8.76787 14.2039 8.47027 14.9995 8.47015C15.7951 8.47002 16.5583 8.76738 17.121 9.2968C17.6837 9.82623 17.9999 10.5444 18 11.2932C17.9989 12.042 17.6824 12.7598 17.1199 13.2893C16.5573 13.8188 15.7946 14.1167 14.999 14.1177Z" fill="white"/>
</svg>
