<svg width="32" height="32" viewBox="0 0 32 32" fill="none" xmlns="http://www.w3.org/2000/svg">
<path d="M30.5 6L24.5 2L18.5 6L24.5 10M30.5 6V13L24.5 17V10M30.5 6L24.5 10" stroke="white" stroke-width="0.5" stroke-linecap="round" stroke-linejoin="round"/>
<path d="M1.5 6L7.5 2L13.5 6L7.5 10M1.5 6V13L7.5 17V10M1.5 6L7.5 10" stroke="white" stroke-width="0.5" stroke-linecap="round" stroke-linejoin="round"/>
<path d="M16.5008 31L10.5008 26.9999L10.5008 20L16.5008 24M16.5008 31L22.5008 27L22.5008 20L16.5008 24M16.5008 31L16.5008 24" stroke="white" stroke-width="0.5" stroke-linecap="round" stroke-linejoin="round"/>
<path d="M16.4995 21.4991L16.5 15.1953M22.5 11.1953L16.5 15.1953M16.5 15.1953L10.5 11.1953" stroke="url(#paint0_linear_3866_60992)" stroke-width="0.5" stroke-linejoin="round"/>
<defs>
<linearGradient id="paint0_linear_3866_60992" x1="15.45" y1="8.33743" x2="21.5483" y2="18.5897" gradientUnits="userSpaceOnUse">
<stop stop-color="#00C2FF"/>
<stop offset="0.5" stop-color="#00E4FF"/>
<stop offset="1" stop-color="#87F2FF"/>
</linearGradient>
</defs>
</svg>
