<svg width="32" height="32" viewBox="0 0 32 32" fill="none" xmlns="http://www.w3.org/2000/svg">
<rect x="4.5" y="5.5" width="23" height="18" rx="1.5" fill="black" stroke="url(#paint0_linear_3216_13945)" stroke-linejoin="round"/>
<path d="M2.03647 22.5547C1.59343 21.8901 2.06982 21 2.86852 21H29.1315C29.9302 21 30.4066 21.8901 29.9635 22.5547L29.2969 23.5547C29.1114 23.8329 28.7992 24 28.4648 24H3.53518C3.20083 24 2.8886 23.8329 2.70313 23.5547L2.03647 22.5547Z" fill="url(#paint1_linear_3216_13945)"/>
<rect x="21.5" y="11.5" width="9" height="15" rx="1.5" fill="black" stroke="url(#paint2_linear_3216_13945)" stroke-linejoin="round"/>
<circle cx="26" cy="24" r="0.5" stroke="url(#paint3_linear_3216_13945)" stroke-linecap="round" stroke-linejoin="round"/>
<defs>
<linearGradient id="paint0_linear_3216_13945" x1="16" y1="5" x2="16" y2="24" gradientUnits="userSpaceOnUse">
<stop stop-color="#565E5E"/>
<stop offset="1" stop-color="#565E5E" stop-opacity="0.6"/>
</linearGradient>
<linearGradient id="paint1_linear_3216_13945" x1="1" y1="22.5" x2="50.125" y2="22.5" gradientUnits="userSpaceOnUse">
<stop stop-color="#5BD2F8"/>
<stop offset="1" stop-color="#3AD19C"/>
</linearGradient>
<linearGradient id="paint2_linear_3216_13945" x1="26" y1="11" x2="26" y2="27" gradientUnits="userSpaceOnUse">
<stop stop-color="#565E5E"/>
<stop offset="1" stop-color="#565E5E" stop-opacity="0.6"/>
</linearGradient>
<linearGradient id="paint3_linear_3216_13945" x1="25" y1="24" x2="28.275" y2="24" gradientUnits="userSpaceOnUse">
<stop stop-color="#5BD2F8"/>
<stop offset="1" stop-color="#3AD19C"/>
</linearGradient>
</defs>
</svg>
