<svg width="32" height="32" viewBox="0 0 32 32" fill="none" xmlns="http://www.w3.org/2000/svg">
<path opacity="0.5" d="M26.711 22.6406L26.6455 22.3529L26.8657 22.1565C28.9849 20.2662 30.3173 17.7493 30.4863 15.0096L30.4877 14.983C30.8103 8.58456 24.6966 2.93489 16.6133 2.52363C8.52883 2.11231 1.87492 7.08224 1.51221 13.4399C1.19123 19.8383 7.30426 25.4864 15.3457 25.9387C17.0859 26.02 18.7422 25.8553 20.3158 25.4882L20.4707 25.4521L20.6181 25.5121L27.9371 28.4947C27.9541 28.5011 27.9647 28.5005 27.9718 28.4991C27.9812 28.4974 27.9929 28.4925 28.0045 28.4827C28.028 28.4628 28.0311 28.4431 28.0295 28.4306L26.711 22.6406Z" stroke="white"/>
<path d="M17.3465 20.0508C17.3465 20.8008 16.9461 21.2012 16.1961 21.2012H15.1961C14.4461 21.2012 14.0457 20.8008 14.0457 20.0508V19.25C14.0457 18.5 14.4461 18.0996 15.1961 18.0996H16.1961C16.9461 18.0996 17.3465 18.5 17.3465 19.25V20.0508ZM17.4969 16.0996L17.4461 16.25C17.2957 16.8496 16.9969 17 16.3465 17H15.0965C14.3465 17 13.9461 16.5996 13.9461 15.8496V15.75C13.9461 14.1504 16.6453 13.1992 16.6453 12.0996C16.6453 11.5996 16.2449 11.4004 15.7957 11.4004C15.6453 11.4004 15.3465 11.4512 15.0965 11.5508C14.4461 11.8516 13.7469 11.8516 13.3465 11.3008L12.7957 10.5C12.3953 9.8496 12.3465 9.3496 12.995 8.9492C13.6942 8.49998 14.745 8 16.1454 8C18.1454 8 20.5458 9.1504 20.5458 11.6504C20.4969 14.3008 17.9462 15.0508 17.4969 16.0996Z" fill="url(#paint0_linear_3216_16645)"/>
<defs>
<linearGradient id="paint0_linear_3216_16645" x1="12.5" y1="14.6006" x2="25.6749" y2="14.6006" gradientUnits="userSpaceOnUse">
<stop stop-color="#5BD2F8"/>
<stop offset="1" stop-color="#3AD19C"/>
</linearGradient>
</defs>
</svg>
