<svg width="56" height="56" viewBox="0 0 56 56" fill="none" xmlns="http://www.w3.org/2000/svg">
<path d="M28.0002 0C12.5382 0 0 12.8531 0 28.7089C0 41.3932 8.02292 52.1545 19.1483 55.9507C20.5476 56.2164 21.0614 55.3279 21.0614 54.5696C21.0614 53.885 21.0354 51.6235 21.0234 49.2246C13.2337 50.9613 11.5899 45.8373 11.5899 45.8373C10.3162 42.519 8.48103 41.6366 8.48103 41.6366C5.94057 39.8548 8.67252 39.8914 8.67252 39.8914C11.4842 40.0939 12.9647 42.8499 12.9647 42.8499C15.4621 47.2388 19.515 45.97 21.1128 45.2364C21.3642 43.3809 22.0898 42.1144 22.8906 41.3975C16.6713 40.6716 10.1336 38.2099 10.1336 27.2094C10.1336 24.0751 11.2274 21.5141 13.0185 19.5036C12.7278 18.7805 11.7694 15.8605 13.2898 11.9061C13.2898 11.9061 15.6411 11.1345 20.9918 14.8489C23.2253 14.2128 25.6207 13.8938 28.0002 13.8828C30.3798 13.8938 32.777 14.2128 35.0147 14.8489C40.3589 11.1345 42.707 11.9061 42.707 11.9061C44.2311 15.8605 43.2722 18.7805 42.9815 19.5036C44.7768 21.5141 45.8632 24.0751 45.8632 27.2094C45.8632 38.236 39.3129 40.6639 33.0779 41.3747C34.0822 42.2656 34.9771 44.0127 34.9771 46.6912C34.9771 50.5324 34.9446 53.624 34.9446 54.5696C34.9446 55.3336 35.4487 56.2288 36.868 55.9469C47.9873 52.1464 56 41.3889 56 28.7089C56 12.8531 43.4637 0 28.0002 0" fill="white"/>
<path d="M10.6879 41.0228C10.6264 41.164 10.4079 41.2064 10.2089 41.1094C10.0062 41.0167 9.89237 40.8241 9.95809 40.6824C10.0183 40.537 10.2372 40.4965 10.4394 40.594C10.6426 40.6867 10.7583 40.8811 10.6879 41.0228" fill="#161514"/>
<path d="M11.8198 42.3067C11.6865 42.4324 11.4259 42.3741 11.2491 42.1754C11.0663 41.9772 11.0321 41.7122 11.1672 41.5847C11.3047 41.459 11.5573 41.5178 11.7406 41.716C11.9234 41.9165 11.9591 42.1797 11.8198 42.3067" fill="#161514"/>
<path d="M12.9212 43.944C12.75 44.065 12.47 43.9515 12.2969 43.6988C12.1257 43.446 12.1257 43.1428 12.3006 43.0214C12.4742 42.9 12.75 43.0092 12.9254 43.2601C13.0962 43.5171 13.0962 43.8202 12.9212 43.944" fill="#161514"/>
<path d="M14.4316 45.5256C14.2784 45.6974 13.9521 45.6513 13.7133 45.4168C13.4689 45.1876 13.4009 44.8623 13.5545 44.6905C13.7096 44.5182 14.0377 44.5667 14.2784 44.7993C14.5209 45.028 14.5949 45.3557 14.4316 45.5256" fill="#161514"/>
<path d="M16.5138 46.4439C16.4462 46.6665 16.132 46.7677 15.8154 46.6731C15.4993 46.5757 15.2924 46.3149 15.3563 46.0899C15.422 45.8658 15.7377 45.7604 16.0565 45.8616C16.3722 45.9585 16.5795 46.2174 16.5138 46.4439" fill="#161514"/>
<path d="M18.8016 46.6143C18.8094 46.8488 18.541 47.0432 18.2087 47.0474C17.8746 47.0549 17.6043 46.8652 17.6006 46.6346C17.6006 46.3978 17.863 46.2053 18.1971 46.1996C18.5294 46.193 18.8016 46.3813 18.8016 46.6143" fill="#161514"/>
<path d="M20.9299 46.2457C20.9697 46.4744 20.7387 46.7093 20.4088 46.7719C20.0843 46.8322 19.784 46.691 19.7428 46.4641C19.7025 46.2297 19.9376 45.9948 20.2616 45.9341C20.592 45.8757 20.8878 46.0131 20.9299 46.2457" fill="#161514"/>
</svg>
