<svg width="58" height="58" viewBox="0 0 58 58" fill="none" xmlns="http://www.w3.org/2000/svg">
<rect opacity="0.4" width="2" height="2" transform="matrix(-1 0 0 1 58 8)" fill="url(#paint0_linear_3299_669)"/>
<rect opacity="0.6" width="2" height="2" transform="matrix(-1 0 0 1 58 16)" fill="url(#paint1_linear_3299_669)"/>
<rect width="2" height="2" transform="matrix(-1 0 0 1 58 24)" fill="url(#paint2_linear_3299_669)"/>
<rect width="2" height="2" transform="matrix(-1 0 0 1 58 32)" fill="url(#paint3_linear_3299_669)"/>
<rect opacity="0.6" width="2" height="2" transform="matrix(-1 0 0 1 58 40)" fill="url(#paint4_linear_3299_669)"/>
<rect opacity="0.4" width="2" height="2" transform="matrix(-1 0 0 1 58 48)" fill="url(#paint5_linear_3299_669)"/>
<rect opacity="0.4" width="2" height="2" transform="matrix(-1 0 0 1 50 0)" fill="url(#paint6_linear_3299_669)"/>
<rect opacity="0.4" width="2" height="2" transform="matrix(-1 0 0 1 50 56)" fill="url(#paint7_linear_3299_669)"/>
<rect opacity="0.6" width="2" height="2" transform="matrix(-1 0 0 1 42 0)" fill="url(#paint8_linear_3299_669)"/>
<rect opacity="0.4" width="2" height="2" transform="matrix(-1 0 0 1 42 16)" fill="white"/>
<rect opacity="0.4" width="2" height="2" transform="matrix(-1 0 0 1 42 40)" fill="white"/>
<rect opacity="0.6" width="2" height="2" transform="matrix(-1 0 0 1 42 56)" fill="url(#paint9_linear_3299_669)"/>
<rect width="2" height="2" transform="matrix(-1 0 0 1 34 0)" fill="url(#paint10_linear_3299_669)"/>
<rect width="2" height="2" transform="matrix(-1 0 0 1 34 24)" fill="white"/>
<rect width="2" height="2" transform="matrix(-1 0 0 1 34 32)" fill="white"/>
<rect width="2" height="2" transform="matrix(-1 0 0 1 34 56)" fill="url(#paint11_linear_3299_669)"/>
<rect width="2" height="2" transform="matrix(-1 0 0 1 26 0)" fill="url(#paint12_linear_3299_669)"/>
<rect width="2" height="2" transform="matrix(-1 0 0 1 26 24)" fill="white"/>
<rect width="2" height="2" transform="matrix(-1 0 0 1 26 32)" fill="white"/>
<rect width="2" height="2" transform="matrix(-1 0 0 1 26 56)" fill="url(#paint13_linear_3299_669)"/>
<rect opacity="0.6" width="2" height="2" transform="matrix(-1 0 0 1 18 0)" fill="url(#paint14_linear_3299_669)"/>
<rect opacity="0.4" width="2" height="2" transform="matrix(-1 0 0 1 18 16)" fill="white"/>
<rect opacity="0.4" width="2" height="2" transform="matrix(-1 0 0 1 18 40)" fill="white"/>
<rect opacity="0.6" width="2" height="2" transform="matrix(-1 0 0 1 18 56)" fill="url(#paint15_linear_3299_669)"/>
<rect opacity="0.4" width="2" height="2" transform="matrix(-1 0 0 1 10 0)" fill="url(#paint16_linear_3299_669)"/>
<rect opacity="0.4" width="2" height="2" transform="matrix(-1 0 0 1 10 56)" fill="url(#paint17_linear_3299_669)"/>
<rect opacity="0.4" width="2" height="2" transform="matrix(-1 0 0 1 2 8)" fill="url(#paint18_linear_3299_669)"/>
<rect opacity="0.6" width="2" height="2" transform="matrix(-1 0 0 1 2 16)" fill="url(#paint19_linear_3299_669)"/>
<rect width="2" height="2" transform="matrix(-1 0 0 1 2 24)" fill="url(#paint20_linear_3299_669)"/>
<rect width="2" height="2" transform="matrix(-1 0 0 1 2 32)" fill="url(#paint21_linear_3299_669)"/>
<rect opacity="0.6" width="2" height="2" transform="matrix(-1 0 0 1 2 40)" fill="url(#paint22_linear_3299_669)"/>
<rect opacity="0.4" width="2" height="2" transform="matrix(-1 0 0 1 2 48)" fill="url(#paint23_linear_3299_669)"/>
<defs>
<linearGradient id="paint0_linear_3299_669" x1="0" y1="1" x2="3.275" y2="1" gradientUnits="userSpaceOnUse">
<stop stop-color="#5BD2F8"/>
<stop offset="1" stop-color="#3AD19C"/>
</linearGradient>
<linearGradient id="paint1_linear_3299_669" x1="0" y1="1" x2="3.275" y2="1" gradientUnits="userSpaceOnUse">
<stop stop-color="#5BD2F8"/>
<stop offset="1" stop-color="#3AD19C"/>
</linearGradient>
<linearGradient id="paint2_linear_3299_669" x1="0" y1="1" x2="3.275" y2="1" gradientUnits="userSpaceOnUse">
<stop stop-color="#5BD2F8"/>
<stop offset="1" stop-color="#3AD19C"/>
</linearGradient>
<linearGradient id="paint3_linear_3299_669" x1="0" y1="1" x2="3.275" y2="1" gradientUnits="userSpaceOnUse">
<stop stop-color="#5BD2F8"/>
<stop offset="1" stop-color="#3AD19C"/>
</linearGradient>
<linearGradient id="paint4_linear_3299_669" x1="0" y1="1" x2="3.275" y2="1" gradientUnits="userSpaceOnUse">
<stop stop-color="#5BD2F8"/>
<stop offset="1" stop-color="#3AD19C"/>
</linearGradient>
<linearGradient id="paint5_linear_3299_669" x1="0" y1="1" x2="3.275" y2="1" gradientUnits="userSpaceOnUse">
<stop stop-color="#5BD2F8"/>
<stop offset="1" stop-color="#3AD19C"/>
</linearGradient>
<linearGradient id="paint6_linear_3299_669" x1="0" y1="1" x2="3.275" y2="1" gradientUnits="userSpaceOnUse">
<stop stop-color="#5BD2F8"/>
<stop offset="1" stop-color="#3AD19C"/>
</linearGradient>
<linearGradient id="paint7_linear_3299_669" x1="0" y1="1" x2="3.275" y2="1" gradientUnits="userSpaceOnUse">
<stop stop-color="#5BD2F8"/>
<stop offset="1" stop-color="#3AD19C"/>
</linearGradient>
<linearGradient id="paint8_linear_3299_669" x1="0" y1="1" x2="3.275" y2="1" gradientUnits="userSpaceOnUse">
<stop stop-color="#5BD2F8"/>
<stop offset="1" stop-color="#3AD19C"/>
</linearGradient>
<linearGradient id="paint9_linear_3299_669" x1="0" y1="1" x2="3.275" y2="1" gradientUnits="userSpaceOnUse">
<stop stop-color="#5BD2F8"/>
<stop offset="1" stop-color="#3AD19C"/>
</linearGradient>
<linearGradient id="paint10_linear_3299_669" x1="0" y1="1" x2="3.275" y2="1" gradientUnits="userSpaceOnUse">
<stop stop-color="#5BD2F8"/>
<stop offset="1" stop-color="#3AD19C"/>
</linearGradient>
<linearGradient id="paint11_linear_3299_669" x1="0" y1="1" x2="3.275" y2="1" gradientUnits="userSpaceOnUse">
<stop stop-color="#5BD2F8"/>
<stop offset="1" stop-color="#3AD19C"/>
</linearGradient>
<linearGradient id="paint12_linear_3299_669" x1="0" y1="1" x2="3.275" y2="1" gradientUnits="userSpaceOnUse">
<stop stop-color="#5BD2F8"/>
<stop offset="1" stop-color="#3AD19C"/>
</linearGradient>
<linearGradient id="paint13_linear_3299_669" x1="0" y1="1" x2="3.275" y2="1" gradientUnits="userSpaceOnUse">
<stop stop-color="#5BD2F8"/>
<stop offset="1" stop-color="#3AD19C"/>
</linearGradient>
<linearGradient id="paint14_linear_3299_669" x1="0" y1="1" x2="3.275" y2="1" gradientUnits="userSpaceOnUse">
<stop stop-color="#5BD2F8"/>
<stop offset="1" stop-color="#3AD19C"/>
</linearGradient>
<linearGradient id="paint15_linear_3299_669" x1="0" y1="1" x2="3.275" y2="1" gradientUnits="userSpaceOnUse">
<stop stop-color="#5BD2F8"/>
<stop offset="1" stop-color="#3AD19C"/>
</linearGradient>
<linearGradient id="paint16_linear_3299_669" x1="0" y1="1" x2="3.275" y2="1" gradientUnits="userSpaceOnUse">
<stop stop-color="#5BD2F8"/>
<stop offset="1" stop-color="#3AD19C"/>
</linearGradient>
<linearGradient id="paint17_linear_3299_669" x1="0" y1="1" x2="3.275" y2="1" gradientUnits="userSpaceOnUse">
<stop stop-color="#5BD2F8"/>
<stop offset="1" stop-color="#3AD19C"/>
</linearGradient>
<linearGradient id="paint18_linear_3299_669" x1="0" y1="1" x2="3.275" y2="1" gradientUnits="userSpaceOnUse">
<stop stop-color="#5BD2F8"/>
<stop offset="1" stop-color="#3AD19C"/>
</linearGradient>
<linearGradient id="paint19_linear_3299_669" x1="0" y1="1" x2="3.275" y2="1" gradientUnits="userSpaceOnUse">
<stop stop-color="#5BD2F8"/>
<stop offset="1" stop-color="#3AD19C"/>
</linearGradient>
<linearGradient id="paint20_linear_3299_669" x1="0" y1="1" x2="3.275" y2="1" gradientUnits="userSpaceOnUse">
<stop stop-color="#5BD2F8"/>
<stop offset="1" stop-color="#3AD19C"/>
</linearGradient>
<linearGradient id="paint21_linear_3299_669" x1="0" y1="1" x2="3.275" y2="1" gradientUnits="userSpaceOnUse">
<stop stop-color="#5BD2F8"/>
<stop offset="1" stop-color="#3AD19C"/>
</linearGradient>
<linearGradient id="paint22_linear_3299_669" x1="0" y1="1" x2="3.275" y2="1" gradientUnits="userSpaceOnUse">
<stop stop-color="#5BD2F8"/>
<stop offset="1" stop-color="#3AD19C"/>
</linearGradient>
<linearGradient id="paint23_linear_3299_669" x1="0" y1="1" x2="3.275" y2="1" gradientUnits="userSpaceOnUse">
<stop stop-color="#5BD2F8"/>
<stop offset="1" stop-color="#3AD19C"/>
</linearGradient>
</defs>
</svg>
