<svg width="58" height="58" viewBox="0 0 58 58" fill="none" xmlns="http://www.w3.org/2000/svg">
<rect opacity="0.4" width="2" height="2" transform="matrix(-1 0 0 1 58 12)" fill="url(#paint0_linear_3379_825)"/>
<rect opacity="0.4" width="2" height="2" transform="matrix(-1 0 0 1 58 52)" fill="url(#paint1_linear_3379_825)"/>
<rect opacity="0.6" width="2" height="2" transform="matrix(-1 0 0 1 50 12)" fill="url(#paint2_linear_3379_825)"/>
<rect opacity="0.6" width="2" height="2" transform="matrix(-1 0 0 1 50 20)" fill="white"/>
<rect opacity="0.6" width="2" height="2" transform="matrix(-1 0 0 1 50 28)" fill="white"/>
<rect opacity="0.6" width="2" height="2" transform="matrix(-1 0 0 1 50 36)" fill="white"/>
<rect opacity="0.6" width="2" height="2" transform="matrix(-1 0 0 1 50 44)" fill="white"/>
<rect opacity="0.6" width="2" height="2" transform="matrix(-1 0 0 1 50 52)" fill="url(#paint3_linear_3379_825)"/>
<rect opacity="0.8" width="2" height="2" transform="matrix(-1 0 0 1 42 4)" fill="url(#paint4_linear_3379_825)"/>
<rect opacity="0.8" width="2" height="2" transform="matrix(-1 0 0 1 42 12)" fill="url(#paint5_linear_3379_825)"/>
<rect opacity="0.8" width="2" height="2" transform="matrix(-1 0 0 1 42 52)" fill="url(#paint6_linear_3379_825)"/>
<rect width="2" height="2" transform="matrix(-1 0 0 1 34 4)" fill="url(#paint7_linear_3379_825)"/>
<rect width="2" height="2" transform="matrix(-1 0 0 1 34 12)" fill="url(#paint8_linear_3379_825)"/>
<rect width="2" height="2" transform="matrix(-1 0 0 1 34 20)" fill="white"/>
<rect width="2" height="2" transform="matrix(-1 0 0 1 34 28)" fill="white"/>
<rect width="2" height="2" transform="matrix(-1 0 0 1 34 36)" fill="white"/>
<rect width="2" height="2" transform="matrix(-1 0 0 1 34 44)" fill="white"/>
<rect width="2" height="2" transform="matrix(-1 0 0 1 34 52)" fill="url(#paint9_linear_3379_825)"/>
<rect width="2" height="2" transform="matrix(-1 0 0 1 26 4)" fill="url(#paint10_linear_3379_825)"/>
<rect width="2" height="2" transform="matrix(-1 0 0 1 26 12)" fill="url(#paint11_linear_3379_825)"/>
<rect width="2" height="2" transform="matrix(-1 0 0 1 26 20)" fill="white"/>
<rect width="2" height="2" transform="matrix(-1 0 0 1 26 28)" fill="white"/>
<rect width="2" height="2" transform="matrix(-1 0 0 1 26 36)" fill="white"/>
<rect width="2" height="2" transform="matrix(-1 0 0 1 26 44)" fill="white"/>
<rect width="2" height="2" transform="matrix(-1 0 0 1 26 52)" fill="url(#paint12_linear_3379_825)"/>
<rect opacity="0.8" width="2" height="2" transform="matrix(-1 0 0 1 18 4)" fill="url(#paint13_linear_3379_825)"/>
<rect opacity="0.8" width="2" height="2" transform="matrix(-1 0 0 1 18 12)" fill="url(#paint14_linear_3379_825)"/>
<rect opacity="0.8" width="2" height="2" transform="matrix(-1 0 0 1 18 52)" fill="url(#paint15_linear_3379_825)"/>
<rect opacity="0.6" width="2" height="2" transform="matrix(-1 0 0 1 10 12)" fill="url(#paint16_linear_3379_825)"/>
<rect opacity="0.6" width="2" height="2" transform="matrix(-1 0 0 1 10 20)" fill="white"/>
<rect opacity="0.6" width="2" height="2" transform="matrix(-1 0 0 1 10 28)" fill="white"/>
<rect opacity="0.6" width="2" height="2" transform="matrix(-1 0 0 1 10 36)" fill="white"/>
<rect opacity="0.6" width="2" height="2" transform="matrix(-1 0 0 1 10 44)" fill="white"/>
<rect opacity="0.6" width="2" height="2" transform="matrix(-1 0 0 1 10 52)" fill="url(#paint17_linear_3379_825)"/>
<rect opacity="0.4" width="2" height="2" transform="matrix(-1 0 0 1 2 12)" fill="url(#paint18_linear_3379_825)"/>
<rect opacity="0.4" width="2" height="2" transform="matrix(-1 0 0 1 2 52)" fill="url(#paint19_linear_3379_825)"/>
<defs>
<linearGradient id="paint0_linear_3379_825" x1="0" y1="1" x2="3.275" y2="1" gradientUnits="userSpaceOnUse">
<stop stop-color="#5BD2F8"/>
<stop offset="1" stop-color="#3AD19C"/>
</linearGradient>
<linearGradient id="paint1_linear_3379_825" x1="0" y1="1" x2="3.275" y2="1" gradientUnits="userSpaceOnUse">
<stop stop-color="#5BD2F8"/>
<stop offset="1" stop-color="#3AD19C"/>
</linearGradient>
<linearGradient id="paint2_linear_3379_825" x1="0" y1="1" x2="3.275" y2="1" gradientUnits="userSpaceOnUse">
<stop stop-color="#5BD2F8"/>
<stop offset="1" stop-color="#3AD19C"/>
</linearGradient>
<linearGradient id="paint3_linear_3379_825" x1="0" y1="1" x2="3.275" y2="1" gradientUnits="userSpaceOnUse">
<stop stop-color="#5BD2F8"/>
<stop offset="1" stop-color="#3AD19C"/>
</linearGradient>
<linearGradient id="paint4_linear_3379_825" x1="0" y1="1" x2="3.275" y2="1" gradientUnits="userSpaceOnUse">
<stop stop-color="#5BD2F8"/>
<stop offset="1" stop-color="#3AD19C"/>
</linearGradient>
<linearGradient id="paint5_linear_3379_825" x1="0" y1="1" x2="3.275" y2="1" gradientUnits="userSpaceOnUse">
<stop stop-color="#5BD2F8"/>
<stop offset="1" stop-color="#3AD19C"/>
</linearGradient>
<linearGradient id="paint6_linear_3379_825" x1="0" y1="1" x2="3.275" y2="1" gradientUnits="userSpaceOnUse">
<stop stop-color="#5BD2F8"/>
<stop offset="1" stop-color="#3AD19C"/>
</linearGradient>
<linearGradient id="paint7_linear_3379_825" x1="0" y1="1" x2="3.275" y2="1" gradientUnits="userSpaceOnUse">
<stop stop-color="#5BD2F8"/>
<stop offset="1" stop-color="#3AD19C"/>
</linearGradient>
<linearGradient id="paint8_linear_3379_825" x1="0" y1="1" x2="3.275" y2="1" gradientUnits="userSpaceOnUse">
<stop stop-color="#5BD2F8"/>
<stop offset="1" stop-color="#3AD19C"/>
</linearGradient>
<linearGradient id="paint9_linear_3379_825" x1="0" y1="1" x2="3.275" y2="1" gradientUnits="userSpaceOnUse">
<stop stop-color="#5BD2F8"/>
<stop offset="1" stop-color="#3AD19C"/>
</linearGradient>
<linearGradient id="paint10_linear_3379_825" x1="0" y1="1" x2="3.275" y2="1" gradientUnits="userSpaceOnUse">
<stop stop-color="#5BD2F8"/>
<stop offset="1" stop-color="#3AD19C"/>
</linearGradient>
<linearGradient id="paint11_linear_3379_825" x1="0" y1="1" x2="3.275" y2="1" gradientUnits="userSpaceOnUse">
<stop stop-color="#5BD2F8"/>
<stop offset="1" stop-color="#3AD19C"/>
</linearGradient>
<linearGradient id="paint12_linear_3379_825" x1="0" y1="1" x2="3.275" y2="1" gradientUnits="userSpaceOnUse">
<stop stop-color="#5BD2F8"/>
<stop offset="1" stop-color="#3AD19C"/>
</linearGradient>
<linearGradient id="paint13_linear_3379_825" x1="0" y1="1" x2="3.275" y2="1" gradientUnits="userSpaceOnUse">
<stop stop-color="#5BD2F8"/>
<stop offset="1" stop-color="#3AD19C"/>
</linearGradient>
<linearGradient id="paint14_linear_3379_825" x1="0" y1="1" x2="3.275" y2="1" gradientUnits="userSpaceOnUse">
<stop stop-color="#5BD2F8"/>
<stop offset="1" stop-color="#3AD19C"/>
</linearGradient>
<linearGradient id="paint15_linear_3379_825" x1="0" y1="1" x2="3.275" y2="1" gradientUnits="userSpaceOnUse">
<stop stop-color="#5BD2F8"/>
<stop offset="1" stop-color="#3AD19C"/>
</linearGradient>
<linearGradient id="paint16_linear_3379_825" x1="0" y1="1" x2="3.275" y2="1" gradientUnits="userSpaceOnUse">
<stop stop-color="#5BD2F8"/>
<stop offset="1" stop-color="#3AD19C"/>
</linearGradient>
<linearGradient id="paint17_linear_3379_825" x1="0" y1="1" x2="3.275" y2="1" gradientUnits="userSpaceOnUse">
<stop stop-color="#5BD2F8"/>
<stop offset="1" stop-color="#3AD19C"/>
</linearGradient>
<linearGradient id="paint18_linear_3379_825" x1="0" y1="1" x2="3.275" y2="1" gradientUnits="userSpaceOnUse">
<stop stop-color="#5BD2F8"/>
<stop offset="1" stop-color="#3AD19C"/>
</linearGradient>
<linearGradient id="paint19_linear_3379_825" x1="0" y1="1" x2="3.275" y2="1" gradientUnits="userSpaceOnUse">
<stop stop-color="#5BD2F8"/>
<stop offset="1" stop-color="#3AD19C"/>
</linearGradient>
</defs>
</svg>
