<svg width="30" height="30" viewBox="0 0 30 30" fill="none" xmlns="http://www.w3.org/2000/svg">
<rect width="2" height="2" transform="matrix(-1 0 0 1 30 0)" fill="black"/>
<rect width="2" height="2" transform="matrix(-1 0 0 1 30 4)" fill="black"/>
<rect width="2" height="2" transform="matrix(-1 0 0 1 30 8)" fill="black"/>
<rect width="2" height="2" transform="matrix(-1 0 0 1 30 12)" fill="black"/>
<rect width="2" height="2" transform="matrix(-1 0 0 1 30 16)" fill="black"/>
<rect width="2" height="2" transform="matrix(-1 0 0 1 30 20)" fill="black"/>
<rect width="2" height="2" transform="matrix(-1 0 0 1 30 24)" fill="black"/>
<rect width="2" height="2" transform="matrix(-1 0 0 1 30 28)" fill="black"/>
<rect width="2" height="2" transform="matrix(-1 0 0 1 26 0)" fill="black"/>
<rect width="2" height="2" transform="matrix(-1 0 0 1 26 4)" fill="black"/>
<rect width="2" height="2" transform="matrix(-1 0 0 1 26 8)" fill="white"/>
<rect width="2" height="2" transform="matrix(-1 0 0 1 26 12)" fill="white"/>
<rect width="2" height="2" transform="matrix(-1 0 0 1 26 16)" fill="black"/>
<rect width="2" height="2" transform="matrix(-1 0 0 1 26 20)" fill="black"/>
<rect width="2" height="2" transform="matrix(-1 0 0 1 26 24)" fill="white"/>
<rect width="2" height="2" transform="matrix(-1 0 0 1 26 28)" fill="black"/>
<rect width="2" height="2" transform="matrix(-1 0 0 1 22 0)" fill="black"/>
<rect width="2" height="2" transform="matrix(-1 0 0 1 22 4)" fill="white"/>
<rect width="2" height="2" transform="matrix(-1 0 0 1 22 8)" fill="white"/>
<rect width="2" height="2" transform="matrix(-1 0 0 1 22 12)" fill="white"/>
<rect width="2" height="2" transform="matrix(-1 0 0 1 22 16)" fill="white"/>
<rect width="2" height="2" transform="matrix(-1 0 0 1 22 20)" fill="white"/>
<rect width="2" height="2" transform="matrix(-1 0 0 1 22 24)" fill="white"/>
<rect width="2" height="2" transform="matrix(-1 0 0 1 22 28)" fill="black"/>
<rect width="2" height="2" transform="matrix(-1 0 0 1 18 0)" fill="black"/>
<rect width="2" height="2" transform="matrix(-1 0 0 1 18 4)" fill="white"/>
<rect width="2" height="2" transform="matrix(-1 0 0 1 18 8)" fill="white"/>
<rect width="2" height="2" transform="matrix(-1 0 0 1 18 12)" fill="white"/>
<rect width="2" height="2" transform="matrix(-1 0 0 1 18 16)" fill="white"/>
<rect width="2" height="2" transform="matrix(-1 0 0 1 18 20)" fill="white"/>
<rect width="2" height="2" transform="matrix(-1 0 0 1 18 24)" fill="white"/>
<rect width="2" height="2" transform="matrix(-1 0 0 1 18 28)" fill="black"/>
<rect width="2" height="2" transform="matrix(-1 0 0 1 14 0)" fill="black"/>
<rect width="2" height="2" transform="matrix(-1 0 0 1 14 4)" fill="white"/>
<rect width="2" height="2" transform="matrix(-1 0 0 1 14 8)" fill="white"/>
<rect width="2" height="2" transform="matrix(-1 0 0 1 14 12)" fill="white"/>
<rect width="2" height="2" transform="matrix(-1 0 0 1 14 16)" fill="white"/>
<rect width="2" height="2" transform="matrix(-1 0 0 1 14 20)" fill="white"/>
<rect width="2" height="2" transform="matrix(-1 0 0 1 14 24)" fill="white"/>
<rect width="2" height="2" transform="matrix(-1 0 0 1 14 28)" fill="black"/>
<rect width="2" height="2" transform="matrix(-1 0 0 1 10 0)" fill="black"/>
<rect width="2" height="2" transform="matrix(-1 0 0 1 10 4)" fill="white"/>
<rect width="2" height="2" transform="matrix(-1 0 0 1 10 8)" fill="white"/>
<rect width="2" height="2" transform="matrix(-1 0 0 1 10 12)" fill="white"/>
<rect width="2" height="2" transform="matrix(-1 0 0 1 10 16)" fill="white"/>
<rect width="2" height="2" transform="matrix(-1 0 0 1 10 20)" fill="white"/>
<rect width="2" height="2" transform="matrix(-1 0 0 1 10 24)" fill="white"/>
<rect width="2" height="2" transform="matrix(-1 0 0 1 10 28)" fill="black"/>
<rect width="2" height="2" transform="matrix(-1 0 0 1 6 0)" fill="black"/>
<rect width="2" height="2" transform="matrix(-1 0 0 1 6 4)" fill="white"/>
<rect width="2" height="2" transform="matrix(-1 0 0 1 6 8)" fill="black"/>
<rect width="2" height="2" transform="matrix(-1 0 0 1 6 12)" fill="black"/>
<rect width="2" height="2" transform="matrix(-1 0 0 1 6 16)" fill="white"/>
<rect width="2" height="2" transform="matrix(-1 0 0 1 6 20)" fill="white"/>
<rect width="2" height="2" transform="matrix(-1 0 0 1 6 24)" fill="black"/>
<rect width="2" height="2" transform="matrix(-1 0 0 1 6 28)" fill="black"/>
<rect width="2" height="2" transform="matrix(-1 0 0 1 2 0)" fill="black"/>
<rect width="2" height="2" transform="matrix(-1 0 0 1 2 4)" fill="black"/>
<rect width="2" height="2" transform="matrix(-1 0 0 1 2 8)" fill="black"/>
<rect width="2" height="2" transform="matrix(-1 0 0 1 2 12)" fill="black"/>
<rect width="2" height="2" transform="matrix(-1 0 0 1 2 16)" fill="black"/>
<rect width="2" height="2" transform="matrix(-1 0 0 1 2 20)" fill="black"/>
<rect width="2" height="2" transform="matrix(-1 0 0 1 2 24)" fill="black"/>
<rect width="2" height="2" transform="matrix(-1 0 0 1 2 28)" fill="black"/>
</svg>
