<svg width="30" height="28" viewBox="0 0 30 28" fill="none" xmlns="http://www.w3.org/2000/svg">
<path d="M29.7765 21.2899L24.8356 26.6346C24.7282 26.7507 24.5983 26.8433 24.4538 26.9065C24.3094 26.9698 24.1537 27.0024 23.9962 27.0023H0.573611C0.461849 27.0023 0.352523 26.9694 0.259064 26.9076C0.165605 26.8458 0.0920858 26.7577 0.0475383 26.6544C0.00299078 26.551 -0.0106441 26.4367 0.00830894 26.3256C0.027262 26.2145 0.0779773 26.1115 0.154224 26.029L5.09892 20.6843C5.20604 20.5685 5.33558 20.4762 5.47953 20.4129C5.62348 20.3497 5.77877 20.3169 5.93578 20.3166H29.3571C29.4689 20.3166 29.5782 20.3495 29.6717 20.4114C29.7651 20.4732 29.8386 20.5612 29.8832 20.6646C29.9277 20.7679 29.9414 20.8822 29.9224 20.9933C29.9035 21.1044 29.8527 21.2075 29.7765 21.2899V21.2899ZM24.8356 10.5272C24.7282 10.4111 24.5983 10.3185 24.4538 10.2552C24.3094 10.192 24.1537 10.1594 23.9962 10.1595H0.573611C0.461849 10.1595 0.352523 10.1924 0.259064 10.2542C0.165605 10.316 0.0920858 10.404 0.0475383 10.5074C0.00299078 10.6108 -0.0106441 10.7251 0.00830894 10.8362C0.027262 10.9472 0.0779773 11.0503 0.154224 11.1327L5.09892 16.4775C5.20604 16.5933 5.33558 16.6856 5.47953 16.7489C5.62348 16.8121 5.77877 16.8449 5.93578 16.8452H29.3571C29.4689 16.8452 29.5782 16.8122 29.6717 16.7504C29.7651 16.6886 29.8386 16.6006 29.8832 16.4972C29.9277 16.3938 29.9414 16.2796 29.9224 16.1685C29.9035 16.0574 29.8527 15.9543 29.7765 15.8719L24.8356 10.5272ZM0.573611 6.68803H23.9962C24.1537 6.68812 24.3094 6.65551 24.4538 6.59225C24.5983 6.52899 24.7282 6.43643 24.8356 6.32032L29.7765 0.975605C29.8527 0.893187 29.9035 0.790099 29.9224 0.679007C29.9414 0.567915 29.9277 0.453659 29.8832 0.350276C29.8386 0.246893 29.7651 0.158888 29.6717 0.0970718C29.5782 0.0352561 29.4689 0.00232314 29.3571 0.00231934L5.93578 0.00231934C5.77877 0.00258884 5.62348 0.0353633 5.47953 0.0986137C5.33558 0.161864 5.20604 0.254244 5.09892 0.370034L0.155499 5.71475C0.0793256 5.79709 0.0286327 5.90006 0.00963664 6.01103C-0.0093594 6.122 0.0041673 6.23616 0.0485578 6.33949C0.0929484 6.44282 0.166273 6.53084 0.259539 6.59275C0.352805 6.65467 0.461958 6.68778 0.573611 6.68803V6.68803Z" fill="black"/>
</svg>
