<svg width="32" height="32" viewBox="0 0 32 32" fill="none" xmlns="http://www.w3.org/2000/svg">
<path d="M28.866 22.9223L24.574 27.6731C24.4807 27.7763 24.3678 27.8586 24.2424 27.9149C24.1169 27.9711 23.9816 28.0001 23.8449 28H3.49828C3.4012 28 3.30623 27.9707 3.22504 27.9158C3.14386 27.8608 3.07999 27.7826 3.0413 27.6907C3.0026 27.5988 2.99075 27.4972 3.00722 27.3985C3.02368 27.2998 3.06774 27.2081 3.13397 27.1349L7.42929 22.384C7.52234 22.2811 7.63487 22.199 7.75992 22.1427C7.88496 22.0865 8.01986 22.0574 8.15625 22.0571H28.5017C28.5988 22.0571 28.6938 22.0864 28.775 22.1414C28.8561 22.1963 28.92 22.2745 28.9587 22.3664C28.9974 22.4583 29.0092 22.5599 28.9928 22.6586C28.9763 22.7574 28.9323 22.849 28.866 22.9223ZM24.574 13.3554C24.4807 13.2522 24.3678 13.1699 24.2424 13.1137C24.1169 13.0575 23.9816 13.0285 23.8449 13.0286H3.49828C3.4012 13.0286 3.30623 13.0578 3.22504 13.1128C3.14386 13.1677 3.07999 13.246 3.0413 13.3379C3.0026 13.4298 2.99075 13.5313 3.00722 13.6301C3.02368 13.7288 3.06774 13.8205 3.13397 13.8937L7.42929 18.6446C7.52234 18.7475 7.63487 18.8296 7.75992 18.8858C7.88496 18.9421 8.01986 18.9712 8.15625 18.9714H28.5017C28.5988 18.9714 28.6938 18.9422 28.775 18.8872C28.8561 18.8323 28.92 18.754 28.9587 18.6621C28.9974 18.5702 29.0092 18.4687 28.9928 18.3699C28.9763 18.2712 28.9323 18.1795 28.866 18.1063L24.574 13.3554ZM3.49828 9.94286H23.8449C23.9816 9.94293 24.1169 9.91395 24.2424 9.85772C24.3678 9.80149 24.4807 9.71921 24.574 9.616L28.866 4.86514C28.9323 4.79188 28.9763 4.70025 28.9928 4.6015C29.0092 4.50275 28.9974 4.40119 28.9587 4.30929C28.92 4.2174 28.8561 4.13917 28.775 4.08422C28.6938 4.02928 28.5988 4 28.5017 4H8.15625C8.01986 4.00024 7.88496 4.02937 7.75992 4.08559C7.63487 4.14182 7.52234 4.22393 7.42929 4.32686L3.13508 9.07771C3.06891 9.1509 3.02487 9.24243 3.00837 9.34108C2.99187 9.43972 3.00362 9.54119 3.04218 9.63304C3.08074 9.72489 3.14444 9.80313 3.22545 9.85816C3.30647 9.9132 3.40129 9.94263 3.49828 9.94286Z" fill="url(#paint0_linear_3216_14022)"/>
<defs>
<linearGradient id="paint0_linear_3216_14022" x1="5.1947" y1="28.572" x2="27.2886" y2="4.44035" gradientUnits="userSpaceOnUse">
<stop offset="0.08" stop-color="#9945FF"/>
<stop offset="0.3" stop-color="#8752F3"/>
<stop offset="0.5" stop-color="#5497D5"/>
<stop offset="0.6" stop-color="#43B4CA"/>
<stop offset="0.72" stop-color="#28E0B9"/>
<stop offset="0.97" stop-color="#19FB9B"/>
</linearGradient>
</defs>
</svg>
