<svg width="30" height="27" viewBox="0 0 30 27" fill="none" xmlns="http://www.w3.org/2000/svg">
<path d="M29.7765 21.2876L24.8356 26.6323C24.7282 26.7484 24.5983 26.841 24.4538 26.9042C24.3094 26.9675 24.1537 27.0001 23.9962 27H0.573611C0.461849 27 0.352523 26.9671 0.259064 26.9052C0.165605 26.8434 0.0920858 26.7554 0.0475383 26.652C0.00299078 26.5487 -0.0106441 26.4344 0.00830894 26.3233C0.027262 26.2122 0.0779773 26.1091 0.154224 26.0267L5.09892 20.682C5.20604 20.5662 5.33558 20.4738 5.47953 20.4106C5.62348 20.3473 5.77877 20.3146 5.93578 20.3143H29.3571C29.4689 20.3143 29.5782 20.3472 29.6717 20.409C29.7651 20.4709 29.8386 20.5589 29.8832 20.6622C29.9277 20.7656 29.9414 20.8799 29.9224 20.991C29.9035 21.1021 29.8527 21.2052 29.7765 21.2876ZM24.8356 10.5249C24.7282 10.4088 24.5983 10.3162 24.4538 10.2529C24.3094 10.1897 24.1537 10.1571 23.9962 10.1571H0.573611C0.461849 10.1571 0.352523 10.1901 0.259064 10.2519C0.165605 10.3137 0.0920858 10.4017 0.0475383 10.5051C0.00299078 10.6085 -0.0106441 10.7227 0.00830894 10.8338C0.027262 10.9449 0.0779773 11.048 0.154224 11.1304L5.09892 16.4751C5.20604 16.5909 5.33558 16.6833 5.47953 16.7466C5.62348 16.8098 5.77877 16.8426 5.93578 16.8429H29.3571C29.4689 16.8429 29.5782 16.8099 29.6717 16.7481C29.7651 16.6863 29.8386 16.5983 29.8832 16.4949C29.9277 16.3915 29.9414 16.2773 29.9224 16.1662C29.9035 16.0551 29.8527 15.952 29.7765 15.8696L24.8356 10.5249ZM0.573611 6.68571H23.9962C24.1537 6.6858 24.3094 6.65319 24.4538 6.58993C24.5983 6.52667 24.7282 6.43411 24.8356 6.318L29.7765 0.973286C29.8527 0.890868 29.9035 0.78778 29.9224 0.676688C29.9414 0.565596 29.9277 0.45134 29.8832 0.347957C29.8386 0.244574 29.7651 0.156568 29.6717 0.0947525C29.5782 0.0329368 29.4689 3.80683e-06 29.3571 0L5.93578 0C5.77877 0.000269508 5.62348 0.033044 5.47953 0.0962944C5.33558 0.159545 5.20604 0.251925 5.09892 0.367714L0.155499 5.71243C0.0793256 5.79477 0.0286327 5.89774 0.00963664 6.00871C-0.0093594 6.11968 0.0041673 6.23384 0.0485578 6.33717C0.0929484 6.4405 0.166273 6.52852 0.259539 6.59043C0.352805 6.65235 0.461958 6.68546 0.573611 6.68571Z" fill="black"/>
</svg>
