<?xml version="1.0"?><svg xmlns="http://www.w3.org/2000/svg" xmlns:xlink="http://www.w3.org/1999/xlink" viewBox="-131.00 -119.54 540.62 540.62" width="3832.3353293413174px" height="3832.3353293413174px" style="overflow: visible; width: 100%; height: 100%; position: absolute; left: 0px; top: 0px; transition: 350ms ease-in-out; backface-visibility: hidden; opacity: 1; transform: translate3d(0px, 0px, 0px) rotate3d(1, 1, 0, 0deg);"><g transform="translate(0 0)"><g transform="translate(0 0)"><g transform="translate(0 0)"><g><circle fill="#000000" stroke="none" stroke-width="12.714684964129422" transform="translate(0 0)" cx="139.3141457197114" cy="150.76880796067567" r="242.3113157336366" class=""></circle></g></g><g transform="translate(0 0)"><g transform="translate(0 210.57600000000002)"><g transform="translate(0 0)"><g transform="scale(0.7466666666666667 0.7466666666666667) translate(-7.320000171661377 69.87000274658203)"><g transform="translate(0.000,0)" fill="#ffffff" stroke="#ffffff" stroke-width="0"><path d="M18.94,-58.20L18.94,-40.77L103.36,-40.77L104.54,-40.84L106.72,-41.41L108.68,-42.53L109.57,-43.31L110.34,-44.20L111.47,-46.15L112.03,-48.33L112.10,-49.51L112.03,-50.67L111.47,-52.83L110.34,-54.77L109.57,-55.66L108.68,-56.44L106.72,-57.56L104.54,-58.13L103.36,-58.20Z   M18.94,-29.10L18.94,-11.62L103.36,-11.62L104.54,-11.69L106.72,-12.27L108.68,-13.41L109.57,-14.20L110.34,-15.08L111.47,-17.01L112.03,-19.18L112.10,-20.36L112.03,-21.54L111.47,-23.71L110.34,-25.67L109.57,-26.56L108.68,-27.34L106.72,-28.47L104.54,-29.03L103.36,-29.10Z   M103.36,0.00L7.32,0.00L7.32,-69.87L103.36,-69.87L104.41,-69.85L106.44,-69.66L108.40,-69.28L110.28,-68.72L112.08,-67.97L113.80,-67.03L115.45,-65.90L117.02,-64.59L117.77,-63.86L118.50,-63.11L119.81,-61.54L120.93,-59.90L121.87,-58.18L122.62,-56.39L123.18,-54.52L123.56,-52.57L123.75,-50.55L123.77,-49.51L123.75,-48.45L123.55,-46.38L123.17,-44.39L122.59,-42.48L121.82,-40.66L120.86,-38.91L119.71,-37.25L118.36,-35.67L117.62,-34.91L118.36,-34.15L119.71,-32.58L120.86,-30.93L121.82,-29.19L122.59,-27.37L123.17,-25.47L123.55,-23.49L123.75,-21.42L123.77,-20.36L123.75,-19.32L123.56,-17.29L123.18,-15.34L122.62,-13.47L121.87,-11.67L120.93,-9.94L119.81,-8.29L118.50,-6.71L117.77,-5.95L117.02,-5.23L115.45,-3.93L113.80,-2.81L112.08,-1.88L110.28,-1.14L108.40,-0.58L106.44,-0.21L104.41,-0.02Z   " class=""></path></g><g transform="translate(128.356,0)" fill="#ffffff" stroke="#ffffff" stroke-width="0"><path d="M123.77,-69.87L7.32,-69.87L7.32,0.00L123.77,0.00L123.77,-11.62L18.94,-11.62L18.94,-29.10L123.77,-29.10L123.77,-40.77L18.94,-40.77L18.94,-58.20L123.77,-58.20Z   " class=""></path></g><g transform="translate(256.713,0)" fill="#ffffff" stroke="#ffffff" stroke-width="0"><path d="M123.77,-69.87L7.32,-69.87L7.32,-58.20L59.71,-58.20L59.71,0.00L71.38,0.00L71.38,-58.20L123.77,-58.20Z   " class=""></path></g></g></g></g><g transform="translate(43.31414470856228 0)"><g><mask id="shape-hole-6691"><rect fill="white" rx="28.799999999999997" ry="28.799999999999997" x="0" y="0" width="192" height="192" class=""></rect><g fill="#000" stroke="none" x="0" y="0" transform="translate(46.09575777475501, 2.0282675857286705) scale(1.4591883569522763)"><path d="M18.10 0.00 L50.30 0.00 L50.30 -1.40 L39.20 -1.40 L39.20 -69.80 L45.00 -69.80 C50.30 -69.80 58.90 -69.30 63.50 -52.90 L64.60 -52.90 L64.60 -71.20 L3.80 -71.20 L3.80 -52.90 L4.90 -52.90 C9.50 -69.30 18.10 -69.80 23.40 -69.80 L29.20 -69.80 L29.20 -1.40 L18.10 -1.40 Z" transform="translate(0,100)" fill-rule="nonzero" fill="#000" stroke="none" stroke-width="1px" stroke-linecap="butt" stroke-linejoin="miter" stroke-miterlimit="4" stroke-dasharray="none" class=""></path></g></mask><rect mask="url(#shape-hole-6691)" fill="#88c23d" stroke="#88c23d" stroke-width="3" x="0" y="0" width="192" height="192" class=""></rect></g></g></g></g></g></svg>