<svg width="28" height="28" viewBox="0 0 28 28" fill="none" xmlns="http://www.w3.org/2000/svg">
<circle cx="14" cy="14" r="14" fill="#F5F5F5"/>
<rect width="24" height="24" transform="translate(2 2)" fill="white" style="mix-blend-mode:multiply"/>
<path d="M12.5 18.0605L8.75 14.3098L9.80976 13.25L12.5 15.9395L18.1888 10.25L19.25 11.3112L12.5 18.0605Z" fill="#404040"/>
<path d="M14 3.5C11.9233 3.5 9.89323 4.11581 8.16652 5.26957C6.4398 6.42332 5.09399 8.0632 4.29927 9.98182C3.50455 11.9004 3.29661 14.0116 3.70176 16.0484C4.1069 18.0852 5.10693 19.9562 6.57538 21.4246C8.04383 22.8931 9.91476 23.8931 11.9516 24.2982C13.9884 24.7034 16.0996 24.4955 18.0182 23.7007C19.9368 22.906 21.5767 21.5602 22.7304 19.8335C23.8842 18.1068 24.5 16.0767 24.5 14C24.5 11.2152 23.3938 8.54451 21.4246 6.57538C19.4555 4.60625 16.7848 3.5 14 3.5ZM14 23C12.22 23 10.4799 22.4722 8.99987 21.4832C7.51983 20.4943 6.36628 19.0887 5.68509 17.4442C5.0039 15.7996 4.82567 13.99 5.17294 12.2442C5.5202 10.4984 6.37737 8.89471 7.63604 7.63604C8.89472 6.37737 10.4984 5.5202 12.2442 5.17293C13.99 4.82567 15.7996 5.0039 17.4442 5.68508C19.0887 6.36627 20.4943 7.51983 21.4832 8.99987C22.4722 10.4799 23 12.22 23 14C23 16.3869 22.0518 18.6761 20.364 20.364C18.6761 22.0518 16.387 23 14 23Z" fill="#404040"/>
</svg>
