<svg width="73" height="64" viewBox="0 0 73 64" fill="none" xmlns="http://www.w3.org/2000/svg">
<g clip-path="url(#clip0_2804_65285)">
<path d="M57.7321 45.8446L49.1481 55.3463C48.9615 55.5527 48.7357 55.7173 48.4848 55.8297C48.2339 55.9422 47.9632 56.0001 47.6897 56H6.99656C6.80239 56 6.61245 55.9414 6.45008 55.8316C6.28771 55.7217 6.15998 55.5652 6.08259 55.3814C6.0052 55.1976 5.98151 54.9945 6.01444 54.797C6.04736 54.5995 6.13547 54.4162 6.26794 54.2697L14.8586 44.768C15.0447 44.5622 15.2697 44.3979 15.5198 44.2855C15.7699 44.173 16.0397 44.1148 16.3125 44.1143H57.0034C57.1976 44.1143 57.3875 44.1728 57.5499 44.2827C57.7123 44.3926 57.84 44.5491 57.9174 44.7329C57.9948 44.9167 58.0185 45.1198 57.9856 45.3173C57.9526 45.5148 57.8645 45.6981 57.7321 45.8446V45.8446ZM49.1481 26.7109C48.9615 26.5044 48.7357 26.3399 48.4848 26.2274C48.2339 26.115 47.9632 26.057 47.6897 26.0571H6.99656C6.80239 26.0571 6.61245 26.1157 6.45008 26.2256C6.28771 26.3355 6.15998 26.4919 6.08259 26.6757C6.0052 26.8595 5.98151 27.0626 6.01444 27.2601C6.04736 27.4576 6.13547 27.6409 6.26794 27.7874L14.8586 37.2891C15.0447 37.495 15.2697 37.6592 15.5198 37.7717C15.7699 37.8841 16.0397 37.9424 16.3125 37.9429H57.0034C57.1976 37.9429 57.3875 37.8843 57.5499 37.7744C57.7123 37.6645 57.84 37.5081 57.9174 37.3243C57.9948 37.1405 58.0185 36.9374 57.9856 36.7399C57.9526 36.5424 57.8645 36.3591 57.7321 36.2126L49.1481 26.7109ZM6.99656 19.8857H47.6897C47.9632 19.8859 48.2339 19.8279 48.4848 19.7154C48.7357 19.603 48.9615 19.4384 49.1481 19.232L57.7321 9.73029C57.8645 9.58376 57.9526 9.4005 57.9856 9.203C58.0185 9.0055 57.9948 8.80238 57.9174 8.61859C57.84 8.4348 57.7123 8.27834 57.5499 8.16845C57.3875 8.05855 57.1976 8.00001 57.0034 8H16.3125C16.0397 8.00048 15.7699 8.05874 15.5198 8.17119C15.2697 8.28364 15.0447 8.44787 14.8586 8.65371L6.27015 18.1554C6.13782 18.3018 6.04974 18.4849 6.01674 18.6822C5.98374 18.8794 6.00724 19.0824 6.08436 19.2661C6.16148 19.4498 6.28887 19.6063 6.45091 19.7163C6.61294 19.8264 6.80258 19.8853 6.99656 19.8857V19.8857Z" fill="url(#paint0_linear_2804_65285)"/>
</g>
<circle cx="59" cy="49" r="14" fill="#F5F5F5"/>
<rect width="24" height="24" transform="translate(47 37)" fill="white" style="mix-blend-mode:multiply"/>
<path d="M57.5 53.0605L53.75 49.3098L54.8098 48.25L57.5 50.9395L63.1888 45.25L64.25 46.3112L57.5 53.0605Z" fill="#404040"/>
<path d="M59 38.5C56.9233 38.5 54.8932 39.1158 53.1665 40.2696C51.4398 41.4233 50.094 43.0632 49.2993 44.9818C48.5045 46.9004 48.2966 49.0116 48.7018 51.0484C49.1069 53.0852 50.1069 54.9562 51.5754 56.4246C53.0438 57.8931 54.9148 58.8931 56.9516 59.2982C58.9884 59.7034 61.0996 59.4955 63.0182 58.7007C64.9368 57.906 66.5767 56.5602 67.7304 54.8335C68.8842 53.1068 69.5 51.0767 69.5 49C69.5 46.2152 68.3938 43.5445 66.4246 41.5754C64.4555 39.6062 61.7848 38.5 59 38.5ZM59 58C57.22 58 55.4799 57.4722 53.9999 56.4832C52.5198 55.4943 51.3663 54.0887 50.6851 52.4442C50.0039 50.7996 49.8257 48.99 50.1729 47.2442C50.5202 45.4984 51.3774 43.8947 52.636 42.636C53.8947 41.3774 55.4984 40.5202 57.2442 40.1729C58.99 39.8257 60.7996 40.0039 62.4442 40.6851C64.0887 41.3663 65.4943 42.5198 66.4832 43.9999C67.4722 45.4799 68 47.22 68 49C68 51.3869 67.0518 53.6761 65.364 55.364C63.6761 57.0518 61.387 58 59 58Z" fill="#404040"/>
<defs>
<linearGradient id="paint0_linear_2804_65285" x1="10.3894" y1="57.144" x2="54.5772" y2="8.8807" gradientUnits="userSpaceOnUse">
<stop offset="0.08" stop-color="#9945FF"/>
<stop offset="0.3" stop-color="#8752F3"/>
<stop offset="0.5" stop-color="#5497D5"/>
<stop offset="0.6" stop-color="#43B4CA"/>
<stop offset="0.72" stop-color="#28E0B9"/>
<stop offset="0.97" stop-color="#19FB9B"/>
</linearGradient>
<clipPath id="clip0_2804_65285">
<rect width="52" height="48" fill="white" transform="translate(6 8)"/>
</clipPath>
</defs>
</svg>
