<svg width="64" height="44" viewBox="0 0 64 44" fill="none" xmlns="http://www.w3.org/2000/svg">
<path d="M54.2141 3.68493C50.0092 1.93867 45.5702 0.699807 41.0104 0C40.3864 1.01182 39.8219 2.05284 39.319 3.11872C34.462 2.4548 29.5227 2.4548 24.6656 3.11872C24.1625 2.05295 23.598 1.01194 22.9743 0C18.4116 0.705717 13.9696 1.94752 9.76051 3.69406C1.40438 14.9087 -0.86083 25.8447 0.271777 36.6256C5.16533 39.9053 10.6426 42.3996 16.4655 44C17.7767 42.4004 18.9369 40.7033 19.9338 38.9269C18.0403 38.2854 16.2127 37.4939 14.4722 36.5616C14.9302 36.2603 15.3782 35.9498 15.8112 35.6484C20.8757 37.8089 26.4033 38.9291 31.9999 38.9291C37.5965 38.9291 43.1241 37.8089 48.1886 35.6484C48.6266 35.9726 49.0746 36.2831 49.5276 36.5616C47.7837 37.4954 45.9528 38.2884 44.0559 38.9315C45.0516 40.7071 46.2119 42.4027 47.5242 44C53.3521 42.406 58.8335 39.9129 63.728 36.6301V36.6301C65.0569 24.1279 61.4577 13.2922 54.2141 3.68493ZM21.3685 29.9954C18.2123 29.9954 15.6048 27.3973 15.6048 24.2009C15.6048 21.0046 18.1217 18.3836 21.3584 18.3836C24.5952 18.3836 27.1825 21.0046 27.1272 24.2009C27.0718 27.3973 24.5851 29.9954 21.3685 29.9954ZM42.6313 29.9954C39.4701 29.9954 36.8726 27.3973 36.8726 24.2009C36.8726 21.0046 39.3895 18.3836 42.6313 18.3836C45.8731 18.3836 48.4403 21.0046 48.3849 24.2009C48.3296 27.3973 45.8479 29.9954 42.6313 29.9954Z" fill="#5865F2"/>
</svg>
