<svg width="32" height="32" viewBox="0 0 32 32" fill="none" xmlns="http://www.w3.org/2000/svg">
<circle cx="16" cy="16" r="15.3333" fill="white" stroke="#5865F2" stroke-width="1.33333"/>
<path fill-rule="evenodd" clip-rule="evenodd" d="M19.0725 13.2774L15.9996 7.36353L12.9267 13.2774L6.58887 9.84197L9.66507 20.6702H22.3341L25.4103 9.84197L19.0725 13.2774ZM18.0199 17.5806L15.9996 15.5603L13.9793 17.5806L15.9996 19.6009L18.0199 17.5806Z" fill="#5865F2"/>
<path d="M9.84576 21.4394C9.2692 21.4394 8.8018 21.9068 8.8018 22.4834V23.1427C8.8018 23.7193 9.2692 24.1867 9.84576 24.1867H22.1534C22.73 24.1867 23.1974 23.7193 23.1974 23.1427V22.4834C23.1974 21.9068 22.73 21.4394 22.1534 21.4394H9.84576Z" fill="#5865F2"/>
</svg>
