<?xml version="1.0" standalone="no"?>
<!DOCTYPE svg PUBLIC "-//W3C//DTD SVG 20010904//EN"
 "http://www.w3.org/TR/2001/REC-SVG-20010904/DTD/svg10.dtd">
<svg version="1.0" xmlns="http://www.w3.org/2000/svg"
 width="1634.000000pt" height="478.000000pt" viewBox="0 0 1634.000000 478.000000"
 preserveAspectRatio="xMidYMid meet">

<g transform="translate(0.000000,478.000000) scale(0.100000,-0.100000)"
fill="#000000" stroke="none">
<path d="M2072 4525 c-95 -21 -166 -58 -232 -121 -80 -76 -113 -130 -150 -245
-65 -203 -180 -338 -362 -424 -138 -66 -291 -81 -448 -45 -47 11 -110 20 -140
20 -240 1 -453 -185 -490 -426 -38 -245 123 -486 367 -549 73 -19 174 -19 243
0 201 55 426 10 597 -119 109 -83 180 -188 233 -346 40 -118 69 -169 136 -235
64 -62 149 -109 235 -130 164 -38 332 10 455 130 165 161 197 409 80 610 -33
55 -142 157 -200 184 -105 51 -246 65 -356 36 -216 -58 -461 4 -627 158 -165
154 -164 233 5 388 76 70 211 140 307 160 85 18 227 15 305 -6 83 -22 197 -22
280 0 86 23 243 23 330 0 133 -35 271 -124 357 -230 60 -75 90 -132 128 -245
19 -58 50 -127 71 -157 141 -205 411 -271 636 -157 71 36 169 132 207 203 105
198 71 423 -90 584 -78 78 -159 120 -269 139 -70 12 -132 7 -260 -21 -124 -28
-289 -4 -415 58 -179 89 -289 223 -360 439 -63 192 -208 321 -396 352 -79 12
-98 12 -177 -5z"/>
<path d="M5631 3055 c-213 -40 -348 -180 -359 -371 -6 -112 15 -181 75 -245
77 -82 174 -126 401 -180 210 -50 265 -83 265 -162 0 -82 -65 -135 -179 -145
-144 -11 -282 37 -440 153 -20 15 -24 12 -95 -72 -41 -49 -78 -93 -82 -100 -9
-15 100 -95 188 -138 112 -54 204 -76 345 -82 196 -8 328 29 426 119 95 87
129 173 122 312 -5 106 -23 149 -90 212 -80 75 -148 105 -376 161 -218 53
-272 86 -272 166 0 89 67 137 191 137 115 0 212 -32 317 -103 l52 -36 53 72
c29 40 63 86 75 103 l22 31 -60 42 c-33 23 -83 53 -113 66 -132 61 -330 86
-466 60z"/>
<path d="M7611 3059 c-76 -13 -183 -52 -249 -91 -31 -18 -93 -69 -138 -113
-67 -66 -89 -97 -127 -175 -83 -170 -96 -324 -41 -490 35 -105 76 -172 157
-257 254 -267 648 -298 938 -74 333 258 356 727 50 1013 -165 154 -379 222
-590 187z m267 -289 c125 -58 220 -183 241 -317 28 -183 -69 -367 -237 -446
-61 -29 -76 -32 -162 -32 -86 0 -102 3 -161 31 -84 40 -158 114 -201 201 -31
64 -33 74 -33 178 0 103 2 114 32 177 56 118 170 214 285 238 70 15 166 3 236
-30z"/>
<path d="M9731 3059 c-256 -43 -477 -231 -557 -475 -56 -171 -33 -372 60 -527
190 -316 581 -435 911 -277 53 25 205 133 205 145 0 2 -45 44 -100 94 l-99 91
-65 -49 c-90 -68 -141 -86 -251 -86 -81 0 -97 3 -158 32 -85 40 -155 111 -199
200 -32 65 -33 73 -33 183 0 106 2 120 28 172 44 89 116 161 204 205 70 34 82
37 162 37 75 0 94 -4 153 -31 37 -17 86 -49 110 -71 l43 -40 103 92 104 91
-50 45 c-149 136 -371 202 -571 169z"/>
<path d="M11090 2385 l0 -655 505 0 505 0 0 130 0 130 -360 0 -360 0 0 140 0
140 328 2 327 3 3 128 3 127 -331 0 -330 0 0 130 0 130 360 0 360 0 0 125 0
125 -505 0 -505 0 0 -655z"/>
<path d="M13307 3028 c-2 -7 -120 -296 -262 -643 -141 -346 -259 -636 -262
-642 -4 -10 31 -13 155 -13 l160 0 42 105 42 105 290 -2 290 -3 42 -100 42
-100 157 -3 c86 -1 157 1 157 6 0 5 -118 298 -263 653 l-263 644 -161 3 c-123
2 -162 -1 -166 -10z m262 -617 c50 -123 89 -226 87 -228 -2 -2 -87 -2 -188 -1
l-186 3 79 195 c88 218 108 264 113 259 2 -2 45 -105 95 -228z"/>
<path d="M14900 2385 l0 -655 140 0 140 0 2 420 3 421 313 -421 314 -421 141
3 142 3 3 653 2 652 -145 0 -145 0 -2 -416 -3 -415 -310 415 -310 416 -142 0
-143 0 0 -655z"/>
<path d="M645 2049 c-85 -17 -191 -75 -254 -138 -72 -72 -116 -159 -138 -269
-15 -76 -15 -89 0 -164 37 -186 153 -323 326 -384 82 -29 213 -32 305 -7 82
22 241 21 326 -1 232 -62 416 -247 488 -491 104 -348 532 -471 800 -230 76 68
110 123 153 247 49 143 87 206 179 298 84 84 195 147 310 177 87 22 226 21
324 -1 105 -24 237 -18 319 13 126 49 235 161 288 298 32 84 33 232 1 326 -43
124 -139 228 -263 286 -184 86 -392 52 -543 -90 -69 -64 -115 -140 -141 -234
-52 -182 -179 -337 -345 -419 -157 -77 -292 -93 -469 -56 -117 25 -173 25
-281 0 -208 -48 -406 -5 -577 124 -111 84 -183 192 -233 349 -60 186 -158 290
-329 348 -68 24 -178 32 -246 18z"/>
</g>
</svg>
