<svg xmlns="http://www.w3.org/2000/svg" viewBox="0 0 391.83 114.54"><defs><style>.cls-1{fill:#fff;}</style></defs><title>socean_logo</title><g id="Layer_3" data-name="Layer 3"><path class="cls-1" d="M92.24,66.84A11.81,11.81,0,0,0,74.89,74h0l0,.21c0,.12-.07.24-.1.37a16.21,16.21,0,0,1-19.2,11.08l-.36-.1-.2-.06h0a11.51,11.51,0,0,0-6,0h0l-.2.06-.36.1a16.21,16.21,0,0,1-19.2-11.08c0-.12-.06-.24-.1-.37L29,74h0a11.85,11.85,0,1,0-8.4,14.56h0a16.14,16.14,0,0,1,19.9,11.49h0a11.84,11.84,0,0,0,22.85,0h0a16.14,16.14,0,0,1,19.9-11.49h0a11.84,11.84,0,0,0,8.95-21.71Z"/><path class="cls-1" d="M96.58,31.51A11.85,11.85,0,0,0,83.29,26h0a15.81,15.81,0,0,1-12.35-1.58,15.81,15.81,0,0,1-7.55-9.91h0a11.84,11.84,0,0,0-22.85,0h0A15.81,15.81,0,0,1,33,24.39,15.81,15.81,0,0,1,20.62,26h0a11.85,11.85,0,1,0,0,22.91h0l.27-.08A16,16,0,0,1,33,50.47a15.81,15.81,0,0,1,7.55,9.91h0a11.88,11.88,0,1,0,8.4-14.56h0l-.2.06-.36.1a16.24,16.24,0,0,1-17.12-6.71,3.37,3.37,0,0,1,0-3.67,16.24,16.24,0,0,1,17.13-6.71l.36.1.2.06h0a11.51,11.51,0,0,0,6,0h0l.2-.06.36-.1A16.21,16.21,0,0,1,74.74,40c0,.12.06.24.1.37l0,.21h0a11.85,11.85,0,1,0,21.69-9Z"/><path class="cls-1" d="M124.94,68.31l3.89-4.62a15.51,15.51,0,0,0,10.33,4.12c3.38,0,5.12-1.56,5.12-3.52,0-2.24-1.83-2.93-6.63-4-6.63-1.51-11.34-3.38-11.34-9.47,0-5.81,4.76-9.79,11.62-9.79a18.14,18.14,0,0,1,12.3,4.34L146.7,50.2a14.56,14.56,0,0,0-9-3.48c-2.88,0-4.62,1.51-4.62,3.38,0,2.29,1.88,3,6.72,4.12,6.77,1.51,11.25,3.52,11.25,9.33,0,6-4.53,10-12.21,10A20.18,20.18,0,0,1,124.94,68.31Z"/><path class="cls-1" d="M168.43,57.25c0-8.83,7.68-16.23,16.69-16.23s16.69,7.41,16.69,16.23-7.59,16.28-16.69,16.28S168.43,66.07,168.43,57.25Zm26.48,0a9.77,9.77,0,1,0-19.53,0c0,5.49,4.48,10.15,9.74,10.15A10.12,10.12,0,0,0,194.91,57.25Z"/><path class="cls-1" d="M219.29,57.25C219.29,48.42,227,41,236,41a16.81,16.81,0,0,1,12.21,5.26l-4.89,4.39A9.79,9.79,0,0,0,236,47.14a10.1,10.1,0,0,0-9.74,10.11c0,5.49,4.48,10.15,9.74,10.15a9.79,9.79,0,0,0,7.32-3.52l4.89,4.39A17,17,0,0,1,236,73.53C227,73.53,219.29,66.07,219.29,57.25Z"/><path class="cls-1" d="M272.85,47.64v6.26h15.78V60H272.85v6.91h17.42V73H266.08V41.56h24.19v6.08Z"/><path class="cls-1" d="M330.15,68h-14l-2,4.94H306.6l12.8-31.42H327L339.75,73h-7.59Zm-2.33-5.72-4.66-11.48-4.66,11.48Z"/><path class="cls-1" d="M357.46,41.56h6.72l15.14,20.3V41.56h6.77V73h-6.77l-15.14-20.3V73h-6.72Z"/></g></svg>