<svg fill="none" height="36" viewBox="0 0 23 36" width="23" xmlns="http://www.w3.org/2000/svg"><g fill="#000618"><path d="m4.52929 21.3877v-6.8176c0-.2735.27618-.4787.55235-.3875l2.29884.7978v-3.1922c-.57313-.2123-1.14031-.4404-1.70089-.6839-2.2778-.9583-4.53105-2.21201-5.67959-3.12383.782061 1.61848 1.49398 3.46583 1.49398 7.43313v6.3389c0 1.2309.78206 2.326 1.95515 2.7135l3.97694 1.3897v-2.1893c0-.3419.06927-.6611.16133-.9574l-2.75914-.9802c-.08289-.0109-.15898-.0516-.21402-.1146-.05503-.0629-.08523-.1429-.08495-.2265zm9.72841-5.1745c.0014-.6006-.1868-1.1863-.5379-1.6736s-.8471-.8512-1.4172-1.04c-1.4482-.4405-2.88184-.9273-4.29875-1.4598v3.1695l2.91955 1.0258c.1614.0692.2762.206.2762.3884v7.4111l-.1376-.0464v3.215l.2297.0912c.2297.0912.4822.114.7356.114.7128 0 1.4028-.3192 1.8394-.9574.2525-.3876.391-.8207.391-1.2994z"/><path d="m14.8497 19.5191v3.1475l2.2989-.7987c.2761-.0912.5523.114.5523.3875v6.8176c0 .1824-.1157.3419-.2762.3875l-5.8172 2.0297c-.0622.0213-.1286.0276-.1938.0183-.0651-.0092-.1271-.0337-.181-.0715-.0538-.0378-.098-.0878-.1289-.1459-.0308-.0581-.0475-.1226-.0487-.1884v-7.1823l-.4129-.1833v-2.781l-.69001.2279c-.40822.1403-.77945.3711-1.08598.675-.30652.304-.5404.6733-.68418 1.0803-.11303.3066-.16774.6316-.16132.9583v8.9148c0 .5023.16132 1.0038.48309 1.4141.2088.2633.47444.4759.77704.622.3026.146.63431.2218.97036.2215.2525 0 .5058-.0456.7364-.114l7.8627-2.7355c1.1722-.4111 1.9543-1.5053 1.9543-2.7144v-6.1337c0-2.7127.8277-5.7909 1.9306-6.9772-.9425.7523-2.7583 1.4817-4.46 2.0753-2.1156.7066-3.4255 1.0486-3.4255 1.0486zm-4.89137-13.7501c-1.1731.41032-1.95516 1.5045-1.95516 2.71354v8.91476c0 .4559.11573.9119.39191 1.3003.20758.2951.48299.5361.80308.7027s.67549.254 1.03634.2547c.1377 0 .2753-.0228.4138-.0456v-3.5114s.1377.0456.2525.0912c.1149.0456.1377.0912.1377.0912v-7.38754c0-.18236.1157-.34193.2762-.38752l5.8172-2.02968c.0622-.02112.1285-.02727.1935-.01794.065.00934.1269.03388.1807.07164.0537.03777.0978.08768.1286.14569.0308.058.0475.12246.0487.18813v6.81762c0 .1824-.1149.3419-.2762.3884l-2.7127.9574c.1149.2963.1605.6155.1605.9574v2.1893l3.9541-1.3914c1.1731-.4104 1.9552-1.5045 1.9552-2.7127v-7.41118c0-2.69074 1.1038-5.35869 1.9315-6.65803526-2.7592 2.48558526-12.73747 5.76901526-12.73747 5.76901526z"/></g></svg>