<svg fill="none" height="32" viewBox="0 0 123 32" width="123" xmlns="http://www.w3.org/2000/svg"><g fill="#000618"><path d="m121.678 21.504h1.308v8.496h-1.308zm-4.503 8.592c-.424 0-.796-.072-1.116-.216a1.794 1.794 0 0 1 -.744-.624 1.663 1.663 0 0 1 -.253-.912c0-.4.093-.736.277-1.008.192-.28.488-.5.888-.66.4-.168.912-.288 1.536-.36l1.379-.132v.96l-1.319.168c-.352.04-.632.1-.84.18a1.011 1.011 0 0 0 -.468.3.798.798 0 0 0 -.144.492c0 .24.092.428.276.564s.432.204.744.204.588-.076.828-.228.428-.356.564-.612c.136-.264.204-.556.204-.876v-1.296c0-.232-.052-.432-.156-.6a.973.973 0 0 0 -.444-.396 1.599 1.599 0 0 0 -.672-.132c-.24 0-.452.044-.636.132-.184.08-.336.204-.456.372-.112.16-.18.356-.204.588h-1.32c.056-.4.196-.764.42-1.092.232-.328.535-.584.912-.768a2.78 2.78 0 0 1 1.284-.288c.504 0 .951.092 1.343.276s.697.452.913.804c.224.352.335.772.335 1.26v3.804h-1.319v-.876c-.128.272-.364.504-.708.696a2.26 2.26 0 0 1 -1.104.276zm-8.845-6.144h1.308v.9c.192-.288.464-.524.816-.708a2.56 2.56 0 0 1 1.224-.288c.432 0 .816.088 1.152.264.344.176.612.432.804.768.2.336.3.732.3 1.188v3.924h-1.32v-3.636c0-.28-.052-.52-.156-.72a1.05 1.05 0 0 0 -.444-.468 1.31 1.31 0 0 0 -.672-.168c-.352 0-.656.096-.912.288-.248.192-.444.468-.588.828-.136.352-.204.772-.204 1.26v2.616h-1.308zm-4.235 6.144a3.28 3.28 0 0 1 -1.608-.396 2.989 2.989 0 0 1 -1.116-1.116c-.264-.472-.396-1.008-.396-1.608 0-.608.132-1.148.396-1.62.272-.472.644-.84 1.116-1.104s1.008-.396 1.608-.396 1.136.132 1.608.396.84.632 1.104 1.104c.272.472.408 1.008.408 1.608s-.136 1.14-.408 1.62a2.878 2.878 0 0 1 -1.116 1.116 3.213 3.213 0 0 1 -1.596.396zm0-1.128c.344 0 .652-.084.924-.252a1.71 1.71 0 0 0 .636-.708c.152-.304.228-.648.228-1.032a2.23 2.23 0 0 0 -.228-1.032 1.71 1.71 0 0 0 -.636-.708 1.722 1.722 0 0 0 -.924-.252c-.344 0-.652.084-.924.252a1.71 1.71 0 0 0 -.636.708 2.202 2.202 0 0 0 -.228 1.02c0 .392.076.74.228 1.044s.364.54.636.708.58.252.924.252zm-5.549-5.016h1.307v6.048h-1.307zm.647-.996a.837.837 0 0 1 -.6-.228.8.8 0 0 1 -.24-.588.76.76 0 0 1 .24-.576.837.837 0 0 1 .6-.228c.24 0 .44.076.6.228s.241.344.241.576a.8.8 0 0 1 -.24.588.837.837 0 0 1 -.6.228zm-2.443 7.14c-.392 0-.74-.076-1.044-.228a1.794 1.794 0 0 1 -.708-.696c-.168-.304-.252-.668-.252-1.092v-5.628h1.32v5.52c0 .32.076.564.228.732.152.16.36.24.624.24.104 0 .216-.008.336-.024a2.06 2.06 0 0 0 .336-.096v1.116a1.718 1.718 0 0 1 -.408.12c-.136.024-.28.036-.432.036zm-2.988-6.144h3.78v1.08h-3.78zm-3.822 6.144c-.424 0-.796-.072-1.116-.216a1.794 1.794 0 0 1 -.744-.624 1.662 1.662 0 0 1 -.252-.912c0-.4.092-.736.276-1.008.192-.28.488-.5.888-.66.4-.168.912-.288 1.536-.36l1.38-.132v.96l-1.32.168c-.352.04-.632.1-.84.18a1.011 1.011 0 0 0 -.468.3.798.798 0 0 0 -.144.492c0 .24.092.428.276.564s.432.204.744.204.588-.076.828-.228.428-.356.564-.612c.136-.264.204-.556.204-.876v-1.296c0-.232-.052-.432-.156-.6a.973.973 0 0 0 -.444-.396 1.599 1.599 0 0 0 -.672-.132c-.24 0-.452.044-.636.132-.184.08-.336.204-.456.372-.112.16-.18.356-.204.588h-1.32c.056-.4.196-.764.42-1.092.232-.328.536-.584.912-.768a2.784 2.784 0 0 1 1.284-.288c.504 0 .952.092 1.344.276s.696.452.912.804c.224.352.336.772.336 1.26v3.804h-1.32v-.876c-.128.272-.364.504-.708.696a2.26 2.26 0 0 1 -1.104.276zm-8.844-6.144h1.308v.9c.192-.288.464-.524.816-.708a2.56 2.56 0 0 1 1.224-.288c.432 0 .816.088 1.152.264.344.176.612.432.804.768.2.336.3.732.3 1.188v3.924h-1.32v-3.636c0-.28-.052-.52-.156-.72a1.05 1.05 0 0 0 -.444-.468 1.31 1.31 0 0 0 -.672-.168c-.352 0-.656.096-.912.288-.248.192-.444.468-.588.828-.136.352-.204.772-.204 1.26v2.616h-1.308zm-4.629 0h1.308v.924c.176-.312.428-.56.756-.744a2.19 2.19 0 0 1 1.068-.276c.28 0 .508.04.684.12v1.26a2.145 2.145 0 0 0 -.804-.156c-.32 0-.608.096-.864.288s-.46.484-.612.876c-.152.384-.228.856-.228 1.416v2.34h-1.308zm-3.944 6.144c-.608 0-1.147-.132-1.62-.396a2.758 2.758 0 0 1 -1.08-1.104 3.388 3.388 0 0 1 -.383-1.62c0-.6.127-1.136.383-1.608a2.963 2.963 0 0 1 2.628-1.512c.624 0 1.168.148 1.632.444.465.296.805.704 1.02 1.224.217.512.285 1.076.205 1.692h-5.113v-.996h3.757a1.276 1.276 0 0 0 -.204-.684 1.14 1.14 0 0 0 -.529-.456 1.695 1.695 0 0 0 -.767-.168c-.36 0-.668.076-.924.228-.249.152-.44.38-.577.684-.135.304-.203.676-.203 1.116 0 .424.072.792.215 1.104.145.304.349.54.613.708.264.16.572.24.924.24.376 0 .688-.084.936-.252.247-.168.411-.4.491-.696h1.32a2.35 2.35 0 0 1 -.48 1.068 2.42 2.42 0 0 1 -.947.732 3.201 3.201 0 0 1 -1.296.252zm-4.426 0c-.392 0-.74-.076-1.044-.228a1.794 1.794 0 0 1 -.708-.696c-.168-.304-.252-.668-.252-1.092v-5.628h1.32v5.52c0 .32.076.564.228.732.152.16.36.24.624.24.104 0 .216-.008.336-.024a2.06 2.06 0 0 0 .336-.096v1.116a1.718 1.718 0 0 1 -.408.12c-.136.024-.28.036-.432.036zm-2.988-6.144h3.78v1.08h-3.78zm-6.326 0h1.308v.9c.192-.288.464-.524.816-.708a2.56 2.56 0 0 1 1.224-.288c.432 0 .816.088 1.152.264.344.176.612.432.804.768.2.336.3.732.3 1.188v3.924h-1.32v-3.636c0-.28-.052-.52-.156-.72a1.05 1.05 0 0 0 -.444-.468 1.31 1.31 0 0 0 -.672-.168c-.352 0-.656.096-.912.288-.248.192-.444.468-.588.828-.136.352-.204.772-.204 1.26v2.616h-1.308zm-2.776 0h1.308v6.048h-1.308zm.648-.996a.837.837 0 0 1 -.6-.228.8.8 0 0 1 -.24-.588.76.76 0 0 1 .24-.576.837.837 0 0 1 .6-.228c.24 0 .44.076.6.228a.76.76 0 0 1 .24.576.8.8 0 0 1 -.24.588.837.837 0 0 1 -.6.228z" opacity=".5"/><path d="m32.993 7.327c1.762 0 2.958.812 3.608 1.727v-1.54h2.79v10.84h-2.79v-1.581c-.65.936-1.888 1.768-3.63 1.768-2.768 0-4.971-2.247-4.971-5.638 0-3.412 2.203-5.576 4.993-5.576zm.713 2.393c-1.49 0-2.874 1.102-2.874 3.141 0 2.06 1.406 3.225 2.874 3.225 1.51 0 2.895-1.144 2.895-3.183s-1.384-3.183-2.895-3.183zm12.649-2.392c1.72 0 2.958.79 3.608 1.727v-1.54h2.79v10.923c0 2.934-1.804 5.264-5.412 5.264-3.084 0-5.224-1.52-5.497-4.016h2.749c.272.978 1.3 1.623 2.685 1.623 1.51 0 2.706-.853 2.706-2.871v-1.685c-.65.936-1.888 1.789-3.608 1.789-2.79 0-4.993-2.247-4.993-5.638-.021-3.413 2.182-5.576 4.972-5.576zm.713 2.392c-1.49 0-2.874 1.103-2.874 3.142 0 2.06 1.406 3.225 2.874 3.225 1.51 0 2.895-1.144 2.895-3.183 0-2.04-1.384-3.184-2.895-3.184zm11.142 8.614h-2.769v-10.84h2.77v1.686c.692-1.124 1.825-1.831 3.356-1.831v2.87h-.734c-1.636 0-2.622.625-2.622 2.726v5.39zm4.907-13.732c0-.895.714-1.602 1.7-1.602.965 0 1.699.707 1.699 1.602s-.735 1.602-1.7 1.602c-.986 0-1.699-.707-1.699-1.602zm.294 2.892h2.769v10.84h-2.77v-10.84zm9.783-.166c1.447 0 2.81.666 3.566 1.686v-5.14h2.79v14.481h-2.79v-1.602c-.65.999-1.867 1.79-3.587 1.79-2.79 0-4.993-2.247-4.993-5.639.02-3.412 2.223-5.576 5.013-5.576zm.692 2.393c-1.49 0-2.874 1.103-2.874 3.142 0 2.06 1.405 3.224 2.874 3.224 1.51 0 2.895-1.144 2.895-3.183.02-2.039-1.364-3.183-2.895-3.183zm13.148 8.799c-3.168 0-5.475-2.185-5.475-5.598 0-3.433 2.244-5.596 5.475-5.596 3.147 0 5.391 2.122 5.391 5.368 0 .353-.02.707-.084 1.06h-7.991c.147 1.603 1.237 2.497 2.622 2.497 1.175 0 1.825-.582 2.182-1.31h2.979c-.567 1.976-2.392 3.578-5.098 3.578zm-2.664-6.617h5.181c-.042-1.436-1.174-2.33-2.6-2.33-1.302 0-2.35.832-2.581 2.33zm13.842 3.059-1.993 3.37h-2.959l3.566-5.43-3.608-5.389h3.126l2.223 3.35 2.014-3.35h2.958l-3.587 5.389 3.629 5.43h-3.126l-2.244-3.37zm-94.079 4.553v-6.22a.38.38 0 0 1 .503-.355l2.098.729v-2.913a30.232 30.232 0 0 1 -1.552-.624c-2.077-.874-4.133-2.019-5.182-2.85.713 1.476 1.364 3.162 1.364 6.782v5.784c0 1.123.713 2.122 1.783 2.476l3.629 1.269v-1.997c0-.313.063-.604.147-.874l-2.518-.895a.313.313 0 0 1 -.272-.312zm8.877-4.722a2.601 2.601 0 0 0 -1.782-2.476c-.084-.02-1.804-.54-3.923-1.331v2.892l2.664.936c.147.063.252.187.252.354v6.762l-.126-.042v2.934l.21.083c.21.083.44.104.67.104.651 0 1.28-.291 1.68-.874a2.14 2.14 0 0 0 .356-1.186v-8.156z"/><path d="m13.55 17.81v2.872l2.099-.729a.38.38 0 0 1 .503.354v6.221a.363.363 0 0 1 -.252.354l-5.307 1.851a.38.38 0 0 1 -.504-.353v-6.554l-.377-.167v-2.538l-.63.208a2.614 2.614 0 0 0 -1.615 1.602c-.105.27-.147.562-.147.874v8.135c0 .458.147.915.44 1.29.4.5.987.77 1.595.77.231 0 .462-.042.671-.104l7.175-2.497a2.64 2.64 0 0 0 1.783-2.476v-5.596c0-2.476.756-5.285 1.762-6.367-.86.687-2.517 1.352-4.07 1.893-1.93.645-3.125.957-3.125.957zm-4.462-12.546a2.64 2.64 0 0 0 -1.783 2.476v8.135c0 .416.105.832.356 1.186a2.057 2.057 0 0 0 1.679.873c.125 0 .251-.02.377-.041v-3.204s.126.041.231.083.126.083.126.083v-6.74c0-.167.105-.313.252-.354l5.307-1.852a.38.38 0 0 1 .504.354v6.22a.363.363 0 0 1 -.252.354l-2.476.874c.105.27.147.562.147.874v1.997l3.609-1.269c1.07-.375 1.783-1.373 1.783-2.476v-6.762c0-2.455 1.007-4.89 1.762-6.075-2.518 2.268-11.622 5.264-11.622 5.264z"/><path d="m9.334 17.934c.105 0 .21 0 .315-.02h.062v-3.205s.127.042.231.084c.105.041.126.083.126.083v-6.408l-2.79.145v7.282c0 .104 0 .209.02.313.042.312.147.603.336.873.147.208.336.396.546.52.273.188.587.292.902.333zm7.346-1.1c-2.055.707-3.125.977-3.125.977v2.872l3-1.04.125-2.81z"/></g></svg>