<svg fill="none" height="32" viewBox="0 0 123 32" width="123" xmlns="http://www.w3.org/2000/svg" xmlns:xlink="http://www.w3.org/1999/xlink"><clipPath id="a"><path d="m0 0h123v32h-123z"/></clipPath><g clip-path="url(#a)"><path d="m121.678 21.504h1.308v8.496h-1.308zm-4.503 8.592c-.424 0-.796-.072-1.116-.216-.301-.1357-.558-.3516-.744-.624-.171-.2731-.259-.5899-.253-.912 0-.4.093-.736.277-1.008.192-.28.488-.5.888-.66.4-.168.912-.288 1.536-.36l1.379-.132v.96l-1.319.168c-.352.04-.632.1-.84.18-.181.0543-.343.1582-.468.3-.101.1437-.151.3166-.144.492 0 .24.092.428.276.564s.432.204.744.204.588-.076.828-.228.428-.356.564-.612c.136-.264.204-.556.204-.876v-1.296c0-.232-.052-.432-.156-.6-.103-.1751-.258-.3136-.444-.396-.212-.092-.441-.137-.672-.132-.24 0-.452.044-.636.132-.184.08-.336.204-.456.372-.112.16-.18.356-.204.588h-1.32c.056-.4.196-.764.42-1.092.232-.328.535-.584.912-.768.399-.1974.839-.2961 1.284-.288.504 0 .951.092 1.343.276s.697.452.913.804c.224.352.335.772.335 1.26v3.804h-1.319v-.876c-.128.272-.364.504-.708.696-.338.1847-.718.2797-1.104.276zm-8.845-6.144h1.308v.9c.192-.288.464-.524.816-.708.378-.1963.798-.2953 1.224-.288.432 0 .816.088 1.152.264.344.176.612.432.804.768.2.336.3.732.3 1.188v3.924h-1.32v-3.636c0-.28-.052-.52-.156-.72-.095-.1987-.251-.3625-.444-.468-.205-.1153-.437-.1733-.672-.168-.352 0-.656.096-.912.288-.248.192-.444.468-.588.828-.136.352-.204.772-.204 1.26v2.616h-1.308zm-4.235 6.144c-.561.0077-1.115-.1286-1.608-.396-.465-.2653-.851-.6507-1.116-1.116-.264-.472-.396-1.008-.396-1.608 0-.608.132-1.148.396-1.62.272-.472.644-.84 1.116-1.104s1.008-.396 1.608-.396 1.136.132 1.608.396.84.632 1.104 1.104c.272.472.408 1.008.408 1.608s-.136 1.14-.408 1.62c-.261.4687-.647.8553-1.116 1.116-.489.2682-1.039.4047-1.596.396zm0-1.128c.344 0 .652-.084.924-.252.275-.1711.495-.4166.636-.708.152-.304.228-.648.228-1.032.008-.3573-.07-.7112-.228-1.032-.141-.2914-.361-.5369-.636-.708-.278-.1697-.598-.2571-.924-.252-.344 0-.652.084-.924.252-.275.1711-.495.4166-.636.708-.157.3168-.235.6666-.228 1.02 0 .392.076.74.228 1.044s.364.54.636.708.58.252.924.252zm-5.549-5.016h1.307v6.048h-1.307zm.647-.996c-.1101.0033-.2198-.0151-.3227-.0542-.103-.0391-.1972-.0982-.2773-.1738-.078-.0764-.1396-.168-.1809-.2692-.0412-.1011-.0614-.2096-.0591-.3188-.003-.1075.0168-.2145.0582-.3138.0413-.0993.1033-.1886.1818-.2622.0801-.0756.1743-.1347.2773-.1738.1029-.0391.2126-.0575.3227-.0542.24 0 .44.076.6.228s.241.344.241.576c.002.1092-.018.2177-.0592.3188-.0412.1012-.1028.1928-.1808.2692-.0801.0756-.1743.1347-.2773.1738-.1029.0391-.2136.0575-.3237.0542zm-2.443 7.14c-.392 0-.74-.076-1.044-.228-.2968-.1608-.5422-.402-.708-.696-.168-.304-.252-.668-.252-1.092v-5.628h1.32v5.52c0 .32.076.564.228.732.152.16.36.24.624.24.104 0 .216-.008.336-.024.1145-.0224.2269-.0545.336-.096v1.116c-.1305.0567-.2676.0971-.408.12-.136.024-.28.036-.432.036zm-2.988-6.144h3.78v1.08h-3.78zm-3.822 6.144c-.424 0-.796-.072-1.116-.216-.3006-.1357-.5581-.3516-.744-.624-.1706-.2732-.2581-.59-.252-.912 0-.4.092-.736.276-1.008.192-.28.488-.5.888-.66.4-.168.912-.288 1.536-.36l1.38-.132v.96l-1.32.168c-.352.04-.632.1-.84.18-.181.0543-.3431.1582-.468.3-.1008.1437-.1514.3166-.144.492 0 .24.092.428.276.564s.432.204.744.204.588-.076.828-.228.428-.356.564-.612c.136-.264.204-.556.204-.876v-1.296c0-.232-.052-.432-.156-.6-.103-.1751-.2583-.3136-.444-.396-.2118-.092-.4411-.137-.672-.132-.24 0-.452.044-.636.132-.184.08-.336.204-.456.372-.112.16-.18.356-.204.588h-1.32c.056-.4.196-.764.42-1.092.232-.328.536-.584.912-.768.3988-.1972.8391-.296 1.284-.288.504 0 .952.092 1.344.276s.696.452.912.804c.224.352.336.772.336 1.26v3.804h-1.32v-.876c-.128.272-.364.504-.708.696-.3384.1847-.7185.2797-1.104.276zm-8.844-6.144h1.308v.9c.192-.288.464-.524.816-.708.3777-.1963.7984-.2953 1.224-.288.432 0 .816.088 1.152.264.344.176.612.432.804.768.2.336.3.732.3 1.188v3.924h-1.32v-3.636c0-.28-.052-.52-.156-.72-.0952-.1987-.2506-.3625-.444-.468-.2049-.1153-.437-.1733-.672-.168-.352 0-.656.096-.912.288-.248.192-.444.468-.588.828-.136.352-.204.772-.204 1.26v2.616h-1.308zm-4.629 0h1.308v.924c.176-.312.428-.56.756-.744.3266-.1816.6943-.2766 1.068-.276.28 0 .508.04.684.12v1.26c-.2555-.1032-.5285-.1561-.804-.156-.32 0-.608.096-.864.288s-.46.484-.612.876c-.152.384-.228.856-.228 1.416v2.34h-1.308zm-3.944 6.144c-.608 0-1.147-.132-1.62-.396-.4578-.2576-.8325-.6407-1.08-1.104-.2604-.4997-.392-1.0566-.383-1.62 0-.6.127-1.136.383-1.608.2613-.4653.6434-.8515 1.106-1.1176.4625-.2661.9884-.4024 1.522-.3944.624 0 1.168.148 1.632.444.465.296.805.704 1.02 1.224.217.512.285 1.076.205 1.692h-5.113v-.996h3.757c-.0015-.2428-.0723-.48-.204-.684-.1243-.2036-.3093-.3631-.529-.456-.239-.1153-.5017-.1728-.767-.168-.36 0-.668.076-.924.228-.249.152-.44.38-.577.684-.135.304-.203.676-.203 1.116 0 .424.072.792.215 1.104.145.304.349.54.613.708.264.16.572.24.924.24.376 0 .688-.084.936-.252.247-.168.411-.4.491-.696h1.32c-.0673.3908-.2325.7582-.48 1.068-.2494.3194-.575.5711-.947.732-.4098.1731-.8522.259-1.297.252zm-4.426 0c-.392 0-.74-.076-1.044-.228-.2968-.1608-.5422-.402-.708-.696-.168-.304-.252-.668-.252-1.092v-5.628h1.32v5.52c0 .32.076.564.228.732.152.16.36.24.624.24.104 0 .216-.008.336-.024.1145-.0224.2269-.0545.336-.096v1.116c-.1305.0567-.2676.0971-.408.12-.136.024-.28.036-.432.036zm-2.988-6.144h3.78v1.08h-3.78zm-6.326 0h1.308v.9c.192-.288.464-.524.816-.708.3777-.1963.7984-.2953 1.224-.288.432 0 .816.088 1.152.264.344.176.612.432.804.768.2.336.3.732.3 1.188v3.924h-1.32v-3.636c0-.28-.052-.52-.156-.72-.0952-.1987-.2506-.3625-.444-.468-.2049-.1153-.437-.1733-.672-.168-.352 0-.656.096-.912.288-.248.192-.444.468-.588.828-.136.352-.204.772-.204 1.26v2.616h-1.308zm-2.776 0h1.308v6.048h-1.308zm.648-.996c-.1101.0033-.2198-.0151-.3227-.0542-.103-.0391-.1972-.0982-.2773-.1738-.078-.0764-.1396-.168-.1808-.2692-.0413-.1011-.0615-.2096-.0592-.3188-.003-.1075.0168-.2145.0582-.3138.0413-.0993.1033-.1886.1818-.2622.0801-.0756.1743-.1347.2773-.1738.1029-.0391.2126-.0575.3227-.0542.24 0 .44.076.6.228.0785.0736.1405.1629.1818.2622.0414.0993.0612.2063.0582.3138.0023.1092-.0179.2177-.0592.3188-.0412.1012-.1028.1928-.1808.2692-.0801.0756-.1743.1347-.2773.1738-.1029.0391-.2126.0575-.3227.0542z" fill="#000618" opacity=".5"/><g fill="#fff"><path d="m32.993 7.327c1.762 0 2.958.812 3.608 1.727v-1.54h2.79v10.84h-2.79v-1.581c-.65.936-1.888 1.768-3.63 1.768-2.768 0-4.971-2.247-4.971-5.638 0-3.412 2.203-5.576 4.993-5.576zm.713 2.393c-1.49 0-2.874 1.102-2.874 3.141 0 2.06 1.406 3.225 2.874 3.225 1.51 0 2.895-1.144 2.895-3.183s-1.384-3.183-2.895-3.183zm12.649-2.392c1.72 0 2.958.79 3.608 1.727v-1.54h2.79v10.923c0 2.934-1.804 5.264-5.412 5.264-3.084 0-5.224-1.52-5.497-4.016h2.749c.272.978 1.3 1.623 2.685 1.623 1.51 0 2.706-.853 2.706-2.871v-1.685c-.65.936-1.888 1.789-3.608 1.789-2.79 0-4.993-2.247-4.993-5.638-.021-3.413 2.182-5.576 4.972-5.576zm.713 2.392c-1.49 0-2.874 1.103-2.874 3.142 0 2.06 1.406 3.225 2.874 3.225 1.51 0 2.895-1.144 2.895-3.183 0-2.04-1.384-3.184-2.895-3.184zm11.142 8.614h-2.769v-10.84h2.77v1.686c.692-1.124 1.825-1.831 3.356-1.831v2.87h-.734c-1.636 0-2.622.625-2.622 2.726v5.39zm4.907-13.732c0-.895.714-1.602 1.7-1.602.965 0 1.699.707 1.699 1.602s-.735 1.602-1.7 1.602c-.986 0-1.699-.707-1.699-1.602zm.294 2.892h2.769v10.84h-2.77zm9.783-.166c1.447 0 2.81.666 3.566 1.686v-5.14h2.79v14.481h-2.79v-1.602c-.65.999-1.867 1.79-3.587 1.79-2.79 0-4.993-2.247-4.993-5.639.02-3.412 2.224-5.576 5.014-5.576zm.692 2.393c-1.49 0-2.874 1.103-2.874 3.142 0 2.06 1.405 3.224 2.874 3.224 1.51 0 2.895-1.144 2.895-3.183.02-2.039-1.364-3.183-2.895-3.183zm13.148 8.799c-3.168 0-5.475-2.185-5.475-5.598 0-3.433 2.244-5.596 5.475-5.596 3.147 0 5.391 2.122 5.391 5.368 0 .353-.02.707-.084 1.06h-7.991c.147 1.603 1.237 2.497 2.622 2.497 1.175 0 1.825-.582 2.182-1.31h2.979c-.567 1.976-2.392 3.578-5.098 3.578zm-2.664-6.617h5.181c-.042-1.436-1.174-2.33-2.6-2.33-1.302 0-2.35.832-2.581 2.33zm13.842 3.059-1.993 3.37h-2.959l3.566-5.43-3.608-5.389h3.126l2.223 3.35 2.014-3.35h2.958l-3.587 5.389 3.629 5.43h-3.126zm-94.079 4.553v-6.22c.00072-.0601.01567-.1191.04363-.1723s.06814-.099.11723-.1336c.04909-.0347.10569-.0572.16517-.0657.05947-.0085.12012-.0029.17697.0166l2.098.729v-2.913c-.52299-.1936-1.04052-.4017-1.552-.624-2.077-.874-4.133-2.019-5.182-2.85.713 1.476 1.364 3.162 1.364 6.782v5.784c0 1.123.713 2.122 1.783 2.476l3.629 1.269v-1.997c0-.313.063-.604.147-.874l-2.518-.895c-.07555-.01-.14486-.0472-.19494-.1046-.05007-.0575-.07747-.1312-.07706-.2074zm8.877-4.722c.0015-.5478-.1699-1.0821-.4899-1.5267s-.7722-.7768-1.2921-.9493c-.084-.02-1.804-.54-3.923-1.331v2.892l2.664.936c.147.063.252.187.252.354v6.762l-.126-.042v2.934l.21.083c.21.083.44.104.67.104.651 0 1.28-.291 1.68-.874.2329-.3516.3568-.7642.356-1.186z"/><path d="m13.245 17.81v2.872l2.099-.729c.0568-.0194.1173-.0251.1767-.0167.0594.0085.116.0309.165.0655.0491.0345.0893.0802.1173.1332.0281.0531.0431.112.044.172v6.221c.0018.0783-.0218.1551-.0672.2189s-.1102.1112-.1848.1351l-5.307 1.851c-.0567.0196-.1173.0255-.1768.0171-.0594-.0083-.11607-.0306-.16525-.065-.04917-.0345-.08949-.0801-.11764-.1331s-.04333-.112-.04431-.172v-6.554l-.377-.167v-2.538l-.63.208c-.3725.1281-.71124.3387-.9909.6161s-.49301.6144-.6241.9859c-.105.27-.147.562-.147.874v8.135c0 .458.147.915.44 1.29.4.5.987.77 1.595.77.231 0 .462-.042.671-.104l7.175-2.497c.5169-.1774.9661-.5108 1.2854-.9543.3194-.4435.4932-.9752.4976-1.5217v-5.596c0-2.476.756-5.285 1.762-6.367-.86.687-2.517 1.352-4.07 1.893-1.93.645-3.126.957-3.126.957zm-4.462-12.546c-.51692.17739-.96605.51084-1.28542.95433-.31936.4435-.49322.97517-.49758 1.52167v8.135c0 .416.105.832.356 1.186.18955.2693.44098.4891.73315.641.29217.152.61654.2315.94585.232.125 0 .251-.02.377-.041v-3.204s.126.041.231.083.126.083.126.083v-6.74c0-.167.105-.313.252-.354l5.307-1.852c.0568-.01962.1175-.02548.177-.0171.0596.00838.1163.03077.1654.06533.0492.03455.0895.08028.1176.13344s.0432.11222.044.17233v6.22c.0018.0783-.0218.1551-.0672.2189s-.1102.1112-.1848.1351l-2.476.874c.105.27.147.562.147.874v1.997l3.609-1.269c1.07-.375 1.783-1.373 1.783-2.476v-6.762c0-2.455 1.007-4.89 1.762-6.075-2.518 2.268-11.622 5.264-11.622 5.264z"/><path d="m9.33401 17.934c.105 0 .21001 0 .31501-.02h.062v-3.205s.127.042.231.084c.10498.041.12598.083.12598.083v-6.408l-2.78998.145v7.282c0 .104 0 .209.02.313.042.312.147.603.336.873.147.208.336.396.546.52.273.188.587.292.902.333zm7.34599-1.1c-2.055.707-3.125.977-3.125.977v2.872l3-1.04z"/></g></g></svg>