<svg xmlns="http://www.w3.org/2000/svg" width="22" fill="#666" viewBox="0 0 24 24"><path d="M9.438 0H1.211C.555 0 0 .53 0 1.211v8.253c0 .656.53 1.211 1.211 1.211h8.253c.656 0 1.211-.53 1.211-1.211V1.21A1.25 1.25 0 0 0 9.438 0ZM22.763 0h-8.227c-.656 0-1.211.53-1.211 1.211v8.253c0 .656.53 1.211 1.211 1.211h8.253c.656 0 1.211-.53 1.211-1.211V1.21C23.975.53 23.445 0 22.763 0ZM9.438 13.325H1.211c-.656 0-1.211.53-1.211 1.211v8.253C0 23.445.53 24 1.211 24h8.253c.656 0 1.211-.53 1.211-1.211v-8.253c-.025-.656-.58-1.211-1.237-1.211ZM22.763 13.325h-8.227c-.656 0-1.211.53-1.211 1.211v8.253c0 .656.53 1.211 1.211 1.211h8.253c.656 0 1.211-.53 1.211-1.211v-8.253c-.025-.656-.555-1.211-1.237-1.211Z"/></svg>