<svg width="22" viewBox="0 0 24 24" fill="rgb(102, 102, 102)" xmlns="http://www.w3.org/2000/svg"><path d="M9.43849 0H1.21136C0.555205 0 0 0.529969 0 1.21136V9.46372C0 10.1199 0.529969 10.6751 1.21136 10.6751H9.46372C10.1199 10.6751 10.6751 10.1451 10.6751 9.46372V1.21136C10.6498 0.529969 10.0946 0 9.43849 0Z"></path><path d="M22.7634 0H14.5363C13.8802 0 13.325 0.529969 13.325 1.21136V9.46372C13.325 10.1199 13.8549 10.6751 14.5363 10.6751H22.7887C23.4448 10.6751 24 10.1451 24 9.46372V1.21136C23.9748 0.529969 23.4448 0 22.7634 0Z"></path><path d="M9.43849 13.3249H1.21136C0.555205 13.3249 0 13.8549 0 14.5363V22.7887C0 23.4448 0.529969 24 1.21136 24H9.46372C10.1199 24 10.6751 23.47 10.6751 22.7887V14.5363C10.6498 13.8801 10.0946 13.3249 9.43849 13.3249Z"></path><path d="M22.7634 13.3249H14.5363C13.8802 13.3249 13.325 13.8549 13.325 14.5363V22.7887C13.325 23.4448 13.8549 24 14.5363 24H22.7887C23.4448 24 24 23.47 24 22.7887V14.5363C23.9748 13.8801 23.4448 13.3249 22.7634 13.3249Z"></path></svg>