<svg width="749" height="203" viewBox="0 0 749 203" fill="none" xmlns="http://www.w3.org/2000/svg">
<mask id="mask0" mask-type="alpha" maskUnits="userSpaceOnUse" x="0" y="0" width="749" height="203">
<rect x="0.891113" y="0.121094" width="747.74" height="202.5" fill="#C4C4C4"/>
</mask>
<g mask="url(#mask0)">
<g opacity="0.7">
<path d="M644.81 149.915C644.586 149.342 644.38 148.693 644.19 147.979C637.64 123.343 653.092 114.232 653.943 139.696C654.105 144.561 654.08 148.797 653.91 152.476C653.273 166.27 649.827 162.793 644.81 149.915Z" fill="url(#paint0_linear)"/>
<path d="M666.147 136.157C666.147 130.208 664.291 116.23 664.557 107.605C664.606 106.007 665.957 104.789 667.556 104.832C674.939 105.032 674.693 107.146 673.458 129.367C671.824 158.77 662.862 156.85 659.735 156.57C660.865 153.353 666.147 146.925 666.147 136.157Z" fill="url(#paint1_linear)"/>
<path d="M677.519 147.526C677.519 141.798 677 133.306 677.442 125.93C677.553 124.077 679.314 122.799 681.136 123.167C687.406 124.435 685.711 124.87 684.829 140.736C683.195 170.139 668.59 163.202 665.463 162.921C666.593 159.705 677.519 158.294 677.519 147.526Z" fill="url(#paint2_linear)"/>
<path d="M651.764 152.155C648.778 146.926 649.29 132.22 650.089 123.48C650.23 121.938 651.509 120.753 653.057 120.704C663.833 120.361 660.581 122.121 661.217 145.143C661.764 164.955 655.647 169.347 652.521 169.066C653.651 165.85 655.081 157.966 651.764 152.155Z" fill="url(#paint3_linear)"/>
<path d="M635.932 140.429C638.918 135.199 638.406 120.494 637.607 111.753C637.466 110.211 636.187 109.027 634.639 108.977C623.863 108.635 627.114 110.394 626.479 133.417C625.932 153.229 632.049 157.62 635.175 157.34C634.045 154.124 632.615 146.239 635.932 140.429Z" fill="url(#paint4_linear)"/>
<path d="M615.623 138.413C618.609 133.184 618.097 118.478 617.298 109.738C617.157 108.196 615.878 107.011 614.33 106.962C603.554 106.619 606.805 108.379 606.17 131.401C605.623 151.213 611.74 155.605 614.866 155.324C613.736 152.108 612.305 144.223 615.623 138.413Z" fill="url(#paint5_linear)"/>
<path d="M631.934 157.443C628.948 152.213 629.46 137.508 630.259 128.767C630.4 127.225 631.679 126.04 633.227 125.991C644.003 125.648 640.751 127.408 641.387 150.431C641.934 170.242 635.817 174.634 632.69 174.353C633.82 171.137 635.251 163.253 631.934 157.443Z" fill="url(#paint6_linear)"/>
</g>
<g opacity="0.7">
<path d="M142.888 121.723C139.744 113.653 140.02 90.7256 140.649 77.932C140.728 76.3216 142.037 75.0408 143.649 75.0033C153.994 74.7629 150.885 77.4915 152.021 111.504C153.006 140.959 147.093 147.355 144.014 146.871C145.052 142.116 146.28 130.429 142.888 121.723Z" fill="url(#paint7_linear)"/>
<path d="M168.961 97.4248C168.961 91.476 167.105 77.4979 167.37 68.8727C167.42 67.2742 168.77 66.0563 170.369 66.0996C177.753 66.2997 177.506 68.4133 176.271 90.6348C174.637 120.037 165.675 118.118 162.549 117.837C163.679 114.621 168.961 108.193 168.961 97.4248Z" fill="url(#paint8_linear)"/>
<path d="M180.332 108.796C180.332 103.068 179.813 94.5757 180.255 87.1999C180.367 85.3463 182.128 84.0681 183.949 84.4365C190.219 85.7046 188.524 86.1394 187.643 102.006C186.009 131.408 171.403 124.471 168.276 124.191C169.407 120.975 180.332 119.563 180.332 108.796Z" fill="url(#paint9_linear)"/>
<path d="M189.378 92.7814C186.392 87.5519 186.903 72.8465 187.703 64.1058C187.843 62.5639 189.122 61.3791 190.67 61.3298C201.447 60.9873 198.195 62.7467 198.831 85.7694C199.377 105.581 193.261 109.973 190.134 109.692C191.264 106.476 192.695 98.5917 189.378 92.7814Z" fill="url(#paint10_linear)"/>
<path d="M116.949 128.306C120.688 121.757 120.047 103.34 119.046 92.3935C118.87 90.4625 117.268 88.9786 115.33 88.917C101.833 88.488 105.906 90.6914 105.11 119.524C104.425 144.336 112.085 149.836 116.001 149.485C114.586 145.457 112.794 135.582 116.949 128.306Z" fill="url(#paint11_linear)"/>
<path d="M126.984 98.341C123.998 93.1115 124.509 78.406 125.308 69.6654C125.449 68.1235 126.728 66.9386 128.276 66.8894C139.053 66.5468 135.801 68.3063 136.437 91.3289C136.983 111.141 130.867 115.533 127.74 115.252C128.87 112.036 130.301 104.151 126.984 98.341Z" fill="url(#paint12_linear)"/>
</g>
<path d="M318.776 93.3188L323.805 95.42C324.586 95.7463 325.043 96.5597 324.917 97.3982C324.795 98.2108 324.154 98.8513 323.339 98.974L311.19 100.805C309.587 99.3688 308.2 97.7095 307.073 95.8772L306.494 94.9357L304.071 91.6051L305.536 91.6051C307.691 91.6051 309.843 91.7574 311.974 92.0611L316.602 92.7205C317.35 92.827 318.081 93.0281 318.776 93.3188Z" fill="url(#paint13_linear)"/>
<path d="M108.419 110.682C115.505 110.521 122.384 109.316 129.425 108.78C131.565 108.709 134.489 108.698 134.813 110.425C135.307 113.057 134.068 115.346 131.512 117.159C129.642 118.485 125.315 118.902 122.935 118.786C119.639 118.625 116.426 117.501 113.181 117.077C110.336 116.704 107.236 116.85 104.509 116.067C103.294 115.719 101.081 114.576 101.317 113.349C101.436 112.728 103.113 111.859 103.698 111.537C105.051 110.79 106.805 110.719 108.419 110.682Z" fill="url(#paint14_linear)"/>
<path d="M80.8133 127.485C94.2786 127.324 107.35 126.118 120.73 125.583C124.797 125.512 130.353 125.501 130.969 127.227C131.907 129.859 129.553 132.149 124.696 133.962C121.142 135.288 112.919 135.705 108.397 135.589C102.133 135.428 96.0282 134.304 89.8623 133.879C84.4564 133.507 78.5653 133.653 73.3838 132.87C71.0743 132.521 66.8684 131.379 67.3169 130.152C67.5437 129.531 70.7307 128.662 71.8414 128.339C74.4136 127.592 77.7451 127.521 80.8133 127.485Z" fill="url(#paint15_linear)"/>
<path d="M178.101 81.9512L175.727 84.6194C167.595 93.7599 162.319 105.082 160.551 117.188L157.876 135.502C152.43 172.777 180.894 206.387 218.557 207.155L658.096 216.114C684.371 216.649 697.753 184.759 678.963 166.385C673.544 161.086 666.266 158.119 658.687 158.119H654.497C641.454 158.119 629.262 151.645 621.957 140.841L620.951 139.352C618.256 135.368 616.256 130.956 615.032 126.304L593.406 44.0534C592.67 41.2532 591.702 38.5192 590.512 35.8796L585.337 24.3995C580.054 12.6797 568.393 5.14453 555.537 5.14453H544.402C539.48 5.14453 534.941 7.79717 532.525 12.0848C530.109 16.3725 525.57 19.0251 520.648 19.0251H517.839C515.365 19.0251 512.916 19.523 510.639 20.489L497.869 25.905C493.685 27.6795 490.813 31.6073 490.39 36.1323L490.067 39.5927C489.657 43.9835 485.972 47.3405 481.562 47.3405C478.57 47.3405 475.795 45.7745 474.249 43.2126L472.284 39.9575C469.976 36.1341 466.111 33.5119 461.706 32.7807L461.211 32.6986C452.59 31.2677 444.366 36.8621 442.53 45.4061L429.898 104.194C429.429 106.377 428.275 108.353 426.605 109.835C421.606 114.272 413.788 112.962 410.507 107.139L406.257 99.5964C403.16 94.0999 397.341 90.6994 391.032 90.6994H370.79C362.314 90.6994 354.11 93.6829 347.614 99.1268L344.616 101.64C340.057 105.46 334.299 107.554 328.35 107.554C320.113 107.554 312.391 103.548 307.648 96.8133L304.097 91.7715C300.558 86.7479 294.798 83.7592 288.653 83.7592C282.85 83.7592 277.368 81.0912 273.787 76.5237L270.521 72.3573C264.879 65.1596 256.241 60.9554 247.095 60.9554H224.882C207.007 60.9554 189.983 68.5957 178.101 81.9512Z" fill="url(#paint16_linear)"/>
<g style="mix-blend-mode:multiply" opacity="0.7">
<path d="M519.721 59.8376H513.587C505.96 59.8376 499.778 66.0203 499.778 73.6471C499.778 81.2739 493.595 87.4566 485.968 87.4566H482.997C477.74 87.4566 472.786 89.9207 469.614 94.1138L430.909 145.283H550.964L615.016 146.981L593.804 70.8461C591.807 63.6766 587.678 57.2831 581.966 52.5124L580.922 51.6409C578.953 49.9962 577.226 48.0808 575.794 45.952L573.648 42.7624C569.94 37.2507 563.732 33.9453 557.089 33.9453C548.899 33.9453 541.541 38.9488 538.529 46.565L538.268 47.2271C535.258 54.8378 527.905 59.8376 519.721 59.8376Z" fill="url(#paint17_linear)"/>
</g>
<path opacity="0.6" d="M533.973 130.405L531.004 114.345L531.759 130.646L525.312 115.583L529.65 131.345L520.026 117.983L527.745 132.469L515.394 121.432L526.133 133.965L511.632 125.77L524.888 135.763L508.917 130.794L524.07 137.78L507.375 136.268L523.717 139.921L507.078 141.937L523.845 142.085L544.179 142.021L560.945 141.768L544.293 139.856L560.611 136.101L543.925 137.718L559.032 130.637L543.094 135.706L556.284 125.63L541.838 133.915L552.493 121.316L540.215 132.43L547.838 117.896L538.303 131.318L542.537 115.529L536.189 130.632L536.837 114.326L533.973 130.405Z" fill="#0D1135"/>
<g style="mix-blend-mode:multiply" opacity="0.5">
<path d="M401.024 141.932H399.62C394.517 141.932 389.72 139.496 386.71 135.374L385.009 133.046C381.039 127.612 374.714 124.399 367.984 124.399C359.291 124.399 351.488 129.735 348.336 137.836L318.071 215.608H438.126L502.178 217.306L503.755 216.314C523.642 203.802 532.073 179.088 523.979 157.031L517.575 139.578C514.229 130.46 505.549 124.399 495.836 124.399L490.781 124.399C483.211 124.399 476.597 119.283 474.693 111.956C472.79 104.628 466.176 99.5127 458.606 99.5127L449.155 99.5128C443.064 99.5128 438.126 104.451 438.126 110.542C438.126 116.633 433.188 121.571 427.097 121.571H426.368C421.138 121.571 416.536 125.026 415.077 130.049L414.582 131.752C412.83 137.783 407.305 141.932 401.024 141.932Z" fill="url(#paint18_linear)"/>
</g>
<g style="mix-blend-mode:multiply" opacity="0.7">
<path d="M464.162 78.7046L465.817 33.9453L470.52 37.4333L474.345 42.9484L480.933 50.0966L474.345 78.7046H464.162Z" fill="url(#paint19_linear)"/>
</g>
<g style="mix-blend-mode:multiply" opacity="0.7">
<path d="M511.314 139.019L512.97 60.0426L518.832 59.7405L524.61 59.2676L521.497 139.019H511.314Z" fill="url(#paint20_linear)"/>
</g>
<g style="mix-blend-mode:multiply" opacity="0.7">
<path d="M242.622 149.608L242.285 60.9893H249.411L256.319 62.172L262.52 65.2056L267.765 68.9156L276.094 79.5252L272.107 149.608H242.622Z" fill="url(#paint21_linear)"/>
</g>
<g style="mix-blend-mode:multiply" opacity="0.7">
<path d="M532.538 128.278L534.252 53.7855L537.601 49.0597L540.731 41.9711L546.118 37.1778L542.721 128.278H532.538Z" fill="url(#paint22_linear)"/>
</g>
<g style="mix-blend-mode:multiply" opacity="0.7">
<path d="M559.698 50.5674L557.984 125.06L554.635 129.786L551.505 136.875L546.118 141.668L549.516 50.5674L559.698 50.5674Z" fill="url(#paint23_linear)"/>
</g>
<g style="mix-blend-mode:multiply" opacity="0.7">
<path d="M579.163 55.9005L584.488 113.781L578.409 108.839L575.561 113.781L570.239 117.373L568.587 56.6802L579.163 55.9005Z" fill="url(#paint24_linear)"/>
</g>
<path d="M513.875 141.842H352.245C344.145 141.842 336.304 144.696 330.099 149.903C305.937 170.177 319.461 209.567 350.981 210.724L770.276 226.116L720.892 177.825C713.552 170.647 703.695 166.629 693.429 166.629H687.533C678.177 166.629 669.432 161.985 664.192 154.235L662.023 151.027C658.14 145.283 651.658 141.842 644.725 141.842C636.512 141.842 629.063 137.028 625.688 129.541L623.411 124.491C618.651 113.931 608.143 107.141 596.558 107.141H583.334C578.413 107.141 573.874 109.793 571.458 114.081C569.042 118.369 564.503 121.021 559.581 121.021H558.743C555.058 121.021 551.5 122.372 548.744 124.818L541.291 131.432C533.733 138.138 523.979 141.842 513.875 141.842Z" fill="url(#paint25_linear)"/>
<path d="M77.3409 142.654L27.5664 221.336L657.711 212.884C648.94 195.139 630.86 183.906 611.065 183.906H601.551C594.132 183.906 586.986 181.103 581.547 176.058L580.588 175.17C575.764 170.696 569.428 168.21 562.849 168.21C554.55 168.21 546.746 164.261 541.83 157.575L539.884 154.929C533.745 146.578 523.999 141.647 513.635 141.647H503.684C494.652 141.647 485.87 144.617 478.692 150.099C471.514 155.581 462.733 158.551 453.701 158.551H409.929C396.802 158.551 384.161 153.591 374.536 144.665C364.912 135.74 352.27 130.78 339.144 130.78H307.169C296.804 130.78 287.135 125.561 281.447 116.895L279.893 114.527C275.175 107.339 267.155 103.01 258.556 103.01H257.276C247.517 103.01 238.759 97.0151 235.228 87.9169C231.696 78.8188 222.938 72.8242 213.179 72.8242H203.361C196.898 72.8242 190.928 76.2777 187.706 81.8799C184.485 87.4821 178.515 90.9355 172.052 90.9355H159.586C145.549 90.9355 132.561 98.3646 125.445 110.464L120.893 118.201C116.31 125.995 107.944 130.78 98.9021 130.78C90.1548 130.78 82.0173 135.261 77.3409 142.654Z" fill="url(#paint26_linear)"/>
<path d="M296.082 158.002C296.653 159.907 300.552 170.336 296.292 171.544C291.006 173.044 289.563 161.918 288.992 160.012C288.422 158.107 289.546 156.113 291.504 155.557C293.462 155.002 295.512 156.096 296.082 158.002Z" fill="url(#paint27_linear)"/>
<path d="M301.264 146.873C301.529 148.84 303.746 159.727 299.346 160.287C293.886 160.983 294.207 149.774 293.942 147.806C293.677 145.838 295.102 144.034 297.124 143.776C299.146 143.519 300.999 144.905 301.264 146.873Z" fill="url(#paint28_linear)"/>
<path d="M312.147 144.415C312.412 146.382 314.628 157.269 310.229 157.829C304.769 158.525 305.09 147.316 304.825 145.348C304.56 143.38 305.984 141.576 308.006 141.318C310.028 141.061 311.882 142.447 312.147 144.415Z" fill="url(#paint29_linear)"/>
<path d="M324.033 144.308C324.068 146.292 325.012 157.352 320.575 157.427C315.07 157.521 316.685 146.418 316.649 144.434C316.613 142.449 318.237 140.813 320.276 140.778C322.315 140.743 323.997 142.324 324.033 144.308Z" fill="url(#paint30_linear)"/>
<path d="M335.373 146.402C335.097 148.369 334.297 159.439 329.9 158.856C324.445 158.131 327.78 147.397 328.056 145.431C328.332 143.465 330.193 142.088 332.213 142.356C334.234 142.625 335.649 144.436 335.373 146.402Z" fill="url(#paint31_linear)"/>
<path d="M307.357 155.703C307.565 157.677 309.468 168.62 305.053 169.06C299.576 169.607 300.219 158.411 300.011 156.437C299.802 154.463 301.278 152.698 303.307 152.495C305.335 152.293 307.149 153.729 307.357 155.703Z" fill="url(#paint32_linear)"/>
<path d="M319.301 154.493C319.369 156.476 320.495 167.52 316.06 167.664C310.557 167.844 311.989 156.717 311.92 154.733C311.852 152.75 313.449 151.088 315.487 151.022C317.525 150.955 319.233 152.509 319.301 154.493Z" fill="url(#paint33_linear)"/>
<path d="M329.064 154.005C328.912 155.984 328.803 167.081 324.378 166.758C318.887 166.357 321.547 155.446 321.7 153.467C321.853 151.488 323.625 150.004 325.658 150.153C327.692 150.301 329.217 152.026 329.064 154.005Z" fill="url(#paint34_linear)"/>
<path d="M341.326 155.785C340.812 157.706 338.663 168.605 334.369 167.516C329.041 166.165 333.666 155.894 334.18 153.973C334.694 152.053 336.711 150.902 338.684 151.402C340.657 151.903 341.84 153.865 341.326 155.785Z" fill="url(#paint35_linear)"/>
<path d="M293.553 166.389C294.027 168.319 297.394 178.921 293.08 179.931C287.726 181.186 286.847 170.001 286.373 168.071C285.9 166.14 287.123 164.199 289.106 163.735C291.089 163.27 293.08 164.458 293.553 166.389Z" fill="url(#paint36_linear)"/>
<path d="M304.213 164.017C304.688 165.946 308.066 176.547 303.751 177.553C298.396 178.802 297.507 167.622 297.032 165.692C296.556 163.762 297.778 161.823 299.761 161.36C301.745 160.897 303.738 162.087 304.213 164.017Z" fill="url(#paint37_linear)"/>
<path d="M315.467 162.701C315.641 164.678 317.355 175.65 312.933 176.019C307.447 176.476 308.283 165.291 308.109 163.314C307.935 161.337 309.441 159.597 311.473 159.427C313.505 159.258 315.293 160.724 315.467 162.701Z" fill="url(#paint38_linear)"/>
<path d="M329.023 161.748C329.001 163.733 329.621 174.814 325.184 174.767C319.678 174.708 321.617 163.654 321.639 161.669C321.661 159.685 323.333 158.094 325.372 158.116C327.411 158.138 329.046 159.764 329.023 161.748Z" fill="url(#paint39_linear)"/>
<path d="M341.462 164.587C341.104 166.541 339.838 177.57 335.469 176.812C330.049 175.87 333.834 165.278 334.192 163.325C334.551 161.371 336.469 160.07 338.476 160.419C340.484 160.767 341.821 162.634 341.462 164.587Z" fill="url(#paint40_linear)"/>
<path opacity="0.8" d="M323.921 172.206C324.07 174.186 325.647 185.177 321.222 185.493C315.73 185.886 316.705 174.712 316.556 172.733C316.407 170.754 317.934 169.032 319.968 168.886C322.002 168.741 323.771 170.227 323.921 172.206Z" fill="url(#paint41_linear)"/>
<path opacity="0.8" d="M336.22 173.712C336.14 175.695 336.44 186.789 332.006 186.621C326.504 186.411 328.761 175.414 328.84 173.431C328.92 171.448 330.637 169.904 332.674 169.981C334.712 170.059 336.299 171.729 336.22 173.712Z" fill="url(#paint42_linear)"/>
<path opacity="0.6" d="M362.155 135.026C349.936 143.718 347.918 162.851 351.872 176.003C349.809 181.174 357.822 186.085 362.885 184.486C375.899 180.378 389.482 177.534 402.679 173.956C409.832 172.017 417.176 170.46 424.622 171.837C428.361 172.528 439.193 179.218 442.697 177.085C447.933 173.897 449.714 162.026 450.527 155.657C451.826 145.48 443.716 136.288 435.153 132.176C419.87 124.837 404.705 124.326 387.911 126.932C378.999 128.314 369.647 129.697 362.155 135.026Z" fill="url(#paint43_radial)"/>
<path d="M372.355 131.039C372.926 132.944 376.825 143.373 372.565 144.581C367.279 146.081 365.836 134.955 365.265 133.05C364.695 131.144 365.819 129.15 367.777 128.594C369.735 128.039 371.785 129.134 372.355 131.039Z" fill="url(#paint44_linear)"/>
<path d="M379.058 139.531C379.629 141.436 383.528 151.865 379.268 153.074C373.982 154.573 372.539 143.447 371.968 141.542C371.398 139.637 372.522 137.642 374.48 137.087C376.438 136.531 378.488 137.626 379.058 139.531Z" fill="url(#paint45_linear)"/>
<path d="M384.241 128.402C384.506 130.37 386.722 141.256 382.322 141.817C376.863 142.513 377.183 131.303 376.918 129.335C376.654 127.368 378.078 125.564 380.1 125.306C382.122 125.048 383.976 126.434 384.241 128.402Z" fill="url(#paint46_linear)"/>
<path d="M395.123 125.944C395.387 127.912 397.604 138.798 393.204 139.359C387.745 140.055 388.065 128.845 387.8 126.877C387.536 124.91 388.96 123.106 390.982 122.848C393.004 122.59 394.858 123.976 395.123 125.944Z" fill="url(#paint47_linear)"/>
<path d="M407.009 125.837C407.044 127.821 407.988 138.881 403.552 138.957C398.046 139.05 399.661 127.947 399.625 125.963C399.589 123.979 401.213 122.342 403.252 122.307C405.291 122.273 406.973 123.853 407.009 125.837Z" fill="url(#paint48_linear)"/>
<path d="M418.349 127.932C418.073 129.898 417.273 140.969 412.877 140.385C407.421 139.661 410.756 128.927 411.032 126.96C411.308 124.994 413.169 123.617 415.19 123.886C417.21 124.154 418.625 125.965 418.349 127.932Z" fill="url(#paint49_linear)"/>
<path d="M428.309 130.378C428.034 132.344 427.234 143.415 422.837 142.831C417.381 142.107 420.717 131.373 420.992 129.407C421.268 127.44 423.129 126.064 425.15 126.332C427.171 126.6 428.585 128.412 428.309 130.378Z" fill="url(#paint50_linear)"/>
<path d="M438.105 134.502C437.442 136.379 434.45 147.088 430.253 145.685C425.045 143.944 430.458 134.044 431.121 132.167C431.783 130.291 433.884 129.292 435.812 129.937C437.741 130.581 438.767 132.626 438.105 134.502Z" fill="url(#paint51_linear)"/>
<path d="M446.317 142.31C445.466 144.113 441.395 154.48 437.363 152.678C432.359 150.443 438.755 141.115 439.606 139.311C440.457 137.508 442.649 136.717 444.502 137.545C446.356 138.373 447.168 140.506 446.317 142.31Z" fill="url(#paint52_linear)"/>
<path d="M390.333 137.232C390.542 139.207 392.444 150.149 388.03 150.59C382.553 151.137 383.195 139.94 382.987 137.966C382.779 135.992 384.255 134.227 386.283 134.025C388.312 133.822 390.125 135.258 390.333 137.232Z" fill="url(#paint53_linear)"/>
<path d="M402.277 136.022C402.345 138.005 403.471 149.049 399.036 149.194C393.533 149.373 394.965 138.246 394.896 136.263C394.828 134.279 396.425 132.617 398.463 132.551C400.501 132.484 402.209 134.038 402.277 136.022Z" fill="url(#paint54_linear)"/>
<path d="M412.041 135.534C411.888 137.513 411.78 148.611 407.355 148.288C401.864 147.887 404.524 136.976 404.677 134.997C404.829 133.018 406.601 131.534 408.635 131.682C410.668 131.831 412.193 133.555 412.041 135.534Z" fill="url(#paint55_linear)"/>
<path d="M424.302 137.315C423.788 139.235 421.639 150.134 417.345 149.045C412.017 147.694 416.642 137.423 417.156 135.502C417.67 133.582 419.687 132.431 421.66 132.931C423.633 133.432 424.816 135.394 424.302 137.315Z" fill="url(#paint56_linear)"/>
<path d="M434.244 140.586C433.73 142.506 431.581 153.406 427.287 152.317C421.959 150.966 426.584 140.694 427.098 138.774C427.612 136.854 429.629 135.702 431.602 136.203C433.575 136.703 434.758 138.666 434.244 140.586Z" fill="url(#paint57_linear)"/>
<path d="M443.412 147.191C442.738 149.064 439.678 159.755 435.491 158.328C430.294 156.556 435.768 146.688 436.442 144.815C437.117 142.942 439.223 141.956 441.148 142.612C443.072 143.268 444.086 145.318 443.412 147.191Z" fill="url(#paint58_linear)"/>
<path d="M450.206 154.42C449.532 156.293 446.472 166.984 442.285 165.556C437.088 163.785 442.562 153.917 443.236 152.044C443.91 150.171 446.017 149.184 447.942 149.841C449.866 150.497 450.88 152.547 450.206 154.42Z" fill="url(#paint59_linear)"/>
<path d="M442.922 158.107C442.248 159.98 439.189 170.671 435.001 169.244C429.804 167.472 435.278 157.604 435.953 155.731C436.627 153.858 438.734 152.872 440.658 153.528C442.583 154.184 443.596 156.234 442.922 158.107Z" fill="url(#paint60_linear)"/>
<path d="M376.535 147.924C377.01 149.854 380.388 160.454 376.072 161.461C370.718 162.71 369.829 151.529 369.353 149.599C368.878 147.669 370.1 145.73 372.083 145.267C374.066 144.805 376.059 145.994 376.535 147.924Z" fill="url(#paint61_linear)"/>
<path d="M387.189 145.546C387.665 147.476 391.042 158.076 386.727 159.083C381.373 160.332 380.484 149.151 380.008 147.221C379.533 145.292 380.755 143.352 382.738 142.889C384.721 142.427 386.714 143.616 387.189 145.546Z" fill="url(#paint62_linear)"/>
<path d="M398.443 144.23C398.617 146.207 400.331 157.179 395.909 157.548C390.423 158.005 391.259 146.821 391.085 144.843C390.911 142.866 392.417 141.126 394.449 140.957C396.481 140.787 398.269 142.253 398.443 144.23Z" fill="url(#paint63_linear)"/>
<path d="M411.999 143.278C411.977 145.262 412.597 156.344 408.16 156.296C402.654 156.237 404.593 145.183 404.615 143.199C404.638 141.214 406.309 139.623 408.348 139.645C410.387 139.667 412.022 141.293 411.999 143.278Z" fill="url(#paint64_linear)"/>
<path d="M424.439 146.117C424.081 148.07 422.814 159.1 418.446 158.341C413.025 157.399 416.811 146.807 417.169 144.854C417.527 142.9 419.445 141.599 421.453 141.948C423.46 142.297 424.797 144.163 424.439 146.117Z" fill="url(#paint65_linear)"/>
<path d="M434.048 148.484C433.689 150.437 432.423 161.467 428.055 160.708C422.634 159.766 426.42 149.175 426.778 147.221C427.136 145.267 429.054 143.966 431.062 144.315C433.069 144.664 434.406 146.53 434.048 148.484Z" fill="url(#paint66_linear)"/>
<path opacity="0.8" d="M383.25 158.173C383.786 160.088 387.494 170.582 383.213 171.717C377.9 173.125 376.66 161.976 376.125 160.061C375.589 158.146 376.75 156.171 378.717 155.65C380.685 155.128 382.714 156.258 383.25 158.173Z" fill="url(#paint67_linear)"/>
<path opacity="0.8" d="M370.391 160.076C370.926 161.991 374.635 172.486 370.353 173.62C365.04 175.028 363.801 163.879 363.265 161.964C362.729 160.049 363.89 158.075 365.858 157.553C367.825 157.032 369.855 158.161 370.391 160.076Z" fill="url(#paint68_linear)"/>
<path opacity="0.8" d="M394.981 156.102C395.309 158.061 397.874 168.875 393.494 169.569C388.059 170.43 388.02 159.216 387.692 157.258C387.365 155.299 388.73 153.452 390.743 153.133C392.756 152.814 394.653 154.144 394.981 156.102Z" fill="url(#paint69_linear)"/>
<path opacity="0.8" d="M406.896 153.736C407.046 155.715 408.623 166.706 404.197 167.023C398.706 167.415 399.681 156.242 399.532 154.262C399.382 152.283 400.91 150.561 402.943 150.415C404.977 150.27 406.747 151.757 406.896 153.736Z" fill="url(#paint70_linear)"/>
<path opacity="0.8" d="M419.196 155.242C419.116 157.225 419.416 168.319 414.982 168.15C409.48 167.941 411.737 156.944 411.817 154.961C411.897 152.978 413.613 151.433 415.651 151.511C417.688 151.588 419.276 153.259 419.196 155.242Z" fill="url(#paint71_linear)"/>
<path opacity="0.8" d="M431.396 156.992C431.316 158.975 431.616 170.069 427.182 169.9C421.68 169.691 423.937 158.694 424.017 156.711C424.096 154.728 425.813 153.183 427.85 153.261C429.888 153.338 431.475 155.009 431.396 156.992Z" fill="url(#paint72_linear)"/>
<path d="M362.798 137.149C363.368 139.054 367.267 149.483 363.007 150.692C357.721 152.191 356.278 141.065 355.708 139.16C355.137 137.255 356.262 135.26 358.22 134.705C360.177 134.15 362.227 135.244 362.798 137.149Z" fill="url(#paint73_linear)"/>
<path d="M355.616 149.112C356.186 151.017 360.086 161.446 355.826 162.655C350.539 164.154 349.097 153.028 348.526 151.123C347.956 149.218 349.08 147.223 351.038 146.668C352.996 146.112 355.045 147.207 355.616 149.112Z" fill="url(#paint74_linear)"/>
<path d="M368.896 144.35C369.466 146.256 373.366 156.685 369.105 157.893C363.819 159.392 362.376 148.266 361.806 146.361C361.235 144.456 362.36 142.461 364.318 141.906C366.275 141.351 368.325 142.445 368.896 144.35Z" fill="url(#paint75_linear)"/>
<path d="M363.026 153.129C363.596 155.034 367.495 165.463 363.235 166.671C357.949 168.17 356.506 157.045 355.936 155.139C355.365 153.234 356.49 151.24 358.448 150.684C360.405 150.129 362.455 151.223 363.026 153.129Z" fill="url(#paint76_linear)"/>
<g filter="url(#filter0_d)">
<path d="M31.9256 180.507L2.46338 207.83H522.925C499.422 181.265 465.654 166.054 430.184 166.054H331.124C323.894 166.054 316.963 163.161 311.878 158.021C306.793 152.88 299.863 149.987 292.632 149.987H279.781C263.871 149.987 249.046 141.921 240.404 128.563C231.762 115.205 216.937 107.14 201.027 107.14H175.061C169.064 107.14 163.551 110.431 160.705 115.709C157.86 120.987 152.346 124.278 146.35 124.278H140.099C131.304 124.278 123.069 128.597 118.068 135.832L111.616 145.166C102.574 158.247 87.6866 166.054 71.7854 166.054H68.7657C55.1025 166.054 41.9438 171.217 31.9256 180.507Z" fill="url(#paint77_linear)"/>
</g>
<g style="mix-blend-mode:multiply">
<path d="M94.881 182.193H74.4855C71.2606 182.193 68.204 183.632 66.1493 186.118C60.3193 193.17 65.3353 203.825 74.4855 203.825H220.547C228.332 203.825 235.327 199.069 238.19 191.829C240.564 185.824 239.721 179.023 235.951 173.78L235.583 173.267C231.801 168.007 225.673 164.888 219.195 164.888C211.723 164.888 204.801 160.788 201.255 154.212L200.403 152.631C196.332 145.08 188.446 140.373 179.868 140.373H171.761C164.519 140.373 157.631 143.508 152.874 148.97L150.095 152.161C146.244 156.582 140.668 159.12 134.805 159.12C128.383 159.12 122.341 162.162 118.517 167.321L115.001 172.063C110.277 178.435 102.814 182.193 94.881 182.193Z" fill="url(#paint78_linear)"/>
</g>
<g style="mix-blend-mode:multiply">
<path d="M369.371 207.709H389.766C392.991 207.709 396.048 209.148 398.103 211.633C403.933 218.686 398.917 229.341 389.766 229.341H243.705C235.92 229.341 228.925 224.584 226.062 217.345C223.688 211.339 224.531 204.539 228.301 199.296L228.669 198.783C232.451 193.523 238.579 190.404 245.057 190.404C252.529 190.404 259.451 186.304 262.997 179.727L263.849 178.146C267.92 170.596 275.806 165.889 284.384 165.889H292.49C299.733 165.889 306.621 169.024 311.378 174.485L314.157 177.676C318.008 182.098 323.584 184.636 329.447 184.636C335.869 184.636 341.911 187.678 345.735 192.837L349.251 197.579C353.975 203.951 361.438 207.709 369.371 207.709Z" fill="url(#paint79_linear)"/>
</g>
<g style="mix-blend-mode:multiply" opacity="0.7">
<path d="M265.643 145.359L265.643 104.088L271.659 106.266L275.826 109.603L279.255 113.95L282.983 119.33L275.826 145.359H265.643Z" fill="url(#paint80_linear)"/>
</g>
<g style="mix-blend-mode:multiply" opacity="0.7">
<path d="M286.925 154.183L286.925 122.639L291.761 126.33L294.99 128.154L300.537 129.875L304.358 130.498L297.108 154.183H286.925Z" fill="url(#paint81_linear)"/>
</g>
<g style="mix-blend-mode:multiply" opacity="0.7">
<path d="M301.577 209.357L303.233 130.381L308.848 130.381L314.846 130.381L311.76 209.357H301.577Z" fill="url(#paint82_linear)"/>
</g>
<g style="mix-blend-mode:multiply" opacity="0.7">
<path d="M336.003 244.865L341.66 165.889L360.847 165.889L381.339 165.889L370.794 244.865H336.003Z" fill="url(#paint83_linear)"/>
</g>
<g style="mix-blend-mode:multiply" opacity="0.7">
<path d="M391.293 244.865L396.95 165.889L410.327 165.889L410.327 165.889L416.137 165.889L410.327 165.889L421.8 244.865H391.293Z" fill="url(#paint84_linear)"/>
</g>
<g style="mix-blend-mode:multiply" opacity="0.7">
<path d="M127.449 151.467L127.449 127.585L133.029 125.437L137.858 124.311L144.789 123.881V125.437L137.631 151.467H127.449Z" fill="url(#paint85_linear)"/>
</g>
<g style="mix-blend-mode:multiply">
<path d="M687.31 182.713L689.121 190.483C689.523 192.209 690.433 193.775 691.732 194.98C697.502 200.331 693.979 209.988 686.118 210.366L529.358 217.913C522.014 218.267 516.905 210.716 519.963 204.03C520.436 202.998 521.084 202.055 521.879 201.243L530.904 192.037C534.532 188.336 539.497 186.25 544.68 186.25H546.47C553.829 186.25 560.337 181.475 562.545 174.454L562.689 173.998C564.811 167.249 571.067 162.659 578.142 162.659H580.508C585.101 162.659 589.312 160.1 591.429 156.024C593.545 151.947 597.756 149.389 602.35 149.389H607.438C615.319 149.389 622.516 153.869 625.994 160.941L631.52 172.176C633.094 175.376 636.351 177.404 639.917 177.404C643.758 177.404 647.208 175.057 648.62 171.486L649.691 168.778C651.151 165.085 654.719 162.659 658.69 162.659C661.871 162.659 664.849 164.222 666.655 166.839L669.254 170.605C671.13 173.323 674.221 174.946 677.524 174.946C682.194 174.946 686.249 178.164 687.31 182.713Z" fill="url(#paint86_linear)"/>
</g>
<path opacity="0.6" d="M579.861 158.611L576.995 143.114L577.724 158.844L571.503 144.309L575.689 159.518L566.402 146.625L573.851 160.602L561.933 149.953L572.295 162.046L558.303 154.139L571.094 163.781L555.683 158.986L570.305 165.727L554.195 164.268L569.964 167.793L553.908 169.738L570.087 169.881L589.709 169.82L605.887 169.575L589.818 167.731L605.564 164.107L589.464 165.667L604.041 158.835L588.661 163.726L601.388 154.004L587.449 161.998L597.731 149.841L585.884 160.565L593.239 146.54L584.038 159.492L588.124 144.257L581.999 158.83L582.623 143.096L579.861 158.611Z" fill="#0D1135"/>
<path d="M476.62 138.074L473.754 122.577L474.483 138.307L468.262 123.772L472.448 138.981L463.161 126.087L470.61 140.065L458.692 129.416L469.054 141.509L455.062 133.602L467.853 143.244L452.442 138.449L467.064 145.19L450.953 143.731L466.723 147.256L450.667 149.201L466.846 149.344L486.467 149.283L502.645 149.038L486.577 147.193L502.323 143.57L486.222 145.13L500.799 138.297L485.42 143.189L498.147 133.467L484.208 141.461L494.49 129.304L482.643 140.028L489.998 126.003L480.797 138.955L484.883 123.72L478.757 138.293L479.382 122.559L476.62 138.074Z" fill="#141A47"/>
<path d="M239.675 76.0021L245.456 73.9373L247.533 73.446C251.448 72.5201 255.451 72.0377 259.467 72.0081L261.187 71.9954C262.692 71.9843 264.195 72.0852 265.684 72.2973L269.527 72.8449C270.409 72.9706 271.262 73.2465 272.048 73.6606L275.431 75.4422C276.308 75.9044 276.796 76.8696 276.648 77.8529C276.507 78.785 275.823 79.5477 274.91 79.7906L267.344 81.8025C266.409 82.0509 265.453 82.2037 264.489 82.2584L256.651 82.7036L246.334 82.0545C245.827 82.0226 245.325 81.9433 244.834 81.8176L239.856 80.5447C238.68 80.244 237.926 79.1062 238.107 77.9048C238.238 77.0321 238.842 76.2999 239.675 76.0021Z" fill="url(#paint87_linear)"/>
<g style="mix-blend-mode:multiply" opacity="0.7">
<path d="M300.292 125.437L300.292 107.499L333.311 107.359L365.851 107.14L367.719 125.437H300.292Z" fill="url(#paint88_linear)"/>
</g>
<g style="mix-blend-mode:multiply" opacity="0.7">
<path d="M345.26 131.178L345.26 122.254L363.776 122.184L382.023 122.075L383.07 131.178H345.26Z" fill="url(#paint89_linear)"/>
</g>
<g style="mix-blend-mode:multiply" opacity="0.7">
<path d="M600.656 146.46L600.075 137.553L572.401 139.191L543.012 132.448L544.151 149.945L600.656 146.46Z" fill="url(#paint90_linear)"/>
</g>
<path d="M323.533 104.424C332.148 101.131 341.198 100.374 350.33 100.458C351.294 99.6492 353.397 99.7558 354.494 99.6528C356.3 99.4833 358.275 99.7947 360.081 99.8941C361.682 99.9822 363.447 99.8745 365.02 100.182L365.035 100.185C366.705 100.512 369.249 101.01 369.129 103.067C368.969 105.818 368.016 108.286 364.745 109.003C356.843 110.738 348.667 107.961 340.725 109.102C336.458 109.715 334.162 113.827 329.717 114.244C324.792 114.706 319.646 113.45 314.679 113.681C309.762 113.91 300.336 117.172 297.26 112.029C295.652 109.341 301.062 105.972 303.009 105.095C305.926 103.781 310.408 104.891 313.567 105.065C316.819 105.243 320.417 105.614 323.533 104.424Z" fill="url(#paint91_linear)"/>
<path d="M347.362 119.807L353.143 117.742L355.22 117.251C359.134 116.325 363.138 115.842 367.154 115.813L368.874 115.8C370.379 115.789 371.882 115.89 373.37 116.102L377.214 116.65C378.096 116.775 378.948 117.051 379.735 117.465L383.117 119.247C383.995 119.709 384.482 120.674 384.334 121.658C384.194 122.59 383.51 123.352 382.596 123.595L375.03 125.607C374.096 125.856 373.139 126.008 372.175 126.063L364.338 126.508L354.021 125.859C353.514 125.827 353.011 125.748 352.52 125.622L347.542 124.349C346.366 124.049 345.612 122.911 345.793 121.709C345.924 120.837 346.528 120.105 347.362 119.807Z" fill="url(#paint92_linear)"/>
<g style="mix-blend-mode:multiply" opacity="0.7">
<path d="M208.286 142.224L208.286 133.3L229.998 133.23L251.395 133.121L252.623 142.224H208.286Z" fill="url(#paint93_linear)"/>
</g>
<g style="mix-blend-mode:multiply" opacity="0.7">
<path d="M213.694 107.14L213.694 92.1305L229.8 92.0134L245.673 91.8301L246.584 107.14H213.694Z" fill="url(#paint94_linear)"/>
</g>
<g style="mix-blend-mode:multiply" opacity="0.7">
<path d="M590.167 135.929L590.168 120.92L606.273 120.802L622.146 120.619L623.057 135.929H590.167Z" fill="url(#paint95_linear)"/>
</g>
<g style="mix-blend-mode:multiply" opacity="0.7">
<path d="M230.648 116.288L230.648 101.279L242.207 101.162L253.598 100.979L254.252 116.288H230.648Z" fill="url(#paint96_linear)"/>
</g>
<g style="mix-blend-mode:multiply" opacity="0.7">
<path d="M606.399 147.97L606.399 132.961L617.958 132.843L629.35 132.66L630.004 147.97H606.399Z" fill="url(#paint97_linear)"/>
</g>
<g style="mix-blend-mode:multiply" opacity="0.7">
<path d="M139.724 142.224L139.724 121.881L164.441 121.722L188.8 121.474L190.199 142.224H139.724Z" fill="url(#paint98_linear)"/>
</g>
<g style="mix-blend-mode:multiply" opacity="0.7">
<path d="M169.09 98.3077L169.09 83.2984L190.258 83.1814L211.12 82.998L212.317 98.3077H169.09Z" fill="url(#paint99_linear)"/>
</g>
<path d="M208.933 131.348L216.074 129.716C222.383 128.848 228.75 128.516 235.107 128.725L237.593 128.806L245.422 129.921C246.17 130.028 246.901 130.229 247.597 130.52L252.619 132.619C253.404 132.946 253.863 133.763 253.736 134.606C253.615 135.416 252.979 136.057 252.168 136.186L242.267 137.766C241.476 137.893 240.678 137.958 239.878 137.961L229.948 137.997L216.605 136.871L208.913 135.144C207.922 134.922 207.275 133.975 207.426 132.97C207.546 132.173 208.145 131.528 208.933 131.348Z" fill="url(#paint100_linear)"/>
<path d="M214.669 89.703L219.893 88.0657L221.776 87.6996C225.29 87.0162 228.868 86.7351 232.439 86.8619L233.973 86.9163C235.313 86.9638 236.646 87.1123 237.961 87.3605L241.335 87.9972C242.127 88.1466 242.886 88.4326 243.577 88.8421L246.473 90.5579C247.244 91.0148 247.641 91.9067 247.465 92.7887C247.299 93.6242 246.65 94.2859 245.816 94.4724L239.032 95.9888C238.177 96.18 237.304 96.2828 236.429 96.2956L229.46 96.397L220.322 95.4185C219.865 95.3696 219.415 95.2776 218.977 95.1435L214.647 93.8181C213.596 93.4965 212.963 92.4366 213.178 91.3576C213.334 90.5776 213.906 89.9419 214.669 89.703Z" fill="url(#paint101_linear)"/>
<path d="M591.142 118.493L596.366 116.856L598.249 116.49C601.763 115.806 605.341 115.525 608.912 115.652L610.446 115.706C611.786 115.754 613.119 115.902 614.434 116.151L617.808 116.787C618.6 116.937 619.359 117.223 620.05 117.632L622.946 119.348C623.717 119.805 624.114 120.697 623.938 121.579C623.772 122.414 623.124 123.076 622.289 123.262L615.505 124.779C614.65 124.97 613.777 125.073 612.902 125.086L605.933 125.187L596.795 124.209C596.338 124.16 595.888 124.068 595.45 123.934L591.12 122.608C590.069 122.287 589.437 121.227 589.652 120.148C589.807 119.368 590.38 118.732 591.142 118.493Z" fill="url(#paint102_linear)"/>
<path d="M170.342 81.6053L171.026 81.1002C171.674 80.6215 172.45 80.3539 173.234 80.3384L185.837 80.0885L197.506 80.1222L205.367 80.8158C205.926 80.8651 206.476 80.9703 207.006 81.1297L212.417 82.7552C213.018 82.936 213.378 83.5177 213.277 84.1469C213.178 84.7572 212.672 85.2514 212.05 85.3433L201.097 86.9632L190.317 87.2389L177.369 86.6808L171.405 86.1629C170.533 86.0871 169.79 85.5789 169.432 84.8127C168.921 83.7212 169.304 82.3718 170.342 81.6053Z" fill="url(#paint103_linear)"/>
<path d="M146.17 126.512C145.394 126.253 144.751 125.837 144.089 125.438C143.497 125.518 142.878 125.535 142.515 125.535C141.305 125.535 140.089 124.433 139.362 123.697C137.244 121.554 140.56 120.23 142.535 119.007C145.652 117.077 150.435 116.531 153.942 115.997C158.691 115.274 163.482 115.832 168.202 116.466C171.826 116.953 175.172 117.531 178.686 118.538C181.317 119.292 184.036 119.246 186.699 119.867C187.252 119.996 194.105 121.791 193.428 123.15C193.13 123.748 191.741 124.324 191.158 124.636C189.302 125.629 186.567 125.183 184.51 125.183C181.669 125.183 178.903 125.36 176.075 125.613C170.164 126.141 164.273 127.023 158.341 127.274C155.843 127.38 153.459 126.982 150.97 126.942C149.452 126.917 147.63 126.999 146.17 126.512Z" fill="url(#paint104_linear)"/>
<path d="M230.257 99.8451C232.866 98.8517 235.799 98.6933 238.681 98.698C239.636 98.3432 240.75 98.0988 241.498 97.9532C243.759 97.5131 246.022 96.7786 248.302 96.4843C250.438 96.2085 253.234 96.0107 255.083 97.3412C255.819 97.8703 256.39 98.8252 255.884 99.7004C254.637 101.858 251.774 101.958 249.606 102.36C247.591 102.734 245.567 102.943 243.545 103.262C241.389 103.601 239.34 104.415 237.13 104.341C234.366 104.248 230.655 103.618 228.644 101.592C227.956 100.898 229.808 100.016 230.257 99.8451Z" fill="url(#paint105_linear)"/>
<path d="M606.008 131.527C608.617 130.533 611.55 130.375 614.433 130.38C615.388 130.025 616.501 129.78 617.249 129.635C619.511 129.195 621.774 128.46 624.054 128.166C626.19 127.89 628.985 127.692 630.835 129.023C631.57 129.552 632.141 130.507 631.635 131.382C630.388 133.54 627.526 133.64 625.357 134.042C623.342 134.415 621.319 134.625 619.296 134.943C617.14 135.283 615.091 136.097 612.881 136.023C610.118 135.93 606.406 135.3 604.396 133.274C603.707 132.58 605.559 131.698 606.008 131.527Z" fill="url(#paint106_linear)"/>
<path d="M598.694 133.814C591.312 132.813 584.084 131.017 576.685 129.979C575.092 129.511 573.452 129.201 572.028 129.167C566.949 129.045 562.968 128.177 558.173 129.559C553.533 130.897 548.482 129.782 543.777 131.372C541.455 132.157 545.115 137.156 546.109 138.008C547.497 139.197 549.478 139.051 551.209 139.337C554.279 139.843 557.491 140.44 560.602 140.118C565.637 139.598 570.579 138.876 575.668 138.855C581.4 138.832 587.058 140.046 592.785 139.52C595.971 139.228 600.479 138.912 601.184 135.176C601.505 133.476 600.024 133.994 598.694 133.814Z" fill="url(#paint107_linear)"/>
<path d="M465.61 174.683C466.18 176.589 470.079 187.018 465.819 188.226C460.533 189.725 459.09 178.599 458.52 176.694C457.949 174.789 459.074 172.794 461.032 172.239C462.989 171.684 465.039 172.778 465.61 174.683Z" fill="url(#paint108_linear)"/>
<path d="M472.313 183.176C472.884 185.081 476.783 195.51 472.523 196.718C467.237 198.217 465.794 187.092 465.223 185.186C464.653 183.281 465.777 181.286 467.735 180.731C469.693 180.176 471.743 181.27 472.313 183.176Z" fill="url(#paint109_linear)"/>
<path d="M477.495 172.047C477.76 174.014 479.977 184.901 475.577 185.461C470.117 186.157 470.438 174.947 470.173 172.98C469.908 171.012 471.333 169.208 473.354 168.95C475.376 168.693 477.23 170.079 477.495 172.047Z" fill="url(#paint110_linear)"/>
<path d="M488.377 169.588C488.642 171.556 490.859 182.442 486.459 183.003C480.999 183.699 481.32 172.489 481.055 170.522C480.79 168.554 482.215 166.75 484.237 166.492C486.259 166.235 488.113 167.621 488.377 169.588Z" fill="url(#paint111_linear)"/>
<path d="M500.264 169.482C500.299 171.466 501.243 182.526 496.806 182.601C491.301 182.695 492.916 171.592 492.88 169.607C492.844 167.623 494.468 165.987 496.507 165.952C498.546 165.917 500.228 167.498 500.264 169.482Z" fill="url(#paint112_linear)"/>
<path d="M511.604 171.576C511.328 173.542 510.528 184.613 506.131 184.029C500.676 183.305 504.011 172.571 504.287 170.605C504.562 168.638 506.424 167.262 508.444 167.53C510.465 167.798 511.879 169.61 511.604 171.576Z" fill="url(#paint113_linear)"/>
<path d="M521.564 174.022C521.288 175.989 520.488 187.059 516.091 186.476C510.636 185.751 513.971 175.017 514.247 173.051C514.522 171.085 516.384 169.708 518.404 169.976C520.425 170.245 521.839 172.056 521.564 174.022Z" fill="url(#paint114_linear)"/>
<path d="M531.359 178.147C530.697 180.024 527.704 190.733 523.507 189.33C518.3 187.589 523.713 177.689 524.375 175.812C525.038 173.935 527.138 172.936 529.067 173.581C530.995 174.226 532.022 176.27 531.359 178.147Z" fill="url(#paint115_linear)"/>
<path d="M539.572 185.954C538.721 187.758 534.65 198.125 530.618 196.323C525.614 194.087 532.01 184.759 532.861 182.956C533.712 181.152 535.904 180.362 537.757 181.19C539.611 182.018 540.423 184.151 539.572 185.954Z" fill="url(#paint116_linear)"/>
<path d="M483.588 180.877C483.796 182.851 485.699 193.794 481.284 194.234C475.807 194.781 476.45 183.585 476.242 181.611C476.033 179.636 477.509 177.872 479.538 177.669C481.566 177.467 483.38 178.903 483.588 180.877Z" fill="url(#paint117_linear)"/>
<path d="M495.532 179.667C495.6 181.651 496.726 192.694 492.291 192.839C486.788 193.019 488.22 181.891 488.151 179.908C488.083 177.925 489.68 176.263 491.718 176.196C493.756 176.13 495.464 177.684 495.532 179.667Z" fill="url(#paint118_linear)"/>
<path d="M505.295 179.18C505.143 181.159 505.034 192.256 500.609 191.933C495.118 191.532 497.778 180.621 497.931 178.642C498.084 176.663 499.856 175.179 501.889 175.328C503.923 175.476 505.448 177.201 505.295 179.18Z" fill="url(#paint119_linear)"/>
<path d="M517.556 180.959C517.042 182.88 514.894 193.779 510.6 192.69C505.271 191.339 509.896 181.067 510.41 179.147C510.924 177.227 512.941 176.075 514.914 176.576C516.888 177.076 518.071 179.039 517.556 180.959Z" fill="url(#paint120_linear)"/>
<path d="M527.498 184.231C526.984 186.151 524.835 197.05 520.541 195.961C515.213 194.61 519.838 184.339 520.352 182.418C520.866 180.498 522.883 179.347 524.856 179.847C526.83 180.348 528.013 182.31 527.498 184.231Z" fill="url(#paint121_linear)"/>
<path d="M536.667 190.836C535.993 192.709 532.933 203.4 528.745 201.972C523.549 200.201 529.023 190.333 529.697 188.46C530.371 186.587 532.478 185.6 534.403 186.257C536.327 186.913 537.341 188.963 536.667 190.836Z" fill="url(#paint122_linear)"/>
<path d="M543.461 198.064C542.786 199.937 539.727 210.628 535.539 209.201C530.343 207.429 535.817 197.561 536.491 195.688C537.165 193.815 539.272 192.829 541.197 193.485C543.121 194.141 544.135 196.191 543.461 198.064Z" fill="url(#paint123_linear)"/>
<path d="M536.176 201.752C535.502 203.625 532.443 214.316 528.255 212.888C523.059 211.117 528.533 201.249 529.207 199.376C529.881 197.503 531.988 196.517 533.913 197.173C535.837 197.829 536.851 199.879 536.176 201.752Z" fill="url(#paint124_linear)"/>
<path d="M469.789 191.568C470.264 193.498 473.642 204.098 469.327 205.105C463.972 206.354 463.083 195.174 462.608 193.244C462.132 191.314 463.355 189.374 465.338 188.912C467.321 188.449 469.314 189.639 469.789 191.568Z" fill="url(#paint125_linear)"/>
<path d="M480.444 189.191C480.919 191.12 484.297 201.72 479.982 202.727C474.627 203.976 473.738 192.796 473.263 190.866C472.787 188.936 474.009 186.997 475.992 186.534C477.975 186.071 479.968 187.261 480.444 189.191Z" fill="url(#paint126_linear)"/>
<path d="M491.698 187.875C491.872 189.852 493.586 200.824 489.164 201.192C483.678 201.65 484.514 190.465 484.34 188.488C484.166 186.511 485.672 184.771 487.704 184.601C489.736 184.432 491.524 185.897 491.698 187.875Z" fill="url(#paint127_linear)"/>
<path d="M505.254 186.923C505.231 188.908 505.851 199.989 501.414 199.942C495.908 199.883 497.847 188.829 497.87 186.844C497.892 184.86 499.563 183.269 501.602 183.291C503.641 183.312 505.276 184.939 505.254 186.923Z" fill="url(#paint128_linear)"/>
<path d="M517.693 189.761C517.335 191.715 516.069 202.744 511.7 201.985C506.28 201.044 510.065 190.452 510.423 188.498C510.782 186.545 512.7 185.244 514.707 185.592C516.715 185.941 518.052 187.808 517.693 189.761Z" fill="url(#paint129_linear)"/>
<path d="M527.302 192.128C526.944 194.082 525.678 205.111 521.309 204.353C515.889 203.411 519.674 192.819 520.032 190.866C520.391 188.912 522.309 187.611 524.316 187.96C526.324 188.308 527.66 190.175 527.302 192.128Z" fill="url(#paint130_linear)"/>
<path opacity="0.8" d="M476.504 201.817C477.04 203.732 480.749 214.227 476.467 215.361C471.154 216.769 469.915 205.62 469.379 203.705C468.843 201.791 470.004 199.816 471.972 199.294C473.939 198.773 475.969 199.903 476.504 201.817Z" fill="url(#paint131_linear)"/>
<path opacity="0.8" d="M463.645 203.721C464.181 205.636 467.889 216.13 463.608 217.265C458.295 218.672 457.055 207.524 456.52 205.609C455.984 203.694 457.145 201.719 459.112 201.198C461.08 200.676 463.109 201.806 463.645 203.721Z" fill="url(#paint132_linear)"/>
<path opacity="0.8" d="M488.236 199.747C488.564 201.706 491.128 212.519 486.749 213.213C481.314 214.075 481.275 202.861 480.947 200.902C480.619 198.943 481.985 197.097 483.998 196.778C486.011 196.459 487.908 197.788 488.236 199.747Z" fill="url(#paint133_linear)"/>
<path opacity="0.8" d="M500.151 197.38C500.301 199.359 501.878 210.351 497.452 210.667C491.961 211.06 492.936 199.886 492.786 197.907C492.637 195.928 494.165 194.205 496.198 194.06C498.232 193.915 500.002 195.401 500.151 197.38Z" fill="url(#paint134_linear)"/>
<path opacity="0.8" d="M512.45 198.886C512.371 200.869 512.671 211.963 508.237 211.794C502.735 211.585 504.992 200.588 505.071 198.605C505.151 196.622 506.867 195.078 508.905 195.155C510.943 195.233 512.53 196.903 512.45 198.886Z" fill="url(#paint135_linear)"/>
<path opacity="0.8" d="M524.65 200.636C524.571 202.619 524.87 213.713 520.436 213.544C514.934 213.335 517.191 202.338 517.271 200.355C517.351 198.372 519.067 196.828 521.105 196.905C523.143 196.983 524.73 198.653 524.65 200.636Z" fill="url(#paint136_linear)"/>
<path d="M456.052 180.794C456.623 182.699 460.522 193.128 456.262 194.336C450.975 195.835 449.533 184.71 448.962 182.804C448.392 180.899 449.516 178.905 451.474 178.349C453.432 177.794 455.481 178.888 456.052 180.794Z" fill="url(#paint137_linear)"/>
<path d="M448.87 192.757C449.441 194.662 453.34 205.091 449.08 206.299C443.794 207.798 442.351 196.673 441.78 194.767C441.21 192.862 442.334 190.867 444.292 190.312C446.25 189.757 448.3 190.851 448.87 192.757Z" fill="url(#paint138_linear)"/>
<path d="M462.15 187.995C462.721 189.9 466.62 200.329 462.36 201.537C457.073 203.037 455.631 191.911 455.06 190.006C454.49 188.1 455.614 186.106 457.572 185.551C459.53 184.995 461.58 186.09 462.15 187.995Z" fill="url(#paint139_linear)"/>
<path d="M456.28 196.772C456.851 198.677 460.75 209.107 456.49 210.315C451.203 211.814 449.761 200.688 449.19 198.783C448.62 196.878 449.744 194.883 451.702 194.328C453.66 193.773 455.709 194.867 456.28 196.772Z" fill="url(#paint140_linear)"/>
</g>
<defs>
<filter id="filter0_d" x="-56.3951" y="53.2904" width="680.757" height="260.986" filterUnits="userSpaceOnUse" color-interpolation-filters="sRGB">
<feFlood flood-opacity="0" result="BackgroundImageFix"/>
<feColorMatrix in="SourceAlpha" type="matrix" values="0 0 0 0 0 0 0 0 0 0 0 0 0 0 0 0 0 0 127 0" result="hardAlpha"/>
<feOffset dx="21.2892" dy="26.2985"/>
<feGaussianBlur stdDeviation="40.0738"/>
<feColorMatrix type="matrix" values="0 0 0 0 0.0509804 0 0 0 0 0.0666667 0 0 0 0 0.207843 0 0 0 0.6 0"/>
<feBlend mode="normal" in2="BackgroundImageFix" result="effect1_dropShadow"/>
<feBlend mode="normal" in="SourceGraphic" in2="effect1_dropShadow" result="shape"/>
</filter>
<linearGradient id="paint0_linear" x1="649.653" y1="76.0702" x2="665.239" y2="79.135" gradientUnits="userSpaceOnUse">
<stop offset="0.0773559" stop-color="#3F564B"/>
<stop offset="1" stop-color="#252E74"/>
</linearGradient>
<linearGradient id="paint1_linear" x1="665.59" y1="104.775" x2="667.779" y2="156.44" gradientUnits="userSpaceOnUse">
<stop stop-color="#784949"/>
<stop offset="1" stop-color="#0E1E3F"/>
</linearGradient>
<linearGradient id="paint2_linear" x1="674.584" y1="122.616" x2="676.322" y2="163.632" gradientUnits="userSpaceOnUse">
<stop stop-color="#784949"/>
<stop offset="1" stop-color="#0E1E3F"/>
</linearGradient>
<linearGradient id="paint3_linear" x1="654.788" y1="120.622" x2="656.834" y2="168.911" gradientUnits="userSpaceOnUse">
<stop stop-color="#784949"/>
<stop offset="1" stop-color="#0E1E3F"/>
</linearGradient>
<linearGradient id="paint4_linear" x1="632.908" y1="108.895" x2="630.862" y2="157.184" gradientUnits="userSpaceOnUse">
<stop stop-color="#784949"/>
<stop offset="1" stop-color="#0E1E3F"/>
</linearGradient>
<linearGradient id="paint5_linear" x1="612.599" y1="106.88" x2="610.553" y2="155.169" gradientUnits="userSpaceOnUse">
<stop stop-color="#784949"/>
<stop offset="1" stop-color="#0E1E3F"/>
</linearGradient>
<linearGradient id="paint6_linear" x1="634.958" y1="125.909" x2="637.004" y2="174.198" gradientUnits="userSpaceOnUse">
<stop stop-color="#784949"/>
<stop offset="1" stop-color="#0E1E3F"/>
</linearGradient>
<linearGradient id="paint7_linear" x1="145.149" y1="74.9234" x2="148.192" y2="146.735" gradientUnits="userSpaceOnUse">
<stop stop-color="#784949"/>
<stop offset="1" stop-color="#0E1E3F"/>
</linearGradient>
<linearGradient id="paint8_linear" x1="168.403" y1="66.043" x2="170.592" y2="117.707" gradientUnits="userSpaceOnUse">
<stop stop-color="#784949"/>
<stop offset="1" stop-color="#0E1E3F"/>
</linearGradient>
<linearGradient id="paint9_linear" x1="177.398" y1="83.8856" x2="179.136" y2="124.901" gradientUnits="userSpaceOnUse">
<stop stop-color="#784949"/>
<stop offset="1" stop-color="#0E1E3F"/>
</linearGradient>
<linearGradient id="paint10_linear" x1="192.401" y1="61.2479" x2="194.448" y2="109.537" gradientUnits="userSpaceOnUse">
<stop stop-color="#784949"/>
<stop offset="1" stop-color="#0E1E3F"/>
</linearGradient>
<linearGradient id="paint11_linear" x1="113.162" y1="88.8143" x2="110.599" y2="149.29" gradientUnits="userSpaceOnUse">
<stop stop-color="#784949"/>
<stop offset="1" stop-color="#0E1E3F"/>
</linearGradient>
<linearGradient id="paint12_linear" x1="130.007" y1="66.8074" x2="132.054" y2="115.096" gradientUnits="userSpaceOnUse">
<stop stop-color="#784949"/>
<stop offset="1" stop-color="#0E1E3F"/>
</linearGradient>
<linearGradient id="paint13_linear" x1="317.627" y1="88.7272" x2="317.83" y2="98.8017" gradientUnits="userSpaceOnUse">
<stop offset="0.0773559" stop-color="#3F564B"/>
<stop offset="1" stop-color="#252E74"/>
</linearGradient>
<linearGradient id="paint14_linear" x1="123.972" y1="93.2512" x2="137.816" y2="125.64" gradientUnits="userSpaceOnUse">
<stop offset="0.0773559" stop-color="#3F564B"/>
<stop offset="1" stop-color="#252E74"/>
</linearGradient>
<linearGradient id="paint15_linear" x1="110.367" y1="110.054" x2="118.569" y2="146.515" gradientUnits="userSpaceOnUse">
<stop offset="0.0773559" stop-color="#3F564B"/>
<stop offset="1" stop-color="#252E74"/>
</linearGradient>
<linearGradient id="paint16_linear" x1="321.356" y1="188.859" x2="329.125" y2="42.7035" gradientUnits="userSpaceOnUse">
<stop offset="0.0773559" stop-color="#202867"/>
<stop offset="1" stop-color="#252E74"/>
</linearGradient>
<linearGradient id="paint17_linear" x1="592.181" y1="84.146" x2="572.831" y2="-41.043" gradientUnits="userSpaceOnUse">
<stop offset="0.0773559" stop-color="#212C83" stop-opacity="0"/>
<stop offset="1" stop-color="#212C83"/>
</linearGradient>
<linearGradient id="paint18_linear" x1="479.343" y1="154.471" x2="459.992" y2="29.2816" gradientUnits="userSpaceOnUse">
<stop offset="0.0773559" stop-color="#212C83" stop-opacity="0"/>
<stop offset="1" stop-color="#212C83"/>
</linearGradient>
<linearGradient id="paint19_linear" x1="478.853" y1="57.0889" x2="459.656" y2="24.2003" gradientUnits="userSpaceOnUse">
<stop offset="0.0773559" stop-color="#212C83" stop-opacity="0"/>
<stop offset="1" stop-color="#212C83"/>
</linearGradient>
<linearGradient id="paint20_linear" x1="526.005" y1="83.1865" x2="506.808" y2="50.298" gradientUnits="userSpaceOnUse">
<stop offset="0.0773559" stop-color="#212C83" stop-opacity="0"/>
<stop offset="1" stop-color="#212C83"/>
</linearGradient>
<linearGradient id="paint21_linear" x1="271.974" y1="92.4571" x2="271.264" y2="49.9306" gradientUnits="userSpaceOnUse">
<stop offset="0.0773559" stop-color="#212C83" stop-opacity="0"/>
<stop offset="1" stop-color="#212C83"/>
</linearGradient>
<linearGradient id="paint22_linear" x1="546.118" y1="112.103" x2="483.484" y2="4.00353" gradientUnits="userSpaceOnUse">
<stop offset="0.0773559" stop-color="#212C83" stop-opacity="0"/>
<stop offset="1" stop-color="#212C83"/>
</linearGradient>
<linearGradient id="paint23_linear" x1="546.118" y1="66.7427" x2="608.752" y2="174.842" gradientUnits="userSpaceOnUse">
<stop offset="0.0773559" stop-color="#212C83" stop-opacity="0"/>
<stop offset="1" stop-color="#212C83"/>
</linearGradient>
<linearGradient id="paint24_linear" x1="565.978" y1="67.6708" x2="603.683" y2="149.936" gradientUnits="userSpaceOnUse">
<stop offset="0.0773559" stop-color="#212C83" stop-opacity="0"/>
<stop offset="1" stop-color="#212C83"/>
</linearGradient>
<linearGradient id="paint25_linear" x1="469.574" y1="191.227" x2="430.724" y2="148.429" gradientUnits="userSpaceOnUse">
<stop offset="0.0773559" stop-color="#2C3684"/>
<stop offset="1" stop-color="#252E74"/>
</linearGradient>
<linearGradient id="paint26_linear" x1="201.646" y1="177.785" x2="153.602" y2="120.954" gradientUnits="userSpaceOnUse">
<stop offset="0.0773559" stop-color="#2C3684"/>
<stop offset="1" stop-color="#252E74"/>
</linearGradient>
<linearGradient id="paint27_linear" x1="278.341" y1="145.854" x2="292.715" y2="182.953" gradientUnits="userSpaceOnUse">
<stop offset="0.0636391" stop-color="#F6BCFF" stop-opacity="0.38"/>
<stop offset="0.754165" stop-color="#ACB1D2" stop-opacity="0"/>
</linearGradient>
<linearGradient id="paint28_linear" x1="285.638" y1="132.231" x2="294.288" y2="170.97" gradientUnits="userSpaceOnUse">
<stop offset="0.0636391" stop-color="#F6BCFF" stop-opacity="0.38"/>
<stop offset="0.754165" stop-color="#ACB1D2" stop-opacity="0"/>
</linearGradient>
<linearGradient id="paint29_linear" x1="296.521" y1="129.773" x2="305.171" y2="168.512" gradientUnits="userSpaceOnUse">
<stop offset="0.0636391" stop-color="#F6BCFF" stop-opacity="0.38"/>
<stop offset="0.754165" stop-color="#ACB1D2" stop-opacity="0"/>
</linearGradient>
<linearGradient id="paint30_linear" x1="310.198" y1="128.048" x2="314.544" y2="167.463" gradientUnits="userSpaceOnUse">
<stop offset="0.0636391" stop-color="#F6BCFF" stop-opacity="0.38"/>
<stop offset="0.754165" stop-color="#ACB1D2" stop-opacity="0"/>
</linearGradient>
<linearGradient id="paint31_linear" x1="324.248" y1="128.28" x2="322.695" y2="167.892" gradientUnits="userSpaceOnUse">
<stop offset="0.0636391" stop-color="#F6BCFF" stop-opacity="0.38"/>
<stop offset="0.754165" stop-color="#ACB1D2" stop-opacity="0"/>
</linearGradient>
<linearGradient id="paint32_linear" x1="292.158" y1="140.642" x2="299.745" y2="179.591" gradientUnits="userSpaceOnUse">
<stop offset="0.0636391" stop-color="#F6BCFF" stop-opacity="0.38"/>
<stop offset="0.754165" stop-color="#ACB1D2" stop-opacity="0"/>
</linearGradient>
<linearGradient id="paint33_linear" x1="305.201" y1="138.45" x2="310.161" y2="177.797" gradientUnits="userSpaceOnUse">
<stop offset="0.0636391" stop-color="#F6BCFF" stop-opacity="0.38"/>
<stop offset="0.754165" stop-color="#ACB1D2" stop-opacity="0"/>
</linearGradient>
<linearGradient id="paint34_linear" x1="316.83" y1="136.573" x2="317.618" y2="176.206" gradientUnits="userSpaceOnUse">
<stop offset="0.0636391" stop-color="#F6BCFF" stop-opacity="0.38"/>
<stop offset="0.754165" stop-color="#ACB1D2" stop-opacity="0"/>
</linearGradient>
<linearGradient id="paint35_linear" x1="332.497" y1="136.503" x2="326.358" y2="175.692" gradientUnits="userSpaceOnUse">
<stop offset="0.0636391" stop-color="#F6BCFF" stop-opacity="0.38"/>
<stop offset="0.754165" stop-color="#ACB1D2" stop-opacity="0"/>
</linearGradient>
<linearGradient id="paint36_linear" x1="276.453" y1="153.43" x2="289.078" y2="191.118" gradientUnits="userSpaceOnUse">
<stop offset="0.0636391" stop-color="#F6BCFF" stop-opacity="0.38"/>
<stop offset="0.754165" stop-color="#ACB1D2" stop-opacity="0"/>
</linearGradient>
<linearGradient id="paint37_linear" x1="287.095" y1="151.05" x2="299.688" y2="188.755" gradientUnits="userSpaceOnUse">
<stop offset="0.0636391" stop-color="#F6BCFF" stop-opacity="0.38"/>
<stop offset="0.754165" stop-color="#ACB1D2" stop-opacity="0"/>
</linearGradient>
<linearGradient id="paint38_linear" x1="300.53" y1="147.393" x2="307.477" y2="186.455" gradientUnits="userSpaceOnUse">
<stop offset="0.0636391" stop-color="#F6BCFF" stop-opacity="0.38"/>
<stop offset="0.754165" stop-color="#ACB1D2" stop-opacity="0"/>
</linearGradient>
<linearGradient id="paint39_linear" x1="315.671" y1="145.112" x2="318.921" y2="184.627" gradientUnits="userSpaceOnUse">
<stop offset="0.0636391" stop-color="#F6BCFF" stop-opacity="0.38"/>
<stop offset="0.754165" stop-color="#ACB1D2" stop-opacity="0"/>
</linearGradient>
<linearGradient id="paint40_linear" x1="331.111" y1="146.036" x2="327.976" y2="185.559" gradientUnits="userSpaceOnUse">
<stop offset="0.0636391" stop-color="#F6BCFF" stop-opacity="0.38"/>
<stop offset="0.754165" stop-color="#ACB1D2" stop-opacity="0"/>
</linearGradient>
<linearGradient id="paint41_linear" x1="309.175" y1="156.724" x2="315.661" y2="195.86" gradientUnits="userSpaceOnUse">
<stop offset="0.0636391" stop-color="#F6BCFF" stop-opacity="0.38"/>
<stop offset="0.754165" stop-color="#ACB1D2" stop-opacity="0"/>
</linearGradient>
<linearGradient id="paint42_linear" x1="323.352" y1="156.717" x2="325.521" y2="196.302" gradientUnits="userSpaceOnUse">
<stop offset="0.0636391" stop-color="#F6BCFF" stop-opacity="0.38"/>
<stop offset="0.754165" stop-color="#ACB1D2" stop-opacity="0"/>
</linearGradient>
<radialGradient id="paint43_radial" cx="0" cy="0" r="1" gradientUnits="userSpaceOnUse" gradientTransform="translate(400.873 100.378) rotate(70.8093) scale(65.7014 94.7373)">
<stop offset="0.0773559" stop-color="#9A5E7E"/>
<stop offset="1" stop-color="#252E74"/>
</radialGradient>
<linearGradient id="paint44_linear" x1="354.614" y1="118.892" x2="368.988" y2="155.99" gradientUnits="userSpaceOnUse">
<stop offset="0.0636391" stop-color="#F6BCFF" stop-opacity="0.38"/>
<stop offset="0.754165" stop-color="#ACB1D2" stop-opacity="0"/>
</linearGradient>
<linearGradient id="paint45_linear" x1="361.317" y1="127.384" x2="375.691" y2="164.482" gradientUnits="userSpaceOnUse">
<stop offset="0.0636391" stop-color="#F6BCFF" stop-opacity="0.38"/>
<stop offset="0.754165" stop-color="#ACB1D2" stop-opacity="0"/>
</linearGradient>
<linearGradient id="paint46_linear" x1="368.614" y1="113.76" x2="377.265" y2="152.499" gradientUnits="userSpaceOnUse">
<stop offset="0.0636391" stop-color="#F6BCFF" stop-opacity="0.38"/>
<stop offset="0.754165" stop-color="#ACB1D2" stop-opacity="0"/>
</linearGradient>
<linearGradient id="paint47_linear" x1="379.496" y1="111.302" x2="388.147" y2="150.041" gradientUnits="userSpaceOnUse">
<stop offset="0.0636391" stop-color="#F6BCFF" stop-opacity="0.38"/>
<stop offset="0.754165" stop-color="#ACB1D2" stop-opacity="0"/>
</linearGradient>
<linearGradient id="paint48_linear" x1="393.174" y1="109.577" x2="397.52" y2="148.993" gradientUnits="userSpaceOnUse">
<stop offset="0.0636391" stop-color="#F6BCFF" stop-opacity="0.38"/>
<stop offset="0.754165" stop-color="#ACB1D2" stop-opacity="0"/>
</linearGradient>
<linearGradient id="paint49_linear" x1="407.224" y1="109.809" x2="405.671" y2="149.421" gradientUnits="userSpaceOnUse">
<stop offset="0.0636391" stop-color="#F6BCFF" stop-opacity="0.38"/>
<stop offset="0.754165" stop-color="#ACB1D2" stop-opacity="0"/>
</linearGradient>
<linearGradient id="paint50_linear" x1="417.185" y1="112.255" x2="415.631" y2="151.867" gradientUnits="userSpaceOnUse">
<stop offset="0.0636391" stop-color="#F6BCFF" stop-opacity="0.38"/>
<stop offset="0.754165" stop-color="#ACB1D2" stop-opacity="0"/>
</linearGradient>
<linearGradient id="paint51_linear" x1="430.806" y1="114.623" x2="421.775" y2="153.281" gradientUnits="userSpaceOnUse">
<stop offset="0.0636391" stop-color="#F6BCFF" stop-opacity="0.38"/>
<stop offset="0.754165" stop-color="#ACB1D2" stop-opacity="0"/>
</linearGradient>
<linearGradient id="paint52_linear" x1="441.084" y1="121.824" x2="428.324" y2="159.475" gradientUnits="userSpaceOnUse">
<stop offset="0.0636391" stop-color="#F6BCFF" stop-opacity="0.38"/>
<stop offset="0.754165" stop-color="#ACB1D2" stop-opacity="0"/>
</linearGradient>
<linearGradient id="paint53_linear" x1="375.134" y1="122.171" x2="382.722" y2="161.12" gradientUnits="userSpaceOnUse">
<stop offset="0.0636391" stop-color="#F6BCFF" stop-opacity="0.38"/>
<stop offset="0.754165" stop-color="#ACB1D2" stop-opacity="0"/>
</linearGradient>
<linearGradient id="paint54_linear" x1="388.177" y1="119.98" x2="393.137" y2="159.326" gradientUnits="userSpaceOnUse">
<stop offset="0.0636391" stop-color="#F6BCFF" stop-opacity="0.38"/>
<stop offset="0.754165" stop-color="#ACB1D2" stop-opacity="0"/>
</linearGradient>
<linearGradient id="paint55_linear" x1="399.806" y1="118.102" x2="400.595" y2="157.735" gradientUnits="userSpaceOnUse">
<stop offset="0.0636391" stop-color="#F6BCFF" stop-opacity="0.38"/>
<stop offset="0.754165" stop-color="#ACB1D2" stop-opacity="0"/>
</linearGradient>
<linearGradient id="paint56_linear" x1="415.473" y1="118.032" x2="409.334" y2="157.222" gradientUnits="userSpaceOnUse">
<stop offset="0.0636391" stop-color="#F6BCFF" stop-opacity="0.38"/>
<stop offset="0.754165" stop-color="#ACB1D2" stop-opacity="0"/>
</linearGradient>
<linearGradient id="paint57_linear" x1="425.415" y1="121.304" x2="419.276" y2="160.493" gradientUnits="userSpaceOnUse">
<stop offset="0.0636391" stop-color="#F6BCFF" stop-opacity="0.38"/>
<stop offset="0.754165" stop-color="#ACB1D2" stop-opacity="0"/>
</linearGradient>
<linearGradient id="paint58_linear" x1="436.236" y1="127.27" x2="426.977" y2="165.876" gradientUnits="userSpaceOnUse">
<stop offset="0.0636391" stop-color="#F6BCFF" stop-opacity="0.38"/>
<stop offset="0.754165" stop-color="#ACB1D2" stop-opacity="0"/>
</linearGradient>
<linearGradient id="paint59_linear" x1="443.03" y1="134.498" x2="433.771" y2="173.104" gradientUnits="userSpaceOnUse">
<stop offset="0.0636391" stop-color="#F6BCFF" stop-opacity="0.38"/>
<stop offset="0.754165" stop-color="#ACB1D2" stop-opacity="0"/>
</linearGradient>
<linearGradient id="paint60_linear" x1="435.747" y1="138.186" x2="426.487" y2="176.792" gradientUnits="userSpaceOnUse">
<stop offset="0.0636391" stop-color="#F6BCFF" stop-opacity="0.38"/>
<stop offset="0.754165" stop-color="#ACB1D2" stop-opacity="0"/>
</linearGradient>
<linearGradient id="paint61_linear" x1="359.417" y1="134.957" x2="372.01" y2="172.662" gradientUnits="userSpaceOnUse">
<stop offset="0.0636391" stop-color="#F6BCFF" stop-opacity="0.38"/>
<stop offset="0.754165" stop-color="#ACB1D2" stop-opacity="0"/>
</linearGradient>
<linearGradient id="paint62_linear" x1="370.072" y1="132.579" x2="382.664" y2="170.284" gradientUnits="userSpaceOnUse">
<stop offset="0.0636391" stop-color="#F6BCFF" stop-opacity="0.38"/>
<stop offset="0.754165" stop-color="#ACB1D2" stop-opacity="0"/>
</linearGradient>
<linearGradient id="paint63_linear" x1="383.506" y1="128.922" x2="390.453" y2="167.984" gradientUnits="userSpaceOnUse">
<stop offset="0.0636391" stop-color="#F6BCFF" stop-opacity="0.38"/>
<stop offset="0.754165" stop-color="#ACB1D2" stop-opacity="0"/>
</linearGradient>
<linearGradient id="paint64_linear" x1="398.647" y1="126.641" x2="401.897" y2="166.156" gradientUnits="userSpaceOnUse">
<stop offset="0.0636391" stop-color="#F6BCFF" stop-opacity="0.38"/>
<stop offset="0.754165" stop-color="#ACB1D2" stop-opacity="0"/>
</linearGradient>
<linearGradient id="paint65_linear" x1="414.088" y1="127.565" x2="410.953" y2="167.089" gradientUnits="userSpaceOnUse">
<stop offset="0.0636391" stop-color="#F6BCFF" stop-opacity="0.38"/>
<stop offset="0.754165" stop-color="#ACB1D2" stop-opacity="0"/>
</linearGradient>
<linearGradient id="paint66_linear" x1="423.696" y1="129.932" x2="420.562" y2="169.456" gradientUnits="userSpaceOnUse">
<stop offset="0.0636391" stop-color="#F6BCFF" stop-opacity="0.38"/>
<stop offset="0.754165" stop-color="#ACB1D2" stop-opacity="0"/>
</linearGradient>
<linearGradient id="paint67_linear" x1="365.733" y1="145.721" x2="379.455" y2="183.052" gradientUnits="userSpaceOnUse">
<stop offset="0.0636391" stop-color="#F6BCFF" stop-opacity="0.38"/>
<stop offset="0.754165" stop-color="#ACB1D2" stop-opacity="0"/>
</linearGradient>
<linearGradient id="paint68_linear" x1="352.874" y1="147.624" x2="366.595" y2="184.955" gradientUnits="userSpaceOnUse">
<stop offset="0.0636391" stop-color="#F6BCFF" stop-opacity="0.38"/>
<stop offset="0.754165" stop-color="#ACB1D2" stop-opacity="0"/>
</linearGradient>
<linearGradient id="paint69_linear" x1="378.893" y1="141.942" x2="388.723" y2="180.415" gradientUnits="userSpaceOnUse">
<stop offset="0.0636391" stop-color="#F6BCFF" stop-opacity="0.38"/>
<stop offset="0.754165" stop-color="#ACB1D2" stop-opacity="0"/>
</linearGradient>
<linearGradient id="paint70_linear" x1="392.151" y1="138.253" x2="398.636" y2="177.39" gradientUnits="userSpaceOnUse">
<stop offset="0.0636391" stop-color="#F6BCFF" stop-opacity="0.38"/>
<stop offset="0.754165" stop-color="#ACB1D2" stop-opacity="0"/>
</linearGradient>
<linearGradient id="paint71_linear" x1="406.329" y1="138.247" x2="408.497" y2="177.831" gradientUnits="userSpaceOnUse">
<stop offset="0.0636391" stop-color="#F6BCFF" stop-opacity="0.38"/>
<stop offset="0.754165" stop-color="#ACB1D2" stop-opacity="0"/>
</linearGradient>
<linearGradient id="paint72_linear" x1="418.528" y1="139.997" x2="420.697" y2="179.581" gradientUnits="userSpaceOnUse">
<stop offset="0.0636391" stop-color="#F6BCFF" stop-opacity="0.38"/>
<stop offset="0.754165" stop-color="#ACB1D2" stop-opacity="0"/>
</linearGradient>
<linearGradient id="paint73_linear" x1="345.056" y1="125.002" x2="359.43" y2="162.1" gradientUnits="userSpaceOnUse">
<stop offset="0.0636391" stop-color="#F6BCFF" stop-opacity="0.38"/>
<stop offset="0.754165" stop-color="#ACB1D2" stop-opacity="0"/>
</linearGradient>
<linearGradient id="paint74_linear" x1="337.875" y1="136.965" x2="352.248" y2="174.063" gradientUnits="userSpaceOnUse">
<stop offset="0.0636391" stop-color="#F6BCFF" stop-opacity="0.38"/>
<stop offset="0.754165" stop-color="#ACB1D2" stop-opacity="0"/>
</linearGradient>
<linearGradient id="paint75_linear" x1="351.155" y1="132.203" x2="365.528" y2="169.301" gradientUnits="userSpaceOnUse">
<stop offset="0.0636391" stop-color="#F6BCFF" stop-opacity="0.38"/>
<stop offset="0.754165" stop-color="#ACB1D2" stop-opacity="0"/>
</linearGradient>
<linearGradient id="paint76_linear" x1="345.284" y1="140.981" x2="359.658" y2="178.079" gradientUnits="userSpaceOnUse">
<stop offset="0.0636391" stop-color="#F6BCFF" stop-opacity="0.38"/>
<stop offset="0.754165" stop-color="#ACB1D2" stop-opacity="0"/>
</linearGradient>
<linearGradient id="paint77_linear" x1="146.243" y1="178.303" x2="115.297" y2="133.709" gradientUnits="userSpaceOnUse">
<stop offset="0.0773559" stop-color="#2C3684"/>
<stop offset="1" stop-color="#252E74"/>
</linearGradient>
<linearGradient id="paint78_linear" x1="181.899" y1="172.099" x2="139.702" y2="79.5346" gradientUnits="userSpaceOnUse">
<stop offset="0.0773559" stop-color="#212C83" stop-opacity="0"/>
<stop offset="1" stop-color="#212C83"/>
</linearGradient>
<linearGradient id="paint79_linear" x1="264.037" y1="165.889" x2="455.808" y2="172.227" gradientUnits="userSpaceOnUse">
<stop offset="0.0773559" stop-color="#212C83" stop-opacity="0"/>
<stop offset="1" stop-color="#212C83"/>
</linearGradient>
<linearGradient id="paint80_linear" x1="280.334" y1="123.744" x2="261.137" y2="90.855" gradientUnits="userSpaceOnUse">
<stop offset="0.0773559" stop-color="#212C83" stop-opacity="0"/>
<stop offset="1" stop-color="#212C83"/>
</linearGradient>
<linearGradient id="paint81_linear" x1="304.358" y1="138.411" x2="284.854" y2="104.749" gradientUnits="userSpaceOnUse">
<stop offset="0.0773559" stop-color="#212C83" stop-opacity="0"/>
<stop offset="1" stop-color="#212C83"/>
</linearGradient>
<linearGradient id="paint82_linear" x1="316.268" y1="153.525" x2="297.071" y2="120.637" gradientUnits="userSpaceOnUse">
<stop offset="0.0773559" stop-color="#212C83" stop-opacity="0"/>
<stop offset="1" stop-color="#212C83"/>
</linearGradient>
<linearGradient id="paint83_linear" x1="386.199" y1="189.033" x2="376.558" y2="128.763" gradientUnits="userSpaceOnUse">
<stop offset="0.0773559" stop-color="#212C83" stop-opacity="0"/>
<stop offset="1" stop-color="#212C83"/>
</linearGradient>
<linearGradient id="paint84_linear" x1="441.489" y1="189.033" x2="431.847" y2="128.763" gradientUnits="userSpaceOnUse">
<stop offset="0.0773559" stop-color="#212C83" stop-opacity="0"/>
<stop offset="1" stop-color="#212C83"/>
</linearGradient>
<linearGradient id="paint85_linear" x1="141.988" y1="141.283" x2="117.938" y2="99.7841" gradientUnits="userSpaceOnUse">
<stop offset="0.0773559" stop-color="#212C83" stop-opacity="0"/>
<stop offset="1" stop-color="#212C83"/>
</linearGradient>
<linearGradient id="paint86_linear" x1="634.621" y1="184.039" x2="681.407" y2="98.6871" gradientUnits="userSpaceOnUse">
<stop offset="0.0773559" stop-color="#212C83" stop-opacity="0"/>
<stop offset="1" stop-color="#212C83"/>
</linearGradient>
<linearGradient id="paint87_linear" x1="270.965" y1="68.3415" x2="271.857" y2="79.633" gradientUnits="userSpaceOnUse">
<stop offset="0.0773559" stop-color="#3F564B"/>
<stop offset="1" stop-color="#252E74"/>
</linearGradient>
<linearGradient id="paint88_linear" x1="373.708" y1="118.22" x2="372.729" y2="97.8407" gradientUnits="userSpaceOnUse">
<stop offset="0.0773559" stop-color="#212C83" stop-opacity="0"/>
<stop offset="1" stop-color="#212C83"/>
</linearGradient>
<linearGradient id="paint89_linear" x1="386.428" y1="127.588" x2="385.996" y2="117.444" gradientUnits="userSpaceOnUse">
<stop offset="0.0773559" stop-color="#212C83" stop-opacity="0"/>
<stop offset="1" stop-color="#212C83"/>
</linearGradient>
<linearGradient id="paint90_linear" x1="538.899" y1="146.671" x2="538.563" y2="136.519" gradientUnits="userSpaceOnUse">
<stop offset="0.0773559" stop-color="#212C83" stop-opacity="0"/>
<stop offset="1" stop-color="#212C83"/>
</linearGradient>
<linearGradient id="paint91_linear" x1="356.489" y1="92.7897" x2="358.453" y2="109.401" gradientUnits="userSpaceOnUse">
<stop offset="0.0773559" stop-color="#3F564B"/>
<stop offset="1" stop-color="#252E74"/>
</linearGradient>
<linearGradient id="paint92_linear" x1="378.652" y1="112.146" x2="379.543" y2="123.438" gradientUnits="userSpaceOnUse">
<stop offset="0.0773559" stop-color="#3F564B"/>
<stop offset="1" stop-color="#252E74"/>
</linearGradient>
<linearGradient id="paint93_linear" x1="256.561" y1="138.634" x2="256.193" y2="128.485" gradientUnits="userSpaceOnUse">
<stop offset="0.0773559" stop-color="#212C83" stop-opacity="0"/>
<stop offset="1" stop-color="#212C83"/>
</linearGradient>
<linearGradient id="paint94_linear" x1="249.505" y1="101.101" x2="248.107" y2="84.1252" gradientUnits="userSpaceOnUse">
<stop offset="0.0773559" stop-color="#212C83" stop-opacity="0"/>
<stop offset="1" stop-color="#212C83"/>
</linearGradient>
<linearGradient id="paint95_linear" x1="625.978" y1="129.89" x2="624.58" y2="112.914" gradientUnits="userSpaceOnUse">
<stop offset="0.0773559" stop-color="#212C83" stop-opacity="0"/>
<stop offset="1" stop-color="#212C83"/>
</linearGradient>
<linearGradient id="paint96_linear" x1="256.348" y1="110.25" x2="254.413" y2="93.3806" gradientUnits="userSpaceOnUse">
<stop offset="0.0773559" stop-color="#212C83" stop-opacity="0"/>
<stop offset="1" stop-color="#212C83"/>
</linearGradient>
<linearGradient id="paint97_linear" x1="632.1" y1="141.931" x2="630.164" y2="125.062" gradientUnits="userSpaceOnUse">
<stop offset="0.0773559" stop-color="#212C83" stop-opacity="0"/>
<stop offset="1" stop-color="#212C83"/>
</linearGradient>
<linearGradient id="paint98_linear" x1="194.681" y1="134.04" x2="193.005" y2="110.996" gradientUnits="userSpaceOnUse">
<stop offset="0.0773559" stop-color="#212C83" stop-opacity="0"/>
<stop offset="1" stop-color="#212C83"/>
</linearGradient>
<linearGradient id="paint99_linear" x1="216.156" y1="92.2691" x2="215.09" y2="75.2449" gradientUnits="userSpaceOnUse">
<stop offset="0.0773559" stop-color="#212C83" stop-opacity="0"/>
<stop offset="1" stop-color="#212C83"/>
</linearGradient>
<linearGradient id="paint100_linear" x1="246.448" y1="125.928" x2="246.65" y2="136.003" gradientUnits="userSpaceOnUse">
<stop offset="0.0773559" stop-color="#3F564B"/>
<stop offset="1" stop-color="#252E74"/>
</linearGradient>
<linearGradient id="paint101_linear" x1="248.163" y1="79.7789" x2="246.21" y2="97.9656" gradientUnits="userSpaceOnUse">
<stop offset="0.0773559" stop-color="#3F564B"/>
<stop offset="1" stop-color="#252E74"/>
</linearGradient>
<linearGradient id="paint102_linear" x1="624.636" y1="108.569" x2="622.683" y2="126.756" gradientUnits="userSpaceOnUse">
<stop offset="0.0773559" stop-color="#3F564B"/>
<stop offset="1" stop-color="#252E74"/>
</linearGradient>
<linearGradient id="paint103_linear" x1="201.273" y1="67.8347" x2="206.177" y2="97.1696" gradientUnits="userSpaceOnUse">
<stop offset="0.0773559" stop-color="#3F564B"/>
<stop offset="1" stop-color="#252E74"/>
</linearGradient>
<linearGradient id="paint104_linear" x1="175.632" y1="98.0605" x2="187.693" y2="138.262" gradientUnits="userSpaceOnUse">
<stop offset="0.0773559" stop-color="#3F564B"/>
<stop offset="1" stop-color="#252E74"/>
</linearGradient>
<linearGradient id="paint105_linear" x1="254.565" y1="89.5847" x2="255.486" y2="102.688" gradientUnits="userSpaceOnUse">
<stop offset="0.0773559" stop-color="#3F564B"/>
<stop offset="1" stop-color="#252E74"/>
</linearGradient>
<linearGradient id="paint106_linear" x1="630.316" y1="121.266" x2="631.237" y2="134.369" gradientUnits="userSpaceOnUse">
<stop offset="0.0773559" stop-color="#3F564B"/>
<stop offset="1" stop-color="#252E74"/>
</linearGradient>
<linearGradient id="paint107_linear" x1="553.225" y1="124.696" x2="552.231" y2="136.239" gradientUnits="userSpaceOnUse">
<stop offset="0.0773559" stop-color="#3F564B"/>
<stop offset="1" stop-color="#252E74"/>
</linearGradient>
<linearGradient id="paint108_linear" x1="447.868" y1="162.536" x2="462.242" y2="199.634" gradientUnits="userSpaceOnUse">
<stop offset="0.0636391" stop-color="#496CC5" stop-opacity="0.38"/>
<stop offset="0.754165" stop-color="#ACB1D2" stop-opacity="0"/>
</linearGradient>
<linearGradient id="paint109_linear" x1="454.572" y1="171.028" x2="468.946" y2="208.126" gradientUnits="userSpaceOnUse">
<stop offset="0.0636391" stop-color="#496CC5" stop-opacity="0.38"/>
<stop offset="0.754165" stop-color="#ACB1D2" stop-opacity="0"/>
</linearGradient>
<linearGradient id="paint110_linear" x1="461.869" y1="157.405" x2="470.519" y2="196.144" gradientUnits="userSpaceOnUse">
<stop offset="0.0636391" stop-color="#496CC5" stop-opacity="0.38"/>
<stop offset="0.754165" stop-color="#ACB1D2" stop-opacity="0"/>
</linearGradient>
<linearGradient id="paint111_linear" x1="472.751" y1="154.947" x2="481.401" y2="193.686" gradientUnits="userSpaceOnUse">
<stop offset="0.0636391" stop-color="#496CC5" stop-opacity="0.38"/>
<stop offset="0.754165" stop-color="#ACB1D2" stop-opacity="0"/>
</linearGradient>
<linearGradient id="paint112_linear" x1="486.429" y1="153.222" x2="490.774" y2="192.637" gradientUnits="userSpaceOnUse">
<stop offset="0.0636391" stop-color="#496CC5" stop-opacity="0.38"/>
<stop offset="0.754165" stop-color="#ACB1D2" stop-opacity="0"/>
</linearGradient>
<linearGradient id="paint113_linear" x1="500.479" y1="153.454" x2="498.926" y2="193.066" gradientUnits="userSpaceOnUse">
<stop offset="0.0636391" stop-color="#496CC5" stop-opacity="0.38"/>
<stop offset="0.754165" stop-color="#ACB1D2" stop-opacity="0"/>
</linearGradient>
<linearGradient id="paint114_linear" x1="510.439" y1="155.9" x2="508.886" y2="195.512" gradientUnits="userSpaceOnUse">
<stop offset="0.0636391" stop-color="#496CC5" stop-opacity="0.38"/>
<stop offset="0.754165" stop-color="#ACB1D2" stop-opacity="0"/>
</linearGradient>
<linearGradient id="paint115_linear" x1="524.06" y1="158.268" x2="515.03" y2="196.925" gradientUnits="userSpaceOnUse">
<stop offset="0.0636391" stop-color="#496CC5" stop-opacity="0.38"/>
<stop offset="0.754165" stop-color="#ACB1D2" stop-opacity="0"/>
</linearGradient>
<linearGradient id="paint116_linear" x1="534.339" y1="165.468" x2="521.579" y2="203.12" gradientUnits="userSpaceOnUse">
<stop offset="0.0636391" stop-color="#496CC5" stop-opacity="0.38"/>
<stop offset="0.754165" stop-color="#ACB1D2" stop-opacity="0"/>
</linearGradient>
<linearGradient id="paint117_linear" x1="468.389" y1="165.815" x2="475.976" y2="204.764" gradientUnits="userSpaceOnUse">
<stop offset="0.0636391" stop-color="#496CC5" stop-opacity="0.38"/>
<stop offset="0.754165" stop-color="#ACB1D2" stop-opacity="0"/>
</linearGradient>
<linearGradient id="paint118_linear" x1="481.432" y1="163.625" x2="486.392" y2="202.972" gradientUnits="userSpaceOnUse">
<stop offset="0.0636391" stop-color="#496CC5" stop-opacity="0.38"/>
<stop offset="0.754165" stop-color="#ACB1D2" stop-opacity="0"/>
</linearGradient>
<linearGradient id="paint119_linear" x1="493.061" y1="161.748" x2="493.849" y2="201.381" gradientUnits="userSpaceOnUse">
<stop offset="0.0636391" stop-color="#496CC5" stop-opacity="0.38"/>
<stop offset="0.754165" stop-color="#ACB1D2" stop-opacity="0"/>
</linearGradient>
<linearGradient id="paint120_linear" x1="508.728" y1="161.677" x2="502.589" y2="200.866" gradientUnits="userSpaceOnUse">
<stop offset="0.0636391" stop-color="#496CC5" stop-opacity="0.38"/>
<stop offset="0.754165" stop-color="#ACB1D2" stop-opacity="0"/>
</linearGradient>
<linearGradient id="paint121_linear" x1="518.669" y1="164.948" x2="512.53" y2="204.138" gradientUnits="userSpaceOnUse">
<stop offset="0.0636391" stop-color="#496CC5" stop-opacity="0.38"/>
<stop offset="0.754165" stop-color="#ACB1D2" stop-opacity="0"/>
</linearGradient>
<linearGradient id="paint122_linear" x1="529.491" y1="170.914" x2="520.232" y2="209.52" gradientUnits="userSpaceOnUse">
<stop offset="0.0636391" stop-color="#496CC5" stop-opacity="0.38"/>
<stop offset="0.754165" stop-color="#ACB1D2" stop-opacity="0"/>
</linearGradient>
<linearGradient id="paint123_linear" x1="536.285" y1="178.143" x2="527.026" y2="216.749" gradientUnits="userSpaceOnUse">
<stop offset="0.0636391" stop-color="#496CC5" stop-opacity="0.38"/>
<stop offset="0.754165" stop-color="#ACB1D2" stop-opacity="0"/>
</linearGradient>
<linearGradient id="paint124_linear" x1="529.001" y1="181.83" x2="519.742" y2="220.436" gradientUnits="userSpaceOnUse">
<stop offset="0.0636391" stop-color="#496CC5" stop-opacity="0.38"/>
<stop offset="0.754165" stop-color="#ACB1D2" stop-opacity="0"/>
</linearGradient>
<linearGradient id="paint125_linear" x1="452.671" y1="178.602" x2="465.264" y2="216.306" gradientUnits="userSpaceOnUse">
<stop offset="0.0636391" stop-color="#496CC5" stop-opacity="0.38"/>
<stop offset="0.754165" stop-color="#ACB1D2" stop-opacity="0"/>
</linearGradient>
<linearGradient id="paint126_linear" x1="463.326" y1="176.224" x2="475.919" y2="213.929" gradientUnits="userSpaceOnUse">
<stop offset="0.0636391" stop-color="#496CC5" stop-opacity="0.38"/>
<stop offset="0.754165" stop-color="#ACB1D2" stop-opacity="0"/>
</linearGradient>
<linearGradient id="paint127_linear" x1="476.761" y1="172.567" x2="483.708" y2="211.628" gradientUnits="userSpaceOnUse">
<stop offset="0.0636391" stop-color="#496CC5" stop-opacity="0.38"/>
<stop offset="0.754165" stop-color="#ACB1D2" stop-opacity="0"/>
</linearGradient>
<linearGradient id="paint128_linear" x1="491.901" y1="170.287" x2="495.151" y2="209.801" gradientUnits="userSpaceOnUse">
<stop offset="0.0636391" stop-color="#496CC5" stop-opacity="0.38"/>
<stop offset="0.754165" stop-color="#ACB1D2" stop-opacity="0"/>
</linearGradient>
<linearGradient id="paint129_linear" x1="507.342" y1="171.21" x2="504.207" y2="210.733" gradientUnits="userSpaceOnUse">
<stop offset="0.0636391" stop-color="#496CC5" stop-opacity="0.38"/>
<stop offset="0.754165" stop-color="#ACB1D2" stop-opacity="0"/>
</linearGradient>
<linearGradient id="paint130_linear" x1="516.951" y1="173.577" x2="513.816" y2="213.101" gradientUnits="userSpaceOnUse">
<stop offset="0.0636391" stop-color="#496CC5" stop-opacity="0.38"/>
<stop offset="0.754165" stop-color="#ACB1D2" stop-opacity="0"/>
</linearGradient>
<linearGradient id="paint131_linear" x1="458.988" y1="189.366" x2="472.709" y2="226.696" gradientUnits="userSpaceOnUse">
<stop offset="0.0636391" stop-color="#496CC5" stop-opacity="0.38"/>
<stop offset="0.754165" stop-color="#ACB1D2" stop-opacity="0"/>
</linearGradient>
<linearGradient id="paint132_linear" x1="446.128" y1="191.269" x2="459.85" y2="228.599" gradientUnits="userSpaceOnUse">
<stop offset="0.0636391" stop-color="#496CC5" stop-opacity="0.38"/>
<stop offset="0.754165" stop-color="#ACB1D2" stop-opacity="0"/>
</linearGradient>
<linearGradient id="paint133_linear" x1="472.148" y1="185.587" x2="481.978" y2="224.059" gradientUnits="userSpaceOnUse">
<stop offset="0.0636391" stop-color="#496CC5" stop-opacity="0.38"/>
<stop offset="0.754165" stop-color="#ACB1D2" stop-opacity="0"/>
</linearGradient>
<linearGradient id="paint134_linear" x1="485.406" y1="181.898" x2="491.891" y2="221.034" gradientUnits="userSpaceOnUse">
<stop offset="0.0636391" stop-color="#496CC5" stop-opacity="0.38"/>
<stop offset="0.754165" stop-color="#ACB1D2" stop-opacity="0"/>
</linearGradient>
<linearGradient id="paint135_linear" x1="499.583" y1="181.891" x2="501.752" y2="221.476" gradientUnits="userSpaceOnUse">
<stop offset="0.0636391" stop-color="#496CC5" stop-opacity="0.38"/>
<stop offset="0.754165" stop-color="#ACB1D2" stop-opacity="0"/>
</linearGradient>
<linearGradient id="paint136_linear" x1="511.783" y1="183.641" x2="513.951" y2="223.226" gradientUnits="userSpaceOnUse">
<stop offset="0.0636391" stop-color="#496CC5" stop-opacity="0.38"/>
<stop offset="0.754165" stop-color="#ACB1D2" stop-opacity="0"/>
</linearGradient>
<linearGradient id="paint137_linear" x1="438.311" y1="168.646" x2="452.684" y2="205.744" gradientUnits="userSpaceOnUse">
<stop offset="0.0636391" stop-color="#496CC5" stop-opacity="0.38"/>
<stop offset="0.754165" stop-color="#ACB1D2" stop-opacity="0"/>
</linearGradient>
<linearGradient id="paint138_linear" x1="431.129" y1="180.609" x2="445.503" y2="217.707" gradientUnits="userSpaceOnUse">
<stop offset="0.0636391" stop-color="#496CC5" stop-opacity="0.38"/>
<stop offset="0.754165" stop-color="#ACB1D2" stop-opacity="0"/>
</linearGradient>
<linearGradient id="paint139_linear" x1="444.409" y1="175.848" x2="458.782" y2="212.946" gradientUnits="userSpaceOnUse">
<stop offset="0.0636391" stop-color="#496CC5" stop-opacity="0.38"/>
<stop offset="0.754165" stop-color="#ACB1D2" stop-opacity="0"/>
</linearGradient>
<linearGradient id="paint140_linear" x1="438.539" y1="184.625" x2="452.912" y2="221.723" gradientUnits="userSpaceOnUse">
<stop offset="0.0636391" stop-color="#496CC5" stop-opacity="0.38"/>
<stop offset="0.754165" stop-color="#ACB1D2" stop-opacity="0"/>
</linearGradient>
</defs>
</svg>
