<svg width="2963" height="864" viewBox="0 0 2963 864" fill="none" xmlns="http://www.w3.org/2000/svg">
<path d="M1274.13 488.608C1277.75 495.431 1281.05 502.575 1284.04 510.039C1287.24 517.289 1290.33 524.646 1293.31 532.11C1296.29 524.433 1299.39 516.863 1302.58 509.399C1305.78 501.935 1309.19 494.792 1312.81 487.968L1449.66 231.754C1451.37 228.556 1453.07 225.997 1454.78 224.077C1456.69 222.158 1458.72 220.772 1460.85 219.919C1463.2 219.066 1465.75 218.533 1468.52 218.32C1471.3 218.107 1474.6 218 1478.44 218H1543.34V680.528H1467.57V381.772C1467.57 376.228 1467.67 370.15 1467.89 363.54C1468.31 356.929 1468.84 350.212 1469.48 343.388L1329.76 605.679C1326.56 611.65 1322.41 616.341 1317.29 619.753C1312.17 622.952 1306.21 624.551 1299.39 624.551H1287.56C1280.73 624.551 1274.77 622.952 1269.65 619.753C1264.53 616.341 1260.38 611.65 1257.18 605.679L1115.54 342.428C1116.39 349.465 1116.92 356.396 1117.14 363.22C1117.56 369.83 1117.78 376.014 1117.78 381.772V680.528H1042V218H1106.91C1110.74 218 1114.05 218.107 1116.82 218.32C1119.59 218.533 1122.04 219.066 1124.17 219.919C1126.52 220.772 1128.65 222.158 1130.57 224.077C1132.48 225.997 1134.3 228.556 1136 231.754L1274.13 488.608Z" fill="white"/>
<path d="M1889.09 680.528H1853.6C1846.14 680.528 1840.28 679.462 1836.02 677.329C1831.76 674.984 1828.56 670.399 1826.43 663.575L1819.39 640.225C1811.08 647.688 1802.87 654.299 1794.77 660.056C1786.89 665.601 1778.68 670.292 1770.15 674.131C1761.63 677.969 1752.57 680.848 1742.98 682.767C1733.38 684.686 1722.73 685.646 1711 685.646C1697.15 685.646 1684.36 683.833 1672.63 680.208C1660.91 676.37 1650.79 670.719 1642.26 663.255C1633.95 655.792 1627.45 646.515 1622.76 635.427C1618.07 624.338 1615.72 611.437 1615.72 596.723C1615.72 584.355 1618.92 572.2 1625.31 560.258C1631.92 548.103 1642.79 537.227 1657.93 527.631C1673.06 517.822 1693.2 509.719 1718.36 503.322C1743.51 496.924 1774.74 493.299 1812.04 492.446V473.254C1812.04 451.29 1807.35 435.083 1797.97 424.634C1788.8 413.972 1775.38 408.641 1757.68 408.641C1744.89 408.641 1734.24 410.134 1725.71 413.119C1717.18 416.104 1709.72 419.516 1703.33 423.355C1697.15 426.98 1691.39 430.285 1686.06 433.271C1680.73 436.256 1674.87 437.749 1668.48 437.749C1663.15 437.749 1658.57 436.363 1654.73 433.59C1650.89 430.818 1647.8 427.406 1645.46 423.355L1631.07 398.085C1668.8 363.54 1714.31 346.267 1767.6 346.267C1786.78 346.267 1803.83 349.465 1818.75 355.863C1833.89 362.047 1846.68 370.79 1857.12 382.092C1867.57 393.181 1875.45 406.508 1880.78 422.075C1886.32 437.642 1889.09 454.702 1889.09 473.254V680.528ZM1735.62 631.268C1743.72 631.268 1751.18 630.522 1758 629.029C1764.82 627.537 1771.22 625.298 1777.19 622.312C1783.37 619.327 1789.23 615.702 1794.77 611.437C1800.53 606.958 1806.28 601.734 1812.04 595.763V540.426C1789.02 541.492 1769.73 543.518 1754.17 546.504C1738.82 549.276 1726.46 552.901 1717.08 557.379C1707.7 561.857 1700.98 567.082 1696.93 573.053C1693.1 579.023 1691.18 585.527 1691.18 592.564C1691.18 606.425 1695.23 616.341 1703.33 622.312C1711.64 628.283 1722.41 631.268 1735.62 631.268Z" fill="white"/>
<path d="M1966.75 680.528V352.344H2015.03C2025.26 352.344 2031.98 357.142 2035.17 366.738L2040.61 392.648C2047.22 385.824 2054.14 379.64 2061.39 374.095C2068.85 368.551 2076.63 363.753 2084.73 359.701C2093.04 355.65 2101.89 352.557 2111.27 350.425C2120.65 348.293 2130.88 347.226 2141.96 347.226C2159.87 347.226 2175.75 350.318 2189.6 356.503C2203.46 362.473 2214.97 371.003 2224.14 382.092C2233.51 392.967 2240.55 406.082 2245.24 421.436C2250.14 436.576 2252.59 453.316 2252.59 471.655V680.528H2173.62V471.655C2173.62 451.61 2168.93 436.149 2159.55 425.274C2150.38 414.185 2136.53 408.641 2117.98 408.641C2104.34 408.641 2091.55 411.733 2079.62 417.917C2067.68 424.101 2056.38 432.524 2045.72 443.187V680.528H1966.75Z" fill="white"/>
<path d="M2443.7 346.587C2457.77 346.587 2470.99 348.079 2483.35 351.065C2495.71 353.837 2507.01 357.995 2517.24 363.54H2611.56V392.967C2611.56 397.872 2610.28 401.71 2607.73 404.483C2605.17 407.255 2600.8 409.174 2594.62 410.24L2565.2 415.678C2567.33 421.222 2568.93 427.087 2570 433.271C2571.28 439.455 2571.92 445.959 2571.92 452.783C2571.92 468.989 2568.61 483.703 2562 496.924C2555.61 509.932 2546.66 521.021 2535.15 530.19C2523.85 539.36 2510.31 546.504 2494.54 551.621C2478.98 556.526 2462.03 558.978 2443.7 558.978C2431.34 558.978 2419.3 557.806 2407.57 555.46C2397.34 561.644 2392.23 568.574 2392.23 576.251C2392.23 582.862 2395.21 587.766 2401.18 590.965C2407.36 593.951 2415.35 596.083 2425.16 597.362C2435.18 598.642 2446.47 599.495 2459.05 599.921C2471.63 600.135 2484.52 600.774 2497.74 601.841C2510.95 602.907 2523.85 604.826 2536.43 607.598C2549 610.157 2560.19 614.315 2570 620.073C2580.02 625.831 2588.01 633.721 2593.98 643.743C2600.16 653.552 2603.25 666.241 2603.25 681.807C2603.25 696.308 2599.63 710.382 2592.38 724.03C2585.34 737.678 2575.01 749.833 2561.36 760.495C2547.94 771.157 2531.42 779.687 2511.81 786.084C2492.2 792.695 2469.81 796 2444.66 796C2419.72 796 2398.09 793.548 2379.76 788.643C2361.42 783.952 2346.18 777.554 2334.03 769.451C2322.1 761.561 2313.14 752.391 2307.18 741.942C2301.21 731.493 2298.22 720.618 2298.22 709.316C2298.22 693.962 2302.91 681.061 2312.29 670.612C2321.67 660.163 2334.67 651.847 2351.3 645.662C2343.2 641.184 2336.7 635.213 2331.8 627.75C2326.89 620.286 2324.44 610.584 2324.44 598.642C2324.44 593.737 2325.29 588.726 2327 583.608C2328.71 578.277 2331.26 573.053 2334.67 567.935C2338.3 562.817 2342.77 558.019 2348.1 553.541C2353.43 548.849 2359.72 544.691 2366.97 541.066C2350.34 532.11 2337.23 520.168 2327.64 505.241C2318.26 490.314 2313.57 472.828 2313.57 452.783C2313.57 436.576 2316.77 421.969 2323.16 408.961C2329.77 395.74 2338.83 384.544 2350.34 375.375C2362.06 365.992 2375.81 358.848 2391.59 353.944C2407.57 349.039 2424.94 346.587 2443.7 346.587ZM2530.35 695.242C2530.35 688.845 2528.43 683.62 2524.6 679.568C2520.76 675.517 2515.54 672.425 2508.93 670.292C2502.32 667.947 2494.54 666.241 2485.59 665.174C2476.85 664.108 2467.47 663.362 2457.45 662.935C2447.65 662.296 2437.41 661.762 2426.76 661.336C2416.31 660.696 2406.19 659.737 2396.38 658.457C2387.43 663.362 2380.18 669.226 2374.64 676.05C2369.31 682.66 2366.65 690.337 2366.65 699.08C2366.65 704.838 2368.03 710.169 2370.8 715.074C2373.79 720.191 2378.37 724.563 2384.55 728.188C2390.95 731.813 2399.15 734.586 2409.17 736.505C2419.19 738.637 2431.45 739.703 2445.94 739.703C2460.65 739.703 2473.33 738.531 2483.99 736.185C2494.65 734.052 2503.39 730.96 2510.21 726.909C2517.24 723.07 2522.36 718.379 2525.55 712.834C2528.75 707.503 2530.35 701.639 2530.35 695.242ZM2443.7 508.439C2453.51 508.439 2462.03 507.16 2469.28 504.601C2476.53 501.829 2482.5 498.097 2487.19 493.406C2492.09 488.714 2495.71 483.063 2498.06 476.453C2500.62 469.842 2501.89 462.592 2501.89 454.702C2501.89 438.495 2496.99 425.7 2487.19 416.318C2477.59 406.722 2463.1 401.924 2443.7 401.924C2424.31 401.924 2409.7 406.722 2399.9 416.318C2390.31 425.7 2385.51 438.495 2385.51 454.702C2385.51 462.379 2386.68 469.522 2389.03 476.133C2391.59 482.743 2395.21 488.501 2399.9 493.406C2404.8 498.097 2410.88 501.829 2418.12 504.601C2425.58 507.16 2434.11 508.439 2443.7 508.439Z" fill="white"/>
<path d="M2801.21 347.226C2825.73 347.226 2847.9 351.171 2867.72 359.061C2887.76 366.952 2904.81 378.147 2918.88 392.648C2932.95 407.148 2943.82 424.847 2951.49 445.745C2959.16 466.643 2963 489.994 2963 515.796C2963 541.812 2959.16 565.269 2951.49 586.167C2943.82 607.065 2932.95 624.871 2918.88 639.585C2904.81 654.299 2887.76 665.601 2867.72 673.491C2847.9 681.381 2825.73 685.326 2801.21 685.326C2776.7 685.326 2754.43 681.381 2734.39 673.491C2714.35 665.601 2697.19 654.299 2682.91 639.585C2668.85 624.871 2657.87 607.065 2649.98 586.167C2642.31 565.269 2638.47 541.812 2638.47 515.796C2638.47 489.994 2642.31 466.643 2649.98 445.745C2657.87 424.847 2668.85 407.148 2682.91 392.648C2697.19 378.147 2714.35 366.952 2734.39 359.061C2754.43 351.171 2776.7 347.226 2801.21 347.226ZM2801.21 624.551C2828.5 624.551 2848.64 615.382 2861.64 597.043C2874.86 578.704 2881.47 551.835 2881.47 516.436C2881.47 481.037 2874.86 454.062 2861.64 435.51C2848.64 416.957 2828.5 407.681 2801.21 407.681C2773.5 407.681 2753.04 417.064 2739.83 435.83C2726.61 454.382 2720 481.251 2720 516.436C2720 551.621 2726.61 578.49 2739.83 597.043C2753.04 615.382 2773.5 624.551 2801.21 624.551Z" fill="white"/>
<path fill-rule="evenodd" clip-rule="evenodd" d="M337.746 201.289C337.751 201.283 337.755 201.277 337.76 201.27C374.05 219.89 413.76 226.27 451.76 226.16C473.84 246.44 492.21 270.26 509.47 294.72C516.627 304.937 523.082 315.628 528.79 326.72C541.989 352.136 551.696 379.028 561.518 406.237C564.398 414.217 567.289 422.225 570.28 430.23C571.217 433.656 572.196 437.084 573.217 440.514L573.27 440.5C588.44 492.53 610.59 548.11 640.27 594L640.241 594.012C650.058 609.087 661.055 623.361 673.13 636.7C675.506 639.27 677.936 641.816 680.369 644.365L680.37 644.366L680.371 644.367L680.374 644.37C691.742 656.28 703.19 668.274 709.68 683.28C717.76 701.98 717.14 723.49 712.28 743.28C689.35 836.56 599.52 861.07 513.67 863.33L513.711 863.223C481.522 863.864 449.556 861.465 421.21 858.56C421.21 858.56 284.5 844.41 168.62 759.69L164.88 756.91C164.88 756.91 164.88 756.91 164.881 756.909C151.355 746.83 138.451 735.941 126.24 724.3C93.76 693.3 64.86 658.14 42.76 619.54C42.9078 619.392 43.0553 619.243 43.2026 619.095C40.587 614.388 38.0795 609.634 35.68 604.83C14.3 562.04 1.27 515.46 0.679999 465.95C-0.325631 382.873 28.0953 297.795 82.1176 236.113C82.0984 236.062 82.0792 236.011 82.06 235.96C111.31 203.92 147.87 178.75 191.15 164.42C218.283 155.354 246.768 151.001 275.37 151.55C292.775 171.987 313.954 188.874 337.746 201.289ZM271.153 744.85C290.711 737.711 309.24 728.11 326.518 716.279C309.131 728.03 290.575 737.637 271.153 744.85Z" fill="url(#paint0_linear)"/>
<path fill-rule="evenodd" clip-rule="evenodd" d="M621.498 133.628C621.512 133.628 621.526 133.628 621.54 133.627L622.72 132.867C470.3 -127.133 271 77.5671 271 77.5671L271.285 78.0685C271.273 78.0714 271.262 78.0742 271.25 78.0771C385.856 279.01 603.664 145.087 621.498 133.628Z" fill="url(#paint1_linear)"/>
<path d="M432.56 581.44C390.56 681.84 309.92 748.32 212.22 758.39C210.12 758.67 183.38 760.78 168.62 759.69C284.5 844.41 421.21 858.56 421.21 858.56C450.48 861.56 483.61 864.02 516.86 863.15C528.57 832.58 535.16 797.58 533.27 757.87C528.88 665.64 582.36 618.29 640.27 594C610.59 548.11 588.44 492.53 573.27 440.5C528.05 452.53 470.62 490.36 432.56 581.44Z" fill="url(#paint2_linear)"/>
<path d="M531.44 757.22C533.34 796.93 525.38 832.76 513.67 863.33C599.52 861.07 689.35 836.56 712.28 743.28C717.14 723.49 717.76 701.98 709.68 683.28C701.8 665.06 686.61 651.28 673.13 636.7C660.519 622.769 649.084 607.818 638.94 592C581.08 616.3 527.05 665 531.44 757.22Z" fill="url(#paint3_linear)"/>
<path d="M570.28 430.23C557.09 394.93 545.86 359.59 528.79 326.72C523.082 315.628 516.627 304.937 509.47 294.72C492.21 270.26 473.84 246.44 451.76 226.16C413.76 226.27 374.05 219.89 337.76 201.27C301 253.41 258.94 341.86 297.44 442.82C354.29 591.92 238.92 693.82 164.88 756.91L168.62 759.69C182.502 760.773 196.455 760.573 210.3 759.09C307.99 749.01 393.3 680.93 435.3 580.54C473.37 489.46 528.75 454.86 573.91 442.82C572.637 438.62 571.427 434.423 570.28 430.23Z" fill="url(#paint4_linear)"/>
<path d="M86.09 231.67C29.49 293.67 -0.350001 380.86 0.679999 465.95C1.27 515.46 14.3 562.04 35.68 604.83C38.887 611.25 42.287 617.583 45.88 623.83C164.87 504.39 121.88 326.42 86.09 231.67Z" fill="url(#paint5_linear)"/>
<path d="M299.44 442.82C260.94 341.82 302.06 253.95 338.77 201.82C314.561 189.357 293.024 172.28 275.37 151.55C246.768 151.001 218.283 155.354 191.15 164.42C147.87 178.75 111.31 203.92 82.06 235.96C117.06 328.63 159.12 502.72 42.76 619.54C64.86 658.14 93.76 693.3 126.24 724.3C139.051 736.513 152.625 747.899 166.88 758.39C240.92 695.33 356.29 591.92 299.44 442.82Z" fill="url(#paint6_linear)"/>
<path d="M443 94.13C523.57 125.92 580 134.53 620.91 133.3L622.09 132.54C469.67 -127.46 270.37 77.24 270.37 77.24L270.66 77.75C313.65 70.13 376.13 67.76 443 94.13Z" fill="url(#paint7_linear)"/>
<path d="M444 92.33C377.17 66 314.33 67 270.62 77.75C385.23 278.69 603.05 144.75 620.87 133.3C579.93 134.53 524.57 124.12 444 92.33Z" fill="url(#paint8_linear)"/>
<defs>
<linearGradient id="paint0_linear" x1="-88.5" y1="273.5" x2="843.5" y2="832" gradientUnits="userSpaceOnUse">
<stop stop-color="#E54033"/>
<stop offset="0.489583" stop-color="#FECA1A"/>
<stop offset="1" stop-color="#AFD803"/>
</linearGradient>
<linearGradient id="paint1_linear" x1="263632" y1="31154.5" x2="205286" y2="-28862.6" gradientUnits="userSpaceOnUse">
<stop offset="0.15" stop-color="#6CBF00"/>
<stop offset="1" stop-color="#AFD803"/>
</linearGradient>
<linearGradient id="paint2_linear" x1="72.43" y1="766.73" x2="656.43" y2="624.73" gradientUnits="userSpaceOnUse">
<stop offset="0.21" stop-color="#E54033"/>
<stop offset="0.84" stop-color="#FECA1A"/>
</linearGradient>
<linearGradient id="paint3_linear" x1="532.54" y1="727.34" x2="712.74" y2="728.69" gradientUnits="userSpaceOnUse">
<stop stop-color="#FECA1A"/>
<stop offset="0.4" stop-color="#FECA1A"/>
<stop offset="1" stop-color="#AFD803"/>
</linearGradient>
<linearGradient id="paint4_linear" x1="124.65" y1="770.37" x2="494.1" y2="270.2" gradientUnits="userSpaceOnUse">
<stop offset="0.16" stop-color="#E54033"/>
<stop offset="0.84" stop-color="#FECA1A"/>
</linearGradient>
<linearGradient id="paint5_linear" x1="70.85" y1="273.39" x2="54.49" y2="596.45" gradientUnits="userSpaceOnUse">
<stop stop-color="#FECA1A"/>
<stop offset="0.76" stop-color="#E54033"/>
</linearGradient>
<linearGradient id="paint6_linear" x1="251.58" y1="189.5" x2="152.91" y2="564.17" gradientUnits="userSpaceOnUse">
<stop offset="0.16" stop-color="#FECA1A"/>
<stop offset="1" stop-color="#E54033"/>
</linearGradient>
<linearGradient id="paint7_linear" x1="289.8" y1="10.1199" x2="655.13" y2="144.78" gradientUnits="userSpaceOnUse">
<stop offset="0.15" stop-color="#6CBF00"/>
<stop offset="1" stop-color="#AFD803"/>
</linearGradient>
<linearGradient id="paint8_linear" x1="263631" y1="31154.2" x2="205285" y2="-28862.9" gradientUnits="userSpaceOnUse">
<stop offset="0.15" stop-color="#6CBF00"/>
<stop offset="1" stop-color="#AFD803"/>
</linearGradient>
</defs>
</svg>
