<svg xmlns="http://www.w3.org/2000/svg" width="384" height="128" fill="none"><path fill="#fff" d="M182.312 84.568c-4.68 0-8.712-2.952-14.544-13.68l-1.512-2.808c8.712-.504 13.824-6.12 13.824-13.968 0-8.856-6.048-14.112-16.488-14.112H143v50.04h6.12V68.152h10.296l2.952 5.4c6.84 12.96 11.592 16.632 19.728 16.632.576 0 1.08-.072 1.584-.144v-5.688c-.36.144-.792.216-1.368.216ZM163.592 45.4c6.84 0 10.152 3.096 10.152 8.712 0 5.472-3.24 8.64-10.152 8.64H149.12V45.4h14.472ZM217.874 78.088c-2.376 4.752-5.616 7.632-11.16 7.632-6.84 0-11.016-4.464-11.376-11.592h26.712c.072-.432.072-1.296.072-1.944 0-10.512-6.048-17.568-15.984-17.568-9.792 0-17.064 7.416-17.064 18.144 0 10.656 7.488 18.144 17.64 18.144 8.208 0 13.032-4.536 15.768-9.936l-4.608-2.88Zm-11.808-18.36c6.048 0 9.36 3.384 9.864 9.576h-20.448c.792-5.976 4.824-9.576 10.584-9.576ZM243.916 90.904c4.032 0 7.92-1.872 10.44-5.328v4.464h5.976V68.368c0-8.928-5.76-13.752-14.04-13.752-7.92 0-13.608 4.536-15.408 11.88l5.4 1.512c1.296-5.4 4.32-8.208 9.936-8.208 5.112 0 8.136 3.312 8.136 8.784v4.536a15.167 15.167 0 0 0-10.44-4.104c-7.704 0-13.248 4.896-13.248 10.944 0 6.768 5.544 10.944 13.248 10.944Zm.576-4.968c-4.536 0-7.488-2.448-7.488-5.976 0-3.456 2.952-5.904 7.488-5.904 4.176 0 7.704 2.304 9.864 4.824v1.296c-2.304 3.312-5.688 5.76-9.864 5.76ZM278.563 90.04V40h-5.976v50.04h5.976ZM331.505 54.616c-5.112 0-9.576 1.656-12.6 6.192-1.944-4.248-5.904-6.192-11.016-6.192-4.608 0-8.496 1.872-10.872 5.184v-4.32h-5.976v34.56h5.976V69.16c0-6.048 4.176-9.36 9.504-9.36 5.328 0 8.136 3.312 8.136 9.432V90.04h5.976V69.232c0-6.12 4.176-9.432 9.504-9.432 5.328 0 8.208 3.312 8.208 9.432V90.04h5.976V68.656c0-8.64-4.608-14.04-12.816-14.04ZM369.637 90.904c7.92 0 13.896-3.744 13.896-10.584 0-7.128-5.472-9-11.232-10.008l-4.104-.72c-4.824-.792-6.624-2.016-6.624-5.112s2.808-4.896 7.56-4.896c5.544 0 8.064 3.168 8.784 6.48l5.4-1.44c-1.008-5.688-5.472-10.008-13.968-10.008-8.424 0-13.608 3.888-13.608 9.936 0 7.416 5.616 9.288 11.52 10.368l4.032.648c4.392.792 6.048 1.872 6.048 4.824 0 3.744-3.24 5.544-7.56 5.544-5.472 0-9.648-2.088-10.224-8.28l-5.544 1.008c.144 8.424 7.344 12.24 15.624 12.24Z"/><path fill="#00C2FF" d="M86.663 112.55c-.581.223-1.049-.488-.637-.956C97.213 98.906 104 82.245 104 63.999c0-18.245-6.787-34.906-17.974-47.595-.412-.467.056-1.179.638-.955C106.162 22.95 120 41.86 120 64c0 22.141-13.838 41.05-33.337 48.551Z"/><path fill="url(#a)" d="M90.956 33.434c.26.59-.565 1.184-1.087.804C87.44 32.468 83.132 30 78 30c-10 0-24 12-24 34s10 34 22 34a24.507 24.507 0 0 0 13.837-4.28c.532-.365 1.378.255 1.119.846C84.49 109.266 71.263 120 56 120 31.7 120 8 94.928 8 64S31.7 8 56 8c15.263 0 28.49 10.734 34.956 25.434Z"/><defs><radialGradient id="a" cx="0" cy="0" r="1" gradientTransform="matrix(-60.4267 0 0 -80.569 76 64)" gradientUnits="userSpaceOnUse"><stop offset=".156" stop-color="#006585"/><stop offset="1" stop-color="#00C2FF"/></radialGradient></defs></svg>