<svg width="65" height="64" fill="none" xmlns="http://www.w3.org/2000/svg"><path fill-rule="evenodd" clip-rule="evenodd" d="M4.996 28.428C6.758 14.806 18.459 4.267 32.65 4.267c14.061 0 25.682 10.35 27.605 23.79a2.133 2.133 0 0 0 4.223-.604C62.258 11.925 48.848 0 32.65 0 14.904 0 .5 14.317.5 32c0 8.044 2.985 15.398 7.907 21.018a2.133 2.133 0 0 0 3.323-.142l11.63-15.82 7.618 2.982a2.133 2.133 0 0 0 2.372-.57l12.356-13.902 13.993 13.2c-3.034 12.04-13.99 20.967-27.049 20.967a27.852 27.852 0 0 1-15.045-4.379 2.133 2.133 0 0 0-2.297 3.596A32.12 32.12 0 0 0 32.65 64c15.25 0 28.025-10.568 31.324-24.76.03-.128.047-.257.053-.384a2.134 2.134 0 0 0-.512-2.356l-16.48-15.546a2.133 2.133 0 0 0-3.058.135l-7.155 8.051-15.539-11.326a2.133 2.133 0 0 0-2.559.034L4.996 28.428Zm-.162 5.512a27.48 27.48 0 0 0 5.11 14.162l10.949-14.893a2.133 2.133 0 0 1 2.496-.723l7.76 3.037 2.825-3.179-13.912-10.14L4.834 33.94Z" fill="#E1CE7A"/></svg>