<svg width="96" height="32" viewBox="0 0 96 32" fill="none" xmlns="http://www.w3.org/2000/svg">
<path d="M21.7108 8.01962C21.1705 7.88502 20.6666 7.63362 20.235 7.28326C19.8033 6.9329 19.4544 6.49219 19.2131 5.99244C18.803 5.14444 18.3409 4.32239 17.8293 3.53095C17.4564 2.95917 16.9176 2.51378 16.2846 2.25388C15.6515 1.99398 14.9541 1.93184 14.2847 2.07571C11.08 2.7624 8.2097 4.52474 6.15458 7.06748C4.09945 9.61022 2.98439 12.7789 2.99619 16.0427C3.00798 19.3065 4.14592 22.4671 6.21936 24.995C8.29281 27.523 11.1758 29.2647 14.3854 29.9284C15.0538 30.0681 15.7491 30.0024 16.3792 29.7399C17.0093 29.4774 17.5445 29.0305 17.9139 28.4585C18.4177 27.6674 18.8722 26.8463 19.2748 25.9997C19.5138 25.4979 19.8607 25.0547 20.291 24.7013C20.7212 24.348 21.2243 24.0932 21.7645 23.9551C23.5423 23.4996 25.1169 22.4669 26.2393 21.0205C27.3616 19.574 27.9676 17.7964 27.9614 15.9686C27.9553 14.1408 27.3373 12.3672 26.2052 10.9283C25.0732 9.48939 23.4917 8.46729 21.7108 8.02363V8.01962ZM20.2586 22.5854C20.118 22.9861 19.8371 23.323 19.4674 23.5343C19.0977 23.7456 18.6638 23.8172 18.2454 23.736C16.4436 23.3846 14.8204 22.4208 13.6535 21.0094C12.4867 19.598 11.8487 17.8268 11.8487 15.9987C11.8487 14.1707 12.4867 12.3994 13.6535 10.988C14.8204 9.57666 16.4436 8.61284 18.2454 8.26149C18.6638 8.17995 19.0978 8.25141 19.4676 8.46276C19.8374 8.6741 20.1183 9.01116 20.2586 9.41205C21.7598 13.676 21.7598 18.3215 20.2586 22.5854V22.5854Z" fill="#00C2FF"/>
<mask id="mask0_5407_6483" style="mask-type:alpha" maskUnits="userSpaceOnUse" x="2" y="2" width="26" height="28">
<path d="M21.7108 8.01962C21.1705 7.88502 20.6666 7.63362 20.235 7.28326C19.8033 6.9329 19.4544 6.49219 19.2131 5.99244C18.803 5.14444 18.3409 4.32239 17.8293 3.53095C17.4564 2.95917 16.9176 2.51378 16.2846 2.25388C15.6515 1.99398 14.9541 1.93184 14.2847 2.07571C11.08 2.7624 8.2097 4.52474 6.15458 7.06748C4.09945 9.61022 2.98439 12.7789 2.99619 16.0427C3.00798 19.3065 4.14592 22.4671 6.21936 24.995C8.29281 27.523 11.1758 29.2647 14.3854 29.9284C15.0538 30.0681 15.7491 30.0024 16.3792 29.7399C17.0093 29.4774 17.5445 29.0305 17.9139 28.4585C18.4177 27.6674 18.8722 26.8463 19.2748 25.9997C19.5138 25.4979 19.8607 25.0547 20.291 24.7013C20.7212 24.348 21.2243 24.0932 21.7645 23.9551C23.5423 23.4996 25.1169 22.4669 26.2393 21.0205C27.3616 19.574 27.9676 17.7964 27.9614 15.9686C27.9553 14.1408 27.3373 12.3672 26.2052 10.9283C25.0732 9.48939 23.4917 8.46729 21.7108 8.02363V8.01962ZM20.2586 22.5854C20.118 22.9861 19.8371 23.323 19.4674 23.5343C19.0977 23.7456 18.6638 23.8172 18.2454 23.736C16.4436 23.3846 14.8204 22.4208 13.6535 21.0094C12.4867 19.598 11.8487 17.8268 11.8487 15.9987C11.8487 14.1707 12.4867 12.3994 13.6535 10.988C14.8204 9.57666 16.4436 8.61284 18.2454 8.26149C18.6638 8.17995 19.0978 8.25141 19.4676 8.46276C19.8374 8.6741 20.1183 9.01116 20.2586 9.41205C21.7598 13.676 21.7598 18.3215 20.2586 22.5854V22.5854Z" fill="#00C2FF"/>
</mask>
<g mask="url(#mask0_5407_6483)">
<ellipse cx="-2.38367" cy="15.9898" rx="23.7433" ry="23.8746" fill="url(#paint0_radial_5407_6483)"/>
</g>
<path d="M45.7636 21.142C44.5952 21.142 43.5886 20.404 42.1326 17.722L41.7552 17.02C43.9301 16.894 45.2064 15.49 45.2064 13.528C45.2064 11.314 43.6965 10 41.0901 10H35.9492V22.51H37.4771V17.038H40.0475L40.7845 18.388C42.4921 21.628 43.6785 22.546 45.7097 22.546C45.8535 22.546 45.9793 22.528 46.1051 22.51V21.088C46.0153 21.124 45.9074 21.142 45.7636 21.142ZM41.0901 11.35C42.7977 11.35 43.6246 12.124 43.6246 13.528C43.6246 14.896 42.8157 15.688 41.0901 15.688H37.4771V11.35H41.0901Z" fill="white"/>
<path d="M54.6417 19.522C54.0485 20.71 53.2396 21.43 51.8555 21.43C50.1479 21.43 49.1054 20.314 49.0155 18.532H55.6842C55.7022 18.424 55.7022 18.208 55.7022 18.046C55.7022 15.418 54.1923 13.654 51.7117 13.654C49.2671 13.654 47.4517 15.508 47.4517 18.19C47.4517 20.854 49.3211 22.726 51.8555 22.726C53.9047 22.726 55.109 21.592 55.7921 20.242L54.6417 19.522ZM51.6938 14.932C53.2037 14.932 54.0305 15.778 54.1564 17.326H49.0514C49.2492 15.832 50.2558 14.932 51.6938 14.932Z" fill="white"/>
<path d="M61.1433 22.726C62.1499 22.726 63.1205 22.258 63.7496 21.394V22.51H65.2416V17.092C65.2416 14.86 63.8036 13.654 61.7364 13.654C59.7592 13.654 58.3391 14.788 57.8898 16.624L59.2379 17.002C59.5614 15.652 60.3164 14.95 61.7185 14.95C62.9947 14.95 63.7496 15.778 63.7496 17.146V18.28C63.1924 17.758 62.3116 17.254 61.1433 17.254C59.2199 17.254 57.8358 18.478 57.8358 19.99C57.8358 21.682 59.2199 22.726 61.1433 22.726ZM61.2871 21.484C60.1546 21.484 59.4176 20.872 59.4176 19.99C59.4176 19.126 60.1546 18.514 61.2871 18.514C62.3296 18.514 63.2104 19.09 63.7496 19.72V20.044C63.1744 20.872 62.3296 21.484 61.2871 21.484Z" fill="white"/>
<path d="M69.7931 22.51V10H68.3012V22.51H69.7931Z" fill="white"/>
<path d="M83.0101 13.654C81.7338 13.654 80.6194 14.068 79.8644 15.202C79.3791 14.14 78.3905 13.654 77.1143 13.654C75.9638 13.654 74.9932 14.122 74.4 14.95V13.87H72.9081V22.51H74.4V17.29C74.4 15.778 75.4426 14.95 76.7727 14.95C78.1029 14.95 78.8039 15.778 78.8039 17.308V22.51H80.2958V17.308C80.2958 15.778 81.3384 14.95 82.6685 14.95C83.9987 14.95 84.7177 15.778 84.7177 17.308V22.51H86.2096V17.164C86.2096 15.004 85.0592 13.654 83.0101 13.654Z" fill="white"/>
<path d="M92.5299 22.726C94.5072 22.726 95.9991 21.79 95.9991 20.08C95.9991 18.298 94.633 17.83 93.195 17.578L92.1704 17.398C90.9661 17.2 90.5167 16.894 90.5167 16.12C90.5167 15.346 91.2177 14.896 92.4041 14.896C93.7882 14.896 94.4173 15.688 94.597 16.516L95.9452 16.156C95.6935 14.734 94.5791 13.654 92.458 13.654C90.3549 13.654 89.0607 14.626 89.0607 16.138C89.0607 17.992 90.4628 18.46 91.9367 18.73L92.9433 18.892C94.0398 19.09 94.4532 19.36 94.4532 20.098C94.4532 21.034 93.6444 21.484 92.5659 21.484C91.1998 21.484 90.1572 20.962 90.0134 19.414L88.6293 19.666C88.6653 21.772 90.4628 22.726 92.5299 22.726Z" fill="white"/>
<defs>
<radialGradient id="paint0_radial_5407_6483" cx="0" cy="0" r="1" gradientUnits="userSpaceOnUse" gradientTransform="translate(21.3596 15.9898) rotate(-180) scale(18.3639 18.4655)">
<stop offset="0.185826" stop-color="#006585"/>
<stop offset="0.92791" stop-color="#00C2FF"/>
</radialGradient>
</defs>
</svg>
