<svg width="385" height="128" viewBox="0 0 385 128" fill="none" xmlns="http://www.w3.org/2000/svg">
<path d="M86.9627 32.0785C84.7986 31.5401 82.7803 30.5345 81.0511 29.133C79.322 27.7316 77.9245 25.9688 76.9579 23.9698C75.3154 20.5778 73.4643 17.2896 71.4152 14.1238C69.9213 11.8367 67.7634 10.0551 65.2276 9.01553C62.6919 7.97592 59.8982 7.72736 57.2171 8.30284C44.3806 11.0496 32.8833 18.099 24.6515 28.2699C16.4196 38.4409 11.9531 51.1156 12.0004 64.1707C12.0476 77.2259 16.6057 89.8683 24.911 99.9801C33.2163 110.092 44.7643 117.059 57.6203 119.714C60.2979 120.272 63.083 120.009 65.6069 118.959C68.1308 117.909 70.2744 116.122 71.7539 113.834C73.772 110.67 75.5926 107.385 77.2052 103.999C78.1625 101.992 79.5521 100.219 81.2755 98.8054C82.9989 97.392 85.014 96.373 87.1777 95.8204C94.299 93.9982 100.606 89.8677 105.102 84.0819C109.597 78.2962 112.024 71.1855 112 63.8743C111.975 56.5632 109.5 49.4688 104.965 43.7132C100.431 37.9576 94.0961 33.8692 86.9627 32.0945V32.0785ZM81.1458 90.3416C80.5828 91.9445 79.4577 93.292 77.9766 94.1373C76.4956 94.9825 74.7579 95.2689 73.0818 94.9438C65.8646 93.5384 59.3629 89.6831 54.689 84.0376C50.0151 78.392 47.4595 71.3071 47.4595 63.9949C47.4595 56.6827 50.0151 49.5978 54.689 43.9522C59.3629 38.3066 65.8646 34.4514 73.0818 33.046C74.758 32.7198 76.4962 33.0056 77.9775 33.851C79.4588 34.6964 80.5837 36.0446 81.1458 37.6482C87.159 54.7039 87.159 73.2859 81.1458 90.3416Z" fill="#00C2FF"/>
<mask id="mask0_4624_72633" style="mask-type:alpha" maskUnits="userSpaceOnUse" x="12" y="8" width="100" height="112">
<path d="M86.9627 32.0785C84.7986 31.5401 82.7803 30.5345 81.0511 29.133C79.322 27.7316 77.9245 25.9688 76.9579 23.9698C75.3154 20.5778 73.4643 17.2896 71.4152 14.1238C69.9213 11.8367 67.7634 10.0551 65.2276 9.01553C62.6919 7.97592 59.8982 7.72736 57.2171 8.30284C44.3806 11.0496 32.8833 18.099 24.6515 28.2699C16.4196 38.4409 11.9531 51.1156 12.0004 64.1707C12.0476 77.2259 16.6057 89.8683 24.911 99.9801C33.2163 110.092 44.7643 117.059 57.6203 119.714C60.2979 120.272 63.083 120.009 65.6069 118.959C68.1308 117.909 70.2744 116.122 71.7539 113.834C73.772 110.67 75.5926 107.385 77.2052 103.999C78.1625 101.992 79.5521 100.219 81.2755 98.8054C82.9989 97.392 85.014 96.373 87.1777 95.8204C94.299 93.9982 100.606 89.8677 105.102 84.0819C109.597 78.2962 112.024 71.1855 112 63.8743C111.975 56.5632 109.5 49.4688 104.965 43.7132C100.431 37.9576 94.0961 33.8692 86.9627 32.0945V32.0785ZM81.1458 90.3416C80.5828 91.9445 79.4577 93.292 77.9766 94.1373C76.4956 94.9825 74.7579 95.2689 73.0818 94.9438C65.8646 93.5384 59.3629 89.6831 54.689 84.0376C50.0151 78.392 47.4595 71.3071 47.4595 63.9949C47.4595 56.6827 50.0151 49.5978 54.689 43.9522C59.3629 38.3066 65.8646 34.4514 73.0818 33.046C74.758 32.7198 76.4962 33.0056 77.9775 33.851C79.4588 34.6964 80.5837 36.0446 81.1458 37.6482C87.159 54.7039 87.159 73.2859 81.1458 90.3416Z" fill="#00C2FF"/>
</mask>
<g mask="url(#mask0_4624_72633)">
<ellipse cx="-9.5472" cy="63.9559" rx="95.1049" ry="95.4984" fill="url(#paint0_radial_4624_72633)"/>
</g>
<path d="M183.312 84.568C178.632 84.568 174.6 81.616 168.768 70.888L167.256 68.08C175.968 67.576 181.08 61.96 181.08 54.112C181.08 45.256 175.032 40 164.592 40H144V90.04H150.12V68.152H160.416L163.368 73.552C170.208 86.512 174.96 90.184 183.096 90.184C183.672 90.184 184.176 90.112 184.68 90.04V84.352C184.32 84.496 183.888 84.568 183.312 84.568ZM164.592 45.4C171.432 45.4 174.744 48.496 174.744 54.112C174.744 59.584 171.504 62.752 164.592 62.752H150.12V45.4H164.592Z" fill="#201F27"/>
<path d="M218.874 78.088C216.498 82.84 213.258 85.72 207.714 85.72C200.874 85.72 196.698 81.256 196.338 74.128H223.05C223.122 73.696 223.122 72.832 223.122 72.184C223.122 61.672 217.074 54.616 207.138 54.616C197.346 54.616 190.074 62.032 190.074 72.76C190.074 83.416 197.562 90.904 207.714 90.904C215.922 90.904 220.746 86.368 223.482 80.968L218.874 78.088ZM207.066 59.728C213.114 59.728 216.426 63.112 216.93 69.304H196.482C197.274 63.328 201.306 59.728 207.066 59.728Z" fill="#201F27"/>
<path d="M244.916 90.904C248.948 90.904 252.836 89.032 255.356 85.576V90.04H261.332V68.368C261.332 59.44 255.572 54.616 247.292 54.616C239.372 54.616 233.684 59.152 231.884 66.496L237.284 68.008C238.58 62.608 241.604 59.8 247.22 59.8C252.332 59.8 255.356 63.112 255.356 68.584V73.12C253.124 71.032 249.596 69.016 244.916 69.016C237.212 69.016 231.668 73.912 231.668 79.96C231.668 86.728 237.212 90.904 244.916 90.904ZM245.492 85.936C240.956 85.936 238.004 83.488 238.004 79.96C238.004 76.504 240.956 74.056 245.492 74.056C249.668 74.056 253.196 76.36 255.356 78.88V80.176C253.052 83.488 249.668 85.936 245.492 85.936Z" fill="#201F27"/>
<path d="M279.563 90.04V40H273.587V90.04H279.563Z" fill="#201F27"/>
<path d="M332.505 54.616C327.393 54.616 322.929 56.272 319.905 60.808C317.961 56.56 314.001 54.616 308.889 54.616C304.281 54.616 300.393 56.488 298.017 59.8V55.48H292.041V90.04H298.017V69.16C298.017 63.112 302.193 59.8 307.521 59.8C312.849 59.8 315.657 63.112 315.657 69.232V90.04H321.633V69.232C321.633 63.112 325.809 59.8 331.137 59.8C336.465 59.8 339.345 63.112 339.345 69.232V90.04H345.321V68.656C345.321 60.016 340.713 54.616 332.505 54.616Z" fill="#201F27"/>
<path d="M370.637 90.904C378.557 90.904 384.533 87.16 384.533 80.32C384.533 73.192 379.061 71.32 373.301 70.312L369.197 69.592C364.373 68.8 362.573 67.576 362.573 64.48C362.573 61.384 365.381 59.584 370.133 59.584C375.677 59.584 378.197 62.752 378.917 66.064L384.317 64.624C383.309 58.936 378.845 54.616 370.349 54.616C361.925 54.616 356.741 58.504 356.741 64.552C356.741 71.968 362.357 73.84 368.261 74.92L372.293 75.568C376.685 76.36 378.341 77.44 378.341 80.392C378.341 84.136 375.101 85.936 370.781 85.936C365.309 85.936 361.133 83.848 360.557 77.656L355.013 78.664C355.157 87.088 362.357 90.904 370.637 90.904Z" fill="#201F27"/>
<defs>
<radialGradient id="paint0_radial_4624_72633" cx="0" cy="0" r="1" gradientUnits="userSpaceOnUse" gradientTransform="translate(85.5577 63.956) rotate(-180) scale(73.5577 73.8621)">
<stop offset="0.185826" stop-color="#006585"/>
<stop offset="0.92791" stop-color="#00C2FF"/>
</radialGradient>
</defs>
</svg>
