<svg width="50" height="50" viewBox="0 0 50 50" fill="none" xmlns="http://www.w3.org/2000/svg">
<path d="M50 25C50 38.8071 38.8071 50 25 50C11.1929 50 0 38.8071 0 25C0 11.1929 11.1929 0 25 0C38.8071 0 50 11.1929 50 25Z" fill="#FFD15C"/>
<path d="M12.8911 35.2445C13.1068 35.0981 13.3081 34.8786 13.4084 34.567C13.5198 34.2208 13.4541 33.9161 13.4019 33.7475C13.4002 33.7418 13.3984 33.7362 13.3966 33.7305L13.4382 33.4879C13.5529 33.5524 13.685 33.6392 13.8358 33.7452C13.8721 33.7707 13.9228 33.8069 13.9757 33.8446C14.0451 33.8941 14.1182 33.9463 14.167 33.9803C14.2506 34.0384 14.3696 34.1196 14.4955 34.1865C17.8293 36.2585 20.5864 37.1128 22.7763 37.007C25.0403 36.8976 26.628 35.7586 27.447 34.0965C28.2385 32.4899 28.2661 30.4991 27.7114 28.6549C27.1531 26.7987 25.9789 24.9949 24.2287 23.7466C21.2794 21.6431 18.5771 18.4447 17.2106 15.725C16.5166 14.3439 16.2405 13.2299 16.3134 12.5026C16.3473 12.1642 16.451 11.9594 16.5751 11.8276C16.6992 11.6957 16.9254 11.5503 17.3611 11.4785C18.2842 11.3265 19.3517 10.994 20.435 10.6567C20.8556 10.5257 21.2786 10.394 21.6965 10.2718C23.2579 9.81521 24.9111 9.43162 26.6486 9.43488C30.0188 9.44121 33.9739 10.9044 38.1383 16.9913C43.4878 24.8105 40.5508 33.5481 34.3881 38.1383C31.3147 40.4275 27.48 41.6426 23.5396 41.1806C19.9916 40.7646 16.2755 38.9791 12.8911 35.2445ZM13.5115 33.2208C13.5116 33.2209 13.5104 33.2233 13.5077 33.2273C13.5101 33.2226 13.5115 33.2206 13.5115 33.2208ZM13.1767 33.3735C13.1765 33.3733 13.1799 33.3736 13.1874 33.3754C13.1805 33.3747 13.1768 33.3738 13.1767 33.3735Z" fill="white" stroke="black" stroke-width="2.01315"/>
<path d="M15.9536 11.8777C15.9536 11.8777 25.5104 9.33301 27.6028 9.33301C29.6951 9.33301 38.056 13.3931 40.496 20.8125C43.9551 31.3307 34.5464 38.2272 33.4839 37.5511C43.6062 29.1818 27.0373 13.7117 18.8942 14.8748C17.8763 15.0202 18.4418 15.8927 18.4418 15.8927L18.2156 18.1547L16.5191 15.3272L15.9536 11.8777Z" fill="black"/>
<path d="M39.1035 17.6487C42.1215 22.9612 41.4942 19.9196 40.8243 25.9927C42.0641 23.9872 44.0026 25.4889 44.8032 26.2557C44.9467 26.3931 45.1835 26.3079 45.1768 26.1094C45.1463 25.2085 44.8881 23.262 43.3969 21.1737C41.3522 18.3101 39.1035 17.6487 39.1035 17.6487Z" fill="black"/>
<path d="M40.8243 25.9927C41.4942 19.9196 42.1215 22.9612 39.1035 17.6487C39.1035 17.6487 41.3522 18.3101 43.3969 21.1737C44.8881 23.262 45.1463 25.2085 45.1768 26.1094C45.1835 26.3079 44.9467 26.3931 44.8032 26.2557C44.0026 25.4889 42.0641 23.9872 40.8243 25.9927ZM40.8243 25.9927C40.9397 25.7076 41.1198 25.2626 41.1198 25.2626" stroke="black" stroke-width="0.113098"/>
<path d="M14.8229 25.1826C13.5496 27.3384 10.9371 27.1767 10.9871 29.7479C13.3206 34.9323 13.3344 34.5604 13.3344 34.5604C17.6567 32.1323 15.8805 26.7707 15.2391 25.1938C15.1666 25.0155 14.9207 25.0169 14.8229 25.1826Z" fill="black"/>
<path d="M5.02495 29.949C7.50763 30.2729 8.98863 28.1146 10.984 29.737C13.6327 34.7677 13.3312 34.5496 13.3312 34.5496C8.75665 36.4608 5.62528 31.7601 4.77752 30.2839C4.68169 30.117 4.83415 29.9241 5.02495 29.949Z" fill="black"/>
<path d="M25.8496 26.7505C25.8496 26.7505 28.3378 29.2955 27.0371 29.6911C25.4153 28.6928 22.5091 29.4686 21.0845 29.949C20.7338 30.0673 20.39 29.756 20.5164 29.4082C21.0008 28.0753 22.1969 25.608 24.4924 25.2802C25.8496 24.9407 25.8496 26.7505 25.8496 26.7505Z" fill="black"/>
<path d="M27.3763 14.3094C27.0936 13.9135 26.5281 12.8391 28.2811 12.8391C30.0342 12.8391 32.7128 14.8241 33.2575 15.5583C33.0878 16.0059 31.9568 16.1059 31.3913 16.0624C30.8258 16.0189 29.8645 15.9259 29.1294 15.5583C28.3942 15.1908 27.6591 14.7052 27.3763 14.3094Z" fill="white"/>
</svg>
