<svg width="1711" height="439" viewBox="0 0 1711 439" fill="none" xmlns="http://www.w3.org/2000/svg">
<path d="M700.3 335C678.9 335 659.6 330.4 642.4 321.2C625.2 311.8 611.7 298.9 601.9 282.5C592.1 265.9 587.2 247.4 587.2 227C587.2 206.6 592.1 188.2 601.9 171.8C611.7 155.2 625.2 142.3 642.4 133.1C659.6 123.7 678.9 119 700.3 119C721.7 119 741 123.7 758.2 133.1C775.4 142.3 788.9 155.1 798.7 171.5C808.5 187.9 813.4 206.4 813.4 227C813.4 247.6 808.5 266.1 798.7 282.5C788.9 298.9 775.4 311.8 758.2 321.2C741 330.4 721.7 335 700.3 335ZM700.3 300.8C714.3 300.8 726.9 297.7 738.1 291.5C749.3 285.1 758.1 276.3 764.5 265.1C770.9 253.7 774.1 241 774.1 227C774.1 213 770.9 200.4 764.5 189.2C758.1 177.8 749.3 169 738.1 162.8C726.9 156.4 714.3 153.2 700.3 153.2C686.3 153.2 673.7 156.4 662.5 162.8C651.3 169 642.5 177.8 636.1 189.2C629.7 200.4 626.5 213 626.5 227C626.5 241 629.7 253.7 636.1 265.1C642.5 276.3 651.3 285.1 662.5 291.5C673.7 297.7 686.3 300.8 700.3 300.8ZM1070.14 332L1027.24 270.5C1025.44 270.7 1022.74 270.8 1019.14 270.8H971.739V332H932.739V122H1019.14C1037.34 122 1053.14 125 1066.54 131C1080.14 137 1090.54 145.6 1097.74 156.8C1104.94 168 1108.54 181.3 1108.54 196.7C1108.54 212.5 1104.64 226.1 1096.84 237.5C1089.24 248.9 1078.24 257.4 1063.84 263L1112.14 332H1070.14ZM1069.24 196.7C1069.24 183.3 1064.84 173 1056.04 165.8C1047.24 158.6 1034.34 155 1017.34 155H971.739V238.7H1017.34C1034.34 238.7 1047.24 235.1 1056.04 227.9C1064.84 220.5 1069.24 210.1 1069.24 196.7ZM1327.37 335C1306.17 335 1286.97 330.4 1269.77 321.2C1252.77 311.8 1239.37 298.9 1229.57 282.5C1219.97 266.1 1215.17 247.6 1215.17 227C1215.17 206.4 1220.07 187.9 1229.87 171.5C1239.67 155.1 1253.07 142.3 1270.07 133.1C1287.27 123.7 1306.47 119 1327.67 119C1344.87 119 1360.57 122 1374.77 128C1388.97 134 1400.97 142.7 1410.77 154.1L1385.57 177.8C1370.37 161.4 1351.67 153.2 1329.47 153.2C1315.07 153.2 1302.17 156.4 1290.77 162.8C1279.37 169 1270.47 177.7 1264.07 188.9C1257.67 200.1 1254.47 212.8 1254.47 227C1254.47 241.2 1257.67 253.9 1264.07 265.1C1270.47 276.3 1279.37 285.1 1290.77 291.5C1302.17 297.7 1315.07 300.8 1329.47 300.8C1351.67 300.8 1370.37 292.5 1385.57 275.9L1410.77 299.9C1400.97 311.3 1388.87 320 1374.47 326C1360.27 332 1344.57 335 1327.37 335ZM1617.64 119C1636.44 119 1652.84 122.7 1666.84 130.1C1680.84 137.5 1691.64 148.5 1699.24 163.1C1707.04 177.5 1710.94 195 1710.94 215.6V332H1671.94V278H1562.74V332H1524.34V215.6C1524.34 195 1528.14 177.5 1535.74 163.1C1543.54 148.5 1554.44 137.5 1568.44 130.1C1582.44 122.7 1598.84 119 1617.64 119ZM1671.94 245.3V212C1671.94 192.6 1667.14 178 1657.54 168.2C1647.94 158.2 1634.54 153.2 1617.34 153.2C1600.14 153.2 1586.74 158.2 1577.14 168.2C1567.54 178 1562.74 192.6 1562.74 212V245.3H1671.94Z" fill="white"/>
<path d="M439 219.5C439 340.727 340.727 439 219.5 439C98.2735 439 0 340.727 0 219.5C0 98.2735 98.2735 0 219.5 0C340.727 0 439 98.2735 439 219.5Z" fill="#FFD15C"/>
<path d="M113.184 309.447C115.078 308.161 116.846 306.233 117.726 303.498C118.704 300.458 118.127 297.783 117.669 296.302C117.654 296.253 117.638 296.203 117.622 296.154L117.987 294.023C118.995 294.59 120.155 295.352 121.478 296.282C121.797 296.506 122.243 296.824 122.707 297.155C123.316 297.59 123.958 298.048 124.386 298.346C125.121 298.857 126.165 299.57 127.271 300.157C156.542 318.35 180.749 325.85 199.976 324.921C219.854 323.96 233.794 313.96 240.985 299.367C247.935 285.261 248.177 267.782 243.306 251.59C238.405 235.293 228.095 219.455 212.728 208.494C186.834 190.026 163.107 161.944 151.109 138.066C145.016 125.939 142.592 116.159 143.232 109.773C143.529 106.801 144.44 105.003 145.529 103.846C146.619 102.688 148.605 101.411 152.431 100.781C160.535 99.4459 169.908 96.5272 179.42 93.5655C183.113 92.4155 186.826 91.259 190.495 90.1862C204.205 86.1772 218.719 82.8093 233.975 82.8379C263.565 82.8935 298.291 95.7404 334.854 149.183C381.823 217.836 356.037 294.552 301.928 334.854C274.943 354.953 241.275 365.621 206.678 361.565C175.526 357.913 142.899 342.236 113.184 309.447ZM118.632 291.678C118.632 291.68 118.622 291.7 118.598 291.735C118.619 291.694 118.631 291.677 118.632 291.678ZM115.691 293.019C115.69 293.017 115.72 293.02 115.785 293.036C115.725 293.029 115.693 293.022 115.691 293.019Z" fill="white" stroke="black" stroke-width="17.6755"/>
<path d="M140.072 104.287C140.072 104.287 223.98 81.9438 242.351 81.9438C260.722 81.9438 334.13 117.591 355.554 182.734C385.924 275.083 303.316 335.635 293.987 329.699C382.861 256.216 237.386 120.389 165.89 130.601C156.953 131.878 161.918 139.538 161.918 139.538L159.932 159.398L145.037 134.573L140.072 104.287Z" fill="black"/>
<path d="M343.329 154.955C369.826 201.6 364.319 174.894 358.437 228.216C369.322 210.607 386.343 223.792 393.372 230.525C394.632 231.732 396.711 230.984 396.652 229.24C396.384 221.331 394.118 204.24 381.025 185.905C363.072 160.762 343.329 154.955 343.329 154.955Z" fill="black"/>
<path d="M358.437 228.216C364.319 174.894 369.826 201.6 343.329 154.955C343.329 154.955 363.072 160.762 381.025 185.905C394.118 204.24 396.384 221.331 396.652 229.24C396.711 230.984 394.632 231.732 393.372 230.525C386.343 223.792 369.322 210.607 358.437 228.216ZM358.437 228.216C359.45 225.713 361.032 221.806 361.032 221.806" stroke="black" stroke-width="0.993005"/>
<path d="M130.146 221.103C118.966 240.031 96.0283 238.611 96.4674 261.186C116.955 306.705 117.076 303.44 117.076 303.44C155.027 282.121 139.431 235.047 133.8 221.201C133.163 219.636 131.005 219.648 130.146 221.103Z" fill="black"/>
<path d="M44.1197 262.952C65.9176 265.796 78.9207 246.846 96.4397 261.091C119.696 305.26 117.048 303.345 117.048 303.345C76.884 320.125 49.3905 278.854 41.9472 265.892C41.1058 264.427 42.4444 262.734 44.1197 262.952Z" fill="black"/>
<path d="M226.959 234.869C226.959 234.869 248.806 257.214 237.386 260.687C223.146 251.923 197.63 258.734 185.122 262.952C182.043 263.991 179.024 261.258 180.134 258.203C184.387 246.501 194.889 224.838 215.043 221.96C226.959 218.979 226.959 234.869 226.959 234.869Z" fill="black"/>
<path d="M240.365 125.636C237.882 122.161 232.918 112.727 248.309 112.727C263.701 112.727 287.219 130.155 292.001 136.602C290.512 140.531 280.582 141.41 275.617 141.028C270.652 140.646 262.211 139.829 255.757 136.602C249.302 133.375 242.848 129.112 240.365 125.636Z" fill="white"/>
</svg>
