<svg width="473" height="523" viewBox="0 0 473 523" fill="none" xmlns="http://www.w3.org/2000/svg">
<mask id="mask0" style="mask-type:alpha" maskUnits="userSpaceOnUse" x="0" y="0" width="473" height="523">
<rect width="473" height="523" fill="url(#paint0_linear)"/>
</mask>
<g mask="url(#mask0)">
<rect opacity="0.08" width="824.317" height="107.382" transform="matrix(0.48818 -0.872743 0.872804 0.48807 -185.238 472.301)" fill="url(#paint1_linear)"/>
<rect opacity="0.08" width="824.317" height="107.382" transform="matrix(0.488195 -0.872735 0.872813 0.488056 287.841 472.301)" fill="url(#paint2_linear)"/>
<rect opacity="0.06" width="824.317" height="107.382" transform="matrix(0.488195 -0.872735 0.872813 0.488056 62.8379 472.301)" fill="url(#paint3_linear)"/>
<rect opacity="0.08" width="677.691" height="47.3732" transform="matrix(0.488195 -0.872735 0.872813 0.488056 22.8241 354.177)" fill="url(#paint4_linear)"/>
</g>
<defs>
<linearGradient id="paint0_linear" x1="236.5" y1="-2.22261e-06" x2="195.448" y2="474.595" gradientUnits="userSpaceOnUse">
<stop stop-color="#161D57"/>
<stop offset="0.23436" stop-color="#0F133C"/>
<stop offset="1" stop-color="#0C1033"/>
</linearGradient>
<linearGradient id="paint1_linear" x1="545.427" y1="50.2234" x2="139.426" y2="-52.569" gradientUnits="userSpaceOnUse">
<stop stop-color="#9EA7E6"/>
<stop offset="1" stop-color="#3745A5" stop-opacity="0"/>
</linearGradient>
<linearGradient id="paint2_linear" x1="545.427" y1="50.2234" x2="139.426" y2="-52.569" gradientUnits="userSpaceOnUse">
<stop stop-color="#9EA7E6"/>
<stop offset="1" stop-color="#3745A5" stop-opacity="0"/>
</linearGradient>
<linearGradient id="paint3_linear" x1="545.427" y1="50.2234" x2="139.426" y2="-52.569" gradientUnits="userSpaceOnUse">
<stop stop-color="#9EA7E6"/>
<stop offset="1" stop-color="#3745A5" stop-opacity="0"/>
</linearGradient>
<linearGradient id="paint4_linear" x1="448.409" y1="22.1569" x2="157.899" y2="-114.909" gradientUnits="userSpaceOnUse">
<stop stop-color="#9EA7E6"/>
<stop offset="1" stop-color="#3745A5" stop-opacity="0"/>
</linearGradient>
</defs>
</svg>
