<svg xmlns="http://www.w3.org/2000/svg" width="48" height="48" fill="none"><g fill="#E1CE7A" clip-path="url(#a)"><path d="M7.8 33.214a1.57 1.57 0 0 1 1.11-.46h38.308c.7 0 1.05.846.555 1.34l-7.567 7.568a1.57 1.57 0 0 1-1.11.459H.785a.785.785 0 0 1-.554-1.34l7.567-7.567ZM7.8 4.959c.301-.29.7-.459 1.11-.459h38.308c.7 0 1.05.845.555 1.34l-7.567 7.567a1.57 1.57 0 0 1-1.11.459H.785a.785.785 0 0 1-.554-1.34L7.799 4.96ZM40.206 18.996a1.57 1.57 0 0 0-1.11-.459H.785c-.7 0-1.05.845-.554 1.34l7.567 7.567c.29.29.688.459 1.11.459h38.309c.7 0 1.05-.845.555-1.34l-7.567-7.567Z"/></g><defs><clipPath id="a"><path fill="#fff" d="M0 0h48v48H0z"/></clipPath></defs></svg>