<svg width="48" height="48" viewBox="0 0 48 48" fill="none" xmlns="http://www.w3.org/2000/svg">
<g clip-path="url(#clip0_1481:2263)">
<path d="M7.79927 33.2135C8.08894 32.9239 8.48723 32.7549 8.90966 32.7549H47.218C47.918 32.7549 48.268 33.5997 47.7732 34.0946L40.2056 41.6621C39.916 41.9518 39.5177 42.1208 39.0953 42.1208H0.786945C0.0869188 42.1208 -0.263094 41.2759 0.231752 40.7811L7.79927 33.2135Z" fill="#E1CE7A"/>
<path d="M7.79927 4.95864C8.10101 4.66897 8.4993 4.5 8.90966 4.5H47.218C47.918 4.5 48.268 5.34486 47.7732 5.8397L40.2056 13.4072C39.916 13.6969 39.5177 13.8659 39.0953 13.8659H0.786945C0.0869188 13.8659 -0.263094 13.021 0.231752 12.5262L7.79927 4.95864Z" fill="#E1CE7A"/>
<path d="M40.2056 18.9957C39.916 18.7061 39.5177 18.5371 39.0953 18.5371H0.786945C0.0869188 18.5371 -0.263094 19.382 0.231752 19.8768L7.79927 27.4443C8.08894 27.734 8.48723 27.903 8.90966 27.903H47.218C47.918 27.903 48.268 27.0581 47.7732 26.5633L40.2056 18.9957Z" fill="#E1CE7A"/>
</g>
<defs>
<clipPath id="clip0_1481:2263">
<rect width="48" height="48" fill="white"/>
</clipPath>
</defs>
</svg>
