<svg id="Layer_1" data-name="Layer 1" xmlns="http://www.w3.org/2000/svg" xmlns:xlink="http://www.w3.org/1999/xlink" viewBox="0 0 946 473"><defs><style>.cls-1{fill:none;}.cls-2{clip-path:url(#clip-path);}.cls-3,.cls-4,.cls-5,.cls-7,.cls-8{isolation:isolate;}.cls-3,.cls-4{opacity:0.21;}.cls-3{fill:url(#linear-gradient);}.cls-4{fill:url(#linear-gradient-2);}.cls-5{fill:#3c499f;}.cls-5,.cls-7{opacity:0.6;}.cls-6{opacity:0.3;}.cls-7,.cls-8{fill:#969dcf;}.cls-8{opacity:0.8;}</style><clipPath id="clip-path"><rect class="cls-1" x="-0.3" y="1.25" width="946.3" height="471.75"/></clipPath><linearGradient id="linear-gradient" x1="-38.08" y1="386.7" x2="300.42" y2="265.36" gradientTransform="matrix(1, 0, 0, -1, 0, 474)" gradientUnits="userSpaceOnUse"><stop offset="0.02" stop-color="#3c499f" stop-opacity="0.12"/><stop offset="0.28" stop-color="#3c499f" stop-opacity="0.78"/><stop offset="0.4" stop-color="#3c499f" stop-opacity="0.92"/><stop offset="0.57" stop-color="#3c499f"/><stop offset="1" stop-color="#3c499f" stop-opacity="0"/></linearGradient><linearGradient id="linear-gradient-2" x1="366.35" y1="433" x2="360.22" y2="306.87" gradientTransform="matrix(1, 0, 0, -1, 0, 474)" gradientUnits="userSpaceOnUse"><stop offset="0" stop-color="#3c499f"/><stop offset="1" stop-color="#3c499f" stop-opacity="0"/></linearGradient></defs><g class="cls-2"><path class="cls-3" d="M-21.87,354.49l-20,42.16L-31.28-7.63,249.68-89,477.37-38.36c27.79,6.17,27.73,45.8-.08,51.89a26.56,26.56,0,0,0-16.2,10.89L424.66,77.34A162.71,162.71,0,0,1,325.44,144l-46,10.07a134.23,134.23,0,0,0-84.32,58.72A134.21,134.21,0,0,1,95.34,274l-3.42.34A141.31,141.31,0,0,0-21.87,354.49Z"/><path class="cls-4" d="M7.69,150.23-3.85,129.34-.3,1.25,742.27-109.66,673.44-57.28A162.83,162.83,0,0,1,588.19-24.6L569.14-23A162.69,162.69,0,0,0,461.9,29.8l-7,7.76A162.65,162.65,0,0,1,347.63,90.4l-38.19,3.13a135.79,135.79,0,0,0-100.7,58.23l-5.63,8.16A115.06,115.06,0,0,1,7.69,150.23Z"/><circle class="cls-5" cx="755.82" cy="174.08" r="1.36"/><circle class="cls-5" cx="779.57" cy="140.15" r="1.36"/><circle class="cls-5" cx="746.73" cy="232.94" r="2.48"/><circle class="cls-5" cx="776.34" cy="197.45" r="1.87"/><g class="cls-6"><circle class="cls-7" cx="310.15" cy="173.44" r="0.64"/><circle class="cls-7" cx="313.34" cy="159.39" r="0.64"/><circle class="cls-7" cx="317.58" cy="145.72" r="1.37"/><circle class="cls-7" cx="315.58" cy="173.8" r="0.88"/></g><g class="cls-6"><circle class="cls-7" cx="395.98" cy="72.36" r="0.64" transform="translate(168.91 404.74) rotate(-66.02)"/><circle class="cls-7" cx="407.52" cy="80.98" r="0.64" transform="translate(167.88 420.4) rotate(-66.02)"/><circle class="cls-7" cx="418.29" cy="90.42" r="1.37" transform="translate(165.65 435.84) rotate(-66.02)"/><circle class="cls-7" cx="393.45" cy="77.17" r="0.88"/></g><g class="cls-6"><circle class="cls-7" cx="497.97" cy="68.9" r="0.64" transform="translate(232.6 495.87) rotate(-66.02)"/><circle class="cls-7" cx="508.83" cy="55.5" r="0.64" transform="translate(251.29 497.84) rotate(-66.02)"/><circle class="cls-7" cx="512.92" cy="76.33" r="0.64" transform="translate(234.69 513.93) rotate(-66.02)"/><circle class="cls-7" cx="488.61" cy="91.9" r="0.64" transform="translate(206.04 500.97) rotate(-66.02)"/><circle class="cls-8" cx="536.86" cy="70.55" r="1.37" transform="translate(254.17 532.38) rotate(-66.02)"/><circle class="cls-8" cx="556.16" cy="85.57" r="1.02"/><circle class="cls-7" cx="505.66" cy="81.43" r="0.88" transform="translate(225.72 510.33) rotate(-66.02)"/></g><g class="cls-6"><circle class="cls-7" cx="704.73" cy="69.22" r="0.64" transform="translate(279.52 635.46) rotate(-58.7)"/><circle class="cls-7" cx="712.05" cy="83.47" r="0.64" transform="translate(270.85 648.56) rotate(-58.7)"/><circle class="cls-7" cx="664.84" cy="102.46" r="0.64" transform="translate(231.94 617.35) rotate(-58.7)"/><circle class="cls-7" cx="690.93" cy="90.11" r="0.64" transform="translate(255.03 633.71) rotate(-58.7)"/><path class="cls-8" d="M592.39,147.55a1.37,1.37,0,1,1,.46,1.88A1.37,1.37,0,0,1,592.39,147.55Z"/><circle class="cls-8" cx="623.13" cy="87.79" r="1.02" transform="translate(224.43 574.65) rotate(-58.7)"/><circle class="cls-7" cx="672.69" cy="98.32" r="0.88" transform="translate(239.25 622.07) rotate(-58.7)"/></g><g class="cls-6"><circle class="cls-8" cx="898.03" cy="117.97" r="1.37" transform="translate(9.32 292.78) rotate(-18.61)"/></g><g class="cls-6"><circle class="cls-7" cx="195.88" cy="110.22" r="0.64"/><circle class="cls-7" cx="192.29" cy="125.84" r="0.64"/><circle class="cls-7" cx="143.95" cy="109.96" r="0.64"/><circle class="cls-7" cx="171.86" cy="117.32" r="0.64"/><circle class="cls-8" cx="59.93" cy="99.1" r="1.37"/><circle class="cls-8" cx="121.49" cy="71.88" r="1.02"/><circle class="cls-7" cx="152.63" cy="111.86" r="0.88"/></g></g></svg>