<?xml version="1.0" encoding="UTF-8"?><svg id="Logos" xmlns="http://www.w3.org/2000/svg" xmlns:xlink="http://www.w3.org/1999/xlink" viewBox="0 0 512 512"><defs><style>.cls-1{fill:url(#linear-gradient-2);}.cls-1,.cls-2{stroke-width:17.64px;}.cls-1,.cls-2,.cls-3{stroke:#fff;stroke-miterlimit:10;}.cls-2{fill:url(#linear-gradient);}.cls-3{fill:url(#linear-gradient-3);stroke-width:15.95295px;}</style><linearGradient id="linear-gradient" x1="158.17865" y1="306.19171" x2="293.78939" y2="95.78352" gradientUnits="userSpaceOnUse"><stop offset="0" stop-color="#39a845"/><stop offset="1" stop-color="#7fd37f"/></linearGradient><linearGradient id="linear-gradient-2" x1="248.40533" y1="432.66891" x2="395.97239" y2="302.15852" gradientUnits="userSpaceOnUse"><stop offset="0" stop-color="#ffc300"/><stop offset="1" stop-color="#ffd02e"/></linearGradient><linearGradient id="linear-gradient-3" x1="223.9827" y1="188.46898" x2="295.547" y2="162.90486" gradientUnits="userSpaceOnUse"><stop offset="0" stop-color="#ffc300"/><stop offset="1" stop-color="#ffd02e"/></linearGradient></defs><path class="cls-2" d="m165.54239,110.60568c68.78516-2.88562,137.57031-5.7713,206.35547-8.65692-21.45178,52.21899-42.90369,104.43793-64.35547,156.65692-33.66669,1-67.33331,2-101,3-10.35437,57.66669-20.7088,115.33337-31.06317,173h-53.90491c14.65601-108,29.31207-216,43.96808-324Z"/><path class="cls-1" d="m344.0541,339.60568h-75.38458c2.62427,18.66669,5.2486,37.33337,7.87286,56,41.50421-4.34802,83.00842-8.69592,124.5127-13.04395,1.49573,18.34802,2.99158,36.69592,4.4873,55.04395-65.66669-.66663-131.33331-1.33337-197-2,9.01501-45.17053,18.03009-90.341,27.0451-135.51147l107.9549-5.96747.51172,45.47894Z"/><polygon class="cls-3" points="232.20363 159.0042 219.54237 193.734 274.22012 197.05133 293.37474 153.89464 232.20363 159.0042"/></svg>