<svg width="362" height="362" viewBox="0 0 362 362" fill="none" xmlns="http://www.w3.org/2000/svg">
<circle cx="180.5" cy="181.5" r="153.5" fill="white"/>
<path d="M169.367 118.402C168.472 118.402 167.726 118.029 167.13 117.282C166.533 116.536 166.235 115.789 166.235 115.043C166.235 114.445 166.309 114.072 166.459 113.923L178.092 83.0157C178.539 81.6719 179.509 81 181 81C182.491 81 183.461 81.6719 183.908 83.0157L195.318 113.923L195.541 115.043C195.541 115.789 195.243 116.536 194.647 117.282C194.05 118.029 193.304 118.402 192.409 118.402H169.367ZM126.414 145.726C125.072 145.726 124.028 145.054 123.282 143.71L109.635 113.923C109.337 113.325 109.188 112.878 109.188 112.579C109.188 111.384 109.561 110.563 110.306 110.115C111.052 109.518 111.798 109.219 112.544 109.219C112.842 109.219 113.066 109.294 113.215 109.443C113.513 109.443 113.737 109.443 113.886 109.443L143.64 123.329C144.982 123.926 145.653 124.897 145.653 126.241C145.653 127.286 145.355 128.032 144.758 128.48L128.427 144.606C127.98 145.352 127.309 145.726 126.414 145.726ZM236.257 145.726C235.213 145.726 234.169 145.352 233.125 144.606L217.242 128.48C216.496 128.032 216.123 127.286 216.123 126.241C216.123 124.897 216.794 123.926 218.136 123.329L248.114 109.443C248.263 109.443 248.412 109.443 248.562 109.443C248.86 109.294 249.084 109.219 249.233 109.219C251.47 109.219 252.588 110.339 252.588 112.579C252.588 112.878 252.514 113.102 252.365 113.251L252.141 113.923L238.494 143.71C237.749 144.904 237.003 145.576 236.257 145.726ZM181 233.968C171.306 233.968 162.432 231.579 154.378 226.801C146.324 222.023 139.911 215.602 135.139 207.54C130.366 199.477 127.98 190.593 127.98 180.888C127.98 171.034 130.366 162.15 135.139 154.236C139.911 146.174 146.324 139.828 154.378 135.199C162.432 130.421 171.306 128.032 181 128.032C190.694 128.032 199.494 130.421 207.398 135.199C215.452 139.828 221.865 146.174 226.638 154.236C231.559 162.15 234.02 171.034 234.02 180.888C234.02 190.742 231.559 199.701 226.638 207.764C221.865 215.677 215.452 222.023 207.398 226.801C199.494 231.579 190.694 233.968 181 233.968ZM181 220.754C188.308 220.754 194.945 218.962 200.911 215.378C206.876 211.795 211.649 207.017 215.228 201.045C218.957 194.923 220.821 188.204 220.821 180.888C220.821 173.572 218.957 166.928 215.228 160.955C211.649 154.983 206.876 150.205 200.911 146.621C194.945 143.038 188.308 141.246 181 141.246C173.692 141.246 166.981 143.038 160.866 146.621C154.9 150.205 150.128 154.983 146.548 160.955C142.969 166.928 141.179 173.572 141.179 180.888C141.179 188.204 142.969 194.923 146.548 201.045C150.128 207.017 154.9 211.795 160.866 215.378C166.981 218.962 173.692 220.754 181 220.754ZM115.004 195.67L113.886 195.446L83.0134 184.024C81.6711 183.576 81 182.53 81 180.888C81 179.395 81.6711 178.424 83.0134 177.976L114.557 166.33H115.004C117.092 166.33 118.136 167.45 118.136 169.69V192.31C118.136 194.55 117.092 195.67 115.004 195.67ZM246.772 195.67C244.684 195.67 243.64 194.55 243.64 192.31V169.69C243.64 167.45 244.609 166.33 246.548 166.33C247.145 166.33 247.592 166.405 247.89 166.554L278.763 177.976C280.254 178.574 281 179.544 281 180.888C281 182.381 280.254 183.426 278.763 184.024L247.89 195.446L246.772 195.67ZM112.544 252.781C110.306 252.781 109.188 251.661 109.188 249.421L109.412 248.749C109.412 248.451 109.486 248.227 109.635 248.077L123.282 218.066C124.028 216.872 124.997 216.274 126.19 216.274C127.085 216.274 127.831 216.573 128.427 217.17L144.758 233.52C145.355 233.968 145.653 234.714 145.653 235.759C145.653 237.103 144.982 238.074 143.64 238.671L113.886 252.333C113.289 252.631 112.842 252.781 112.544 252.781ZM249.233 252.781C249.084 252.781 248.711 252.631 248.114 252.333L218.136 238.671C216.794 237.924 216.123 236.954 216.123 235.759C216.123 234.714 216.496 233.968 217.242 233.52L233.125 217.17C234.02 216.573 234.84 216.274 235.586 216.274C236.779 216.274 237.749 216.872 238.494 218.066L252.141 248.077L252.365 248.749C252.365 249.048 252.439 249.272 252.588 249.421C252.588 251.661 251.47 252.781 249.233 252.781ZM181 281C179.509 281 178.539 280.328 178.092 278.984L166.459 248.077C166.459 247.779 166.384 247.405 166.235 246.957C166.235 244.718 167.279 243.598 169.367 243.598H192.409C193.155 243.598 193.826 243.971 194.423 244.718C195.169 245.315 195.541 246.062 195.541 246.957C195.541 247.555 195.467 247.928 195.318 248.077L183.908 278.984C183.461 280.328 182.491 281 181 281Z" fill="black"/>
</svg>
