<svg width="512" height="512" viewBox="0 0 512 512" fill="none" xmlns="http://www.w3.org/2000/svg">
<g clip-path="url(#clip0_102_26)">
<path d="M250.491 451.431C359.515 451.431 447.896 363.05 447.896 254.026C447.896 145.002 359.515 56.6213 250.491 56.6213C141.467 56.6213 53.0862 145.002 53.0862 254.026C53.0862 363.05 141.467 451.431 250.491 451.431Z" fill="white"/>
<path opacity="0.599652" d="M279.647 24.272L459.754 155.182C477.321 167.95 484.672 190.576 477.964 211.231L409.16 423.072C402.449 443.735 383.195 457.725 361.47 457.725H138.862C117.137 457.725 97.8828 443.735 91.1718 423.072L22.3685 211.231C15.66 190.576 23.0107 167.95 40.5776 155.182L220.685 24.272C238.263 11.496 262.069 11.496 279.647 24.272ZM250.345 59.028C142.447 59.028 54.9776 146.533 54.9776 254.476C54.9776 362.418 142.447 449.923 250.345 449.923C358.244 449.923 445.713 362.418 445.713 254.476C445.713 146.533 358.244 59.028 250.345 59.028Z" fill="url(#paint0_linear_102_26)"/>
<path d="M339.471 40.9169L479.559 213.981C493.223 230.861 494.467 254.618 482.641 272.833L361.354 459.649C349.524 477.871 327.305 486.401 306.32 480.778L91.2967 423.163C70.3118 417.54 55.3351 399.043 54.2007 377.348L42.5704 154.917C41.4365 133.229 54.3926 113.277 74.6657 105.49L282.518 25.6566C302.803 17.8653 325.799 24.0268 339.471 40.9169ZM302.172 66.9049C197.95 38.9787 90.8134 100.863 62.8758 205.128C34.9381 309.393 96.7788 416.555 201.001 444.481C305.223 472.407 412.359 410.522 440.297 306.258C468.235 201.993 406.394 94.8311 302.172 66.9049Z" fill="url(#paint1_linear_102_26)"/>
<path d="M391.226 69.1999L481.749 272.625C490.578 292.466 485.631 315.736 469.494 330.269L303.988 479.328C287.844 493.867 264.175 496.356 245.36 485.493L52.5757 374.189C33.7612 363.326 24.0822 341.583 28.6016 320.334L74.937 102.472C79.4548 81.2297 97.1335 65.3106 118.731 63.0363L340.164 39.7192C361.774 37.4436 382.391 49.3468 391.226 69.1999ZM348.472 84.6487C255.029 30.6995 135.526 62.7464 81.5548 156.228C27.5834 249.709 59.5814 369.225 153.024 423.174C246.467 477.123 365.97 445.076 419.941 351.595C473.913 258.114 441.915 138.598 348.472 84.6487Z" fill="url(#paint2_linear_102_26)"/>
<path d="M179.278 297.68V287.081L164.379 285.264V209.494L131.672 215.429V225.544H146.754V285.264L131.854 287.081V297.68H179.278ZM222.1 298.952C228.641 298.952 234.354 297.962 239.24 295.984C244.126 294.005 247.922 291.189 250.627 287.535C253.332 283.881 254.685 279.55 254.685 274.543C254.685 267.315 252.171 261.481 247.144 257.039C242.117 252.597 234.738 249.024 225.007 246.319C220.484 244.825 216.941 243.422 214.377 242.109C211.813 240.797 209.986 239.404 208.896 237.93C207.806 236.456 207.261 234.73 207.261 232.752C207.261 230.45 207.886 228.492 209.138 226.877C210.39 225.261 212.096 224.03 214.256 223.182C216.416 222.334 218.91 221.91 221.736 221.91C225.047 221.91 228.005 222.273 230.609 223C233.214 223.727 235.283 224.575 236.817 225.544L239.119 237.658H252.383V217.791C248.588 214.763 244.075 212.401 238.846 210.705C233.618 209.009 227.611 208.202 220.828 208.282C214.69 208.363 209.28 209.453 204.596 211.553C199.912 213.653 196.247 216.53 193.603 220.184C190.958 223.838 189.635 228.047 189.635 232.812C189.635 237.617 190.776 241.726 193.058 245.138C195.339 248.55 198.771 251.477 203.354 253.92C207.937 256.363 213.721 258.614 220.707 260.673C224.744 261.925 227.944 263.227 230.306 264.58C232.669 265.932 234.365 267.426 235.394 269.062C236.424 270.697 236.939 272.565 236.939 274.664C236.939 276.885 236.363 278.813 235.212 280.448C234.062 282.084 232.386 283.346 230.185 284.234C227.985 285.122 225.289 285.566 222.1 285.566C218.344 285.566 214.872 285.092 211.682 284.143C208.492 283.194 205.989 281.952 204.172 280.418L202.294 267.881H188.606V289.2C193.774 292.794 199.023 295.318 204.353 296.771C209.683 298.225 215.599 298.952 222.1 298.952ZM293.327 298.952C299.747 298.952 305.259 297.539 309.862 294.712C314.465 291.886 317.998 287.959 320.461 282.932C322.924 277.905 324.156 272.12 324.156 265.579V264.307C324.156 257.766 322.924 251.992 320.461 246.985C317.998 241.978 314.465 238.051 309.862 235.205C305.259 232.358 299.707 230.935 293.206 230.935C286.786 230.935 281.264 232.358 276.641 235.205C272.017 238.051 268.474 241.988 266.011 247.015C263.548 252.042 262.316 257.806 262.316 264.307V265.579C262.316 272.12 263.548 277.905 266.011 282.932C268.474 287.959 272.027 291.886 276.671 294.712C281.314 297.539 286.866 298.952 293.327 298.952ZM293.327 285.385C290.218 285.385 287.674 284.567 285.695 282.932C283.717 281.296 282.273 278.985 281.365 275.997C280.456 273.009 280.002 269.536 280.002 265.579V264.307C280.002 260.431 280.456 257.009 281.365 254.041C282.273 251.073 283.717 248.751 285.695 247.076C287.674 245.4 290.177 244.562 293.206 244.562C296.315 244.562 298.849 245.4 300.807 247.076C302.765 248.751 304.209 251.073 305.138 254.041C306.066 257.009 306.531 260.431 306.531 264.307V265.579C306.531 269.536 306.066 272.999 305.138 275.966C304.209 278.934 302.775 281.246 300.837 282.901C298.899 284.557 296.396 285.385 293.327 285.385ZM364.615 297.68V287.081L356.075 285.264V203.195H328.94V213.855L338.389 215.672V285.264L329.849 287.081V297.68H364.615Z" fill="black"/>
<path d="M179.278 297.68V287.081L164.379 285.264V209.494L131.672 215.429V225.544H146.754V285.264L131.854 287.081V297.68H179.278ZM222.1 298.952C228.641 298.952 234.354 297.962 239.24 295.984C244.126 294.005 247.922 291.189 250.627 287.535C253.332 283.881 254.685 279.55 254.685 274.543C254.685 267.315 252.171 261.481 247.144 257.039C242.117 252.597 234.738 249.024 225.007 246.319C220.484 244.825 216.941 243.422 214.377 242.109C211.813 240.797 209.986 239.404 208.896 237.93C207.806 236.456 207.261 234.73 207.261 232.752C207.261 230.45 207.886 228.492 209.138 226.877C210.39 225.261 212.096 224.03 214.256 223.182C216.416 222.334 218.91 221.91 221.736 221.91C225.047 221.91 228.005 222.273 230.609 223C233.214 223.727 235.283 224.575 236.817 225.544L239.119 237.658H252.383V217.791C248.588 214.763 244.075 212.401 238.846 210.705C233.618 209.009 227.611 208.202 220.828 208.282C214.69 208.363 209.28 209.453 204.596 211.553C199.912 213.653 196.247 216.53 193.603 220.184C190.958 223.838 189.635 228.047 189.635 232.812C189.635 237.617 190.776 241.726 193.058 245.138C195.339 248.55 198.771 251.477 203.354 253.92C207.937 256.363 213.721 258.614 220.707 260.673C224.744 261.925 227.944 263.227 230.306 264.58C232.669 265.932 234.365 267.426 235.394 269.062C236.424 270.697 236.939 272.565 236.939 274.664C236.939 276.885 236.363 278.813 235.212 280.448C234.062 282.084 232.386 283.346 230.185 284.234C227.985 285.122 225.289 285.566 222.1 285.566C218.344 285.566 214.872 285.092 211.682 284.143C208.492 283.194 205.989 281.952 204.172 280.418L202.294 267.881H188.606V289.2C193.774 292.794 199.023 295.318 204.353 296.771C209.683 298.225 215.599 298.952 222.1 298.952ZM293.327 298.952C299.747 298.952 305.259 297.539 309.862 294.712C314.465 291.886 317.998 287.959 320.461 282.932C322.924 277.905 324.156 272.12 324.156 265.579V264.307C324.156 257.766 322.924 251.992 320.461 246.985C317.998 241.978 314.465 238.051 309.862 235.205C305.259 232.358 299.707 230.935 293.206 230.935C286.786 230.935 281.264 232.358 276.641 235.205C272.017 238.051 268.474 241.988 266.011 247.015C263.548 252.042 262.316 257.806 262.316 264.307V265.579C262.316 272.12 263.548 277.905 266.011 282.932C268.474 287.959 272.027 291.886 276.671 294.712C281.314 297.539 286.866 298.952 293.327 298.952ZM293.327 285.385C290.218 285.385 287.674 284.567 285.695 282.932C283.717 281.296 282.273 278.985 281.365 275.997C280.456 273.009 280.002 269.536 280.002 265.579V264.307C280.002 260.431 280.456 257.009 281.365 254.041C282.273 251.073 283.717 248.751 285.695 247.076C287.674 245.4 290.177 244.562 293.206 244.562C296.315 244.562 298.849 245.4 300.807 247.076C302.765 248.751 304.209 251.073 305.138 254.041C306.066 257.009 306.531 260.431 306.531 264.307V265.579C306.531 269.536 306.066 272.999 305.138 275.966C304.209 278.934 302.775 281.246 300.837 282.901C298.899 284.557 296.396 285.385 293.327 285.385ZM364.615 297.68V287.081L356.075 285.264V203.195H328.94V213.855L338.389 215.672V285.264L329.849 287.081V297.68H364.615Z" fill="black"/>
</g>
<defs>
<linearGradient id="paint0_linear_102_26" x1="250.166" y1="457.725" x2="250.166" y2="14.9706" gradientUnits="userSpaceOnUse">
<stop stop-color="#01FFAC" stop-opacity="0.994865"/>
<stop offset="0.999683" stop-color="#CE07FF" stop-opacity="0.502158"/>
</linearGradient>
<linearGradient id="paint1_linear_102_26" x1="198.808" y1="451.971" x2="313.184" y2="25.1143" gradientUnits="userSpaceOnUse">
<stop stop-color="#01FFAC" stop-opacity="0.503223"/>
<stop offset="0.999683" stop-color="#CE07FF"/>
</linearGradient>
<linearGradient id="paint2_linear_102_26" x1="148.968" y1="429.841" x2="370.416" y2="46.2828" gradientUnits="userSpaceOnUse">
<stop stop-color="#01FFAC" stop-opacity="0.994865"/>
<stop offset="1" stop-color="#CE07FF" stop-opacity="0.502458"/>
</linearGradient>
<clipPath id="clip0_102_26">
<rect width="512" height="512" fill="white"/>
</clipPath>
</defs>
</svg>
