<svg width="32" height="32" viewBox="0 0 32 32" fill="none" xmlns="http://www.w3.org/2000/svg">
<path d="M21.7407 8.01962C21.1996 7.88502 20.6951 7.63362 20.2628 7.28326C19.8305 6.9329 19.4811 6.49219 19.2395 5.99244C18.8288 5.14444 18.3661 4.32239 17.8538 3.53095C17.4803 2.95917 16.9408 2.51378 16.3069 2.25388C15.673 1.99398 14.9746 1.93184 14.3043 2.07571C11.0952 2.7624 8.22084 4.52474 6.16286 7.06748C4.10489 9.61022 2.98828 12.7789 3.00009 16.0427C3.0119 19.3065 4.15142 22.4671 6.22774 24.995C8.30407 27.523 11.1911 29.2647 14.4051 29.9284C15.0745 30.0681 15.7707 30.0024 16.4017 29.7399C17.0327 29.4774 17.5686 29.0305 17.9385 28.4585C18.443 27.6674 18.8981 26.8463 19.3013 25.9997C19.5406 25.4979 19.888 25.0547 20.3189 24.7013C20.7497 24.348 21.2535 24.0932 21.7944 23.9551C23.5748 23.4996 25.1515 22.4669 26.2754 21.0205C27.3993 19.574 28.0061 17.7964 28 15.9686C27.9938 14.1408 27.375 12.3672 26.2413 10.9283C25.1077 9.48939 23.524 8.46729 21.7407 8.02363V8.01962ZM20.2865 22.5854C20.1457 22.9861 19.8644 23.323 19.4942 23.5343C19.1239 23.7456 18.6895 23.8172 18.2704 23.736C16.4661 23.3846 14.8407 22.4208 13.6722 21.0094C12.5038 19.598 11.8649 17.8268 11.8649 15.9987C11.8649 14.1707 12.5038 12.3994 13.6722 10.988C14.8407 9.57666 16.4661 8.61284 18.2704 8.26149C18.6895 8.17995 19.1241 8.25141 19.4944 8.46276C19.8647 8.6741 20.1459 9.01116 20.2865 9.41205C21.7897 13.676 21.7897 18.3215 20.2865 22.5854V22.5854Z" fill="url(#paint0_linear_5407_6471)"/>
<mask id="mask0_5407_6471" style="mask-type:alpha" maskUnits="userSpaceOnUse" x="3" y="2" width="25" height="28">
<path d="M21.7407 8.01962C21.1996 7.88502 20.6951 7.63362 20.2628 7.28326C19.8305 6.9329 19.4811 6.49219 19.2395 5.99244C18.8288 5.14444 18.3661 4.32239 17.8538 3.53095C17.4803 2.95917 16.9408 2.51378 16.3069 2.25388C15.673 1.99398 14.9746 1.93184 14.3043 2.07571C11.0952 2.7624 8.22084 4.52474 6.16286 7.06748C4.10489 9.61022 2.98828 12.7789 3.00009 16.0427C3.0119 19.3065 4.15142 22.4671 6.22774 24.995C8.30407 27.523 11.1911 29.2647 14.4051 29.9284C15.0745 30.0681 15.7707 30.0024 16.4017 29.7399C17.0327 29.4774 17.5686 29.0305 17.9385 28.4585C18.443 27.6674 18.8981 26.8463 19.3013 25.9997C19.5406 25.4979 19.888 25.0547 20.3189 24.7013C20.7497 24.348 21.2535 24.0932 21.7944 23.9551C23.5748 23.4996 25.1515 22.4669 26.2754 21.0205C27.3993 19.574 28.0061 17.7964 28 15.9686C27.9938 14.1408 27.375 12.3672 26.2413 10.9283C25.1077 9.48939 23.524 8.46729 21.7407 8.02363V8.01962ZM20.2865 22.5854C20.1457 22.9861 19.8644 23.323 19.4942 23.5343C19.1239 23.7456 18.6895 23.8172 18.2704 23.736C16.4661 23.3846 14.8407 22.4208 13.6722 21.0094C12.5038 19.598 11.8649 17.8268 11.8649 15.9987C11.8649 14.1707 12.5038 12.3994 13.6722 10.988C14.8407 9.57666 16.4661 8.61284 18.2704 8.26149C18.6895 8.17995 19.1241 8.25141 19.4944 8.46276C19.8647 8.6741 20.1459 9.01116 20.2865 9.41205C21.7897 13.676 21.7897 18.3215 20.2865 22.5854V22.5854Z" fill="#00C2FF"/>
</mask>
<g mask="url(#mask0_5407_6471)">
<ellipse cx="-2.3868" cy="15.9889" rx="23.7762" ry="23.8746" fill="url(#paint1_radial_5407_6471)"/>
</g>
<defs>
<linearGradient id="paint0_linear_5407_6471" x1="23.5556" y1="2.38889" x2="-1.09892" y2="19.2223" gradientUnits="userSpaceOnUse">
<stop stop-color="#A984F8"/>
<stop offset="1" stop-color="#E465B9"/>
</linearGradient>
<radialGradient id="paint1_radial_5407_6471" cx="0" cy="0" r="1" gradientUnits="userSpaceOnUse" gradientTransform="translate(21.3894 15.9889) rotate(-180) scale(18.3894 18.4655)">
<stop offset="0.185826" stop-color="#4D0685"/>
<stop offset="0.92791" stop-color="#B081F2"/>
</radialGradient>
</defs>
</svg>
