<svg xmlns="http://www.w3.org/2000/svg" xmlns:xlink="http://www.w3.org/1999/xlink" viewBox="0 0 383.44 442.74"><defs><style>.cls-1{fill:url(#linear-gradient);}.cls-2{fill:url(#linear-gradient-2);}.cls-3{fill:url(#linear-gradient-3);}</style><linearGradient id="linear-gradient" x1="-37.1" y1="352.02" x2="390.32" y2="107.28" gradientUnits="userSpaceOnUse"><stop offset="0" stop-color="#64ffbe"/><stop offset="0.64" stop-color="#88a4e9"/><stop offset="1" stop-color="#9a76ff"/></linearGradient><linearGradient id="linear-gradient-2" x1="19.6" y1="451.03" x2="447.01" y2="206.29" xlink:href="#linear-gradient"/><linearGradient id="linear-gradient-3" x1="-36.94" y1="352.3" x2="390.47" y2="107.56" xlink:href="#linear-gradient"/></defs><g id="Layer_2" data-name="Layer 2"><g id="Layer_1-2" data-name="Layer 1"><polygon class="cls-1" points="383.44 110.67 383.44 332.06 348.58 352.18 348.58 130.81 331.15 120.75 313.72 110.67 296.29 100.61 278.87 90.55 226.58 60.38 209.15 50.29 191.72 40.24 174.29 50.29 156.86 60.38 104.57 90.55 87.14 100.61 69.72 110.67 52.29 120.75 34.86 130.81 34.86 352.18 0 332.06 0 110.67 17.43 100.61 34.86 90.55 69.72 70.44 87.14 60.38 104.57 50.29 174.29 10.06 191.72 0 278.87 50.29 296.29 60.38 348.58 90.55 366.01 100.61 383.44 110.67"/><polygon class="cls-2" points="313.72 332.06 313.72 372.3 296.29 382.38 278.87 392.44 261.44 402.5 191.72 442.74 174.29 432.68 122 402.5 104.57 392.44 87.14 382.38 69.72 372.3 69.72 332.06 87.14 342.12 104.57 352.18 122 362.26 174.29 392.44 191.72 402.5 209.15 392.44 261.44 362.26 278.87 352.18 296.29 342.12 313.72 332.06"/><polygon class="cls-3" points="313.72 150.93 313.72 291.8 296.29 301.86 278.87 311.92 261.44 322 209.15 352.18 209.15 251.57 191.72 241.51 174.29 231.43 139.43 211.31 139.43 150.93 104.57 171.05 104.57 271.69 139.43 291.8 139.43 251.57 174.29 271.69 174.29 352.18 122 322 104.57 311.92 87.14 301.86 69.72 291.8 69.72 150.93 87.14 140.87 122 120.75 139.43 110.67 156.86 100.61 174.29 90.55 174.29 191.19 191.72 201.25 244.01 231.43 244.01 291.8 278.87 271.69 278.87 171.05 244.01 150.93 244.01 191.19 226.58 181.13 209.15 171.05 209.15 90.55 226.58 100.61 244.01 110.67 261.44 120.75 278.87 130.81 296.29 140.87 313.72 150.93"/></g></g></svg>