<?xml version="1.0" encoding="UTF-8"?>
<svg id="Layer_1" data-name="Layer 1" xmlns="http://www.w3.org/2000/svg" xmlns:xlink="http://www.w3.org/1999/xlink" viewBox="0 0 335.77 299.86">
  <defs>
    <style>
      .cls-1 {
        fill: url(#linear-gradient);
      }
    </style>
    <linearGradient id="linear-gradient" x1="251.07" y1="89.65" x2="78.12" y2="213.19" gradientUnits="userSpaceOnUse">
      <stop offset="0" stop-color="#1efa9b"/>
      <stop offset=".44" stop-color="#5c8ed8"/>
      <stop offset="1" stop-color="#9846ff"/>
    </linearGradient>
  </defs>
  <path class="cls-1" d="m262.92,149.94c0,53.16-43.09,96.26-96.25,96.26-45.74,0-83.49-31.32-93.75-74.61-.51-2.14,1.79-3.83,3.68-2.71,23.07,13.66,41.51,45.28,90.07,45.28,44.19,0,75.95-27.76,81-58.4-.03-.21-.02-.51.04-.89.78-4.9-4.37-5.94-7.5-3.96-3.13,1.98-50.85,31.84-73.53,31.71-20.08-.12-61.65-25.43-77.3-34.36-15.66-8.93-16.78-21.1-12.29-33.44.52-1.37,1.06-2.71,1.64-4.02,17.97-41.38,59.78-57.91,87.95-57.11,23.32.66,41.05,6.93,56.68,18.44,1.7,1.25,1.75,3.79.1,5.11,0,0-47.65,40.85-56.91,40.85s-48.39-35.54-49-36.03c-2.28-1.82-5.61-1.39-7.35.95-3.48,4.65-12.22,20.91-.36,29.94,4.69,3.58,48.76,36.95,56.84,36.95,9.78,0,65.1-41.17,65.1-41.17,12.07-7.73,18.05-6.49,21.17-1.26,8.73,17.59,9.98,31.73,9.98,42.47Z"/>
</svg>
